<svg xmlns="http://www.w3.org/2000/svg" width="165" height="222" viewBox="0 0 165 222">
  <defs>
    <style>
      .cls-1 {
        fill-rule: evenodd;
      }
    </style>
  </defs>
  <path class="cls-1" d="M59.265,15.564q-0.652.772-1.246,1.573l-0.215.3q-0.542.75-1.029,1.524L56.62,19.2c-0.345.558-.666,1.126-0.971,1.7l-0.217.416c-0.294.574-.574,1.154-0.831,1.745l-0.114.278q-0.334.793-.621,1.6l-0.153.426q-0.3.878-.541,1.769l-0.13.5c-0.14.548-.268,1.1-0.378,1.654l-0.072.362c-0.1.537-.181,1.078-0.251,1.616q-0.034.262-.063,0.524c-0.067.593-.124,1.188-0.157,1.784a30.581,30.581,0,0,0,3.547,16.063,0.481,0.481,0,0,0,.087.117,0.5,0.5,0,0,0,.792-0.118A29.354,29.354,0,0,1,90.085,35.05Q91,35.3,91.91,35.6a0.5,0.5,0,0,0,.433-0.056,33,33,0,0,1,19.465-5.46,0.559,0.559,0,0,0,.382-0.253,0.68,0.68,0,0,0,.1-0.5c-0.148-.758-0.289-1.384-0.445-1.972A30.367,30.367,0,0,0,60.976,13.692c-0.449.45-.9,0.942-1.427,1.545ZM112.286,97.74h0l0.072-.394c0.09-.491.166-0.985,0.231-1.482l0.065-.491c0.071-.618.128-1.238,0.162-1.859a30.283,30.283,0,0,0-3.54-16.069,0.5,0.5,0,0,0-.88,0A29.335,29.335,0,0,1,73.044,91.479a0.5,0.5,0,0,0-.433.056,33.154,33.154,0,0,1-19.484,5.458,0.5,0.5,0,0,0-.506.6l0.048,0.224c0.108,0.543.233,1.083,0.382,1.668l0.124,0.471q0.242,0.882.537,1.754l0.158,0.44c0.19,0.53.394,1.059,0.614,1.581l0.121,0.294c0.255,0.586.534,1.163,0.826,1.737l0.22,0.421c0.3,0.573.625,1.14,0.97,1.7l0.153,0.236c0.325,0.517.669,1.023,1.028,1.523l0.217,0.305q0.593,0.8,1.246,1.573l0.281,0.324c0.527,0.606.981,1.1,1.43,1.548a30.382,30.382,0,0,0,50.865-13.675C112,99.13,112.137,98.5,112.286,97.74ZM68.869,89.994a0.5,0.5,0,0,0-.263-0.441A29.549,29.549,0,0,1,54.623,54.083a0.5,0.5,0,0,0-.056-0.434,33.4,33.4,0,0,1-5.444-19.531,0.533,0.533,0,0,0-.2-0.389,0.558,0.558,0,0,0-.444-0.109l-0.1.019c-0.764.15-1.388,0.292-1.963,0.446a30.356,30.356,0,0,0-13.633,7.89,30.572,30.572,0,0,0,0,43.13c0.449,0.45.939,0.906,1.543,1.435l0.322,0.28q0.768,0.653,1.569,1.249l0.3,0.219q0.746,0.54,1.515,1.029l0.239,0.155c0.556,0.346,1.121.667,1.692,0.972l0.421,0.221c0.571,0.293,1.146.573,1.731,0.829l0.29,0.12c0.522,0.222,1.05.427,1.583,0.619l0.433,0.156q0.869,0.3,1.751.54l0.515,0.135c0.538,0.138,1.079.264,1.621,0.372l0.419,0.082q0.777,0.143,1.559.244l0.535,0.066c0.583,0.066,1.166.122,1.75,0.155l0.02,0a30.339,30.339,0,0,0,16.013-3.55A0.5,0.5,0,0,0,68.869,89.994ZM96.338,36.657a0.5,0.5,0,0,0,0,.882,29.332,29.332,0,0,1,6.932,5.142,29.668,29.668,0,0,1,7.608,28.49q-0.246.922-.553,1.832a0.505,0.505,0,0,0,.056.434,33.245,33.245,0,0,1,5.442,19.541,0.5,0.5,0,0,0,.146.37L116,93.375a0.5,0.5,0,0,0,.419.11l0.2-.041c0.556-.111,1.108-0.24,1.659-0.382l0.49-.129q0.889-.245,1.767-0.544l0.419-.151c0.54-.194,1.075-0.4,1.606-0.628l0.273-.112c0.586-.257,1.165-0.538,1.738-0.834l0.414-.217c0.573-.307,1.141-0.629,1.7-0.976l0.231-.151q0.775-.49,1.525-1.035l0.3-.215c0.521-.386,1.05-0.807,1.571-1.251l0.325-.282c0.6-.528,1.093-0.983,1.542-1.434a30.508,30.508,0,0,0-13.633-51.02c-0.575-.155-1.2-0.3-1.964-0.446l-0.4-.075c-0.487-.089-0.977-0.165-1.469-0.23l-0.5-.065c-0.617-.072-1.236-0.13-1.855-0.164A30.044,30.044,0,0,0,96.338,36.657ZM92.266,67.873l1.619,0.338a2.206,2.206,0,0,0,2.317-2l0.879-4.239A2.213,2.213,0,0,0,95.754,59.2l-1.619-.338a2.206,2.206,0,0,0-2.317,2l-0.879,4.239A2.213,2.213,0,0,0,92.266,67.873Zm-19.581,0-1.619.338a2.206,2.206,0,0,1-2.316-2L67.87,61.969A2.213,2.213,0,0,1,69.2,59.2l1.619-.338a2.206,2.206,0,0,1,2.316,2l0.879,4.239A2.213,2.213,0,0,1,72.685,67.873Zm-28.618,71.4a3.388,3.388,0,0,1,1.811,1.26,3.311,3.311,0,0,1,.7,2.079v35.212a3.446,3.446,0,1,1-6.892,0V155.032L28.793,173.078v0.029l-0.029.029-0.029.029-0.029.03c-0.058.1-.1,0.166-0.117,0.205l-0.088.117-0.146.146-0.117.118-0.117.117a1.652,1.652,0,0,1-.175.146l-0.088.088a1.759,1.759,0,0,1-.2.117,0.026,0.026,0,0,1-.029.03l-0.029.029H27.566a0.626,0.626,0,0,1-.2.117c-0.078.04-.107,0.059-0.088,0.059a0.8,0.8,0,0,0-.175.058,3.145,3.145,0,0,1-1.4.264H25.638c0.039,0,0-.01-0.117-0.029a3.452,3.452,0,0,1-.759-0.147,0.237,0.237,0,0,1-.117-0.029c0.039,0.019,0,.01-0.117-0.029-0.1-.039-0.166-0.069-0.2-0.088,0.019,0,0-.019-0.059-0.059a1.293,1.293,0,0,1-.234-0.117H24l-0.029-.029-0.029-.03a0.79,0.79,0,0,1-.2-0.146c0,0.019-.029,0-0.087-0.059a1.634,1.634,0,0,1-.175-0.146l-0.117-.117-0.117-.118a0.508,0.508,0,0,0-.146-0.146,0.307,0.307,0,0,1-.058-0.117,1.119,1.119,0,0,1-.146-0.205l-0.029-.03a0.026,0.026,0,0,0-.029-0.029v-0.029a0.026,0.026,0,0,0-.029-0.029L11.941,155.032v22.791a3.267,3.267,0,0,1-1.022,2.432,3.339,3.339,0,0,1-2.453,1.025,3.244,3.244,0,0,1-2.424-1.025,3.267,3.267,0,0,1-1.022-2.432V142.611a3.311,3.311,0,0,1,.7-2.079,3.388,3.388,0,0,1,1.84-1.26,3.458,3.458,0,0,1,3.884,1.552l14.369,23.817,14.369-23.817a3.337,3.337,0,0,1,1.665-1.435l1.081-.41Zm41.372,35.065a3.245,3.245,0,0,1,2.424,1.026,3.36,3.36,0,0,1,1.022,2.46,3.5,3.5,0,0,1-3.446,3.457H64.294a3.5,3.5,0,0,1-3.446-3.457V142.7a3.3,3.3,0,0,1,1.022-2.46,3.245,3.245,0,0,1,2.424-1.026h0.029l21.115,0.059a3.343,3.343,0,0,1,2.453,1.025,3.413,3.413,0,0,1,.993,2.461,3.5,3.5,0,0,1-3.446,3.457H85.41l-17.64-.059V156.79H80.5a3.457,3.457,0,1,1,0,6.913H67.77v10.634H85.439ZM130.4,151.429a11.245,11.245,0,0,1-2.395,7,12.538,12.538,0,0,1-6.074,4.424l6.629,13.475a3.5,3.5,0,0,1-1.577,4.6,3.453,3.453,0,0,1-1.519.352,3.174,3.174,0,0,1-3.066-1.933l-7.74-15.732h-5.928v13.974a3.328,3.328,0,0,1-1.022,2.431,3.293,3.293,0,0,1-2.424,1,3.4,3.4,0,0,1-3.417-3.427V142.67a3.447,3.447,0,0,1,3.417-3.457h12.091a12.935,12.935,0,0,1,9.2,3.574A11.4,11.4,0,0,1,130.4,151.429Zm-12.792,5.3a6.567,6.567,0,0,0,4.206-1.611,4.832,4.832,0,0,0-.088-7.47,6.462,6.462,0,0,0-4.351-1.553h-8.645v10.634h8.878Zm33.937-13.973a3.495,3.495,0,0,1,3.475-3.486,3.248,3.248,0,0,1,2.424,1.025,3.364,3.364,0,0,1,1.022,2.461v25.779a12.682,12.682,0,0,1-12.7,12.743,3.5,3.5,0,0,1-3.446-3.457,3.358,3.358,0,0,1,1.022-2.46,3.245,3.245,0,0,1,2.424-1.026,5.792,5.792,0,0,0,5.783-5.8V142.758ZM26.3,194.084a1.846,1.846,0,0,1,.988.687,1.809,1.809,0,0,1,.383,1.135v19.208a1.88,1.88,0,1,1-3.761,0V202.682l-5.942,9.843v0.016l-0.016.017-0.017.016-0.016.015c-0.032.054-.053,0.091-0.063,0.112l-0.049.064c-0.042.043-.069,0.069-0.079,0.08l-0.064.064c-0.032.032-.053,0.053-0.063,0.064a0.922,0.922,0,0,1-.1.08l-0.049.048a1.23,1.23,0,0,1-.111.064,0.014,0.014,0,0,1-.016.016l-0.017.016H17.3a0.342,0.342,0,0,1-.112.064c-0.043.021-.058,0.031-0.048,0.031a0.426,0.426,0,0,0-.1.033,1.72,1.72,0,0,1-.765.143H16.244c0.021,0,0,0-.064-0.016a1.824,1.824,0,0,1-.414-0.08,0.119,0.119,0,0,1-.064-0.016c0.021,0.011,0,.006-0.063-0.015s-0.091-.038-0.112-0.049c0.011,0,0-.01-0.032-0.031a0.69,0.69,0,0,1-.127-0.064H15.351l-0.015-.016-0.017-.016a0.457,0.457,0,0,1-.111-0.08c0,0.011-.016,0-0.048-0.032a0.761,0.761,0,0,1-.1-0.08L15,212.909c-0.032-.032-0.053-0.053-0.063-0.064a0.288,0.288,0,0,0-.08-0.08,0.163,0.163,0,0,1-.032-0.064,0.586,0.586,0,0,1-.08-0.112l-0.015-.015a0.014,0.014,0,0,0-.016-0.016v-0.017a0.015,0.015,0,0,0-.017-0.016l-5.927-9.843v12.432a1.782,1.782,0,0,1-.558,1.327A1.821,1.821,0,0,1,6.876,217,1.905,1.905,0,0,1,5,215.114V195.906a1.814,1.814,0,0,1,.382-1.135,1.848,1.848,0,0,1,1-.687,1.887,1.887,0,0,1,2.119.847l7.839,12.992,7.839-12.992a1.82,1.82,0,0,1,.907-0.783l0.59-.224Zm34.74,19.129a1.771,1.771,0,0,1,1.323.559,1.837,1.837,0,0,1,.557,1.342A1.905,1.905,0,0,1,61.037,217H49.5a1.905,1.905,0,0,1-1.88-1.886V195.953a1.8,1.8,0,0,1,.557-1.342,1.775,1.775,0,0,1,1.323-.559h0.016l11.519,0.032a1.823,1.823,0,0,1,1.339.56,1.86,1.86,0,0,1,.541,1.342,1.905,1.905,0,0,1-1.88,1.885H61.021L51.4,197.84v5.8h6.947a1.886,1.886,0,1,1,0,3.772H51.4v5.8h9.639ZM82.97,217a1.878,1.878,0,0,1-1.88-1.886V195.986a1.832,1.832,0,0,1,.557-1.342,1.8,1.8,0,0,1,1.323-.544H87.8a11.418,11.418,0,0,1,0,22.836L83,217H82.97Zm1.9-3.8,2.916-.048a7.639,7.639,0,0,0,.017-15.278H84.865V213.2Zm35.49,3.8a1.9,1.9,0,0,1-1.879-1.886V196.05a1.88,1.88,0,0,1,3.759,0v19.064A1.906,1.906,0,0,1,120.355,217Zm21.246-.144a1.849,1.849,0,0,1-1.019-1.022,1.87,1.87,0,0,1,0-1.439l2.023-4.874v-0.016l5.863-14.191a1.076,1.076,0,0,1,.08-0.159l0.031-.08a0.843,0.843,0,0,1,.065-0.08,0.215,0.215,0,0,1,.047-0.08l0.064-.064a0.158,0.158,0,0,1,.047-0.064,0.224,0.224,0,0,0,.065-0.08,0.624,0.624,0,0,1,.063-0.048,0.238,0.238,0,0,1,.08-0.064c-0.011,0,.01-0.015.064-0.048a0.8,0.8,0,0,0,.079-0.064l0.064-.047a0.357,0.357,0,0,1,.095-0.048c0.022-.011.059-0.027,0.112-0.048s0.068-.043.048-0.032l0.063-.032a0.536,0.536,0,0,0,.112-0.032,0.7,0.7,0,0,0,.111-0.032l0.065-.016a0.624,0.624,0,0,0,.11-0.016l0.08-.016h0.367l0.1,0.016,0.08,0.016a0.378,0.378,0,0,1,.11.032c0.065,0.011.085,0.016,0.065,0.016a1.3,1.3,0,0,1,.35.144c-0.01-.011.01,0,0.063,0.032a0.763,0.763,0,0,1,.1.063l0.064,0.048c0.042,0.033.069,0.054,0.08,0.064a0.151,0.151,0,0,1,.063.049,0.349,0.349,0,0,0,.08.063,0.148,0.148,0,0,0,.048.064,0.238,0.238,0,0,1,.063.08l0.048,0.064a0.215,0.215,0,0,1,.064.08,0.234,0.234,0,0,0,.048.08,0.223,0.223,0,0,1,.047.08,0.987,0.987,0,0,1,.08.159l5.863,14.191v0.016l2.024,4.874a1.888,1.888,0,0,1,0,1.439A1.887,1.887,0,0,1,158.075,217a1.736,1.736,0,0,1-1.737-1.166l-1.529-3.708h-9.224l-1.531,3.708A1.733,1.733,0,0,1,142.319,217h-0.367Zm11.663-8.486-3.076-7.414-3.058,7.414h6.134Z"/>
</svg>
