<svg xmlns="http://www.w3.org/2000/svg" width="314" height="128" viewBox="0 0 314 128">
  <defs>
    <style>
      .cls-1 {
        fill-rule: evenodd;
      }
    </style>
  </defs>
  <path class="cls-1" d="M40.206,15.556q-0.653.772-1.248,1.572l-0.216.3q-0.543.75-1.031,1.523l-0.155.239c-0.346.557-.667,1.125-0.973,1.7l-0.217.416c-0.3.574-.575,1.153-0.832,1.744l-0.114.277q-0.335.793-.623,1.6l-0.154.425q-0.3.877-.542,1.768l-0.13.5c-0.141.548-.269,1.1-0.379,1.653l-0.072.362c-0.1.537-.181,1.077-0.252,1.615-0.023.175-.044,0.349-0.063,0.524-0.067.593-.124,1.187-0.157,1.783A30.5,30.5,0,0,0,36.6,49.61a0.481,0.481,0,0,0,.087.117,0.5,0.5,0,0,0,.793-0.118A29.434,29.434,0,0,1,71.077,35.03q0.921,0.245,1.829.553a0.5,0.5,0,0,0,.434-0.056,33.119,33.119,0,0,1,19.5-5.456,0.557,0.557,0,0,0,.382-0.253,0.67,0.67,0,0,0,.1-0.5c-0.147-.758-0.289-1.383-0.446-1.97A30.448,30.448,0,0,0,41.92,13.685c-0.45.45-.9,0.941-1.429,1.544ZM93.316,97.68h0l0.072-.393c0.09-.491.166-0.985,0.232-1.481l0.064-.491c0.071-.618.129-1.237,0.163-1.858A30.2,30.2,0,0,0,90.3,77.4a0.5,0.5,0,0,0-.881,0A29.4,29.4,0,0,1,54.008,91.423a0.5,0.5,0,0,0-.434.056,33.267,33.267,0,0,1-19.517,5.454,0.5,0.5,0,0,0-.507.6L33.6,97.753c0.109,0.543.233,1.082,0.383,1.667l0.124,0.471q0.243,0.882.538,1.753l0.158,0.439c0.19,0.53.394,1.058,0.615,1.58l0.121,0.294c0.255,0.586.534,1.163,0.828,1.736l0.221,0.421c0.305,0.572.626,1.139,0.971,1.7l0.153,0.236q0.489,0.774,1.03,1.521l0.218,0.305q0.594,0.8,1.248,1.572l0.281,0.325c0.528,0.605.983,1.1,1.432,1.546A30.446,30.446,0,0,0,92.87,99.65C93.025,99.07,93.167,98.444,93.316,97.68Zm-43.49-7.741a0.5,0.5,0,0,0-.263-0.44A29.5,29.5,0,0,1,35.557,54.05a0.5,0.5,0,0,0-.056-0.434A33.321,33.321,0,0,1,30.047,34.1a0.531,0.531,0,0,0-.2-0.389A0.561,0.561,0,0,0,29.4,33.6l-0.1.019c-0.765.15-1.391,0.291-1.967,0.446A30.49,30.49,0,0,0,13.677,85.052c0.449,0.45.941,0.905,1.546,1.434l0.323,0.28q0.769,0.653,1.571,1.249l0.305,0.219q0.747,0.54,1.518,1.029l0.239,0.155c0.557,0.345,1.123.666,1.695,0.972L21.3,90.61c0.572,0.293,1.148.573,1.734,0.829l0.29,0.119c0.523,0.222,1.052.427,1.586,0.619l0.433,0.156q0.871,0.3,1.754.54l0.516,0.135c0.539,0.138,1.081.264,1.624,0.372l0.42,0.082q0.778,0.143,1.561.244l0.536,0.066c0.584,0.066,1.168.122,1.753,0.155l0.02,0a30.448,30.448,0,0,0,16.04-3.548A0.5,0.5,0,0,0,49.826,89.939Zm27.515-53.3a0.5,0.5,0,0,0,0,.881A29.416,29.416,0,0,1,91.906,71.128q-0.247.922-.553,1.83a0.5,0.5,0,0,0,.056.434A33.168,33.168,0,0,1,96.86,92.921a0.5,0.5,0,0,0,.146.37l0.029,0.027a0.5,0.5,0,0,0,.42.11l0.2-.041c0.556-.111,1.11-0.24,1.661-0.382l0.492-.129q0.89-.245,1.769-0.544l0.42-.151q0.811-.291,1.609-0.628l0.273-.112c0.587-.257,1.167-0.538,1.741-0.833l0.415-.216c0.574-.307,1.142-0.629,1.7-0.975l0.231-.151q0.777-.49,1.527-1.034l0.3-.215c0.522-.386,1.052-0.807,1.574-1.25l0.325-.282c0.6-.527,1.1-0.983,1.545-1.433A30.476,30.476,0,0,0,99.578,34.064c-0.576-.155-1.2-0.3-1.968-0.446l-0.405-.075c-0.489-.09-0.979-0.165-1.472-0.23l-0.5-.065c-0.618-.072-1.237-0.129-1.858-0.164A30.155,30.155,0,0,0,77.341,36.636Zm-4.079,31.2,1.622,0.338a2.209,2.209,0,0,0,2.32-2l0.881-4.236a2.21,2.21,0,0,0-1.329-2.763l-1.622-.338a2.209,2.209,0,0,0-2.32,2L71.933,65.07A2.21,2.21,0,0,0,73.263,67.832Zm-19.614,0-1.622.338a2.209,2.209,0,0,1-2.32-2l-0.881-4.236a2.21,2.21,0,0,1,1.329-2.763l1.622-.338a2.209,2.209,0,0,1,2.32,2l0.881,4.236A2.21,2.21,0,0,1,53.648,67.832ZM191.871,24.807a3.4,3.4,0,0,1,1.814,1.259,3.306,3.306,0,0,1,.7,2.079v35.19a3.307,3.307,0,0,1-1,2.43,3.459,3.459,0,0,1-4.915,0,3.306,3.306,0,0,1-.994-2.43V40.558L176.571,58.592v0.029l-0.029.029-0.03.029-0.029.029c-0.058.1-.1,0.166-0.117,0.2l-0.088.117c-0.078.078-.126,0.127-0.146,0.146l-0.117.117-0.117.117a1.642,1.642,0,0,1-.175.146l-0.088.088a1.865,1.865,0,0,1-.2.117,0.026,0.026,0,0,1-.029.029l-0.029.029h-0.03a0.613,0.613,0,0,1-.205.117c-0.078.04-.107,0.059-0.087,0.059a0.821,0.821,0,0,0-.176.059,3.156,3.156,0,0,1-1.4.264h-0.059q0.058,0-.117-0.029a3.463,3.463,0,0,1-.76-0.146,0.221,0.221,0,0,1-.117-0.029c0.039,0.02,0,.01-0.117-0.029-0.1-.039-0.166-0.068-0.205-0.088,0.02,0,0-.019-0.059-0.059a1.292,1.292,0,0,1-.234-0.117h-0.029l-0.029-.029-0.029-.029a0.772,0.772,0,0,1-.205-0.146c0,0.019-.029,0-0.088-0.059a1.642,1.642,0,0,1-.175-0.146l-0.117-.117-0.117-.117a0.513,0.513,0,0,0-.147-0.146,0.3,0.3,0,0,1-.058-0.117,1.093,1.093,0,0,1-.146-0.2l-0.03-.029a0.026,0.026,0,0,0-.029-0.029V58.621a0.026,0.026,0,0,0-.029-0.029L159.691,40.558V63.334a3.258,3.258,0,0,1-1.024,2.43,3.346,3.346,0,0,1-2.457,1.025,3.5,3.5,0,0,1-3.452-3.454V28.145a3.306,3.306,0,0,1,.7-2.079,3.394,3.394,0,0,1,1.843-1.259,3.468,3.468,0,0,1,3.891,1.552l14.393,23.8,14.393-23.8a3.337,3.337,0,0,1,1.668-1.434l1.082-.41ZM233.313,59.85a3.255,3.255,0,0,1,2.428,1.025,3.359,3.359,0,0,1,1.024,2.459,3.5,3.5,0,0,1-3.452,3.454h-21.18a3.5,3.5,0,0,1-3.452-3.454v-35.1a3.3,3.3,0,0,1,1.023-2.459,3.256,3.256,0,0,1,2.429-1.025h0.029l21.151,0.058a3.351,3.351,0,0,1,2.457,1.025,3.407,3.407,0,0,1,.995,2.459,3.5,3.5,0,0,1-3.452,3.455h-0.03l-17.669-.059V42.314h12.755a3.4,3.4,0,0,1,2.457,1,3.465,3.465,0,0,1,0,4.918,3.4,3.4,0,0,1-2.457,1H215.614V59.85h17.7Zm45.04-22.894a11.228,11.228,0,0,1-2.4,7,12.561,12.561,0,0,1-6.085,4.421l6.641,13.467a3.49,3.49,0,0,1-1.58,4.6,3.475,3.475,0,0,1-1.521.351,3.18,3.18,0,0,1-3.072-1.932l-7.752-15.721h-5.939V63.1a3.447,3.447,0,0,1-3.452,3.425,3.4,3.4,0,0,1-3.423-3.425V28.2a3.448,3.448,0,0,1,3.423-3.454h12.111a12.972,12.972,0,0,1,9.215,3.572A11.378,11.378,0,0,1,278.353,36.957Zm-12.814,5.3a6.59,6.59,0,0,0,4.213-1.61,4.822,4.822,0,0,0-.088-7.465,6.481,6.481,0,0,0-4.359-1.552h-8.659V42.256h8.893Zm33.994-13.965a3.5,3.5,0,0,1,3.481-3.484,3.254,3.254,0,0,1,2.428,1.025,3.355,3.355,0,0,1,1.024,2.459V54.054a12.689,12.689,0,0,1-12.725,12.735,3.5,3.5,0,0,1-3.452-3.454,3.358,3.358,0,0,1,1.023-2.459,3.257,3.257,0,0,1,2.429-1.025,5.8,5.8,0,0,0,5.792-5.8V28.291ZM174.071,79.585a1.849,1.849,0,0,1,.989.686,1.8,1.8,0,0,1,.384,1.134v19.2a1.8,1.8,0,0,1-.544,1.325,1.886,1.886,0,0,1-2.68,0,1.8,1.8,0,0,1-.543-1.325V88.177l-5.953,9.838v0.016l-0.015.016-0.017.016-0.015.016c-0.033.054-.054,0.091-0.064,0.112l-0.049.064c-0.041.043-.069,0.069-0.079,0.08l-0.064.064c-0.032.032-.054,0.053-0.063,0.064a1.023,1.023,0,0,1-.1.079l-0.049.048a0.994,0.994,0,0,1-.111.064,0.014,0.014,0,0,1-.015.016l-0.017.016h-0.016a0.324,0.324,0,0,1-.112.064c-0.043.022-.058,0.032-0.047,0.032a0.436,0.436,0,0,0-.1.032,1.724,1.724,0,0,1-.767.143H164c0.021,0,0,0-.064-0.016a1.853,1.853,0,0,1-.414-0.08,0.124,0.124,0,0,1-.065-0.016c0.022,0.011,0,.006-0.063-0.016s-0.091-.038-0.112-0.048c0.01,0,0-.01-0.033-0.032a0.664,0.664,0,0,1-.126-0.064h-0.017l-0.016-.016-0.016-.016a0.442,0.442,0,0,1-.111-0.08c0,0.011-.016,0-0.048-0.032a0.813,0.813,0,0,1-.1-0.079l-0.064-.064c-0.032-.032-0.054-0.053-0.063-0.064a0.3,0.3,0,0,0-.08-0.08,0.159,0.159,0,0,1-.033-0.064,0.615,0.615,0,0,1-.079-0.112l-0.016-.016a0.014,0.014,0,0,0-.016-0.016V98.031a0.015,0.015,0,0,0-.016-0.016l-5.937-9.838V100.6a1.773,1.773,0,0,1-.559,1.325,1.825,1.825,0,0,1-1.34.559,1.907,1.907,0,0,1-1.883-1.884v-19.2a1.806,1.806,0,0,1,.383-1.134,1.852,1.852,0,0,1,1.005-.686,1.926,1.926,0,0,1,1.2.064,1.9,1.9,0,0,1,.925.783L164.1,93.415l7.852-12.984a1.817,1.817,0,0,1,.909-0.783l0.591-.223ZM208.87,98.7a1.779,1.779,0,0,1,1.325.559,1.836,1.836,0,0,1,.558,1.342,1.907,1.907,0,0,1-1.883,1.884H197.316a1.907,1.907,0,0,1-1.883-1.884V81.453a1.907,1.907,0,0,1,1.883-1.9h0.016l11.538,0.032a1.83,1.83,0,0,1,1.341.559,1.86,1.86,0,0,1,.542,1.341,1.907,1.907,0,0,1-1.883,1.885h-0.016l-9.639-.032v5.8h6.958a1.853,1.853,0,0,1,1.34.543,1.889,1.889,0,0,1,0,2.683,1.853,1.853,0,0,1-1.34.543h-6.958v5.8h9.655Zm21.97,3.785a1.879,1.879,0,0,1-1.883-1.884V81.485a1.827,1.827,0,0,1,.558-1.341,1.8,1.8,0,0,1,1.325-.543h4.836a11.411,11.411,0,0,1,0,22.822l-4.8.063H230.84Zm1.9-3.8,2.921-.048a7.634,7.634,0,0,0,.017-15.268h-2.938V98.685Zm35.55,3.8A1.907,1.907,0,0,1,266.4,100.6V81.549a1.883,1.883,0,0,1,3.766,0V100.6A1.907,1.907,0,0,1,268.288,102.486Zm21.282-.143a1.884,1.884,0,0,1-1.021-2.46l2.026-4.871V95l5.874-14.182a0.915,0.915,0,0,1,.08-0.16l0.031-.08a0.9,0.9,0,0,1,.064-0.08,0.232,0.232,0,0,1,.048-0.08l0.063-.064a0.165,0.165,0,0,1,.048-0.064,0.221,0.221,0,0,0,.064-0.08,0.7,0.7,0,0,1,.064-0.048,0.231,0.231,0,0,1,.08-0.064c-0.011,0,.01-0.016.064-0.048s0.068-.053.079-0.064l0.064-.048a0.349,0.349,0,0,1,.1-0.048c0.021-.011.059-0.026,0.112-0.048s0.068-.042.048-0.032l0.063-.032a0.473,0.473,0,0,0,.112-0.032,0.652,0.652,0,0,0,.112-0.032l0.064-.016a0.68,0.68,0,0,0,.111-0.016l0.08-.016h0.368l0.1,0.016,0.08,0.016a0.36,0.36,0,0,1,.111.032c0.065,0.011.085,0.016,0.065,0.016a1.3,1.3,0,0,1,.351.144c-0.011-.011.01,0,0.063,0.032a0.713,0.713,0,0,1,.1.064l0.064,0.048c0.042,0.032.069,0.054,0.08,0.064a0.161,0.161,0,0,1,.064.048,0.336,0.336,0,0,0,.079.063,0.148,0.148,0,0,0,.048.064,0.245,0.245,0,0,1,.064.08l0.047,0.064a0.231,0.231,0,0,1,.065.08,0.222,0.222,0,0,0,.047.08,0.218,0.218,0,0,1,.048.08,1.081,1.081,0,0,1,.08.16L305.784,95v0.016l2.027,4.871a1.875,1.875,0,0,1,0,1.438,1.854,1.854,0,0,1-1.022,1.022,1.873,1.873,0,0,1-.718.143,1.737,1.737,0,0,1-1.739-1.165L302.8,97.615h-9.24l-1.533,3.706a1.736,1.736,0,0,1-1.738,1.165h-0.368Zm11.682-8.481-3.08-7.41-3.064,7.41h6.144Z"/>
</svg>
