<svg id="BIP_PocketGamerConnects_2016_English_Winner" xmlns="http://www.w3.org/2000/svg" viewBox="0 0 1061.11 500"><title>BIP_PocketGamerConnects_2016_English_Black</title><path d="M185.24,298.35c0,2.3.19,4.51,0.19,6.62q0,5.62-.29,11.23c-0.1,2.3-1.06,2.4-4.32,2.4-2.11,0-4.32-.29-4.32-2.78,0-14.78,1.25-29.57,1.25-44.35,0-3.55-.19-7.2-0.19-10.75,0-6,5.47-5.47,11.52-5.47,15.36,0,15.84,11.52,15.84,24.48,0,8.45-1.06,16.8-13,16.8-2.21,0-4.32-.38-6.62-0.38A17.62,17.62,0,0,0,185.24,298.35Zm9.7-32.64H195A10.73,10.73,0,0,0,188.7,264c-1.06,0-2.21.19-3.26,0.29,0.1,3.55.19,7,.19,10.46,0,4.7-.1,9.31-0.1,13.82h0.86c1.82,0,5.57.1,7-.67,2.59-1.34,3.26-8.26,3.26-10.75C196.66,273.48,196.09,266.76,194.94,265.71Z" transform="translate(-4.33 -5.05)"/><path d="M236.31,304.59c0,3.17-.29,7.2-2.78,9.5h0.1l-0.38.29c-4.32,3-4.32,4.42-10.56,4.42a15,15,0,0,1-9.7-3.46l0.1,0.1a11.27,11.27,0,0,1-3.46-5.18l0.1,0.1-0.29-.67c-3.46-8.83-3-26.88-3-32.25,0-14,5.86-22,16.8-22,3.46,0,7.2,2.69,9.41,5.18h-0.1c3.55,3.17,3.94,9.41,3.94,13.92C236.5,284.52,236.31,294.6,236.31,304.59Zm-16.42,3.84a6.22,6.22,0,0,0,3.65,1.06c1,0,2.21-.1,2.69-1.15,1-2.4,2.11-16,2.11-19.29,0-2.88-.29-5.86-0.29-8.83,0-1.92.19-3.74,0.19-5.66,0-3.65-.67-8.93-5.38-8.93-7.2,0-6.53,14.4-6.53,20.73,0,3.65.48,7.1,0.48,10.66s0.29,8.93,3.07,11.52v-0.1Z" transform="translate(-4.33 -5.05)"/><path d="M272.7,307.18a4.29,4.29,0,0,1-1.15,2.5c-3,4.22-6.82,9.12-12.48,9.12-11.42,0-15.74-10.27-15.74-19.49,0-4.13.19-8.16,0.19-12.29,0-10.65-.19-31.2,14.5-32.16h0.58c6.34,0,14.21,6,14.21,12.86,0,0.86-6,2.3-7,2.3-3.55,0-2.3-6.14-6.72-6.14-5.18,0-6.14,9-6.24,13q-0.29,10.8-.29,21.6c0,3.55.58,11.33,5.66,11.33,3.94,0,3-5.76,7.49-5.76C267.61,304,272.7,304.59,272.7,307.18Z" transform="translate(-4.33 -5.05)"/><path d="M300.34,259.18c2.69-2.69,2.4-3.26,5.76-3.26,1.82,0,3.55.48,3.55,2.69,0,2.69-9.41,13.92-11.42,16.51-0.86,1.25-2.59,3-3.17,4.32,3.74,8.26,7.3,17,10.46,25.53v-0.1c0.86,2,4.13,9.89,4.13,11.62v0.38c-0.77,1.25-3.84,1.63-5.18,1.63-0.86,0-3.17-.1-3.84-0.77-1.44-1.34-10.17-26.69-11.33-30.33l-0.38.38c0,10.08-.77,20.06-0.77,30.24a22.68,22.68,0,0,1-7.58.77c-0.77-2.21-1-7.39-1-12.1,0-15.65.29-29.76,0.29-45A12.74,12.74,0,0,1,281,256c1.44,0,2.88-.29,4.32-0.29,4.42,0,3.55,3.55,3.55,6.43,0,4-.38,8.16-0.38,12.29C292.66,269.55,296.7,264.36,300.34,259.18Z" transform="translate(-4.33 -5.05)"/><path d="M339.32,308.62c5.09,0,3.55,6.43,3.84,9.89-3.26.29-6.62,0.38-10,.38-1.73,0-13.63-.19-14.69-0.77C317,314.57,316.86,308,316.86,304c0-16.13-.38-32.45-0.38-48.57,1.54-1.54,3.46-1.54,5.47-1.54,4.61,0,9.21-.48,13.73-0.48a12.15,12.15,0,0,1,5.86,1.25c0.19,2.21.67,5.18,0.67,6.91,0,2.11-2.11,2.11-3.74,2.11-4.22,0-8.45.19-12.58,0.48,0,6.14-1,12.19-1,18.33a7.28,7.28,0,0,0,.1,1.44c3.07-.29,6.14-0.77,9.22-0.77,1.15,0,2.3.19,3.36,0.19a50.63,50.63,0,0,1,1.54,7.39c0,3-9.5,2.11-13.82,2.4V294c-0.1,2.4.48,4.8,0.48,7.2a33.54,33.54,0,0,0,.48,6.91,71.52,71.52,0,0,0,11,.58C337.88,308.71,338.65,308.62,339.32,308.62Z" transform="translate(-4.33 -5.05)"/><path d="M355.26,261.77c-0.67,0-1.44.19-2.3,0.19a4.39,4.39,0,0,1-3.26-1.54,4.64,4.64,0,0,0,.1-1.15c0-.67-0.1-1.44-0.1-2.21,0-1.34.29-3.17,1.82-3.65h-0.1a8.14,8.14,0,0,1,2.11-.38c2.11,0,4.13.38,6.14,0.38,3.17,0,6.43-.1,9.6-0.1,1.73,0,3.36-.58,5-0.58s1.82,2.21,1.82,3.46c0,6.72-1.63,5.28-7.39,6.14-0.67,12.29-1.06,24.77-1.06,37.05,0,1.92.19,3.84,0.19,5.76,0,4.51-.29,8.93-0.48,13.44-1.06.1-2,.19-3.07,0.19-1.92,0-3.84-.38-5.76-0.38a21,21,0,0,1-.29-3.46c0-2.59.38-5.28,0.38-7.87,0-1.25-.1-2.59-0.1-3.84,0.38-6.43.48-10.46,0.48-13.25,0-9-.58-14.88-0.58-22.75a52,52,0,0,1,.19-5.47h-3.36Z" transform="translate(-4.33 -5.05)"/><path d="M425.81,301.32a14.78,14.78,0,0,0,.67-4c0-.58.1-1.06-0.86-1.06-1.34,0-2.69.29-4,.29-3.65,0-3.84-2.59-3.84-5.47,0-3.07,2.59-3.36,6-3.36h2.4c1.73,0,3.55-.29,5.28-0.29a9.09,9.09,0,0,1,3.55.77,33.79,33.79,0,0,1,1,9.31c0,10.75-1.44,21.31-13.92,21.31-17.37,0-15.74-19.39-15.94-31.29-0.1-3.46-.48-6.91-0.48-10.37,0-7.3.77-13.92,8-17.57v0.1a18.42,18.42,0,0,1,7.49-1.92c5.38,0,14.11,4.51,14.11,9.22,0,2-3.74,4.7-5.28,4.7-1.34,0-6-4-8.06-4.61H422c-0.38,0-.86-0.1-1.34-0.1-5.57,0-5.57,4.22-5.57,8.45,0,4.7-.19,9.41-0.19,14.11a151.22,151.22,0,0,0,.86,16.13c0.29,2.4,1.34,4.9,4.9,4.9,4.7,0,4.42-6.14,5.28-9.31Z" transform="translate(-4.33 -5.05)"/><path d="M471.22,315.24a5.74,5.74,0,0,1-1.34,3.46c-2.4-.19-5,0.29-7.1-1-1.06-3.84-2.88-11.52-3.17-15.36-1.44-.1-2.78-0.19-4.22-0.19a20.88,20.88,0,0,0-3.46.19c-2.21,5.57-2.3,13.82-4.51,16.22-1.92,0-7.2,1.25-7.2-2.69a29.86,29.86,0,0,1,2-10V306a43.89,43.89,0,0,0,1.34-5.09l4.22-21.69c1.15-6.14,3.07-15.74,5.09-21.6,0.58-1.63,1.34-2.3,3.07-2.3,1,0,1.92.38,2.88,0.38a6.33,6.33,0,0,0,1.34-.1c1.73,2.69,2.5,12,7.78,42.52v-0.1C469,302.09,471.22,311.4,471.22,315.24Zm-13-21.5c-0.38-4.42-.86-14.11-1.82-14.11L453.65,294C455.19,294,456.73,293.74,458.26,293.74Z" transform="translate(-4.33 -5.05)"/><path d="M513.36,257.26c0,18.24.86,36.57,0.86,55a28.58,28.58,0,0,1-.48,5.76,12.56,12.56,0,0,1-4.61.77c-3.94,0-4.61-1.63-4.61-4,0-1.15.19-2.5,0.19-3.94,0-7-.19-13.92-0.29-20.93-1.73,5.09-2.59,12.19-6.53,12.19-1.06,0-1.92-.19-2.88-0.19h-0.67c-2.21-3.74-3.36-8.54-5-12.58,0.29,5.38.38,10.56,0.38,15.93,0,3.46,0,9.7-1,12.86a8.83,8.83,0,0,1-3.17.58,11.46,11.46,0,0,1-5.57-1.44c-0.19-5.18-.1-2.69-0.1-16.89,0-15.46.19-42.33,1.92-44,1.34-.19,2.5-0.86,3.84-0.86,3.84,0,8,18.43,11,26.88l6.53-19.1a29.5,29.5,0,0,1,2.11-5.76l0.58-.38s4.7-.77,5-0.77A4.29,4.29,0,0,1,513.36,257.26Z" transform="translate(-4.33 -5.05)"/><path d="M544,308.62c5.09,0,3.55,6.43,3.84,9.89-3.26.29-6.62,0.38-10,.38-1.73,0-13.63-.19-14.69-0.77-1.54-3.55-1.63-10.08-1.63-14.11,0-16.13-.38-32.45-0.38-48.57,1.54-1.54,3.46-1.54,5.47-1.54,4.61,0,9.21-.48,13.73-0.48a12.15,12.15,0,0,1,5.86,1.25c0.19,2.21.67,5.18,0.67,6.91,0,2.11-2.11,2.11-3.74,2.11-4.22,0-8.45.19-12.58,0.48,0,6.14-1,12.19-1,18.33a7.28,7.28,0,0,0,.1,1.44c3.07-.29,6.14-0.77,9.22-0.77,1.15,0,2.3.19,3.36,0.19a50.63,50.63,0,0,1,1.54,7.39c0,3-9.5,2.11-13.82,2.4V294c-0.1,2.4.48,4.8,0.48,7.2a33.54,33.54,0,0,0,.48,6.91,71.52,71.52,0,0,0,11,.58C542.55,308.71,543.31,308.62,544,308.62Z" transform="translate(-4.33 -5.05)"/><path d="M560.6,317.64a2.44,2.44,0,0,1-1.15-.19l0.38,0.19h-0.48c-1.73,0-4.32.1-4.8-2.11v0.1a41.84,41.84,0,0,1-.29-5.66c0-2.78.1-5.76,0.1-7.3,0-5.18.1-45.69,2.11-47.61,1.15-1.06,6.72-1.25,8.16-1.25,3.84,0,11.33.67,14.21,3.74,3.46,3.65,4.51,17.18,4.51,22.27,0,4.7-.58,9.79-4.22,13.15a39.59,39.59,0,0,1,2.3,3.74C583,300.27,583,312,583,316.2v1.44a6.49,6.49,0,0,1-3.84,1.15c-4.42,0-6.34.38-6.34-5.18,0-2.4.29-4.9,0.29-7.3,0-4,.77-10-5.18-10a20.18,20.18,0,0,0-4.13.48c0,3.46-.38,18.62-2.3,20.73A2.65,2.65,0,0,1,560.6,317.64ZM563.67,263c0,4.8-.19,9.6-0.19,14.3v5.18c0,1.63.1,3.26,0.19,5H567c3.26,0,7.58-.48,7.87-4.7l-0.1.1a111.72,111.72,0,0,0-.67-15.07c-0.67-4.13-4.51-5-8.16-5A9.35,9.35,0,0,0,563.67,263Z" transform="translate(-4.33 -5.05)"/><path d="M642.19,307.18a4.29,4.29,0,0,1-1.15,2.5c-3,4.22-6.82,9.12-12.48,9.12-11.42,0-15.74-10.27-15.74-19.49,0-4.13.19-8.16,0.19-12.29,0-10.65-.19-31.2,14.5-32.16h0.58c6.34,0,14.21,6,14.21,12.86,0,0.86-6,2.3-7,2.3-3.55,0-2.3-6.14-6.72-6.14-5.18,0-6.14,9-6.24,13q-0.29,10.8-.29,21.6c0,3.55.58,11.33,5.66,11.33,3.94,0,3-5.76,7.49-5.76C637.11,304,642.19,304.59,642.19,307.18Z" transform="translate(-4.33 -5.05)"/><path d="M679,304.59c0,3.17-.29,7.2-2.78,9.5h0.1l-0.38.29c-4.32,3-4.32,4.42-10.56,4.42a15,15,0,0,1-9.7-3.46l0.1,0.1a11.27,11.27,0,0,1-3.46-5.18l0.1,0.1-0.29-.67c-3.46-8.83-3-26.88-3-32.25,0-14,5.86-22,16.8-22,3.46,0,7.2,2.69,9.41,5.18h-0.1c3.55,3.17,3.94,9.41,3.94,13.92C679.15,284.52,679,294.6,679,304.59Zm-16.42,3.84a6.22,6.22,0,0,0,3.65,1.06c1,0,2.21-.1,2.69-1.15,1-2.4,2.11-16,2.11-19.29,0-2.88-.29-5.86-0.29-8.83,0-1.92.19-3.74,0.19-5.66,0-3.65-.67-8.93-5.38-8.93-7.2,0-6.53,14.4-6.53,20.73,0,3.65.48,7.1,0.48,10.66s0.29,8.93,3.07,11.52v-0.1Z" transform="translate(-4.33 -5.05)"/><path d="M697.2,285.1c0,2.3-.29,4.61-0.48,6.91-0.67,7-1.06,14.59-1.06,21,0,1.25.1,2.5,0.19,3.65-0.67,2-3.46,2.11-5.47,2.11-2.4,0-3.65-.29-4.51-2.5,0.86-1.63,1-15.26,1-17.85,0-12.86,1-25.73,1-38.49,0-4.32,3.17-4.51,5.76-4.51H696c2.21,2.59,4.7,15.46,6.91,20.64,1.92,4.51,3.26,8.93,5.47,13.25,0-1.92-.19-3.74-0.19-5.66,0-7.78,1.25-15.46,1.25-23.23,0-1.06-.38-2.11-0.38-3.26a7.68,7.68,0,0,1,.77-3.17c2.78,0.67,9.89-.48,9.89,3.55,0,1.92-.38,4-0.48,6-0.58,14.88-1.63,29.37-1.92,45.21v3.74c0,5.38-1.34,6.62-5.09,6.62-1.34,0-3.17-.19-4.13-1.15-0.67-.86-9.21-25.82-9.79-28.41Z" transform="translate(-4.33 -5.05)"/><path d="M736.18,285.1c0,2.3-.29,4.61-0.48,6.91-0.67,7-1.06,14.59-1.06,21,0,1.25.1,2.5,0.19,3.65-0.67,2-3.46,2.11-5.47,2.11-2.4,0-3.65-.29-4.51-2.5,0.86-1.63,1-15.26,1-17.85,0-12.86,1-25.73,1-38.49,0-4.32,3.17-4.51,5.76-4.51h2.4c2.21,2.59,4.7,15.46,6.91,20.64,1.92,4.51,3.26,8.93,5.47,13.25,0-1.92-.19-3.74-0.19-5.66,0-7.78,1.25-15.46,1.25-23.23,0-1.06-.38-2.11-0.38-3.26a7.67,7.67,0,0,1,.77-3.17c2.78,0.67,9.89-.48,9.89,3.55,0,1.92-.38,4-0.48,6-0.58,14.88-1.63,29.37-1.92,45.21v3.74c0,5.38-1.34,6.62-5.09,6.62-1.34,0-3.17-.19-4.13-1.15-0.67-.86-9.22-25.82-9.79-28.41Z" transform="translate(-4.33 -5.05)"/><path d="M786.77,308.62c5.09,0,3.55,6.43,3.84,9.89-3.26.29-6.62,0.38-10,.38-1.73,0-13.63-.19-14.69-0.77-1.54-3.55-1.63-10.08-1.63-14.11,0-16.13-.38-32.45-0.38-48.57,1.54-1.54,3.46-1.54,5.47-1.54,4.61,0,9.21-.48,13.73-0.48a12.15,12.15,0,0,1,5.86,1.25c0.19,2.21.67,5.18,0.67,6.91,0,2.11-2.11,2.11-3.74,2.11-4.22,0-8.45.19-12.58,0.48,0,6.14-1,12.19-1,18.33a7.28,7.28,0,0,0,.1,1.44c3.07-.29,6.14-0.77,9.22-0.77,1.15,0,2.3.19,3.36,0.19a50.63,50.63,0,0,1,1.54,7.39c0,3-9.5,2.11-13.82,2.4V294c-0.1,2.4.48,4.8,0.48,7.2a33.54,33.54,0,0,0,.48,6.91,71.52,71.52,0,0,0,11,.58C785.33,308.71,786.1,308.62,786.77,308.62Z" transform="translate(-4.33 -5.05)"/><path d="M826.51,307.18a4.29,4.29,0,0,1-1.15,2.5c-3,4.22-6.82,9.12-12.48,9.12-11.42,0-15.74-10.27-15.74-19.49,0-4.13.19-8.16,0.19-12.29,0-10.65-.19-31.2,14.5-32.16h0.58c6.34,0,14.21,6,14.21,12.86,0,0.86-6,2.3-7,2.3-3.55,0-2.3-6.14-6.72-6.14-5.18,0-6.14,9-6.24,13q-0.29,10.8-.29,21.6c0,3.55.58,11.33,5.66,11.33,3.94,0,3-5.76,7.49-5.76C821.42,304,826.51,304.59,826.51,307.18Z" transform="translate(-4.33 -5.05)"/><path d="M833.52,261.77c-0.67,0-1.44.19-2.3,0.19a4.39,4.39,0,0,1-3.26-1.54,4.69,4.69,0,0,0,.1-1.15c0-.67-0.1-1.44-0.1-2.21,0-1.34.29-3.17,1.82-3.65h-0.1a8.15,8.15,0,0,1,2.11-.38c2.11,0,4.13.38,6.14,0.38,3.17,0,6.43-.1,9.6-0.1,1.73,0,3.36-.58,5-0.58s1.82,2.21,1.82,3.46c0,6.72-1.63,5.28-7.39,6.14-0.67,12.29-1.06,24.77-1.06,37.05,0,1.92.19,3.84,0.19,5.76,0,4.51-.29,8.93-0.48,13.44-1.06.1-2,.19-3.07,0.19-1.92,0-3.84-.38-5.76-0.38a21,21,0,0,1-.29-3.46c0-2.59.38-5.28,0.38-7.87,0-1.25-.1-2.59-0.1-3.84,0.38-6.43.48-10.46,0.48-13.25,0-9-.58-14.88-0.58-22.75a52.28,52.28,0,0,1,.19-5.47h-3.36Z" transform="translate(-4.33 -5.05)"/><path d="M893,299.21a17.73,17.73,0,0,1,.29,3.17c0,11.23-7.39,16.61-16.22,16.61-7.2,0-14.59-6.14-14.59-13.73,0-3.74,2.69-3.94,5.66-3.94a8.48,8.48,0,0,1,4.22,1.15c0,3.07,1.73,7.2,5.38,7.2a5.68,5.68,0,0,0,5.76-5.86c0-6.14-8.83-14.21-13.25-17.85l0.1,0.1c-5.76-4.7-8.45-8.16-8.45-15.84,0-9,6.33-15.65,15.55-15.65,4.32,0,9.89,2.21,11.81,6.34,1,2.11,2.78,5.28,2.78,7.68,0,2.88-4.32,3.36-6.53,3.36-6.14,0-1.54-8.16-9.7-8.16-1.06,0-2.3,1.06-3,1.82H873a8.65,8.65,0,0,0-2.21,5.57,7.36,7.36,0,0,0,.19,1.44c1.15,6.24,19.39,15.36,22.08,26.69v-0.1Z" transform="translate(-4.33 -5.05)"/><path d="M304.42,377.59c-1.06-5.09-2.88-9.89-4.13-14.88a213.67,213.67,0,0,1-4.42-23.13L295,331.13c2.4,0,4.7-.77,7-0.77l1,0.1c1.25,1.34,1.25,5.28,1.44,7,0.48,6.34,2,13.25,3.26,19.49,0.77,4.13,1.44,8.16,2.4,12.19,1.34-11.9,3.94-22.65,5.86-33.89a9.9,9.9,0,0,1,1.63-4.8,5.48,5.48,0,0,0,1.25.1c1.25,0,2.5-.19,3.84-0.19,1.82,0,3.07,0,3.07,2.69,0,1.82-.86,3.65-1.34,5.28v-0.1c-2.4,11.52-4.13,23.23-6.14,34.75-3,20.35-3.17,21.21-3.55,22.08h-0.58a36.17,36.17,0,0,1-5.57-.38c-2.11-5.47-2.5-11.42-4-17.09h-0.1Z" transform="translate(-4.33 -5.05)"/><path d="M355.49,391.61a5.74,5.74,0,0,1-1.34,3.46c-2.4-.19-5,0.29-7.1-1-1.06-3.84-2.88-11.52-3.17-15.36-1.44-.1-2.78-0.19-4.22-0.19a20.88,20.88,0,0,0-3.46.19c-2.21,5.57-2.3,13.82-4.51,16.22-1.92,0-7.2,1.25-7.2-2.69a29.86,29.86,0,0,1,2-10v0.1a43.89,43.89,0,0,0,1.34-5.09l4.22-21.69c1.15-6.14,3.07-15.74,5.09-21.6,0.58-1.63,1.34-2.3,3.07-2.3,1,0,1.92.38,2.88,0.38a6.33,6.33,0,0,0,1.34-.1c1.73,2.69,2.5,12,7.78,42.52v-0.1C353.29,378.46,355.49,387.77,355.49,391.61Zm-13-21.5c-0.38-4.42-.86-14.11-1.82-14.11l-2.78,14.4C339.46,370.39,341,370.11,342.53,370.11Z" transform="translate(-4.33 -5.05)"/><path d="M375.46,361.47c0,2.3-.29,4.61-0.48,6.91-0.67,7-1.06,14.59-1.06,21,0,1.25.1,2.5,0.19,3.65-0.67,2-3.46,2.11-5.47,2.11-2.4,0-3.65-.29-4.51-2.5,0.86-1.63,1-15.26,1-17.85,0-12.86,1-25.73,1-38.49,0-4.32,3.17-4.51,5.76-4.51h2.4c2.21,2.59,4.7,15.46,6.91,20.64,1.92,4.51,3.26,8.93,5.47,13.25,0-1.92-.19-3.74-0.19-5.66,0-7.78,1.25-15.46,1.25-23.23,0-1.06-.38-2.11-0.38-3.26a7.68,7.68,0,0,1,.77-3.17c2.78,0.67,9.89-.48,9.89,3.55,0,1.92-.38,4-0.48,6-0.58,14.88-1.63,29.37-1.92,45.21v3.74c0,5.38-1.34,6.62-5.09,6.62-1.34,0-3.17-.19-4.13-1.15-0.67-.86-9.21-25.82-9.79-28.41Z" transform="translate(-4.33 -5.05)"/><path d="M432.58,383.54a4.29,4.29,0,0,1-1.15,2.5c-3,4.22-6.82,9.12-12.48,9.12-11.42,0-15.74-10.27-15.74-19.49,0-4.13.19-8.16,0.19-12.29,0-10.65-.19-31.2,14.5-32.16h0.58c6.34,0,14.21,6,14.21,12.86,0,0.86-6,2.3-7,2.3-3.55,0-2.3-6.14-6.72-6.14-5.18,0-6.14,9-6.24,13q-0.29,10.8-.29,21.6c0,3.55.58,11.33,5.66,11.33,3.94,0,3-5.76,7.49-5.76C427.49,380.38,432.58,381,432.58,383.54Z" transform="translate(-4.33 -5.05)"/><path d="M469.35,381c0,3.17-.29,7.2-2.78,9.5h0.1l-0.38.29c-4.32,3-4.32,4.42-10.56,4.42a15,15,0,0,1-9.7-3.46l0.1,0.1a11.26,11.26,0,0,1-3.46-5.18l0.1,0.1-0.29-.67c-3.46-8.83-3-26.88-3-32.25,0-14,5.86-22,16.8-22,3.46,0,7.2,2.69,9.41,5.18h-0.1c3.55,3.17,3.94,9.41,3.94,13.92C469.54,360.89,469.35,371,469.35,381Zm-16.41,3.84a6.22,6.22,0,0,0,3.65,1.06c1,0,2.21-.1,2.69-1.15,1-2.4,2.11-16,2.11-19.29,0-2.88-.29-5.86-0.29-8.83,0-1.92.19-3.74,0.19-5.66,0-3.65-.67-8.93-5.37-8.93-7.2,0-6.53,14.4-6.53,20.73,0,3.65.48,7.1,0.48,10.66s0.29,8.93,3.07,11.52v-0.1Z" transform="translate(-4.33 -5.05)"/><path d="M507.65,339.39c0.77,9,1.06,18,1.06,27.07,0,8.54-.48,20.93-8.35,26.11v-0.1a18.7,18.7,0,0,1-10.08,2.69c-5.28,0-12.48-6.43-12.48-12v-0.58a110.21,110.21,0,0,1-1.54-18.72c0-7.58.67-15.17,0.67-22.75v-3.84c0-.77-0.38-1.63-0.38-2.4,0-3,2-3.26,4.42-3.26a17,17,0,0,1,4.9,1c0.1,1.06.19,2.21,0.19,3.26,0,7.39-1.15,14.59-1.15,22.27,0,4.42.67,21.79,2.4,25.05a5.53,5.53,0,0,0,5.09,2.78c5.38,0,7-4.8,7-9.31,0-10.85-.58-21.69-1-32.54-0.1-3.07-.67-6.24-0.67-9.22,0-2,.67-3.55,4-3.55a18.18,18.18,0,0,1,5.09,1C507.46,334,507.46,337.28,507.65,339.39Z" transform="translate(-4.33 -5.05)"/><path d="M525.6,377.59c-1.06-5.09-2.88-9.89-4.13-14.88a213.2,213.2,0,0,1-4.42-23.13l-0.86-8.45c2.4,0,4.7-.77,7-0.77l1,0.1c1.25,1.34,1.25,5.28,1.44,7,0.48,6.34,2,13.25,3.26,19.49,0.77,4.13,1.44,8.16,2.4,12.19,1.34-11.9,3.94-22.65,5.86-33.89a9.9,9.9,0,0,1,1.63-4.8,5.49,5.49,0,0,0,1.25.1c1.25,0,2.5-.19,3.84-0.19,1.82,0,3.07,0,3.07,2.69,0,1.82-.86,3.65-1.34,5.28v-0.1c-2.4,11.52-4.13,23.23-6.14,34.75-3,20.35-3.17,21.21-3.55,22.08H535.3a36.18,36.18,0,0,1-5.57-.38c-2.11-5.47-2.5-11.42-4-17.09h-0.1Z" transform="translate(-4.33 -5.05)"/><path d="M576.77,385c5.09,0,3.55,6.43,3.84,9.89-3.26.29-6.62,0.38-10,.38-1.73,0-13.63-.19-14.69-0.77-1.54-3.55-1.63-10.08-1.63-14.11,0-16.13-.38-32.45-0.38-48.57,1.54-1.54,3.46-1.54,5.47-1.54,4.61,0,9.22-.48,13.73-0.48A12.15,12.15,0,0,1,579,331c0.19,2.21.67,5.18,0.67,6.91,0,2.11-2.11,2.11-3.74,2.11-4.22,0-8.45.19-12.58,0.48,0,6.14-1,12.19-1,18.33a7.21,7.21,0,0,0,.1,1.44c3.07-.29,6.14-0.77,9.21-0.77,1.15,0,2.3.19,3.36,0.19a50.62,50.62,0,0,1,1.54,7.39c0,3-9.5,2.11-13.82,2.4v0.86c-0.1,2.4.48,4.8,0.48,7.2a33.47,33.47,0,0,0,.48,6.91,71.5,71.5,0,0,0,11,.58C575.33,385.08,576.1,385,576.77,385Z" transform="translate(-4.33 -5.05)"/><path d="M593.38,394a2.44,2.44,0,0,1-1.15-.19l0.38,0.19h-0.48c-1.73,0-4.32.1-4.8-2.11V392a42,42,0,0,1-.29-5.66c0-2.78.1-5.76,0.1-7.3,0-5.18.1-45.69,2.11-47.61,1.15-1.06,6.72-1.25,8.16-1.25,3.84,0,11.33.67,14.21,3.74,3.46,3.65,4.51,17.18,4.51,22.27,0,4.7-.58,9.79-4.22,13.15a39.19,39.19,0,0,1,2.3,3.74c1.54,3.55,1.54,15.26,1.54,19.49V394a6.48,6.48,0,0,1-3.84,1.15c-4.42,0-6.33.38-6.33-5.18,0-2.4.29-4.9,0.29-7.3,0-4,.77-10-5.18-10a20.16,20.16,0,0,0-4.13.48c0,3.46-.38,18.62-2.3,20.73A2.65,2.65,0,0,1,593.38,394Zm3.07-54.62c0,4.8-.19,9.6-0.19,14.3v5.18c0,1.63.1,3.26,0.19,5h3.36c3.26,0,7.58-.48,7.87-4.7l-0.1.1a111.72,111.72,0,0,0-.67-15.07c-0.67-4.13-4.51-5-8.16-5A9.35,9.35,0,0,0,596.45,339.39Z" transform="translate(-4.33 -5.05)"/><path d="M666,349.28c0-3.26-1.82-8.83-5.86-8.83-2.3,0-3.84,3-4.32,4.8-0.86,3.07.58,5.38-5.38,5.38-3.74,0-4.8-.38-4.8-4.32a14.39,14.39,0,0,1,14.78-14.59c8.83,0,15.26,7.39,15.26,15.93,0,8.83-5.09,17.09-10.56,23.61v-0.1a58,58,0,0,0-6.34,8.74h0.1a15.56,15.56,0,0,0-2.21,5.38,23.87,23.87,0,0,0,4.51.38c3,0,6-.48,8.93-0.48,3.55,0,5.57.19,5.57,4.7v2.5c0,2.59-12.77,3.26-16,3.26-1.92,0-11.71,0-12.19-2.69a18.12,18.12,0,0,1-.29-3.94C647.14,370.39,666,359.83,666,349.28Z" transform="translate(-4.33 -5.05)"/><path d="M700.42,395.06c-6,0-13-3.17-14.88-9.31-1-3.17-1-6.62-1.34-9.89a206.48,206.48,0,0,1-1.44-24.38c0-13.63,2.3-20,17.28-20a10,10,0,0,1,6.62,1.92c9.31,4.32,9.22,16.42,9.5,25.25,0.19,4.9,1,9.89,1,14.78C717.12,383.45,715.49,395.06,700.42,395.06ZM694,383c2.5,1.82,4.22,2.78,7.49,2.78,4.7,0,5.66-3.46,5.66-7.39a111.72,111.72,0,0,0-.48-12.67c-0.67-6.24,0-12.48-1.06-18.62v0.1c-0.38-2.3-.38-3.65-2.21-5.18h-1a24.85,24.85,0,0,0-8.06,1.15c-2,2.4-1.92,8.74-1.92,11.81C692.45,358.68,693.31,381,694,383Z" transform="translate(-4.33 -5.05)"/><path d="M737.66,394a10.84,10.84,0,0,1-4.22,1,8.72,8.72,0,0,1-3.74-.77c-0.19-4.51-.29-11.81-0.29-19.68,0-12.29.29-25.82,0.86-31.1-0.58,0-3.65,6.24-4.13,6l0.1,0.1a18.82,18.82,0,0,1-4.32-2.88V346.3c0-2.88,6.33-10.94,7.49-14a4.82,4.82,0,0,1,3.07-.86c2.11,0,5.47,0,5.47,3.07,0,8.45-.58,16.8-0.58,25.15C737.38,371.07,737.66,382.58,737.66,394Z" transform="translate(-4.33 -5.05)"/><path d="M754.75,351.67a8.89,8.89,0,0,1,4.9-1.25c11.81,0,14.88,11.71,14.88,20.16,0,9.22-4.61,24.57-15.65,24.57-15.55,0-14.69-20.73-14.69-34.17,0-9.41.38-28.41,13.54-28.41,7.87,0,14.88,5.86,14.88,13.92,0,2.5-2.59,2.69-4.7,2.69-9.79,0-2.3-4.8-8.54-7.1a1.63,1.63,0,0,0-.67-0.1C755.52,342,754.94,349.47,754.75,351.67Zm-0.38,23.42c0,2.88.29,9.7,4.32,9.7,4.8,0,5.86-10.27,5.86-13.63,0-2.59-1.15-9.89-4.7-9.89-3.94,0-5.47,7.3-5.47,10.18v3.65Z" transform="translate(-4.33 -5.05)"/><path d="M459.27,168.56c-1-1.54-5.66-27.17-6.14-30.33-1.73,9.31-3.84,18.62-5.18,27.93-0.29,1.63-.77,2.21-2.3,2.59l0.1-.1a8,8,0,0,1-2.59.29,7.69,7.69,0,0,1-2.5-.29c-1.82-.58-9-28.41-9.79-32.35-1.25-6.24-2.11-12.77-3.17-19.1-0.38-2.59-1.44-7-1.44-9.6,0-.77,5-0.77,5.76-0.77a49.44,49.44,0,0,1,5.28.19c0.38,3.07.19,6.14,0.48,9.12a58.48,58.48,0,0,0,1.34,6.91L441.8,137a67.17,67.17,0,0,1,1.06,7.68c1-3.94,4.42-29,5.66-30.14a4.79,4.79,0,0,1,3-.77c1.34,0,3.55.29,4.61,1.15,1.54,1.25,6.72,30,6.91,33.69,1.25-7.1,1.34-15.17,2.3-22.65,0.29-2.4,2.5-20.54,4.13-21.41a9.5,9.5,0,0,0,1.63.19c0.19,0,.48-0.1.67-0.1,1.34,0,4.9,1.25,6.24,1.73-0.86,8.26-2,16.7-3.46,24.86-0.58,3-6.14,35.52-6.53,36.19-1.06,1.54-3.55,1.82-5.28,1.82A8.23,8.23,0,0,1,459.27,168.56Z" transform="translate(-4.33 -5.05)"/><path d="M495.46,117.4v5.66c0,5.09-.67,10.08-0.67,15.17,0,4.32.38,8.54,0.38,12.86,0,2-.19,4.13-0.19,6.24s0.19,4.32.19,6.53a11.49,11.49,0,0,1-.38,3.55c-1.92,1.34-5.18,1.54-7.49,1.63a6,6,0,0,1-1.92-4.8c0-8.35,1-16.61,1-25,0-9.7-.86-19.49-0.86-29.09,0-3.94,2-4.32,4.8-4.32s5.66-.38,5.66,2.69C495.94,111.45,495.46,114.42,495.46,117.4Z" transform="translate(-4.33 -5.05)"/><path d="M514.18,135.54c0,2.3-.29,4.61-0.48,6.91-0.67,7-1.06,14.59-1.06,21,0,1.25.1,2.5,0.19,3.65-0.67,2-3.46,2.11-5.47,2.11-2.4,0-3.65-.29-4.51-2.5,0.86-1.63,1-15.26,1-17.85,0-12.86,1-25.73,1-38.49,0-4.32,3.17-4.51,5.76-4.51h2.4c2.21,2.59,4.7,15.46,6.91,20.64,1.92,4.51,3.26,8.93,5.47,13.25,0-1.92-.19-3.74-0.19-5.66,0-7.78,1.25-15.46,1.25-23.23,0-1.06-.38-2.11-0.38-3.26a7.68,7.68,0,0,1,.77-3.17c2.78,0.67,9.89-.48,9.89,3.55,0,1.92-.38,4-0.48,6-0.58,14.88-1.63,29.37-1.92,45.21V163c0,5.38-1.34,6.62-5.09,6.62-1.34,0-3.17-.19-4.13-1.15-0.67-.86-9.21-25.82-9.79-28.41Z" transform="translate(-4.33 -5.05)"/><path d="M553.15,135.54c0,2.3-.29,4.61-0.48,6.91-0.67,7-1.06,14.59-1.06,21,0,1.25.1,2.5,0.19,3.65-0.67,2-3.46,2.11-5.47,2.11-2.4,0-3.65-.29-4.51-2.5,0.86-1.63,1-15.26,1-17.85,0-12.86,1-25.73,1-38.49,0-4.32,3.17-4.51,5.76-4.51h2.4c2.21,2.59,4.7,15.46,6.91,20.64,1.92,4.51,3.26,8.93,5.47,13.25,0-1.92-.19-3.74-0.19-5.66,0-7.78,1.25-15.46,1.25-23.23,0-1.06-.38-2.11-0.38-3.26a7.67,7.67,0,0,1,.77-3.17c2.78,0.67,9.89-.48,9.89,3.55,0,1.92-.38,4-0.48,6-0.58,14.88-1.63,29.37-1.92,45.21V163c0,5.38-1.34,6.62-5.09,6.62-1.34,0-3.17-.19-4.13-1.15-0.67-.86-9.22-25.82-9.79-28.41Z" transform="translate(-4.33 -5.05)"/><path d="M603.74,159.06c5.09,0,3.55,6.43,3.84,9.89-3.26.29-6.62,0.38-10,.38-1.73,0-13.63-.19-14.69-0.77-1.54-3.55-1.63-10.08-1.63-14.11,0-16.13-.38-32.45-0.38-48.57,1.54-1.54,3.46-1.54,5.47-1.54,4.61,0,9.21-.48,13.73-0.48a12.15,12.15,0,0,1,5.86,1.25c0.19,2.21.67,5.18,0.67,6.91,0,2.11-2.11,2.11-3.74,2.11-4.22,0-8.45.19-12.58,0.48,0,6.14-1,12.19-1,18.33a7.28,7.28,0,0,0,.1,1.44c3.07-.29,6.14-0.77,9.22-0.77,1.15,0,2.3.19,3.36,0.19a50.63,50.63,0,0,1,1.54,7.39c0,3-9.5,2.11-13.82,2.4v0.86c-0.1,2.4.48,4.8,0.48,7.2a33.54,33.54,0,0,0,.48,6.91,71.52,71.52,0,0,0,11,.58C602.31,159.16,603.07,159.06,603.74,159.06Z" transform="translate(-4.33 -5.05)"/><path d="M620.35,168.08a2.44,2.44,0,0,1-1.15-.19l0.38,0.19h-0.48c-1.73,0-4.32.1-4.8-2.11v0.1a41.84,41.84,0,0,1-.29-5.66c0-2.78.1-5.76,0.1-7.3,0-5.18.1-45.69,2.11-47.61,1.15-1.06,6.72-1.25,8.16-1.25,3.84,0,11.33.67,14.21,3.74,3.46,3.65,4.51,17.18,4.51,22.27,0,4.7-.58,9.79-4.22,13.15a39.59,39.59,0,0,1,2.3,3.74c1.54,3.55,1.54,15.26,1.54,19.49v1.44a6.49,6.49,0,0,1-3.84,1.15c-4.42,0-6.34.38-6.34-5.18,0-2.4.29-4.9,0.29-7.3,0-4,.77-10-5.18-10a20.18,20.18,0,0,0-4.13.48c0,3.46-.38,18.62-2.3,20.73A2.65,2.65,0,0,1,620.35,168.08Zm3.07-54.62c0,4.8-.19,9.6-0.19,14.3V133c0,1.63.1,3.26,0.19,5h3.36c3.26,0,7.58-.48,7.87-4.7l-0.1.1a111.72,111.72,0,0,0-.67-15.07c-0.67-4.13-4.51-5-8.16-5A9.35,9.35,0,0,0,623.43,113.46Z" transform="translate(-4.33 -5.05)"/><path d="M394.52,234.52a34.35,34.35,0,0,1-8,1.54h-1.89a17.12,17.12,0,0,0-1.89.07c-1-1.26-1.26-3.22-1.26-5,0-13.23-.7-27.44.42-40.25a41,41,0,0,1,7.14-1.12c7,0,11.27,3.22,11.27,9.45a14,14,0,0,1-3.29,8.68c4.41,3.29,3.92,7,3.92,13.65C401,226.68,400.4,232.84,394.52,234.52Zm-4.13-22.82a6.92,6.92,0,0,0-2,.21c0,2.8-.07,5.53-0.07,8.26a62.37,62.37,0,0,0,.42,8.12c1.4-.28,3.43-0.14,4.48-1.19,0.91-.84,1.54-7,1.54-8.33C394.73,215.34,395.08,211.7,390.39,211.7Zm-0.07-15.89c-0.49,0-1.05.07-1.61,0.07h-0.35c0.14,2.94.21,9.94,0.42,9.94,2.66,0,4.27-3.08,4.41-3.29a5.39,5.39,0,0,0,.63-2.73C393.82,197.41,392.91,195.8,390.32,195.8Z" transform="translate(-4.33 -5.05)"/><path d="M412.44,198.26v4.13c0,3.71-.49,7.35-0.49,11.06,0,3.15.28,6.23,0.28,9.38,0,1.47-.14,3-0.14,4.55s0.14,3.15.14,4.76a8.39,8.39,0,0,1-.28,2.59c-1.4,1-3.78,1.12-5.46,1.19a4.4,4.4,0,0,1-1.4-3.5c0-6.09.7-12.11,0.7-18.2,0-7.07-.63-14.21-0.63-21.21,0-2.87,1.47-3.15,3.5-3.15s4.13-.28,4.13,2S412.44,196.08,412.44,198.26Z" transform="translate(-4.33 -5.05)"/><path d="M432.6,223.32a10.77,10.77,0,0,0,.49-2.94c0-.42.07-0.77-0.63-0.77-1,0-2,.21-2.94.21-2.66,0-2.8-1.89-2.8-4s1.89-2.45,4.41-2.45h1.75c1.26,0,2.59-.21,3.85-0.21a6.62,6.62,0,0,1,2.59.56,24.63,24.63,0,0,1,.7,6.79c0,7.84-1,15.54-10.15,15.54-12.67,0-11.48-14.14-11.62-22.82-0.07-2.52-.35-5-0.35-7.56,0-5.32.56-10.15,5.81-12.81v0.07a13.42,13.42,0,0,1,5.46-1.4c3.92,0,10.29,3.29,10.29,6.72,0,1.47-2.73,3.43-3.85,3.43s-4.34-2.94-5.88-3.36h0.07c-0.28,0-.63-0.07-1-0.07-4.06,0-4.06,3.08-4.06,6.16,0,3.43-.14,6.86-0.14,10.29a110.36,110.36,0,0,0,.63,11.76c0.21,1.75,1,3.57,3.57,3.57,3.43,0,3.22-4.48,3.85-6.79Z" transform="translate(-4.33 -5.05)"/><path d="M468.3,198.26v4.13c0,3.71-.49,7.35-0.49,11.06,0,3.15.28,6.23,0.28,9.38,0,1.47-.14,3-0.14,4.55s0.14,3.15.14,4.76a8.39,8.39,0,0,1-.28,2.59c-1.4,1-3.78,1.12-5.46,1.19a4.4,4.4,0,0,1-1.4-3.5c0-6.09.7-12.11,0.7-18.2,0-7.07-.63-14.21-0.63-21.21,0-2.87,1.47-3.15,3.5-3.15s4.13-.28,4.13,2S468.3,196.08,468.3,198.26Z" transform="translate(-4.33 -5.05)"/><path d="M481.95,211.49c0,1.68-.21,3.36-0.35,5-0.49,5.11-.77,10.64-0.77,15.33,0,0.91.07,1.82,0.14,2.66-0.49,1.47-2.52,1.54-4,1.54-1.75,0-2.66-.21-3.29-1.82,0.63-1.19.7-11.13,0.7-13,0-9.38.7-18.76,0.7-28.07,0-3.15,2.31-3.29,4.2-3.29H481c1.61,1.89,3.43,11.27,5,15.05,1.4,3.29,2.38,6.51,4,9.66,0-1.4-.14-2.73-0.14-4.13,0-5.67.91-11.27,0.91-16.94,0-.77-0.28-1.54-0.28-2.38a5.6,5.6,0,0,1,.56-2.31c2,0.49,7.21-.35,7.21,2.59,0,1.4-.28,2.94-0.35,4.41-0.42,10.85-1.19,21.42-1.4,33v2.73c0,3.92-1,4.83-3.71,4.83a4.48,4.48,0,0,1-3-.84c-0.49-.63-6.72-18.83-7.14-20.72Z" transform="translate(-4.33 -5.05)"/><path d="M502.46,215.13c0-1.47-.14-2.94-0.14-4.48,0-3.15.21-6.3,0.21-9.52v-4.69a29.52,29.52,0,0,1,.56-6.93,9.81,9.81,0,0,1,4-.7h1.05c3.92,0,10.36.42,12.81,3.85,2,3,2,8.05,2,11.55,0,2.8-.28,5.53-0.28,8.33,0,2.17.07,4.2,0.07,6.37s0,7.42-.56,9.31c-2.31,7.28-9.66,7.84-16.52,7.84-3.78,0-3.5-1.61-3.5-4.27,0-3.15.14-6.3,0.14-9.45C502.32,219.89,502.46,217.51,502.46,215.13Zm6.44,4.62c0,3.29-.28,6.58-0.28,9.94H509a22.49,22.49,0,0,0,4.76-.77c3.22-.7,2.66-8.12,2.73-12.25s0.35-8.4.35-12.53c0-4.48.14-8.33-5.39-8.33a21,21,0,0,0-2.1.07c-0.14,4.9-.63,9.87-0.63,14.7C508.69,213.66,508.9,216.74,508.9,219.75Z" transform="translate(-4.33 -5.05)"/><path d="M534.59,198.26v4.13c0,3.71-.49,7.35-0.49,11.06,0,3.15.28,6.23,0.28,9.38,0,1.47-.14,3-0.14,4.55s0.14,3.15.14,4.76a8.39,8.39,0,0,1-.28,2.59c-1.4,1-3.78,1.12-5.46,1.19a4.4,4.4,0,0,1-1.4-3.5c0-6.09.7-12.11,0.7-18.2,0-7.07-.63-14.21-0.63-21.21,0-2.87,1.47-3.15,3.5-3.15s4.13-.28,4.13,2S534.59,196.08,534.59,198.26Z" transform="translate(-4.33 -5.05)"/><path d="M556.71,228.64c3.71,0,2.59,4.69,2.8,7.21-2.38.21-4.83,0.28-7.28,0.28-1.26,0-9.94-.14-10.71-0.56-1.12-2.59-1.19-7.35-1.19-10.29,0-11.76-.28-23.66-0.28-35.42,1.12-1.12,2.52-1.12,4-1.12,3.36,0,6.72-.35,10-0.35a8.86,8.86,0,0,1,4.27.91c0.14,1.61.49,3.78,0.49,5,0,1.54-1.54,1.54-2.73,1.54-3.08,0-6.16.14-9.17,0.35,0,4.48-.7,8.89-0.7,13.37a5.35,5.35,0,0,0,.07,1.05c2.24-.21,4.48-0.56,6.72-0.56,0.84,0,1.68.14,2.45,0.14a37,37,0,0,1,1.12,5.39c0,2.17-6.93,1.54-10.08,1.75V218c-0.07,1.75.35,3.5,0.35,5.25a24.46,24.46,0,0,0,.35,5,52.13,52.13,0,0,0,8.05.42C555.66,228.71,556.22,228.64,556.71,228.64Z" transform="translate(-4.33 -5.05)"/><path d="M587.23,221.15c0,1.68.14,3.29,0.14,4.83q0,4.1-.21,8.19c-0.07,1.68-.77,1.75-3.15,1.75-1.54,0-3.15-.21-3.15-2,0-10.78.91-21.56,0.91-32.34,0-2.59-.14-5.25-0.14-7.84,0-4.34,4-4,8.4-4,11.2,0,11.55,8.4,11.55,17.85,0,6.16-.77,12.25-9.45,12.25-1.61,0-3.15-.28-4.83-0.28A12.88,12.88,0,0,0,587.23,221.15Zm7.07-23.8h0.07a7.82,7.82,0,0,0-4.62-1.26c-0.77,0-1.61.14-2.38,0.21,0.07,2.59.14,5.11,0.14,7.63,0,3.43-.07,6.79-0.07,10.08h0.63c1.33,0,4.06.07,5.11-.49,1.89-1,2.38-6,2.38-7.84C595.56,203,595.14,198.11,594.3,197.34Z" transform="translate(-4.33 -5.05)"/><path d="M613.2,198.26v4.13c0,3.71-.49,7.35-0.49,11.06,0,3.15.28,6.23,0.28,9.38,0,1.47-.14,3-0.14,4.55s0.14,3.15.14,4.76a8.39,8.39,0,0,1-.28,2.59c-1.4,1-3.78,1.12-5.46,1.19a4.4,4.4,0,0,1-1.4-3.5c0-6.09.7-12.11,0.7-18.2,0-7.07-.63-14.21-0.63-21.21,0-2.87,1.47-3.15,3.5-3.15s4.13-.28,4.13,2S613.2,196.08,613.2,198.26Z" transform="translate(-4.33 -5.05)"/><path d="M622.72,194.47c-0.49,0-1.05.14-1.68,0.14a3.2,3.2,0,0,1-2.38-1.12,3.44,3.44,0,0,0,.07-0.84c0-.49-0.07-1.05-0.07-1.61,0-1,.21-2.31,1.33-2.66h-0.07a6,6,0,0,1,1.54-.28c1.54,0,3,.28,4.48.28,2.31,0,4.69-.07,7-0.07,1.26,0,2.45-.42,3.64-0.42s1.33,1.61,1.33,2.52c0,4.9-1.19,3.85-5.39,4.48-0.49,9-.77,18.06-0.77,27,0,1.4.14,2.8,0.14,4.2,0,3.29-.21,6.51-0.35,9.8-0.77.07-1.47,0.14-2.24,0.14-1.4,0-2.8-.28-4.2-0.28a15.34,15.34,0,0,1-.21-2.52c0-1.89.28-3.85,0.28-5.74,0-.91-0.07-1.89-0.07-2.8,0.28-4.69.35-7.63,0.35-9.66,0-6.58-.42-10.85-0.42-16.59a37.85,37.85,0,0,1,.14-4h-2.45Z" transform="translate(-4.33 -5.05)"/><path d="M660.52,227.59a3.13,3.13,0,0,1-.84,1.82c-2.17,3.08-5,6.65-9.1,6.65-8.33,0-11.48-7.49-11.48-14.21,0-3,.14-6,0.14-9,0-7.77-.14-22.75,10.57-23.45h0.42c4.62,0,10.36,4.41,10.36,9.38,0,0.63-4.41,1.68-5.11,1.68-2.59,0-1.68-4.48-4.9-4.48-3.78,0-4.48,6.58-4.55,9.45q-0.21,7.88-.21,15.75c0,2.59.42,8.26,4.13,8.26,2.87,0,2.17-4.2,5.46-4.2C656.81,225.28,660.52,225.7,660.52,227.59Z" transform="translate(-4.33 -5.05)"/><path d="M680.12,212.61c0.21-6.09,1.12-12,1.12-18.06,0-1.89.07-3.36,2.31-3.36s4.06,1,4.06,3.43c0,7.14-.56,14.28-0.91,21.42-0.28,6.51-.42,13.09-0.91,19.6-1.26,0-2.45.42-3.78,0.42-2.45,0-2.38-3.15-2.38-5.18,0-4,.14-8.12.35-12.11-2.38,0-4.69-.28-7-0.28h-0.49c-0.07,5.32.07,16.59-1.75,17.15a10.3,10.3,0,0,1-2.52.28c-0.7,0-2.59-.14-2.59-1.19,0-2.59.42-5.67,0.42-8.75v-5c0-8.26.56-16.45,0.56-24.64,0-.7-0.14-1.4-0.14-2.1,0-3.08,1.61-3.15,4-3.15s2.59,0.56,2.59,2.66c0,3.92-.28,7.77-0.28,11.76v6.86c2.31,0,4.62.28,6.93,0.28h0.42Z" transform="translate(-4.33 -5.05)"/><path d="M218.39,494.27c-1.07-.65-2.19-1.21-3.31-1.77-0.55-.28-1.11-0.55-1.66-0.84-0.79-.42-1.59-0.81-2.4-1.21a45.7,45.7,0,0,1-5.19-2.85c-7.87-5.29-16.1-10.94-25.15-17.29a34.57,34.57,0,0,1-8.11-7.66,160.65,160.65,0,0,0-12-13.79l-2-2.09c-8-8.57-16.21-17.85-24.44-27.57a102.44,102.44,0,0,1-10-14.09c-6-10.19-12-20.89-17.83-31.8-5.16-9.68-10.07-19.71-14.82-29.41l-0.16-.33c-5.73-11.7-9.12-21.86-10.69-32-1-6.66-2.46-13.68-4.37-21.45-3-12.14-6.25-26.57-7.76-41.54a252.6,252.6,0,0,1-1.56-28c0-4.48.32-9,.59-13.46l0.17-2.72c0.24-4.09.37-8.18,0.51-12.27,0.18-5.45.37-11.09,0.81-16.62a164.35,164.35,0,0,1,5.13-31.08q2.32-8.41,4.66-16.82a29.27,29.27,0,0,1,1-2.92q1.4-3.56,2.81-7.11c1.59-4,3.19-8,4.74-12.09A103.65,103.65,0,0,1,96.74,87.4c1.71-2.7,3.63-5.35,5.49-7.91l2.37-3.28c1.84-2.56,3.74-5.21,5.76-7.68,2.17-2.65,4.52-5.24,6.79-7.75l1.84-2c0.62-.69,1.25-1.36,1.88-2,2.7-2.9,5.49-5.9,7.35-9.65a5.09,5.09,0,0,1,.92-1.13c0.25-.26.51-0.52,0.73-0.8,0.35-.43.68-0.88,1-1.31l0.7-.94-0.17-.5c-0.35-1-1-2.81-2.91-3.24l-0.25-.06-0.55.16a2.06,2.06,0,0,0-.92.39c-0.51.42-1,.85-1.49,1.29-0.78.69-1.57,1.37-2.4,2-7.31,5.37-13.22,11.91-19.13,18.7-2.54,2.92-4.87,6.08-7.13,9.14L95,73c-0.9,1.2-1.73,2.44-2.55,3.69-0.64,1-1.28,1.92-1.95,2.86a103.33,103.33,0,0,0-11.74,21.36c-0.57,1.42-1.16,2.83-1.74,4.24-1.36,3.3-2.77,6.72-4,10.14-1.35,3.6-2.66,7.55-4,12.1-1.5,5-2.81,10-3.9,14.19-1,4-1.9,7.71-2.63,11.25-1.73,8.39-2.27,17-2.79,25.36-0.12,1.85-.23,3.69-0.36,5.54-0.24,3.5-.31,7.06-0.37,10.51,0,2.32-.09,4.64-0.18,7-0.09,2.16-.23,4.32-0.38,6.48-0.19,2.81-.38,5.71-0.45,8.58A231.54,231.54,0,0,0,59,242.85a234.93,234.93,0,0,0,5.36,34.6c3.17,13,5.69,25,7.73,36.8a83.85,83.85,0,0,0,6.7,21.4c5.53,11.75,11.61,24.1,18,36.7,3.61,7.06,7.6,14.08,11.45,20.85l2.69,4.74A164.07,164.07,0,0,0,119.6,412a258.09,258.09,0,0,0,18.38,23l1.08,1.2c4.86,5.43,9.89,11,15.07,16.34a158.46,158.46,0,0,1,12.33,13.8,52.36,52.36,0,0,0,10.94,10.71c6.61,4.73,11.72,8.31,16.58,11.62a139.14,139.14,0,0,0,22.65,12.6,6.31,6.31,0,0,0,2.47.6,3.91,3.91,0,0,0,3.3-1.9l0.26-.37-0.1-.43A8.25,8.25,0,0,0,218.39,494.27Z" transform="translate(-4.33 -5.05)"/><path d="M158.64,354.25a27.6,27.6,0,0,0-2.88,8.52c-0.68,3.57-1.34,7.42-2.05,12.14a134.65,134.65,0,0,0-1.71,29.4,3.21,3.21,0,0,1-.56,2.32c-0.71,1-1.38,1.94-2.13,3l-1.37,2,2.5,5.22,1.28-.28a5.71,5.71,0,0,0,1-.26,6.87,6.87,0,0,0,1.63-.85c3.12-2.35,6.58-5.37,8.67-10l0.53-1.18c2.4-5.3,4.88-10.79,6.89-16.39a108.38,108.38,0,0,0,5.23-18.44,24.39,24.39,0,0,0-4.79-19.8c-1.5-1.93-3.26-2.39-5.35-1.43A14.43,14.43,0,0,0,158.64,354.25ZM162.4,382l0.13-1c0.82-6.53,1.66-13.26,3.56-19.63,0,0.13,0,.26.05,0.39a14.93,14.93,0,0,1,.17,3.82A86.12,86.12,0,0,1,162.4,382Z" transform="translate(-4.33 -5.05)"/><path d="M103.16,420.58c1.35-.06,2.75,0,4.22,0l2.26,0.06h0.27l0.57-.32a17.3,17.3,0,0,0,1.5-.88c0.52-.35,1-0.74,1.55-1.17l1.45-1.13-1.3-2.18c-0.66-1.11-1.27-2.15-1.93-3.16a3.48,3.48,0,0,0-3.67-1.68,26.62,26.62,0,0,1-2.67.23l-0.82,0A19.54,19.54,0,0,0,98,403a54.26,54.26,0,0,0-18.19-8.51,33,33,0,0,0-14.17-.68c-5.33,1-9.24,2.64-12.33,5.32-2.61,2.27-3,4.12-1.32,7.09a19.71,19.71,0,0,0,11.27,9.32,98,98,0,0,0,19.14,4.23,109.71,109.71,0,0,0,14.69,1Q100.07,420.72,103.16,420.58ZM94.93,410.5c-5.07.47-13-.31-21.54-2.16l-0.27-.06c-4.07-.88-8.27-1.8-11.8-4a1.34,1.34,0,0,1,1-.57,26.69,26.69,0,0,1,12.07-1.11A49.11,49.11,0,0,1,94.23,410,8.27,8.27,0,0,1,94.93,410.5Z" transform="translate(-4.33 -5.05)"/><path d="M34.37,160.26c4.32,2.25,7.84,4.24,10.41,7.63a4.54,4.54,0,0,0,3.71,1.92,5.61,5.61,0,0,0,1.53-.22l0.59-.17,0.12-.6c0.86-4.53-.25-8.72-3-11.51a5.39,5.39,0,0,1-1.62-3.19,19.13,19.13,0,0,0-1.8-5.5,58.3,58.3,0,0,0-14-17.52,37.27,37.27,0,0,0-11.83-7A22.58,22.58,0,0,0,8.24,123c-2.35.28-3.35,1.23-3.71,3.51a11.27,11.27,0,0,0,1.11,7.57,35.38,35.38,0,0,0,2.85,4.45A80.37,80.37,0,0,0,34.37,160.26Zm-17.73-26.7c6.23,2.94,13.91,9.74,17.17,15.18A68.09,68.09,0,0,1,16.64,133.57Z" transform="translate(-4.33 -5.05)"/><path d="M146,458.59l0.25-5-0.44-.31a7,7,0,0,0-6.1-1.08,5.18,5.18,0,0,1-3.56-.48c-0.64-.29-1.3-0.54-2-0.78l-1-.4-1.15-.46c-6.44-2.57-13.1-5.22-20.15-6.43a41.88,41.88,0,0,0-8.07-.67,22.37,22.37,0,0,0-9.67,2c-5.26,2.65-7.17,6.09-6.2,11.18a4.33,4.33,0,0,1,0,.63c0.09,3.75,2,6.37,5.64,7.79l0.59,0.23A17.85,17.85,0,0,0,98,466a70.38,70.38,0,0,0,8.77,1c0.84,0,1.68,0,2.54,0a107.68,107.68,0,0,0,19-1.92c3.83-.68,7.62-1.68,10.49-2.48a16.63,16.63,0,0,0,7-3.75Zm-22.79-1c-3.27.35-6.55,0.67-9.84,0.92a32.51,32.51,0,0,1-11-1.31c-2-.53-3.52-1.25-4.52-2.91,1.72-2.25,4-3,7.22-2.43a67.87,67.87,0,0,1,13.49,4c0.64,0.25,1.3.46,2,.67a16.07,16.07,0,0,1,2.87,1.08Z" transform="translate(-4.33 -5.05)"/><path d="M134.56,146.57c-0.25-.59-0.52-1.18-0.7-1.6l-0.2-.45-0.48-.11-1.05-.26a12.56,12.56,0,0,0-2-.4,45.66,45.66,0,0,0-12.08.8c-6.86,1.24-13.18,3.67-20.14,6.48a33.19,33.19,0,0,0-10.92,7c-1.12,1.1-2.25,2.19-3.39,3.28l-2.3,2.22a4.75,4.75,0,0,0-1.61,3.3,4.09,4.09,0,0,0,1.28,2.92,3.49,3.49,0,0,1,1.1,2.13c0.07,0.43.16,0.85,0.3,1.43l0.44,2,0.9-.12,1.51-.18a24.63,24.63,0,0,0,2.79-.42l1.08-.25c5.34-1.25,10.86-2.54,16.26-3.93a89.93,89.93,0,0,0,17.3-6.25,31.55,31.55,0,0,0,9.4-6.43C135.39,154.12,136.23,150.47,134.56,146.57Zm-38.3,17.38c-1,.25-2,0.5-2.94.73-0.27.06-.54,0.11-0.84,0.16a29.49,29.49,0,0,1,12-8l0.33-.12c2.57-.93,5.22-1.89,7.85-2.73a28,28,0,0,1,8.52-1.32c0.8,0,1.6,0,2.41.1a1.37,1.37,0,0,1-.16.21,26.62,26.62,0,0,1-9,5.61,72.32,72.32,0,0,1-13.38,4.26C99.45,163.14,97.86,163.54,96.26,163.95Z" transform="translate(-4.33 -5.05)"/><path d="M145.43,112.39a11.07,11.07,0,0,0,1.52-9.88,17.64,17.64,0,0,1-.49-1.8c-0.63-3.08-2.65-5.1-6-6a22.46,22.46,0,0,0-10.26-.25,47.64,47.64,0,0,0-13.41,4.33c-5.24,2.72-10.16,5.64-12.69,11.22-6.1-.25-6.44-0.17-9.5,2.2l-0.45.35L95,118.77l1.44,0.33a11.78,11.78,0,0,0,1.44.29l4.47,0.52c5.33,0.62,10.66,1.24,16,1.79a41.91,41.91,0,0,0,4.33.23,36.81,36.81,0,0,0,14-2.69A18.17,18.17,0,0,0,145.43,112.39Zm-7.66-7a2.4,2.4,0,0,1-.45,1.68c-2,3.7-4.77,5.51-8.4,5.51h-0.2l-1.48,0c-1.44,0-2.94,0-4.37-.16-2.45-.23-4.89-0.52-7.61-0.85l-1.77-.21a15.88,15.88,0,0,1,1.36-1.32,37.2,37.2,0,0,1,10.72-6,15.14,15.14,0,0,1,7.34-.73,12.85,12.85,0,0,1,3.5,1A2.39,2.39,0,0,1,137.76,105.37Z" transform="translate(-4.33 -5.05)"/><path d="M38.66,97.34c0.78,1.13,1.56,2.27,2.32,3.42,0.44,0.67.9,1.34,1.35,2,1.29,1.91,2.63,3.89,3.73,5.92a9.83,9.83,0,0,0,5.17,4.87l0.6,0.24,0.46-.46,0.34-.32a3.28,3.28,0,0,0,.76-0.86l0.36-.68c0.81-1.57,1.39-2.54,2.88-2.74,1-.13,1.56-1.18,2-2a11.73,11.73,0,0,0,1.62-8.27c-0.42-2-.83-3.93-1.23-5.9-0.8-3.92-1.63-8-2.64-11.93a46.58,46.58,0,0,0-4.8-12c-2.45-4.17-5.22-6.91-8.73-8.61a6.24,6.24,0,0,0-7.6,1.14,10.38,10.38,0,0,0-1.75,1.95,20.49,20.49,0,0,0-3.55,10.07,30.38,30.38,0,0,0,4.27,17.23C35.57,92.84,37.14,95.12,38.66,97.34ZM38.23,73a8.73,8.73,0,0,1,.17-1.79l0.12-.78A2,2,0,0,1,39.67,69a1.57,1.57,0,0,1,.79-0.3A0.67,0.67,0,0,1,41,69a16,16,0,0,1,1.85,2.31,39.27,39.27,0,0,1,4.74,10.56,126.32,126.32,0,0,1,4.25,18.54c-0.78-1.08-1.58-2.16-2.37-3.24A100.93,100.93,0,0,1,41.21,84.8,27.89,27.89,0,0,1,38.23,73Z" transform="translate(-4.33 -5.05)"/><path d="M129.47,194.33a2,2,0,0,0-.53-0.84l-0.37-.45-0.25-.1a10.91,10.91,0,0,0-5.47-.25l-0.74.09c-6.85.8-12.61,4-16.87,6.62a83.2,83.2,0,0,0-15.39,12.81,38.57,38.57,0,0,1-5.74,5.14,6.13,6.13,0,0,0-2.87,6.31c0.08,0.72.19,1.44,0.32,2.27l0.32,2h0.85a22.41,22.41,0,0,0,6.77-1.28c0.78-.24,1.55-0.48,2.34-0.67a81.76,81.76,0,0,0,28.78-13.8,36.87,36.87,0,0,0,6.3-5.75C130.72,202,131.11,200.22,129.47,194.33Zm-13,9.18c-0.19.18-.39,0.35-0.61,0.53a72.57,72.57,0,0,1-12,7.81c0.6-.57,1.42-1.23,2.56-2.13A45.52,45.52,0,0,1,116.51,203.51Z" transform="translate(-4.33 -5.05)"/><path d="M90.87,56.67a22.7,22.7,0,0,0,5.92,4.92L97.42,62,98,61.46a13.54,13.54,0,0,0,3.74-5.3,2.36,2.36,0,0,0,.05-1.78c-0.65-1.31-.22-2.4.53-4.07l0.15-.32a9.91,9.91,0,0,0,.73-3,35.36,35.36,0,0,0-1.41-15.25c-0.9-2.73-2.35-6.15-5.51-8.31a41.66,41.66,0,0,0-7.12-3.78,5,5,0,0,0-6.42,1.79,18.9,18.9,0,0,0-3.29,6.68,16.54,16.54,0,0,0,.48,9.5A55.28,55.28,0,0,0,90.87,56.67ZM88.31,30.16a1.84,1.84,0,0,1,1.94.95,14.9,14.9,0,0,1,2,3.55,29.06,29.06,0,0,1,1.65,9.26,41.75,41.75,0,0,1-5-10.66A9.21,9.21,0,0,1,88.31,30.16Z" transform="translate(-4.33 -5.05)"/><path d="M21.31,216.64l0.3,0.08c1,0.08,1.93.18,2.85,0.28,2,0.22,4,.38,5.89.41,3.08,0,6.28.07,9.19,1.48a5.43,5.43,0,0,0,2.42.57,6.52,6.52,0,0,0,1.27-.13c2.33-.47,3.47-2,3.12-4.15-0.41-2.6-.93-5.84-4.07-7.81a15.8,15.8,0,0,1-2.18-1.79c-0.44-.41-0.88-0.82-1.34-1.19a47.44,47.44,0,0,0-11.06-6.58c-5.35-2.38-10.94-2.13-17.61.8a4.27,4.27,0,0,0-2.67,4.9c0.73,4.76,2.74,8,6.16,9.76a58.7,58.7,0,0,0,5.51,2.47C19.86,216,20.6,216.33,21.31,216.64Z" transform="translate(-4.33 -5.05)"/><path d="M58.08,362.23a49.91,49.91,0,0,1,6.73.28,17.5,17.5,0,0,0,2.37.17,13.15,13.15,0,0,0,6.75-1.79l0.59-.34-0.11-.67c-0.07-.44,0-0.56,1-1.14a8.2,8.2,0,0,0,1.29-.89l0.48-.42L77,356.82c-2.47-8-7.72-13.24-16.06-16.09a12.9,12.9,0,0,0-9.22.44,72.88,72.88,0,0,0-6.9,3.22A11.76,11.76,0,0,0,40,348.63a3.9,3.9,0,0,0-.64,3.44c1.16,3.38,3.17,7.45,8.43,8.9a31.3,31.3,0,0,0,8,1.26h2.25Zm-5.29-10.9a5.58,5.58,0,0,1,3.85-1.15,11.87,11.87,0,0,1,5,1.66A29.78,29.78,0,0,1,52.79,351.33Z" transform="translate(-4.33 -5.05)"/><path d="M130.75,60.33l-0.13,1.47,0.73,0.25c3.35,1.14,7.35,2,11.56.12,1.68-.77,3.47-1.42,5.2-2.05l1-.36c2.12-.78,3.91-0.18,6,2a1.44,1.44,0,0,1,.5,1,1.37,1.37,0,0,1-.66.84,17.52,17.52,0,0,1-9.11,3.1A30.56,30.56,0,0,1,134.9,65c-2.2-.7-4.8-1.37-7.7-0.34l-0.48.17L125,71.24l0.85,0.31,1.59,0.6c1,0.4,2,.75,2.9,1a61.72,61.72,0,0,0,13.51,2c0.72,0,1.43.06,2.12,0.06a27.91,27.91,0,0,0,13.36-3.08c3.93-2.08,5.89-5,6-9.11a20.64,20.64,0,0,1,.12-2.07,6.72,6.72,0,0,0-3.21-6.67,16.38,16.38,0,0,0-4.52-2.15,26,26,0,0,0-19.18,1.7,51.18,51.18,0,0,1-5,2.06,3.7,3.7,0,0,0-2.63,3C130.83,59.34,130.79,59.81,130.75,60.33Z" transform="translate(-4.33 -5.05)"/><path d="M115.7,276.92a22.7,22.7,0,0,0,2.67-6.38c0.2-.65.39-1.3,0.61-2a11,11,0,0,0-1.4-9.41l-0.27-.45-0.52,0-0.44,0a3,3,0,0,0-1.15,0,30.47,30.47,0,0,0-10.87,4.62q-8.07,5.77-16.16,11.5a7.5,7.5,0,0,0-2.55,3.58c-1.06,2.58-.35,4.89.39,7.35L86.4,287l0.62,0.1,1.31,0.22c0.93,0.16,1.83.32,2.74,0.39q1,0.08,1.89.08c6.16,0,11.55-2.33,16.07-4.66A18.1,18.1,0,0,0,115.7,276.92Zm-8.77-4.66a7.68,7.68,0,0,1-2.17,2.94,10.41,10.41,0,0,1-4.91,2.23c1.17-.82,2.27-1.64,3.34-2.46C104.46,274,105.67,273.11,106.93,272.26Z" transform="translate(-4.33 -5.05)"/><path d="M101.23,353.91l0.68-.07c3.51-.36,7.14-0.74,9.77-4.19,1.24-1.63,2.64-3.19,4-4.71,0.82-.91,1.64-1.83,2.43-2.76a32.41,32.41,0,0,0,6.21-10.95,16.74,16.74,0,0,0-.61-12.29c-1.15-2.6-2.73-3.46-5.44-3-4.57.78-8,2.89-10.17,6.3a42.89,42.89,0,0,0-4.18,8.3c-1.84,5.06-3.44,10-2.88,15.5a2.32,2.32,0,0,1-.3,1.91c-1.5,1.89-.57,3.81.18,5.35Zm12.21-21a19.24,19.24,0,0,1,1.47-3.31A13.87,13.87,0,0,1,113.44,332.91Z" transform="translate(-4.33 -5.05)"/><path d="M44,291.1a11.51,11.51,0,0,0,4.53-.87c1.32-.56,2.23-0.75,3.29-0.22a4.39,4.39,0,0,0,4.34-.45c0.4-.24.78-0.52,1.22-0.85l1.33-1L58.34,287a15.38,15.38,0,0,0-5.24-6.31,82.22,82.22,0,0,0-14.46-8.52,54.93,54.93,0,0,0-6.79-2.47c-4.25-1.26-7.79-.49-10.51,2.27a6.08,6.08,0,0,1-.78.63c-0.24.17-.48,0.34-0.7,0.53-2.13,1.79-2.45,3.5-1.07,5.72,3,4.81,6.57,7.79,10.92,9.12,3.75,1.15,7.16,2,10.41,2.68A19.4,19.4,0,0,0,44,291.1Z" transform="translate(-4.33 -5.05)"/><path d="M135.21,35.84c0.12,0.43.22,0.86,0.32,1.27l0.1,0.44,4,2.13,0.38-.1c4.46-1.19,6.56-2.53,9.39-6a44,44,0,0,0,7.4-13.38,11.74,11.74,0,0,0-4.47-13c-2.13-1.35-4.68-2.64-7.45-2-3.77.86-8.27,2.61-9.67,8.55-1.63,6.92-1.19,13.68-.63,18.8A22.74,22.74,0,0,0,135.21,35.84Zm9.27-21.11a3.38,3.38,0,0,1,2.27.73c1.42,0.84,1.53,1.14,1,2.74a41.53,41.53,0,0,1-4.5,9A30.12,30.12,0,0,1,144.48,14.73Z" transform="translate(-4.33 -5.05)"/><path d="M178.48,452.78l0.27,0.57h0.63a12,12,0,0,0,10.29-5.19,45.78,45.78,0,0,0,7.77-18.5,6.14,6.14,0,0,0-.79-4.49c-0.25-.39-0.48-0.79-0.71-1.19-0.38-.64-0.75-1.28-1.17-1.89-1.5-2.2-3.27-2.8-5.58-1.9-4.94,1.91-8.21,4.48-10.27,8.09C174.48,436,174.33,444.06,178.48,452.78Z" transform="translate(-4.33 -5.05)"/><path d="M173,484l-0.74-.08c-0.52-.05-1-0.12-1.53-0.19a24,24,0,0,0-3.35-.27,39.68,39.68,0,0,0-19.24,5.62c-4.18,2.44-5,4.16-4.14,9.17l0.06,0.35c0.07,0.42.13,0.83,0.22,1.24,0.69,3.55,2.26,5,5.61,5.14q0.73,0,1.43,0a17.64,17.64,0,0,0,10.15-2.7c2.3-1.53,4.55-3.17,6.74-4.76l1.35-1a8.31,8.31,0,0,0,2.6-3.47,13.2,13.2,0,0,0,1-8.37Z" transform="translate(-4.33 -5.05)"/><path d="M903.33,466.42a158.41,158.41,0,0,1,12.33-13.8c5.21-5.34,10.27-11,15.16-16.45l1-1.1a258.09,258.09,0,0,0,18.38-23A163.87,163.87,0,0,0,958.76,398l2.73-4.81c3.85-6.77,7.83-13.78,11.44-20.84,6.41-12.54,12.48-24.89,18-36.7a83.91,83.91,0,0,0,6.7-21.4c2-11.77,4.57-23.81,7.73-36.8a234.75,234.75,0,0,0,5.36-34.6,231.53,231.53,0,0,0,1.15-26.64c-0.07-2.88-.26-5.8-0.45-8.62-0.15-2.15-.29-4.3-0.38-6.45-0.1-2.33-.14-4.66-0.18-7-0.07-3.43-.13-7-0.38-10.48-0.13-1.85-.24-3.69-0.36-5.54-0.52-8.34-1.06-17-2.79-25.36-0.73-3.53-1.6-7.21-2.63-11.25-1.08-4.2-2.4-9.18-3.9-14.19-1.33-4.48-2.65-8.43-4-12.1-1.28-3.42-2.69-6.84-4.05-10.15q-0.87-2.11-1.73-4.23a103.62,103.62,0,0,0-11.74-21.36c-0.68-1-1.33-1.93-2-2.9-0.82-1.23-1.63-2.46-2.52-3.64l-1.69-2.28c-2.24-3-4.56-6.17-7.08-9.06-5.9-6.79-11.81-13.32-19.13-18.7-0.84-.62-1.63-1.31-2.41-2-0.49-.43-1-0.86-1.48-1.27a2.07,2.07,0,0,0-.92-0.39l-0.56-.16-0.25.06c-1.93.42-2.57,2.25-2.92,3.24l-0.17.5,0.68,0.91c0.32,0.44.65,0.9,1,1.34,0.23,0.28.48,0.54,0.73,0.8a5.1,5.1,0,0,1,.92,1.13c1.86,3.75,4.65,6.75,7.35,9.66,0.63,0.68,1.26,1.35,1.87,2l1.88,2.08c2.26,2.49,4.6,5.07,6.76,7.7,2,2.42,3.86,5,5.67,7.55l2.45,3.39c1.86,2.56,3.79,5.21,5.5,7.92a103.55,103.55,0,0,1,9.31,18.15c1.54,4,3.12,8,4.71,12q1.43,3.6,2.84,7.2c0.37,1,.69,1.93,1,2.92q2.35,8.4,4.66,16.82a164.85,164.85,0,0,1,5.13,31.08c0.44,5.54.63,11.19,0.81,16.65,0.13,4.08.27,8.16,0.5,12.24l0.17,2.72c0.27,4.42.54,9,.59,13.46a254.11,254.11,0,0,1-1.55,28c-1.51,15-4.77,29.42-7.76,41.54C991.48,298,990,305,989,311.61c-1.56,10.09-5,20.24-10.69,32l-0.28.58c-4.71,9.61-9.57,19.56-14.69,29.15-5.8,10.87-11.8,21.57-17.83,31.8a102.21,102.21,0,0,1-10,14.09c-8.4,9.92-16.4,18.94-24.44,27.57l-2,2.09a160.65,160.65,0,0,0-12,13.79,34.55,34.55,0,0,1-8.1,7.66c-9,6.31-17.22,12-25.15,17.29a45.33,45.33,0,0,1-5.18,2.85c-0.81.4-1.61,0.79-2.4,1.21-0.55.29-1.1,0.56-1.65,0.83-1.12.56-2.25,1.12-3.32,1.78a8.25,8.25,0,0,0-4.16,5l-0.1.43,0.25,0.37a3.92,3.92,0,0,0,3.31,1.91,6.36,6.36,0,0,0,2.47-.6,137.22,137.22,0,0,0,22.65-12.6c4.83-3.28,10.1-7,16.58-11.62A52.17,52.17,0,0,0,903.33,466.42Z" transform="translate(-4.33 -5.05)"/><path d="M899.33,387.89c2,5.6,4.49,11.09,6.89,16.39l0.53,1.17c2.1,4.64,5.56,7.66,8.67,10a7.12,7.12,0,0,0,1.63.84,5.45,5.45,0,0,0,1,.27l1.28,0.28,2.5-5.22-1.37-2c-0.75-1.08-1.42-2.06-2.13-3a3.21,3.21,0,0,1-.56-2.32,135.16,135.16,0,0,0-1.71-29.4c-0.75-4.91-1.38-8.66-2.06-12.14a27.86,27.86,0,0,0-2.87-8.52,14.45,14.45,0,0,0-6.91-6c-2.09-1-3.84-.5-5.34,1.43a24.37,24.37,0,0,0-4.79,19.8A107.47,107.47,0,0,0,899.33,387.89Zm4.31-26.15c0-.12,0-0.25.05-0.37,1.9,6.37,2.74,13.1,3.55,19.62l0.13,1a86.34,86.34,0,0,1-3.9-16.4A15,15,0,0,1,903.64,361.74Z" transform="translate(-4.33 -5.05)"/><path d="M1004.11,393.8a33,33,0,0,0-14.17.68A54.36,54.36,0,0,0,971.75,403a19.49,19.49,0,0,0-6.57,7.44l-0.82,0a26.52,26.52,0,0,1-2.67-.23,3.46,3.46,0,0,0-3.67,1.68c-0.65,1-1.27,2.05-1.93,3.16l-1.3,2.18,1.45,1.13c0.55,0.43,1,.82,1.55,1.17s1.05,0.64,1.47.86l0.59,0.33h0.27l2.26-.06c1.47,0,2.87-.09,4.22,0q3.09,0.14,6.05.14a110.14,110.14,0,0,0,14.7-1,98,98,0,0,0,19.14-4.23,19.74,19.74,0,0,0,11.27-9.32c1.63-3,1.29-4.83-1.32-7.1C1013.35,396.45,1009.43,394.76,1004.11,393.8Zm4.35,10.5c-3.53,2.17-7.73,3.09-11.8,4l-0.27.06c-8.52,1.85-16.49,2.64-21.55,2.16a8.21,8.21,0,0,1,.7-0.51,49.12,49.12,0,0,1,19.86-7.37,26.59,26.59,0,0,1,12.06,1.11A1.35,1.35,0,0,1,1008.46,404.3Z" transform="translate(-4.33 -5.05)"/><path d="M1065.25,126.49c-0.35-2.25-1.39-3.24-3.71-3.51a22.29,22.29,0,0,0-10.19,1.11,37.14,37.14,0,0,0-11.83,7,58.26,58.26,0,0,0-14,17.52,19.13,19.13,0,0,0-1.8,5.5,5.42,5.42,0,0,1-1.63,3.19c-2.79,2.79-3.89,7-3,11.51l0.12,0.6,0.59,0.17a5.61,5.61,0,0,0,1.53.22,4.54,4.54,0,0,0,3.71-1.92c2.57-3.39,6.08-5.38,10.41-7.63a80.35,80.35,0,0,0,25.88-21.76,34.49,34.49,0,0,0,2.85-4.45A11.24,11.24,0,0,0,1065.25,126.49Zm-12.11,7.08A68.08,68.08,0,0,1,1036,148.75C1039.23,143.3,1046.9,136.5,1053.13,133.56Z" transform="translate(-4.33 -5.05)"/><path d="M975.62,445a22.39,22.39,0,0,0-9.68-2,42,42,0,0,0-8.07.67c-7,1.21-13.7,3.86-20.15,6.43l-2.17.85c-0.67.25-1.33,0.5-2,.79a5.19,5.19,0,0,1-3.56.48,7,7,0,0,0-6.1,1.08l-0.44.31,0.26,5,0.29,0.27a16.6,16.6,0,0,0,7,3.75c2.87,0.8,6.66,1.81,10.49,2.48a107.68,107.68,0,0,0,19,1.92c0.86,0,1.7,0,2.54,0a70.27,70.27,0,0,0,8.77-1,17.89,17.89,0,0,0,3.74-1.18l0.59-.23c3.65-1.42,5.55-4,5.64-7.8a3.71,3.71,0,0,1,0-.62C982.78,451.06,980.87,447.61,975.62,445Zm-29.24,12.6a16,16,0,0,1,2.87-1.08c0.67-.21,1.33-0.41,2-0.67a68,68,0,0,1,13.49-4c3.24-.56,5.5.18,7.22,2.43-1,1.66-2.54,2.38-4.52,2.91a32.19,32.19,0,0,1-11,1.31c-3.29-.25-6.57-0.58-9.84-0.92Z" transform="translate(-4.33 -5.05)"/><path d="M990.12,166.86a4.74,4.74,0,0,0-1.61-3.3l-2.33-2.25c-1.12-1.08-2.24-2.15-3.35-3.24a33.12,33.12,0,0,0-10.92-7c-7-2.81-13.26-5.24-20.14-6.48a45.42,45.42,0,0,0-12.07-.8,12.56,12.56,0,0,0-2,.4l-1.05.26-0.49.11-0.9,2.06c-1.67,3.9-.83,7.55,2.56,11.15a31.58,31.58,0,0,0,9.4,6.43,89.91,89.91,0,0,0,17.3,6.25c5.34,1.37,10.8,2.65,16.08,3.88l1.26,0.3a24.57,24.57,0,0,0,2.79.42l1.51,0.18,0.9,0.12,0.43-1.94c0.14-.59.24-1,0.3-1.46a3.53,3.53,0,0,1,1.1-2.13A4.09,4.09,0,0,0,990.12,166.86Zm-21.41-4a72.32,72.32,0,0,1-13.37-4.26,26.62,26.62,0,0,1-9-5.61,1.35,1.35,0,0,1-.16-0.2A28.2,28.2,0,0,1,957.08,154c2.61,0.83,5.24,1.78,7.79,2.7l0.4,0.15a29.44,29.44,0,0,1,12,8c-0.3,0-.57-0.09-0.84-0.16-1-.23-2-0.47-2.93-0.72C971.92,163.55,970.33,163.14,968.71,162.82Z" transform="translate(-4.33 -5.05)"/><path d="M965.69,110c-2.54-5.58-7.45-8.5-12.69-11.22a47.68,47.68,0,0,0-13.41-4.33,22.54,22.54,0,0,0-10.26.25c-3.35.91-5.37,2.93-6,6a15.8,15.8,0,0,1-.49,1.8,11.09,11.09,0,0,0,1.52,9.88,18.21,18.21,0,0,0,8.76,6.85,36.77,36.77,0,0,0,14,2.69,41.93,41.93,0,0,0,4.34-.23c5.36-.55,10.72-1.18,16.08-1.8l4.39-.51a11.68,11.68,0,0,0,1.46-.3l1.42-.33,0.84-6.23-0.45-.35C972.14,109.82,971.8,109.75,965.69,110Zm-9.41,1.34-1.76.21c-2.72.33-5.17,0.62-7.62,0.85-1.43.13-2.92,0.15-4.37,0.16l-1.48,0c-3.7.19-6.53-1.73-8.59-5.51a1.58,1.58,0,0,1,.91-2.75,12.85,12.85,0,0,1,3.5-1,16.53,16.53,0,0,1,2.27-.16,14.64,14.64,0,0,1,5.07.89,37.2,37.2,0,0,1,10.72,6h0A15,15,0,0,1,956.28,111.33Z" transform="translate(-4.33 -5.05)"/><path d="M1013.15,108.73c1.5,0.2,2.07,1.17,2.88,2.73l0.37,0.69a3.23,3.23,0,0,0,.76.87l0.34,0.31,0.46,0.46,0.6-.24a9.83,9.83,0,0,0,5.17-4.87c1.1-2,2.43-4,3.73-5.92,0.45-.67.9-1.33,1.35-2,0.76-1.15,1.54-2.29,2.33-3.43,1.52-2.21,3.09-4.49,4.47-6.85a30.36,30.36,0,0,0,4.26-17.23,20.5,20.5,0,0,0-3.55-10.07,10.26,10.26,0,0,0-1.75-1.94,6.23,6.23,0,0,0-7.6-1.14c-3.52,1.7-6.29,4.44-8.74,8.61a46.31,46.31,0,0,0-4.8,12c-1,4-1.84,8-2.64,11.93-0.4,2-.8,3.93-1.23,5.89a11.72,11.72,0,0,0,1.62,8.27C1011.69,107.74,1012.25,108.61,1013.15,108.73Zm4.84-8.36a125.32,125.32,0,0,1,4.25-18.53A39.25,39.25,0,0,1,1027,71.29a16.23,16.23,0,0,1,1.85-2.32,0.67,0.67,0,0,1,.5-0.26,1.56,1.56,0,0,1,.79.3,2,2,0,0,1,1.16,1.43l0.12,0.78a8.73,8.73,0,0,1,.17,1.79,27.89,27.89,0,0,1-3,11.79h0a101.09,101.09,0,0,1-8.21,12.33C1019.56,98.21,1018.77,99.29,1018,100.37Z" transform="translate(-4.33 -5.05)"/><path d="M987.91,228l0.32-2.1c0.13-.81.24-1.51,0.32-2.21a6.14,6.14,0,0,0-2.87-6.31,38.66,38.66,0,0,1-5.74-5.14,83,83,0,0,0-15.39-12.81c-4.26-2.66-10-5.82-16.87-6.62l-0.74-.09a10.83,10.83,0,0,0-5.48.25l-0.25.1-0.17.21a2.72,2.72,0,0,1-.21.24,2,2,0,0,0-.53.84c-1.63,5.89-1.25,7.7,2.58,12.14a36.78,36.78,0,0,0,6.29,5.75A81.74,81.74,0,0,0,978,226c0.78,0.19,1.55.43,2.33,0.67a22.35,22.35,0,0,0,6.77,1.28h0.85Zm-22.07-16.12a72.62,72.62,0,0,1-12-7.81c-0.22-.18-0.42-0.35-0.6-0.53a45.7,45.7,0,0,1,10,6.21C964.42,210.62,965.23,211.28,965.84,211.85Z" transform="translate(-4.33 -5.05)"/><path d="M967.35,50l0.15,0.32c0.75,1.67,1.18,2.76.53,4.07a2.36,2.36,0,0,0,.06,1.82l1-.23h0l-0.94.29a13.54,13.54,0,0,0,3.71,5.22L972.36,62l0.63-.36a22.76,22.76,0,0,0,5.92-4.92,55.24,55.24,0,0,0,11-19,16.58,16.58,0,0,0,.49-9.5,19,19,0,0,0-3.29-6.68,5,5,0,0,0-6.42-1.79,41.78,41.78,0,0,0-7.12,3.78c-3.17,2.17-4.61,5.58-5.51,8.31A35.27,35.27,0,0,0,966.63,47,10,10,0,0,0,967.35,50Zm8.56-6.05a29.21,29.21,0,0,1,1.65-9.26,15,15,0,0,1,2-3.55,1.92,1.92,0,0,1,1.59-1,2,2,0,0,1,.35,0,9.17,9.17,0,0,1-.57,3.1A41.63,41.63,0,0,1,975.91,43.92Z" transform="translate(-4.33 -5.05)"/><path d="M1059.68,198.59c-6.67-2.93-12.26-3.18-17.61-.8a47.33,47.33,0,0,0-11.06,6.58c-0.46.38-.9,0.79-1.35,1.2a15.63,15.63,0,0,1-2.17,1.79c-3.14,2-3.66,5.21-4.07,7.81-0.34,2.17.8,3.69,3.12,4.15a6.41,6.41,0,0,0,1.27.13,5.41,5.41,0,0,0,2.41-.57c2.92-1.41,6.14-1.48,9.2-1.48,2,0,3.86-.19,5.89-0.41,0.92-.1,1.87-0.2,2.85-0.28l0.3-.08c0.71-.31,1.45-0.61,2.21-0.91a58.64,58.64,0,0,0,5.51-2.47c3.42-1.81,5.43-5,6.16-9.76A4.27,4.27,0,0,0,1059.68,198.59Z" transform="translate(-4.33 -5.05)"/><path d="M1025,344.37a74.08,74.08,0,0,0-6.91-3.22,12.92,12.92,0,0,0-9.21-.44c-8.34,2.85-13.6,8.12-16.06,16.09l-0.19.61,0.48,0.42a8.41,8.41,0,0,0,1.3.89c1,0.58,1,.7,1,1.14l-0.11.67,0.59,0.34a13.14,13.14,0,0,0,6.75,1.79,17.5,17.5,0,0,0,2.37-.17,51.51,51.51,0,0,1,6.72-.28h2.25a31.35,31.35,0,0,0,8-1.26c5.27-1.45,7.27-5.51,8.43-8.9a3.94,3.94,0,0,0-.64-3.44A11.82,11.82,0,0,0,1025,344.37Zm-8,7a29.64,29.64,0,0,1-8.86.51,11.87,11.87,0,0,1,5-1.66A5.55,5.55,0,0,1,1017,351.33Z" transform="translate(-4.33 -5.05)"/><path d="M904.45,63.23c0.1,3.91,2.06,6.82,6,8.9a27.91,27.91,0,0,0,13.36,3.08c0.69,0,1.4,0,2.12-.06a61.65,61.65,0,0,0,13.51-2c1-.27,1.87-0.62,2.92-1l1.58-.6,0.85-.31-1.72-6.39-0.49-.17c-2.9-1-5.49-.36-7.7.34a30.7,30.7,0,0,1-10.93,1.71,17.54,17.54,0,0,1-9.11-3.1,1.36,1.36,0,0,1-.66-0.84,1.41,1.41,0,0,1,.5-1c2.07-2.18,3.86-2.8,6-2l1,0.35c1.74,0.63,3.54,1.28,5.23,2.06,4.2,1.93,8.2,1,11.56-.12l0.74-.25L939,60.29c0-.5-0.08-1-0.15-1.4a3.7,3.7,0,0,0-2.62-3,51.77,51.77,0,0,1-5-2.06,26,26,0,0,0-19.18-1.7,16.28,16.28,0,0,0-4.52,2.15A6.72,6.72,0,0,0,904.33,61c0.08,0.64.1,1.28,0.12,1.93v0.34Z" transform="translate(-4.33 -5.05)"/><path d="M978.7,287.73c0.91-.07,1.81-0.23,2.75-0.39l1.3-.22,0.62-.1,0.38-1.28c0.75-2.46,1.46-4.79.4-7.37a7.57,7.57,0,0,0-2.55-3.59q-8.1-5.73-16.16-11.5a30.52,30.52,0,0,0-10.87-4.62,3.09,3.09,0,0,0-1.16,0l-0.44,0-0.52,0-0.27.45a11,11,0,0,0-1.4,9.41c0.22,0.65.42,1.31,0.62,2a22.68,22.68,0,0,0,2.66,6.35,18.1,18.1,0,0,0,6.67,6.23c4.52,2.34,9.91,4.66,16.08,4.66C977.43,287.81,978.06,287.78,978.7,287.73Zm-8.79-10.3A10.41,10.41,0,0,1,965,275.2a7.69,7.69,0,0,1-2.17-2.94c1.25,0.84,2.47,1.76,3.73,2.71C967.65,275.79,968.75,276.62,969.92,277.43Z" transform="translate(-4.33 -5.05)"/><path d="M965.84,330.53a42.47,42.47,0,0,0-4.18-8.3c-2.18-3.4-5.6-5.52-10.17-6.3-2.71-.45-4.29.41-5.44,3a16.7,16.7,0,0,0-.61,12.29,32.31,32.31,0,0,0,6.21,10.95c0.8,0.94,1.62,1.86,2.44,2.78,1.35,1.51,2.75,3.07,4,4.69,2.64,3.46,6.27,3.83,9.77,4.2l0.68,0.07,0.3-.62c0.75-1.54,1.68-3.46.18-5.35a2.33,2.33,0,0,1-.29-1.91C969.29,340.58,967.69,335.59,965.84,330.53Zm-9.51,2.38a14,14,0,0,1-1.48-3.32A19,19,0,0,1,956.33,332.91Z" transform="translate(-4.33 -5.05)"/><path d="M1049.22,272.62a6,6,0,0,1-.78-0.63c-2.72-2.77-6.26-3.53-10.51-2.27a54.7,54.7,0,0,0-6.8,2.47,82,82,0,0,0-14.46,8.52,15.38,15.38,0,0,0-5.24,6.31l-0.33.74,1.33,1c0.45,0.33.83,0.6,1.23,0.85a4.36,4.36,0,0,0,4.33.45c1.06-.55,2-0.34,3.29.22a11.46,11.46,0,0,0,4.53.87,19.36,19.36,0,0,0,3.84-.43c3.26-.66,6.67-1.54,10.42-2.68,4.35-1.33,7.92-4.31,10.92-9.12,1.38-2.21,1.06-3.92-1.07-5.71C1049.7,273,1049.46,272.79,1049.22,272.62Z" transform="translate(-4.33 -5.05)"/><path d="M920.43,33.6c2.83,3.45,4.94,4.79,9.39,6l0.38,0.1,4-2.13,0.1-.44c0.09-.41.2-0.83,0.31-1.25a22.9,22.9,0,0,0,.67-3.28c0.57-5.12,1-11.88-.62-18.8-1.4-5.95-5.9-7.7-9.67-8.55-2.8-.64-5.33.66-7.45,2a11.73,11.73,0,0,0-4.47,13A43.87,43.87,0,0,0,920.43,33.6Zm6.12-6.41a41.52,41.52,0,0,1-4.5-9c-0.54-1.6-.43-1.91,1-2.75A3.9,3.9,0,0,1,925,14.7l0.31,0A30.23,30.23,0,0,1,926.54,27.19Z" transform="translate(-4.33 -5.05)"/><path d="M880.11,448.16a12,12,0,0,0,10.28,5.19H891l0.27-.57c4.15-8.72,4-16.74-.44-24.51-2.06-3.61-5.32-6.18-10.27-8.09-2.3-.9-4.08-0.29-5.58,1.9-0.42.61-.79,1.24-1.16,1.88-0.23.4-.47,0.8-0.72,1.19a6.1,6.1,0,0,0-.79,4.49A45.88,45.88,0,0,0,880.11,448.16Z" transform="translate(-4.33 -5.05)"/><path d="M921.66,489.11a39.68,39.68,0,0,0-19.24-5.62,23.52,23.52,0,0,0-3.35.27c-0.5.07-1,.14-1.53,0.19l-0.74.08-0.13.73a13.17,13.17,0,0,0,1,8.37,8.33,8.33,0,0,0,2.6,3.47l1.29,0.94c2.2,1.6,4.49,3.27,6.8,4.8a17.63,17.63,0,0,0,10.15,2.7c0.47,0,.95,0,1.43,0,3.34-.15,4.91-1.59,5.6-5.14,0.08-.44.16-0.88,0.23-1.32l0-.27C926.61,493.27,925.84,491.56,921.66,489.11Z" transform="translate(-4.33 -5.05)"/></svg>