<svg id="FKA_SIGC_2016" xmlns="http://www.w3.org/2000/svg" viewBox="0 0 1061.04 499.98"><defs><style>.cls-1{fill:#eabb68;}</style></defs><title>FKA_SIGC_2016_Gold</title><path class="cls-1" d="M426.45,337.28c-2.69-11.33-20.93-20.45-22.08-26.69a7.36,7.36,0,0,1-.19-1.44,8.65,8.65,0,0,1,2.21-5.57h-0.1a4.87,4.87,0,0,1,3-1.82c8.16,0,3.55,8.16,9.7,8.16,2.21,0,6.53-.48,6.53-3.36,0-2.4-1.82-5.57-2.78-7.68-1.92-4.13-7.49-6.33-11.81-6.33-9.22,0-15.55,6.62-15.55,15.65,0,7.68,2.69,11.13,8.45,15.84l-0.1-.1c4.42,3.65,13.25,11.71,13.25,17.86a5.68,5.68,0,0,1-5.5,5.86h-0.26c-3.65,0-5.38-4.13-5.38-7.2a8.47,8.47,0,0,0-4.22-1.15c-3,0-5.66.19-5.66,3.94,0,7.58,7.39,13.73,14.59,13.73,8.83,0,16.22-5.37,16.22-16.61a17.61,17.61,0,0,0-.29-3.17v0.1Z" transform="translate(-4.48 -5.01)"/><path class="cls-1" d="M436.72,293.41c-2.78,0-4.8.38-4.8,4.32,0,9.6.86,19.39,0.86,29.09,0,8.35-1,16.61-1,25a6,6,0,0,0,1.92,4.8c2.3-.1,5.57-0.29,7.49-1.63a11.52,11.52,0,0,0,.38-3.55c0-2.21-.19-4.42-0.19-6.53s0.19-4.22.19-6.24c0-4.32-.38-8.54-0.38-12.86,0-5.09.67-10.08,0.67-15.17V305c0-3,.48-6,0.48-8.83C442.36,293,439.6,293.41,436.72,293.41Z" transform="translate(-4.48 -5.01)"/><path class="cls-1" d="M475.22,325.38c-1.73,0-3.55.29-5.28,0.29h-2.4c-3.46,0-6,.29-6,3.36,0,2.88.19,5.47,3.84,5.47,1.34,0,2.69-.29,4-0.29,1,0,.86.48,0.86,1.06a14.78,14.78,0,0,1-.67,4l0.1-.1c-0.86,3.17-.58,9.31-5.28,9.31-3.55,0-4.61-2.5-4.9-4.89a151.15,151.15,0,0,1-.86-16.13c0-4.7.19-9.41,0.19-14.11,0-4.22,0-8.45,5.57-8.45,0.48,0,1,.1,1.34.1h-0.1c2.11,0.58,6.72,4.61,8.06,4.61,1.54,0,5.28-2.69,5.28-4.7,0-4.7-8.74-9.22-14.11-9.22a18.41,18.41,0,0,0-7.49,1.92v-0.1c-7.2,3.65-8,10.27-8,17.57,0,3.46.38,6.91,0.48,10.37,0.19,11.9-1.44,31.29,15.93,31.29,12.48,0,13.92-10.56,13.92-21.31a33.73,33.73,0,0,0-1-9.31A9.07,9.07,0,0,0,475.22,325.38Z" transform="translate(-4.48 -5.01)"/><path class="cls-1" d="M501.89,292.84h-0.54c-14.69,1-14.5,21.5-14.5,32.16,0,4.13-.19,8.16-0.19,12.29,0,9.21,4.32,19.49,15.74,19.49,5.66,0,9.5-4.9,12.48-9.12a4.28,4.28,0,0,0,1.15-2.5c0-2.59-5.09-3.17-7-3.17-4.51,0-3.55,5.76-7.49,5.76-5.09,0-5.66-7.78-5.66-11.33q0-10.8.29-21.6c0.1-3.94,1.06-13,6.24-13,4.42,0,3.17,6.14,6.72,6.14,1,0,7-1.44,7-2.3C516.1,298.89,508.23,292.84,501.89,292.84Z" transform="translate(-4.48 -5.01)"/><path class="cls-1" d="M575.81,309.25c0-8.54-6.43-15.93-15.26-15.93a14.39,14.39,0,0,0-14.77,14q0,0.3,0,.6c0,3.94,1.06,4.32,4.8,4.32,6,0,4.51-2.3,5.38-5.37,0.48-1.82,2-4.8,4.32-4.8,4,0,5.86,5.57,5.86,8.83,0,10.56-18.81,21.12-18.81,39.74a18.11,18.11,0,0,0,.29,3.94c0.48,2.69,10.27,2.69,12.19,2.69,3.26,0,16-.67,16-3.26v-2.5c0-4.51-2-4.7-5.57-4.7-3,0-6,.48-8.93.48a23.93,23.93,0,0,1-4.51-.38,15.54,15.54,0,0,1,2.21-5.38h-0.1a58,58,0,0,1,6.34-8.74v0.1C570.73,326.34,575.81,318.08,575.81,309.25Z" transform="translate(-4.48 -5.01)"/><path class="cls-1" d="M606.81,295a10,10,0,0,0-6.62-1.92c-15,0-17.28,6.34-17.28,20a206.44,206.44,0,0,0,1.44,24.38c0.38,3.26.38,6.72,1.34,9.89,1.92,6.14,8.83,9.31,14.88,9.31,15.07,0,16.7-11.62,16.7-21.6,0-4.9-.77-9.89-1-14.78C616,311.46,616.12,299.36,606.81,295Zm-5.18,52.32c-3.26,0-5-1-7.49-2.78-0.67-1.92-1.54-24.29-1.54-28,0-3.07-.1-9.41,1.92-11.81a24.84,24.84,0,0,1,8.06-1.15h1c1.82,1.54,1.82,2.88,2.21,5.18v-0.1c1.06,6.14.38,12.38,1.06,18.62a111.7,111.7,0,0,1,.48,12.67c0,4-1,7.41-5.7,7.41v0Z" transform="translate(-4.48 -5.01)"/><path class="cls-1" d="M632.63,293a4.82,4.82,0,0,0-3.07.86c-1.15,3.07-7.49,11.13-7.49,14v0.38a18.81,18.81,0,0,0,4.32,2.88l-0.1-.1c0.48,0.19,3.55-6,4.13-6-0.58,5.28-.86,18.81-0.86,31.1,0,7.87.1,15.17,0.29,19.68a8.73,8.73,0,0,0,3.74.77,10.84,10.84,0,0,0,4.22-1c0-11.42-.29-22.94-0.29-34.37,0-8.35.58-16.7,0.58-25.15C638.11,293,634.75,293,632.63,293Z" transform="translate(-4.48 -5.01)"/><path class="cls-1" d="M659.8,312a8.88,8.88,0,0,0-4.9,1.25c0.19-2.21.77-9.7,3.94-9.7a1.64,1.64,0,0,1,.67.1c6.24,2.3-1.25,7.1,8.54,7.1,2.11,0,4.7-.19,4.7-2.69,0-8.06-7-13.92-14.88-13.92-13.15,0-13.53,19-13.53,28.41,0,13.44-.86,34.17,14.69,34.17,11,0,15.65-15.36,15.65-24.57C674.68,323.75,671.61,312,659.8,312Zm-1,34.37c-4,0-4.32-6.82-4.32-9.7V333c0-2.88,1.54-10.17,5.47-10.17,3.55,0,4.7,7.3,4.7,9.89,0.05,3.39-1,13.66-5.81,13.66Z" transform="translate(-4.48 -5.01)"/><path class="cls-1" d="M420.07,207.13c2.11,0,5.47.58,5.47-2.5V182.84a8.81,8.81,0,0,1,1.54-.1c1.15,0,2.21.1,3.36,0.1,2.5,0,3.94.1,3.94-3.46,0-1.06-.19-2.11-0.19-3.26a4.69,4.69,0,0,1,.1-1.15,11.8,11.8,0,0,0-3.55-.77c-1.73,0-3.55.29-5.28,0.29-0.1-1.73-.19-3.55-0.19-5.38V152.8c1-.1,2-0.19,3-0.19,2.5,0,4.9.29,7.39,0.29,2.21,0,3.36-.77,3.36-3.07,0-1.82-.19-3.55-0.19-5.28l-0.48-.86a4.81,4.81,0,0,0-2.3-.58c-1.63,0-3.26.38-5,.48-4.61.19-9.31,0-13.92,0.58a45,45,0,0,0-.86,10.27c0,3,.1,6,0.1,8.64,0,6-.1,12.19-0.1,18.24,0,8.54-.48,18,0.77,25.63C418,207,419,207.13,420.07,207.13Z" transform="translate(-4.48 -5.01)"/><path class="cls-1" d="M446.56,207c2.3-.1,5.57-0.29,7.49-1.63a11.52,11.52,0,0,0,.38-3.55c0-2.21-.19-4.42-0.19-6.53s0.19-4.22.19-6.24c0-4.32-.38-8.54-0.38-12.86,0-5.09.67-10.08,0.67-15.17v-5.66c0-3,.48-6,0.48-8.83,0-3.07-2.78-2.69-5.66-2.69s-4.8.38-4.8,4.32c0,9.6.86,19.39,0.86,29.09,0,8.35-1,16.61-1,25A6,6,0,0,0,446.56,207Z" transform="translate(-4.48 -5.01)"/><path class="cls-1" d="M493.49,201v-3.74c0.29-15.84,1.34-30.33,1.92-45.21,0.1-2,.48-4.13.48-6,0-4-7.1-2.88-9.89-3.55a7.68,7.68,0,0,0-.77,3.17c0,1.15.38,2.21,0.38,3.26,0,7.78-1.25,15.46-1.25,23.23,0,1.92.19,3.74,0.19,5.66-2.21-4.32-3.55-8.74-5.47-13.25-2.21-5.18-4.7-18-6.91-20.64h-2.4c-2.59,0-5.76.19-5.76,4.51,0,12.77-1,25.63-1,38.49,0,2.59-.1,16.22-1,17.85,0.86,2.21,2.11,2.5,4.51,2.5,2,0,4.8-.1,5.47-2.11-0.1-1.15-.19-2.4-0.19-3.65,0-6.43.38-14,1.06-21,0.19-2.3.48-4.61,0.48-6.91l1.06,4.51c0.58,2.59,9.12,27.55,9.79,28.41,1,1,2.78,1.15,4.13,1.15C492.15,207.61,493.49,206.36,493.49,201Z" transform="translate(-4.48 -5.01)"/><path class="cls-1" d="M524.35,206.17c2.11,1.25,4.7.77,7.1,1a5.75,5.75,0,0,0,1.34-3.46c0-3.84-2.21-13.15-3.26-17.18v0.1c-5.28-30.53-6-39.84-7.78-42.53a6.29,6.29,0,0,1-1.34.1c-1,0-1.92-.38-2.88-0.38-1.73,0-2.5.67-3.07,2.3-2,5.86-3.94,15.45-5.09,21.6l-4.22,21.69a44.21,44.21,0,0,1-1.34,5.09v-0.1a29.82,29.82,0,0,0-2,10c0,3.94,5.28,2.69,7.2,2.69,2.21-2.4,2.3-10.66,4.51-16.22a20.82,20.82,0,0,1,3.46-.19c1.44,0,2.78.1,4.22,0.19C521.43,194.65,523.25,202.33,524.35,206.17Zm-9.12-23.71,2.78-14.4c1,0,1.44,9.7,1.82,14.11-1.57,0-3.1.29-4.64,0.29h0Z" transform="translate(-4.48 -5.01)"/><path class="cls-1" d="M551.57,206.93c7.1,0,13.54.38,13.82-2.59V204a13.32,13.32,0,0,0-.86-4.32c-4.42-1.15-10-.58-13.25-1.54-0.58-3.26-.48-8.35-0.48-12.19,0-4.51.1-8.93,0.19-13.44v0.1c0.1-1.63.1-3.26,0.1-4.9,0-3.26-.29-6.43-0.29-9.7,0-2.21.48-4.51,0.48-6.72,0-4.9-2.69-5.38-5.86-5.38-2.59,0-3.07,1.82-3.07,4,0,1.34.1,2.5,0.1,3.65,0,5.09-.77,6.43-0.77,14.88,0,11.13.1,32.06,1.34,35.81h-0.1C543.7,207.8,547.35,206.93,551.57,206.93Z" transform="translate(-4.48 -5.01)"/><path class="cls-1" d="M572.69,207c2.3-.1,5.57-0.29,7.49-1.63a11.52,11.52,0,0,0,.38-3.55c0-2.21-.19-4.42-0.19-6.53s0.19-4.22.19-6.24c0-4.32-.38-8.54-0.38-12.86,0-5.09.67-10.08,0.67-15.17v-5.66c0-3,.48-6,0.48-8.83,0-3.07-2.78-2.69-5.66-2.69s-4.8.38-4.8,4.32c0,9.6.86,19.39,0.86,29.09,0,8.35-1,16.61-1,25A6,6,0,0,0,572.69,207Z" transform="translate(-4.48 -5.01)"/><path class="cls-1" d="M597.55,174.49l-0.1-.1c4.42,3.65,13.25,11.71,13.25,17.86a5.68,5.68,0,0,1-5.5,5.86h-0.26c-3.65,0-5.38-4.13-5.38-7.2a8.47,8.47,0,0,0-4.22-1.15c-3,0-5.66.19-5.66,3.94,0,7.58,7.39,13.73,14.59,13.73,8.83,0,16.22-5.37,16.22-16.61a17.61,17.61,0,0,0-.29-3.17v0.1c-2.69-11.33-20.93-20.45-22.08-26.69a7.36,7.36,0,0,1-.19-1.44,8.65,8.65,0,0,1,2.21-5.57H600a4.87,4.87,0,0,1,3-1.82c8.16,0,3.55,8.16,9.7,8.16,2.21,0,6.53-.48,6.53-3.36,0-2.4-1.82-5.57-2.78-7.68-1.92-4.13-7.49-6.33-11.81-6.33-9.22,0-15.55,6.62-15.55,15.65C589.1,166.33,591.79,169.79,597.55,174.49Z" transform="translate(-4.48 -5.01)"/><path class="cls-1" d="M644.49,187.83c0-12.29.38-24.77,1.06-37,5.76-.86,7.39.58,7.39-6.14,0-1.25-.1-3.46-1.82-3.46s-3.26.58-5,.58c-3.17,0-6.43.1-9.6,0.1-2,0-4-.38-6.14-0.38a8.15,8.15,0,0,0-2.11.38h0.1c-1.54.48-1.82,2.3-1.82,3.65,0,0.77.1,1.54,0.1,2.21a4.69,4.69,0,0,1-.1,1.15,4.4,4.4,0,0,0,3.26,1.54c0.86,0,1.63-.19,2.3-0.19h3.36a52.24,52.24,0,0,0-.19,5.47c0,7.87.58,13.73,0.58,22.75,0,2.78-.1,6.82-0.48,13.25,0,1.25.1,2.59,0.1,3.84,0,2.59-.38,5.28-0.38,7.87a21,21,0,0,0,.29,3.46c1.92,0,3.84.38,5.76,0.38,1.06,0,2-.1,3.07-0.19,0.19-4.51.48-8.93,0.48-13.44C644.68,191.67,644.49,189.75,644.49,187.83Z" transform="translate(-4.48 -5.01)"/><path class="cls-1" d="M202.11,250.17L202,250.1c3.22,2.66,9.66,8.54,9.66,13a4.14,4.14,0,0,1-4,4.27H207.5c-2.66,0-3.92-3-3.92-5.25a6.18,6.18,0,0,0-3.08-.84c-2.17,0-4.13.14-4.13,2.87,0,5.53,5.39,10,10.64,10,6.44,0,11.83-3.92,11.83-12.11a12.81,12.81,0,0,0-.21-2.31v0.07c-2-8.26-15.26-14.91-16.1-19.46a5.38,5.38,0,0,1-.14-1,6.31,6.31,0,0,1,1.61-4.06h-0.07a3.58,3.58,0,0,1,2.17-1.33c6,0,2.59,6,7.07,6,1.61,0,4.76-.35,4.76-2.45,0-1.75-1.33-4.06-2-5.6-1.4-3-5.46-4.62-8.61-4.62-6.72,0-11.34,4.83-11.34,11.41C196,244.22,197.91,246.74,202.11,250.17Z" transform="translate(-4.48 -5.01)"/><path class="cls-1" d="M239.91,266.62c-0.49,0-1,.07-1.47.07a52.06,52.06,0,0,1-8-.42,24.45,24.45,0,0,1-.35-5c0-1.75-.42-3.5-0.35-5.25v-0.63c3.15-.21,10.08.42,10.08-1.75a36.85,36.85,0,0,0-1.12-5.39c-0.77,0-1.61-.14-2.45-0.14-2.24,0-4.48.35-6.72,0.56a5.29,5.29,0,0,1-.07-1c0-4.48.7-8.89,0.7-13.37,3-.21,6.09-0.35,9.17-0.35,1.19,0,2.73,0,2.73-1.54,0-1.26-.35-3.43-0.49-5a8.85,8.85,0,0,0-4.27-.91c-3.29,0-6.65.35-10,.35-1.47,0-2.87,0-4,1.12,0,11.76.28,23.66,0.28,35.42,0,2.94.07,7.7,1.19,10.29,0.77,0.42,9.45.56,10.71,0.56,2.45,0,4.9-.07,7.28-0.28C242.5,271.31,243.62,266.62,239.91,266.62Z" transform="translate(-4.48 -5.01)"/><path class="cls-1" d="M268.11,259c-3.85-22.26-4.41-29-5.67-31a4.6,4.6,0,0,1-1,.07c-0.7,0-1.4-.28-2.1-0.28a2.07,2.07,0,0,0-2.24,1.68,132.16,132.16,0,0,0-3.71,15.75l-3,15.78a32.14,32.14,0,0,1-1,3.71v-0.07a21.74,21.74,0,0,0-1.47,7.28c0,2.87,3.85,2,5.25,2,1.61-1.75,1.68-7.77,3.29-11.83A15.15,15.15,0,0,1,259,262c1,0,2,.07,3.08.14a79.55,79.55,0,0,0,2.31,11.2c1.54,0.91,3.43.56,5.18,0.7a4.19,4.19,0,0,0,1-2.52c0-2.8-1.61-9.59-2.38-12.53V259h0Zm-10.43-3,2-10.5c0.7,0,1,7.07,1.33,10.29C259.92,255.77,258.8,256,257.69,256Z" transform="translate(-4.48 -5.01)"/><path class="cls-1" d="M304.51,225.88c-1.19,0-2.38.42-3.64,0.42-2.31,0-4.69.07-7,.07-1.47,0-2.94-.28-4.48-0.28h-0.34a1.06,1.06,0,0,0-.71-0.25c-1.19,0-2.38.42-3.64,0.42-2.31,0-4.69.07-7,.07-1.47,0-2.94-.28-4.48-0.28a6,6,0,0,0-1.54.28h0.07c-1.12.35-1.33,1.68-1.33,2.66,0,0.56.07,1.12,0.07,1.61a3.4,3.4,0,0,1-.07.84,3.2,3.2,0,0,0,2.38,1.12c0.63,0,1.19-.14,1.68-0.14h2.45a38.1,38.1,0,0,0-.14,4c0,5.74.42,10,.42,16.59,0,2-.07,5-0.35,9.66,0,0.91.07,1.89,0.07,2.8,0,1.89-.28,3.85-0.28,5.74a15.34,15.34,0,0,0,.21,2.52c1.4,0,2.8.28,4.2,0.28,0.77,0,1.47-.07,2.24-0.14,0.14-3.29.35-6.51,0.35-9.8,0-1.4-.14-2.8-0.14-4.2,0-9,.28-18.06.77-27,1.71-.26,2.91-0.24,3.75-0.45a2.94,2.94,0,0,0,.94.17c0.63,0,1.19-.14,1.68-0.14h2.45a38.1,38.1,0,0,0-.14,4c0,5.74.42,10,.42,16.59,0,2-.07,5-0.35,9.66,0,0.91.07,1.89,0.07,2.8,0,1.89-.28,3.85-0.28,5.74a15.34,15.34,0,0,0,.21,2.52c1.4,0,2.8.28,4.2,0.28,0.77,0,1.47-.07,2.24-0.14,0.14-3.29.35-6.51,0.35-9.8,0-1.4-.14-2.8-0.14-4.2,0-9,.28-18.06.77-27,4.2-.63,5.39.42,5.39-4.48C305.84,227.49,305.77,225.88,304.51,225.88Z" transform="translate(-4.48 -5.01)"/><path class="cls-1" d="M317.95,267.39a60.51,60.51,0,0,1-.35-8.89c0-3.29.07-6.51,0.14-9.8v0.07c0.07-1.19.07-2.38,0.07-3.57,0-2.38-.21-4.69-0.21-7.07,0-1.61.35-3.29,0.35-4.9,0-3.57-2-3.92-4.27-3.92-1.89,0-2.24,1.33-2.24,2.94,0,1,.07,1.82.07,2.66,0,3.71-.56,4.69-0.56,10.85,0,8.12.07,23.38,1,26.11h-0.07c0.56,2.59,3.22,2,6.3,2,5.18,0,9.87.28,10.08-1.89v-0.28a9.73,9.73,0,0,0-.63-3.15C324.37,267.67,320.37,268.09,317.95,267.39Z" transform="translate(-4.48 -5.01)"/><path class="cls-1" d="M349.52,266.62c-0.49,0-1,.07-1.47.07a52.06,52.06,0,0,1-8-.42,24.45,24.45,0,0,1-.35-5c0-1.75-.42-3.5-0.35-5.25v-0.63c3.15-.21,10.08.42,10.08-1.75a36.85,36.85,0,0,0-1.12-5.39c-0.77,0-1.61-.14-2.45-0.14-2.24,0-4.48.35-6.72,0.56a5.29,5.29,0,0,1-.07-1c0-4.48.7-8.89,0.7-13.37,3-.21,6.09-0.35,9.17-0.35,1.19,0,2.73,0,2.73-1.54,0-1.26-.35-3.43-0.49-5a8.85,8.85,0,0,0-4.27-.91c-3.29,0-6.65.35-10,.35-1.47,0-2.87,0-4,1.12,0,11.76.28,23.66,0.28,35.42,0,2.94.07,7.7,1.19,10.29,0.77,0.42,9.45.56,10.71,0.56,2.45,0,4.9-.07,7.28-0.28C352.11,271.31,353.23,266.62,349.52,266.62Z" transform="translate(-4.48 -5.01)"/><path class="cls-1" d="M376.53,227.84c-2,0-3.5.28-3.5,3.15,0,7,.63,14.14.63,21.21,0,6.09-.7,12.11-0.7,18.2a4.4,4.4,0,0,0,1.4,3.5c1.68-.07,4.06-0.21,5.46-1.19a8.39,8.39,0,0,0,.28-2.59c0-1.61-.14-3.22-0.14-4.76s0.14-3.08.14-4.55c0-3.15-.28-6.23-0.28-9.38,0-3.71.49-7.35,0.49-11.06v-4.13c0-2.17.35-4.34,0.35-6.44S378.63,227.84,376.53,227.84Z" transform="translate(-4.48 -5.01)"/><path class="cls-1" d="M404.88,274.32c2.73,0,3.71-.91,3.71-4.83v-2.73c0.21-11.55,1-22.12,1.4-33,0.07-1.47.35-3,.35-4.41,0-2.94-5.18-2.1-7.21-2.59a5.59,5.59,0,0,0-.56,2.31c0,0.84.28,1.61,0.28,2.38,0,5.67-.91,11.27-0.91,16.94,0,1.4.14,2.73,0.14,4.13-1.61-3.15-2.59-6.37-4-9.66-1.61-3.78-3.43-13.16-5-15h-1.75c-1.89,0-4.2.14-4.2,3.29,0,9.31-.7,18.69-0.7,28.07,0,1.89-.07,11.83-0.7,13,0.63,1.61,1.54,1.82,3.29,1.82,1.47,0,3.5-.07,4-1.54-0.07-.84-0.14-1.75-0.14-2.66,0-4.69.28-10.22,0.77-15.33,0.14-1.68.35-3.36,0.35-5l0.77,3.29c0.42,1.89,6.65,20.09,7.14,20.72A4.48,4.48,0,0,0,404.88,274.32Z" transform="translate(-4.48 -5.01)"/><path class="cls-1" d="M434.77,256.89c0-2.17-.07-4.2-0.07-6.37,0-2.8.28-5.53,0.28-8.33,0-3.5,0-8.54-2-11.55-2.45-3.43-8.89-3.85-12.81-3.85h-1a9.8,9.8,0,0,0-4,.7,29.52,29.52,0,0,0-.56,6.93v4.69c0,3.22-.21,6.37-0.21,9.52,0,1.54.14,3,.14,4.48,0,2.38-.14,4.76-0.14,7.21,0,3.15-.14,6.3-0.14,9.45,0,2.66-.28,4.27,3.5,4.27,6.86,0,14.21-.56,16.52-7.84C434.77,264.31,434.77,259.13,434.77,256.89Zm-6-14.77c0,4.13-.28,8.33-0.35,12.53s0.49,11.55-2.73,12.25a22.51,22.51,0,0,1-4.76.77h-0.35c0-3.36.28-6.65,0.28-9.94,0-3-.21-6.09-0.21-9.17,0-4.83.49-9.8,0.63-14.7a21,21,0,0,1,2.1-.07c5.58,0,5.44,3.85,5.44,8.33h-0.05Z" transform="translate(-4.48 -5.01)"/><path class="cls-1" d="M442.82,227.84c-2,0-3.5.28-3.5,3.15,0,7,.63,14.14.63,21.21,0,6.09-.7,12.11-0.7,18.2a4.4,4.4,0,0,0,1.4,3.5c1.68-.07,4.06-0.21,5.46-1.19a8.39,8.39,0,0,0,.28-2.59c0-1.61-.14-3.22-0.14-4.76s0.14-3.08.14-4.55c0-3.15-.28-6.23-0.28-9.38,0-3.71.49-7.35,0.49-11.06v-4.13c0-2.17.35-4.34,0.35-6.44S444.92,227.84,442.82,227.84Z" transform="translate(-4.48 -5.01)"/><path class="cls-1" d="M468.09,233.86c1.19,0,2.73,0,2.73-1.54,0-1.26-.35-3.43-0.49-5a8.85,8.85,0,0,0-4.27-.91c-3.29,0-6.65.35-10,.35-1.47,0-2.87,0-4,1.12,0,11.76.28,23.66,0.28,35.42,0,2.94.07,7.7,1.19,10.29,0.77,0.42,9.45.56,10.71,0.56,2.45,0,4.9-.07,7.28-0.28-0.21-2.52.91-7.21-2.8-7.21-0.49,0-1,.07-1.47.07a52.06,52.06,0,0,1-8-.42,24.45,24.45,0,0,1-.35-5c0-1.75-.42-3.5-0.35-5.25v-0.63c3.15-.21,10.08.42,10.08-1.75a36.85,36.85,0,0,0-1.12-5.39c-0.77,0-1.61-.14-2.45-0.14-2.24,0-4.48.35-6.72,0.56a5.29,5.29,0,0,1-.07-1c0-4.48.7-8.89,0.7-13.37C461.93,234,465,233.86,468.09,233.86Z" transform="translate(-4.48 -5.01)"/><path class="cls-1" d="M493.21,251.22c0.14,8.68-1,22.82,11.62,22.82,9.1,0,10.15-7.7,10.15-15.54a24.61,24.61,0,0,0-.7-6.79,6.61,6.61,0,0,0-2.59-.56c-1.26,0-2.59.21-3.85,0.21h-1.75c-2.52,0-4.41.21-4.41,2.45s0.14,4,2.8,4c1,0,2-.21,2.94-0.21,0.7,0,.63.35,0.63,0.77a10.77,10.77,0,0,1-.49,2.94l0.07-.07c-0.63,2.31-.42,6.79-3.85,6.79-2.59,0-3.36-1.82-3.57-3.57a110.33,110.33,0,0,1-.63-11.76c0-3.43.14-6.86,0.14-10.29,0-3.08,0-6.16,4.06-6.16,0.35,0,.7.07,1,0.07h-0.07c1.54,0.42,4.9,3.36,5.88,3.36s3.85-2,3.85-3.43c0-3.43-6.37-6.72-10.29-6.72a13.43,13.43,0,0,0-5.46,1.4v-0.07c-5.25,2.66-5.81,7.49-5.81,12.81C492.86,246.18,493.14,248.7,493.21,251.22Z" transform="translate(-4.48 -5.01)"/><path class="cls-1" d="M538.29,259c-3.85-22.26-4.41-29-5.67-31a4.6,4.6,0,0,1-1,.07c-0.7,0-1.4-.28-2.1-0.28a2.07,2.07,0,0,0-2.24,1.68,132.16,132.16,0,0,0-3.71,15.75L520.51,261a32.14,32.14,0,0,1-1,3.71v-0.07a21.74,21.74,0,0,0-1.47,7.28c0,2.87,3.85,2,5.25,2,1.61-1.75,1.68-7.77,3.29-11.83a15.15,15.15,0,0,1,2.52-.14c1,0,2,.07,3.08.14a79.55,79.55,0,0,0,2.31,11.2c1.54,0.91,3.43.56,5.18,0.7a4.19,4.19,0,0,0,1-2.52c0-2.8-1.61-9.59-2.38-12.53V259h0Zm-10.43-3,2-10.5c0.7,0,1,7.07,1.33,10.29C530.1,255.77,529,256,527.86,256Z" transform="translate(-4.48 -5.01)"/><path class="cls-1" d="M559.29,247.51c-2.24-6.16-5.25-19.6-8-19.6a20.17,20.17,0,0,0-2.8.63c-1.26,1.19-1.4,20.79-1.4,32.06,0,10.36-.07,8.54.07,12.32a8.36,8.36,0,0,0,4.06,1,6.43,6.43,0,0,0,2.31-.42c0.7-2.31.7-6.86,0.7-9.38,0-3.92-.07-7.7-0.28-11.62,1.19,2.94,2,6.44,3.64,9.17H558c0.7,0,1.33.14,2.1,0.14,2.87,0,3.5-5.18,4.76-8.89,0.07,5.11.21,10.15,0.21,15.26,0,1-.14,2-0.14,2.87,0,1.75.49,2.94,3.36,2.94a9.17,9.17,0,0,0,3.36-.56,20.81,20.81,0,0,0,.35-4.2c0-13.44-.63-26.81-0.63-40.11a3.14,3.14,0,0,0-1.75-.63c-0.21,0-3.64.56-3.64,0.56l-0.42.28a21.47,21.47,0,0,0-1.54,4.2Z" transform="translate(-4.48 -5.01)"/><path class="cls-1" d="M596.52,273.82c-0.21-2.52.91-7.21-2.8-7.21-0.49,0-1,.07-1.47.07a52.06,52.06,0,0,1-8-.42,24.45,24.45,0,0,1-.35-5c0-1.75-.42-3.5-0.35-5.25v-0.63c3.15-.21,10.08.42,10.08-1.75a36.85,36.85,0,0,0-1.12-5.39c-0.77,0-1.61-.14-2.45-0.14-2.24,0-4.48.35-6.72,0.56a5.34,5.34,0,0,1-.07-1c0-4.48.7-8.89,0.7-13.37,3-.21,6.09-0.35,9.17-0.35,1.19,0,2.73,0,2.73-1.54,0-1.26-.35-3.43-0.49-5a8.86,8.86,0,0,0-4.27-.91c-3.29,0-6.65.35-10,.35-1.47,0-2.87,0-4,1.12,0,11.76.28,23.66,0.28,35.42,0,2.94.07,7.7,1.19,10.29,0.77,0.42,9.45.56,10.71,0.56C591.69,274.11,594.14,274,596.52,273.82Z" transform="translate(-4.48 -5.01)"/><path class="cls-1" d="M629,227.42h-0.42c-10.71.7-10.57,15.68-10.57,23.45,0,3-.14,6-0.14,9,0,6.72,3.15,14.21,11.48,14.21,4.13,0,6.93-3.57,9.1-6.65a3.13,3.13,0,0,0,.84-1.82c0-1.89-3.71-2.31-5.11-2.31-3.29,0-2.59,4.2-5.46,4.2-3.71,0-4.13-5.67-4.13-8.26q0-7.87.21-15.75c0.07-2.87.77-9.45,4.55-9.45,3.22,0,2.31,4.48,4.9,4.48,0.7,0,5.11-1,5.11-1.68C639.34,231.83,633.63,227.42,629,227.42Z" transform="translate(-4.48 -5.01)"/><path class="cls-1" d="M646.72,267.88l-0.07-.07a8.21,8.21,0,0,0,2.52,3.78l-0.07-.07a10.94,10.94,0,0,0,7.07,2.52c4.55,0,4.55-1,7.7-3.22l0.28-.21h-0.07c1.82-1.68,2-4.62,2-6.93,0-7.28.14-14.63,0.14-21.91,0-3.29-.28-7.84-2.87-10.15h0.07c-1.61-1.82-4.34-3.78-6.86-3.78-8,0-12.25,5.81-12.25,16,0,3.92-.35,17.08,2.17,23.52Zm9.59-32.62c3.43,0,3.92,3.85,3.92,6.51,0,1.4-.14,2.73-0.14,4.13,0,2.17.21,4.34,0.21,6.44,0,2.38-.84,12.32-1.54,14.07a2,2,0,0,1-2,.84,4.54,4.54,0,0,1-2.66-.77v0.07c-2-1.89-2.24-5.88-2.24-8.4s-0.35-5.11-.35-7.77c0-4.62-.46-15.12,4.83-15.12h0Z" transform="translate(-4.48 -5.01)"/><path class="cls-1" d="M693.82,228.54c-0.21,0-3.64.56-3.64,0.56l-0.42.28a21.47,21.47,0,0,0-1.54,4.2l-4.76,13.93c-2.24-6.16-5.25-19.6-8-19.6a20.17,20.17,0,0,0-2.8.63c-1.26,1.19-1.4,20.79-1.4,32.06,0,10.36-.07,8.54.07,12.32a8.36,8.36,0,0,0,4.06,1,6.43,6.43,0,0,0,2.31-.42c0.7-2.31.7-6.86,0.7-9.38,0-3.92-.07-7.7-0.28-11.62,1.19,2.94,2,6.44,3.64,9.17h0.49c0.7,0,1.33.14,2.1,0.14,2.87,0,3.5-5.18,4.76-8.89,0.07,5.11.21,10.15,0.21,15.26,0,1-.14,2-0.14,2.87,0,1.75.49,2.94,3.36,2.94a9.17,9.17,0,0,0,3.36-.56,20.81,20.81,0,0,0,.35-4.2c0-13.44-.63-26.81-0.63-40.11A3.14,3.14,0,0,0,693.82,228.54Z" transform="translate(-4.48 -5.01)"/><path class="cls-1" d="M710.41,227.7c-4.41,0-8.4-.35-8.4,4,0,2.59.14,5.25,0.14,7.84,0,10.78-.91,21.56-0.91,32.34,0,1.82,1.61,2,3.15,2,2.38,0,3.08-.07,3.15-1.75q0.21-4.1.21-8.19c0-1.54-.14-3.15-0.14-4.83a13.08,13.08,0,0,1,.07-1.61c1.68,0,3.22.28,4.83,0.28,8.68,0,9.45-6.09,9.45-12.25C722,236.1,721.61,227.7,710.41,227.7Zm3.15,23.8c-1,.56-3.78.49-5.11,0.49h-0.63c0-3.29.07-6.65,0.07-10.08,0-2.52-.07-5-0.14-7.63,0.77-.07,1.61-0.21,2.38-0.21a7.83,7.83,0,0,1,4.62,1.26h-0.07c0.84,0.77,1.26,5.67,1.26,8.33C715.94,245.48,715.45,250.52,713.56,251.5Z" transform="translate(-4.48 -5.01)"/><path class="cls-1" d="M743.59,266.62c-0.49,0-1,.07-1.47.07a52.06,52.06,0,0,1-8-.42,24.45,24.45,0,0,1-.35-5c0-1.75-.42-3.5-0.35-5.25v-0.63c3.15-.21,10.08.42,10.08-1.75a36.85,36.85,0,0,0-1.12-5.39c-0.77,0-1.61-.14-2.45-0.14-2.24,0-4.48.35-6.72,0.56a5.34,5.34,0,0,1-.07-1c0-4.48.7-8.89,0.7-13.37,3-.21,6.09-0.35,9.17-0.35,1.19,0,2.73,0,2.73-1.54,0-1.26-.35-3.43-0.49-5a8.86,8.86,0,0,0-4.27-.91c-3.29,0-6.65.35-10,.35-1.47,0-2.87,0-4,1.12,0,11.76.28,23.66,0.28,35.42,0,2.94.07,7.7,1.19,10.29,0.77,0.42,9.45.56,10.71,0.56,2.45,0,4.9-.07,7.28-0.28C746.18,271.31,747.33,266.62,743.59,266.62Z" transform="translate(-4.48 -5.01)"/><path class="cls-1" d="M769.07,225.88c-1.19,0-2.38.42-3.64,0.42-2.31,0-4.69.07-7,.07-1.47,0-2.94-.28-4.48-0.28a6,6,0,0,0-1.54.28h0.07c-1.12.35-1.33,1.68-1.33,2.66,0,0.56.07,1.12,0.07,1.61a3.4,3.4,0,0,1-.07.84,3.2,3.2,0,0,0,2.38,1.12c0.63,0,1.19-.14,1.68-0.14h2.45a38.1,38.1,0,0,0-.14,4c0,5.74.42,10,.42,16.59,0,2-.07,5-0.35,9.66,0,0.91.07,1.89,0.07,2.8,0,1.89-.28,3.85-0.28,5.74a15.34,15.34,0,0,0,.21,2.52c1.4,0,2.8.28,4.2,0.28,0.77,0,1.47-.07,2.24-0.14,0.14-3.29.35-6.51,0.35-9.8,0-1.4-.14-2.8-0.14-4.2,0-9,.28-18.06.77-27,4.2-.63,5.39.42,5.39-4.48C770.4,227.49,770.33,225.88,769.07,225.88Z" transform="translate(-4.48 -5.01)"/><path class="cls-1" d="M778.24,227.84c-2,0-3.5.28-3.5,3.15,0,7,.63,14.14.63,21.21,0,6.09-.7,12.11-0.7,18.2a4.4,4.4,0,0,0,1.4,3.5c1.68-.07,4.06-0.21,5.46-1.19a8.39,8.39,0,0,0,.28-2.59c0-1.61-.14-3.22-0.14-4.76s0.14-3.08.14-4.55c0-3.15-.28-6.23-0.28-9.38,0-3.71.49-7.35,0.49-11.06v-4.13c0-2.17.35-4.34,0.35-6.44S780.33,227.84,778.24,227.84Z" transform="translate(-4.48 -5.01)"/><path class="cls-1" d="M805.39,225.88c-1.19,0-2.38.42-3.64,0.42-2.31,0-4.69.07-7,.07-1.47,0-2.94-.28-4.48-0.28a6,6,0,0,0-1.54.28h0.07c-1.12.35-1.33,1.68-1.33,2.66,0,0.56.07,1.12,0.07,1.61a3.4,3.4,0,0,1-.07.84,3.2,3.2,0,0,0,2.38,1.12c0.63,0,1.19-.14,1.68-0.14H794a38.1,38.1,0,0,0-.14,4c0,5.74.42,10,.42,16.59,0,2-.07,5-0.35,9.66,0,0.91.07,1.89,0.07,2.8,0,1.89-.28,3.85-0.28,5.74a15.34,15.34,0,0,0,.21,2.52c1.4,0,2.8.28,4.2,0.28,0.77,0,1.47-.07,2.24-0.14,0.14-3.29.35-6.51,0.35-9.8,0-1.4-.14-2.8-0.14-4.2,0-9,.28-18.06.77-27,4.2-.63,5.39.42,5.39-4.48C806.72,227.49,806.65,225.88,805.39,225.88Z" transform="translate(-4.48 -5.01)"/><path class="cls-1" d="M814.56,227.84c-2,0-3.5.28-3.5,3.15,0,7,.63,14.14.63,21.21,0,6.09-.7,12.11-0.7,18.2a4.4,4.4,0,0,0,1.4,3.5c1.68-.07,4.06-0.21,5.46-1.19a8.39,8.39,0,0,0,.28-2.59c0-1.61-.14-3.22-0.14-4.76s0.14-3.08.14-4.55c0-3.15-.28-6.23-0.28-9.38,0-3.71.49-7.35,0.49-11.06v-4.13c0-2.17.35-4.34,0.35-6.44S816.66,227.84,814.56,227.84Z" transform="translate(-4.48 -5.01)"/><path class="cls-1" d="M842.84,231.62c-1.61-1.82-4.34-3.78-6.86-3.78-8,0-12.25,5.81-12.25,16,0,3.92-.35,17.08,2.17,23.52l0.21,0.49-0.07-.07a8.21,8.21,0,0,0,2.52,3.78l-0.07-.07a10.94,10.94,0,0,0,7.07,2.52c4.55,0,4.55-1,7.7-3.22l0.28-.21h-0.07c1.82-1.68,2-4.62,2-6.93,0-7.28.14-14.63,0.14-21.91,0-3.29-.28-7.84-2.87-10.15h0.07Zm-4.69,34.79a2,2,0,0,1-2,.84,4.54,4.54,0,0,1-2.66-.77v0.07c-2-1.89-2.24-5.88-2.24-8.4s-0.35-5.11-.35-7.77c0-4.62-.49-15.12,4.76-15.12,3.43,0,3.92,3.85,3.92,6.51,0,1.4-.14,2.73-0.14,4.13,0,2.17.21,4.34,0.21,6.44C839.69,254.72,838.85,264.66,838.15,266.41Z" transform="translate(-4.48 -5.01)"/><path class="cls-1" d="M853.83,274c1.47,0,3.5-.07,4-1.54-0.07-.84-0.14-1.75-0.14-2.66,0-4.69.28-10.22,0.77-15.33,0.14-1.68.35-3.36,0.35-5l0.77,3.29c0.42,1.89,6.65,20.09,7.14,20.72a4.48,4.48,0,0,0,3,.84c2.73,0,3.71-.91,3.71-4.83v-2.73c0.21-11.55,1-22.12,1.4-33,0.07-1.47.35-3,.35-4.41,0-2.94-5.18-2.1-7.21-2.59a5.6,5.6,0,0,0-.56,2.31c0,0.84.28,1.61,0.28,2.38,0,5.67-.91,11.27-0.91,16.94,0,1.4.14,2.73,0.14,4.13-1.61-3.15-2.59-6.37-4-9.66-1.61-3.78-3.43-13.16-5-15h-1.75c-1.89,0-4.2.14-4.2,3.29,0,9.31-.7,18.69-0.7,28.07,0,1.89-.07,11.83-0.7,13C851.17,273.82,852.08,274,853.83,274Z" transform="translate(-4.48 -5.01)"/><path class="cls-1" d="M218.51,494.2c-1.07-.65-2.19-1.21-3.31-1.77-0.55-.28-1.11-0.55-1.66-0.84-0.79-.42-1.59-0.81-2.4-1.21a45.71,45.71,0,0,1-5.19-2.85c-7.87-5.29-16.1-10.94-25.15-17.29a34.56,34.56,0,0,1-8.11-7.66,160.65,160.65,0,0,0-12-13.79l-2-2.09c-8-8.57-16.21-17.85-24.44-27.57a102.44,102.44,0,0,1-10-14.09c-6-10.19-12-20.89-17.83-31.8-5.16-9.68-10.07-19.71-14.82-29.41l-0.16-.33c-5.73-11.7-9.12-21.86-10.69-32-1-6.66-2.46-13.68-4.37-21.45-3-12.14-6.25-26.57-7.76-41.54a252.49,252.49,0,0,1-1.56-28c0-4.48.32-9,.59-13.46l0.17-2.72c0.24-4.09.37-8.18,0.51-12.27,0.18-5.45.37-11.09,0.81-16.62a164.34,164.34,0,0,1,5.13-31.08q2.32-8.41,4.66-16.82a29.25,29.25,0,0,1,1-2.92q1.4-3.56,2.81-7.11c1.59-4,3.19-8,4.74-12.09A103.63,103.63,0,0,1,96.8,87.31c1.71-2.7,3.63-5.35,5.49-7.91l2.37-3.28c1.84-2.56,3.74-5.21,5.76-7.68,2.17-2.65,4.52-5.24,6.79-7.75l1.84-2c0.62-.69,1.25-1.36,1.88-2,2.7-2.9,5.49-5.9,7.35-9.65a5.1,5.1,0,0,1,.92-1.13c0.25-.26.51-0.52,0.73-0.8s0.68-.88,1-1.31l0.7-.94-0.17-.5c-0.35-1-1-2.81-2.91-3.24l-0.25-.06-0.55.16a2.06,2.06,0,0,0-.92.39c-0.51.42-1,.85-1.49,1.29-0.78.69-1.57,1.37-2.4,2-7.31,5.37-13.22,11.91-19.13,18.7-2.54,2.92-4.87,6.08-7.13,9.14L95,73c-0.9,1.2-1.73,2.44-2.55,3.69-0.64,1-1.28,1.92-1.95,2.86A103.34,103.34,0,0,0,78.8,100.86c-0.57,1.42-1.16,2.83-1.74,4.24-1.36,3.3-2.77,6.72-4,10.14-1.35,3.6-2.66,7.55-4,12.1-1.5,5-2.81,10-3.9,14.19-1,4-1.9,7.71-2.64,11.25-1.73,8.39-2.27,17-2.79,25.36-0.12,1.85-.23,3.69-0.36,5.54-0.24,3.5-.31,7.06-0.37,10.51,0,2.32-.09,4.64-0.18,7-0.09,2.16-.23,4.32-0.38,6.48-0.19,2.81-.38,5.71-0.45,8.58a231.54,231.54,0,0,0,1.15,26.65,235,235,0,0,0,5.36,34.6c3.17,13,5.69,25,7.73,36.8a83.84,83.84,0,0,0,6.7,21.4c5.53,11.75,11.61,24.1,18,36.7,3.61,7.06,7.6,14.08,11.45,20.85l2.69,4.74a164.06,164.06,0,0,0,8.61,14.11,258,258,0,0,0,18.38,23l1.08,1.2c4.86,5.43,9.89,11,15.07,16.34a158.41,158.41,0,0,1,12.33,13.8,52.36,52.36,0,0,0,10.94,10.71c6.61,4.73,11.72,8.31,16.58,11.62a139.14,139.14,0,0,0,22.65,12.6,6.31,6.31,0,0,0,2.47.6,3.91,3.91,0,0,0,3.3-1.9l0.26-.37-0.1-.43A8.25,8.25,0,0,0,218.51,494.2Z" transform="translate(-4.48 -5.01)"/><path class="cls-1" d="M158.75,354.2a27.6,27.6,0,0,0-2.88,8.52c-0.68,3.57-1.34,7.42-2,12.14a134.65,134.65,0,0,0-1.71,29.4,3.21,3.21,0,0,1-.56,2.32l-2.13,3-1.37,2,2.5,5.22,1.28-.28a5.7,5.7,0,0,0,1-.26,6.86,6.86,0,0,0,1.63-.85c3.12-2.35,6.58-5.37,8.67-10l0.53-1.18c2.4-5.3,4.88-10.79,6.89-16.39a108.38,108.38,0,0,0,5.23-18.44A24.39,24.39,0,0,0,171,349.6c-1.5-1.93-3.26-2.39-5.35-1.43A14.43,14.43,0,0,0,158.75,354.2Zm3.89,26.73c0.82-6.53,1.66-13.26,3.56-19.63a1,1,0,0,0,.05.39,14.92,14.92,0,0,1,.17,3.82,86.12,86.12,0,0,1-3.9,16.4Z" transform="translate(-4.48 -5.01)"/><path class="cls-1" d="M103.28,420.52c1.35-.06,2.75,0,4.22,0l2.26,0.06H110l0.57-.32a17.28,17.28,0,0,0,1.5-.88c0.52-.35,1-0.74,1.55-1.17l1.45-1.13-1.3-2.18c-0.66-1.11-1.27-2.15-1.93-3.16a3.48,3.48,0,0,0-3.67-1.68,26.6,26.6,0,0,1-2.67.23h-0.82a19.54,19.54,0,0,0-6.57-7.44A54.27,54.27,0,0,0,80,394.34a33,33,0,0,0-14.17-.68c-5.33,1-9.24,2.64-12.33,5.32-2.61,2.27-3,4.12-1.32,7.09a19.71,19.71,0,0,0,11.27,9.32,98,98,0,0,0,19.14,4.23,109.7,109.7,0,0,0,14.69,1Q100.19,420.66,103.28,420.52ZM73.5,408.27l-0.27-.06c-4.07-.88-8.27-1.8-11.8-4a1.34,1.34,0,0,1,1-.57,26.69,26.69,0,0,1,12.07-1.11,49.11,49.11,0,0,1,19.86,7.37,8.32,8.32,0,0,1,.7.51c-5.08.5-13-.29-21.55-2.14h0Z" transform="translate(-4.48 -5.01)"/><path class="cls-1" d="M34.5,160.24c4.32,2.25,7.84,4.24,10.41,7.63a4.54,4.54,0,0,0,3.71,1.92,5.61,5.61,0,0,0,1.53-.22l0.59-.17,0.12-.6c0.86-4.53-.25-8.72-3-11.51a5.39,5.39,0,0,1-1.62-3.19,19.13,19.13,0,0,0-1.8-5.5,58.29,58.29,0,0,0-14-17.52,37.27,37.27,0,0,0-11.83-7A22.58,22.58,0,0,0,8.42,123c-2.35.28-3.35,1.23-3.71,3.51A11.27,11.27,0,0,0,5.82,134a35.4,35.4,0,0,0,2.85,4.45A80.36,80.36,0,0,0,34.5,160.24Zm-0.55-11.51a68.08,68.08,0,0,1-17.17-15.18c6.22,2.93,13.9,9.72,17.17,15.17h0Z" transform="translate(-4.48 -5.01)"/><path class="cls-1" d="M146.16,458.54l0.25-5-0.44-.31a7,7,0,0,0-6.1-1.08,5.18,5.18,0,0,1-3.56-.48c-0.64-.29-1.3-0.54-2-0.78l-1-.4-1.15-.46c-6.44-2.57-13.1-5.22-20.15-6.43a41.88,41.88,0,0,0-8.07-.67,22.37,22.37,0,0,0-9.67,2c-5.26,2.65-7.17,6.09-6.2,11.18a4.31,4.31,0,0,1,0,.63c0.09,3.75,2,6.37,5.64,7.79l0.59,0.23A17.85,17.85,0,0,0,98,465.94a70.36,70.36,0,0,0,8.77,1h2.54a107.66,107.66,0,0,0,19-1.92c3.83-.68,7.62-1.68,10.49-2.48a16.63,16.63,0,0,0,7-3.75Zm-22.79-1c-3.27.35-6.55,0.67-9.84,0.92a32.5,32.5,0,0,1-11-1.31c-2-.53-3.52-1.25-4.52-2.91,1.72-2.25,4-3,7.22-2.43a67.86,67.86,0,0,1,13.49,4c0.64,0.25,1.3.46,2,.67a16.07,16.07,0,0,1,2.87,1.08Z" transform="translate(-4.48 -5.01)"/><path class="cls-1" d="M134.68,146.54c-0.25-.59-0.52-1.18-0.7-1.6l-0.2-.45-0.48-.11-1-.26a12.56,12.56,0,0,0-2-.4,45.66,45.66,0,0,0-12.08.8C111.31,145.76,105,148.19,98,151a33.19,33.19,0,0,0-10.92,7q-1.68,1.65-3.39,3.28l-2.3,2.22a4.75,4.75,0,0,0-1.61,3.3,4.09,4.09,0,0,0,1.28,2.92,3.49,3.49,0,0,1,1.1,2.13c0.07,0.43.16,0.85,0.3,1.43l0.44,2,0.9-.12,1.51-.18a24.61,24.61,0,0,0,2.79-.42l1.08-.25c5.34-1.25,10.86-2.54,16.26-3.93a89.93,89.93,0,0,0,17.3-6.25,31.55,31.55,0,0,0,9.4-6.43C135.51,154.09,136.39,150.44,134.68,146.54Zm-11.1,6.39a26.61,26.61,0,0,1-9,5.61,72.3,72.3,0,0,1-13.38,4.26c-1.61.31-3.2,0.72-4.79,1.12l-2.94.73-0.84.16a29.49,29.49,0,0,1,12-8l0.33-.12c2.57-.93,5.22-1.89,7.85-2.73a28,28,0,0,1,8.52-1.32,19.5,19.5,0,0,1,2.41.1A1.38,1.38,0,0,1,123.58,152.93Z" transform="translate(-4.48 -5.01)"/><path class="cls-1" d="M145.55,112.36a11.07,11.07,0,0,0,1.52-9.88,17.71,17.71,0,0,1-.49-1.8c-0.63-3.08-2.65-5.1-6-6a22.46,22.46,0,0,0-10.26-.25,47.64,47.64,0,0,0-13.41,4.33c-5.24,2.72-10.16,5.64-12.69,11.22-6.1-.25-6.44-0.17-9.5,2.2l-0.45.35,0.83,6.23,1.44,0.33a11.77,11.77,0,0,0,1.44.29l4.47,0.52c5.33,0.62,10.66,1.24,16,1.79a41.92,41.92,0,0,0,4.33.23,36.81,36.81,0,0,0,14-2.69A18.17,18.17,0,0,0,145.55,112.36Zm-16.51.17h-1.68a39.8,39.8,0,0,1-4.37-.16c-2.45-.23-4.89-0.52-7.61-0.85l-1.77-.21A15.9,15.9,0,0,1,115,110a37.19,37.19,0,0,1,10.72-6,15.14,15.14,0,0,1,7.34-.73,12.85,12.85,0,0,1,3.5,1,1.58,1.58,0,0,1,.9,2.75c-2,3.72-4.77,5.53-8.39,5.53h0Z" transform="translate(-4.48 -5.01)"/><path class="cls-1" d="M38.8,97.31c0.78,1.13,1.56,2.27,2.32,3.42,0.44,0.67.9,1.34,1.35,2,1.29,1.91,2.63,3.89,3.73,5.92a9.83,9.83,0,0,0,5.17,4.87l0.6,0.24,0.46-.46,0.34-.32a3.28,3.28,0,0,0,.76-0.86l0.36-.68c0.81-1.57,1.39-2.54,2.88-2.74,1-.13,1.56-1.18,2-2a11.73,11.73,0,0,0,1.62-8.27c-0.42-2-.83-3.93-1.23-5.9-0.8-3.92-1.63-8-2.64-11.93a46.58,46.58,0,0,0-4.8-12C49.26,64.43,46.49,61.69,43,60a6.24,6.24,0,0,0-7.6,1.14,10.39,10.39,0,0,0-1.75,1.95,20.49,20.49,0,0,0-3.55,10.07,30.38,30.38,0,0,0,4.27,17.23C35.7,92.81,37.28,95.1,38.8,97.31ZM38.53,71.2l0.12-.78A2,2,0,0,1,39.8,69a1.57,1.57,0,0,1,.79-0.3,0.67,0.67,0,0,1,.5.26,16,16,0,0,1,1.85,2.31,39.26,39.26,0,0,1,4.74,10.56,126.31,126.31,0,0,1,4.25,18.54c-0.78-1.08-1.58-2.16-2.37-3.24a100.91,100.91,0,0,1-8.21-12.34A27.89,27.89,0,0,1,38.4,73a8.72,8.72,0,0,1,.12-1.82h0Z" transform="translate(-4.48 -5.01)"/><path class="cls-1" d="M127,206.43c3.83-4.44,4.22-6.25,2.58-12.15a2,2,0,0,0-.53-0.84l-0.37-.45-0.25-.1a10.91,10.91,0,0,0-5.47-.25l-0.74.09c-6.85.8-12.61,4-16.87,6.62A83.19,83.19,0,0,0,90,212.16a38.57,38.57,0,0,1-5.74,5.14,6.13,6.13,0,0,0-2.87,6.31c0.08,0.72.19,1.44,0.32,2.27l0.32,2h0.85a22.42,22.42,0,0,0,6.77-1.28c0.78-.24,1.55-0.48,2.34-0.67a81.75,81.75,0,0,0,28.78-13.8A36.87,36.87,0,0,0,127,206.43ZM116,204a72.56,72.56,0,0,1-12,7.81c0.6-.57,1.42-1.23,2.56-2.13a45.51,45.51,0,0,1,10-6.21,3.53,3.53,0,0,1-.55.54h0Z" transform="translate(-4.48 -5.01)"/><path class="cls-1" d="M91,56.64a22.7,22.7,0,0,0,5.92,4.92l0.63,0.36,0.53-.49a13.54,13.54,0,0,0,3.74-5.3,2.36,2.36,0,0,0,.05-1.78c-0.65-1.31-.22-2.4.53-4.07l0.15-.32a9.91,9.91,0,0,0,.73-3,35.36,35.36,0,0,0-1.41-15.25c-0.9-2.73-2.35-6.15-5.51-8.31a41.66,41.66,0,0,0-7.12-3.78,5,5,0,0,0-6.42,1.79,18.9,18.9,0,0,0-3.29,6.68A16.54,16.54,0,0,0,80,37.6,55.27,55.27,0,0,0,91,56.64ZM90.39,31.1a14.9,14.9,0,0,1,2,3.55A29.06,29.06,0,0,1,94,43.91a41.75,41.75,0,0,1-5-10.66,9.22,9.22,0,0,1-.57-3.1A1.84,1.84,0,0,1,90.39,31.1Z" transform="translate(-4.48 -5.01)"/><path class="cls-1" d="M21.4,216.6l0.3,0.08c1,0.08,1.93.18,2.85,0.28,2,0.22,4,.38,5.89.41,3.08,0,6.28.07,9.19,1.48a5.43,5.43,0,0,0,2.42.57,6.52,6.52,0,0,0,1.27-.13c2.33-.47,3.47-2,3.12-4.15-0.41-2.6-.93-5.84-4.07-7.81a15.8,15.8,0,0,1-2.18-1.79c-0.44-.41-0.88-0.82-1.34-1.19a47.43,47.43,0,0,0-11.06-6.58c-5.35-2.38-10.94-2.13-17.61.8a4.27,4.27,0,0,0-2.67,4.9c0.73,4.76,2.74,8,6.16,9.76a58.67,58.67,0,0,0,5.51,2.47C20,216,20.73,216.29,21.4,216.6Z" transform="translate(-4.48 -5.01)"/><path class="cls-1" d="M58.2,362.19a49.92,49.92,0,0,1,6.73.28,17.5,17.5,0,0,0,2.37.17,13.15,13.15,0,0,0,6.75-1.79l0.59-.34-0.11-.67c-0.07-.44,0-0.56,1-1.14a8.2,8.2,0,0,0,1.29-.89l0.48-.42-0.19-.61c-2.47-8-7.72-13.24-16.06-16.09a12.9,12.9,0,0,0-9.22.44,72.86,72.86,0,0,0-6.9,3.22,11.76,11.76,0,0,0-4.77,4.26,3.9,3.9,0,0,0-.64,3.44c1.16,3.38,3.17,7.45,8.43,8.9a31.3,31.3,0,0,0,8,1.26H58.2v0Zm-1.44-12a11.87,11.87,0,0,1,5,1.66,29.78,29.78,0,0,1-8.86-.51,5.58,5.58,0,0,1,3.86-1.16h0Z" transform="translate(-4.48 -5.01)"/><path class="cls-1" d="M130.88,60.3l-0.13,1.47L131.48,62c3.35,1.14,7.35,2,11.56.12,1.68-.77,3.47-1.42,5.2-2l1-.36c2.12-.78,3.91-0.18,6,2a1.44,1.44,0,0,1,.5,1,1.38,1.38,0,0,1-.66.84,17.52,17.52,0,0,1-9.11,3.1A30.56,30.56,0,0,1,135,65c-2.2-.7-4.8-1.37-7.7-0.34l-0.48.17-1.72,6.4L126,71.56l1.59,0.6a28.71,28.71,0,0,0,2.9,1,61.71,61.71,0,0,0,13.51,2c0.72,0,1.43.06,2.12,0.06a27.91,27.91,0,0,0,13.36-3.08c3.93-2.08,5.89-5,6-9.11a20.65,20.65,0,0,1,.12-2.07,6.72,6.72,0,0,0-3.21-6.67,16.38,16.38,0,0,0-4.52-2.15,26,26,0,0,0-19.18,1.7,51.17,51.17,0,0,1-5,2.06,3.7,3.7,0,0,0-2.63,3A10.83,10.83,0,0,0,130.88,60.3Z" transform="translate(-4.48 -5.01)"/><path class="cls-1" d="M115.82,276.87a22.69,22.69,0,0,0,2.67-6.38c0.2-.65.39-1.3,0.61-2a11,11,0,0,0-1.4-9.41l-0.27-.45h-1a3,3,0,0,0-1.15,0,30.47,30.47,0,0,0-10.87,4.62q-8.07,5.77-16.16,11.5a7.5,7.5,0,0,0-2.55,3.58c-1.06,2.58-.35,4.89.39,7.35L86.52,287l0.62,0.1,1.31,0.22c0.93,0.16,1.83.32,2.74,0.39q1,0.07,1.89.08c6.16,0,11.55-2.33,16.07-4.66A18.09,18.09,0,0,0,115.82,276.87Zm-10.94-1.72a10.41,10.41,0,0,1-4.91,2.23c1.17-.82,2.27-1.64,3.34-2.46,1.26-1,2.48-1.87,3.74-2.71a7.68,7.68,0,0,1-2.17,2.95h0Z" transform="translate(-4.48 -5.01)"/><path class="cls-1" d="M101.39,353.86l0.68-.07c3.51-.36,7.14-0.74,9.77-4.19,1.24-1.63,2.64-3.19,4-4.71,0.82-.91,1.64-1.83,2.43-2.76a32.41,32.41,0,0,0,6.21-10.95,16.74,16.74,0,0,0-.61-12.29c-1.15-2.6-2.73-3.46-5.44-3-4.57.78-8,2.89-10.17,6.3a42.9,42.9,0,0,0-4.18,8.3c-1.84,5.06-3.44,10-2.88,15.5a2.32,2.32,0,0,1-.3,1.91c-1.5,1.89-.57,3.81.18,5.35Zm13.68-24.31a13.87,13.87,0,0,1-1.47,3.31,19.25,19.25,0,0,1,1.43-3.31h0Z" transform="translate(-4.48 -5.01)"/><path class="cls-1" d="M44.09,291.05a11.51,11.51,0,0,0,4.53-.87c1.32-.56,2.23-0.75,3.29-0.22a4.39,4.39,0,0,0,4.34-.45,14.44,14.44,0,0,0,1.22-.85l1.33-1-0.33-.74a15.38,15.38,0,0,0-5.24-6.31,82.22,82.22,0,0,0-14.46-8.52A55,55,0,0,0,32,269.63c-4.25-1.26-7.79-.49-10.51,2.27a6.08,6.08,0,0,1-.78.63c-0.24.17-.48,0.34-0.7,0.53-2.13,1.79-2.45,3.5-1.07,5.72,3,4.81,6.57,7.79,10.92,9.12,3.75,1.15,7.16,2,10.41,2.68A19.4,19.4,0,0,0,44.09,291.05Z" transform="translate(-4.48 -5.01)"/><path class="cls-1" d="M135.33,35.82c0.12,0.43.22,0.86,0.32,1.27l0.1,0.44,4,2.13,0.38-.1c4.46-1.19,6.56-2.53,9.39-6a44,44,0,0,0,7.4-13.38,11.74,11.74,0,0,0-4.47-13c-2.13-1.35-4.68-2.64-7.45-2-3.77.86-8.27,2.61-9.67,8.55-1.63,6.92-1.19,13.68-.63,18.8A22.72,22.72,0,0,0,135.33,35.82Zm9.27-21.11a3.38,3.38,0,0,1,2.27.73c1.42,0.84,1.53,1.14,1,2.74a41.53,41.53,0,0,1-4.5,9A30.12,30.12,0,0,1,144.6,14.71Z" transform="translate(-4.48 -5.01)"/><path class="cls-1" d="M178.59,452.72l0.27,0.57h0.63a12,12,0,0,0,10.29-5.19,45.78,45.78,0,0,0,7.77-18.5,6.14,6.14,0,0,0-.79-4.49c-0.25-.39-0.48-0.79-0.71-1.19-0.38-.64-0.75-1.28-1.17-1.89-1.5-2.2-3.27-2.8-5.58-1.9-4.94,1.91-8.21,4.48-10.27,8.09C174.59,436,174.45,444,178.59,452.72Z" transform="translate(-4.48 -5.01)"/><path class="cls-1" d="M173.08,484l-0.74-.08c-0.52,0-1-.12-1.53-0.19a24,24,0,0,0-3.35-.27,39.68,39.68,0,0,0-19.24,5.62c-4.18,2.44-5,4.16-4.14,9.17l0.06,0.35c0.07,0.42.13,0.83,0.22,1.24,0.69,3.55,2.26,5,5.61,5.14h1.43a17.64,17.64,0,0,0,10.15-2.7c2.3-1.53,4.55-3.17,6.74-4.76l1.35-1a8.32,8.32,0,0,0,2.6-3.47,13.2,13.2,0,0,0,1-8.37Z" transform="translate(-4.48 -5.01)"/><path class="cls-1" d="M903.38,466.37a158.38,158.38,0,0,1,12.33-13.8c5.21-5.34,10.27-11,15.16-16.45l1-1.1a258.07,258.07,0,0,0,18.38-23A163.83,163.83,0,0,0,958.82,398l2.73-4.81c3.85-6.77,7.83-13.78,11.44-20.84,6.41-12.54,12.48-24.89,18-36.7a83.91,83.91,0,0,0,6.7-21.4c2-11.77,4.57-23.81,7.73-36.8a234.75,234.75,0,0,0,5.36-34.6,231.48,231.48,0,0,0,1.15-26.64c-0.07-2.88-.26-5.8-0.45-8.62-0.15-2.15-.29-4.3-0.38-6.45-0.1-2.33-.14-4.66-0.18-7-0.07-3.43-.13-7-0.38-10.48-0.13-1.85-.24-3.69-0.36-5.54-0.52-8.34-1.06-17-2.79-25.36-0.73-3.53-1.6-7.21-2.64-11.25-1.08-4.2-2.4-9.18-3.9-14.19-1.33-4.48-2.65-8.43-4-12.1-1.28-3.42-2.69-6.84-4-10.15q-0.87-2.11-1.73-4.23a103.61,103.61,0,0,0-11.76-21.34c-0.68-1-1.33-1.93-2-2.9-0.82-1.23-1.63-2.46-2.52-3.64l-1.69-2.28c-2.24-3-4.56-6.17-7.08-9.06-5.9-6.79-11.81-13.32-19.13-18.7-0.84-.62-1.63-1.31-2.41-2L943,39.65a2.07,2.07,0,0,0-.92-0.39l-0.56-.16-0.25.06c-1.93.42-2.57,2.25-2.92,3.24l-0.17.5,0.68,0.91c0.32,0.44.65,0.9,1,1.34,0.23,0.28.48,0.54,0.73,0.8a5.1,5.1,0,0,1,.92,1.13c1.86,3.75,4.65,6.75,7.35,9.66l1.87,2,1.88,2.08c2.26,2.49,4.6,5.07,6.76,7.7,2,2.42,3.86,5,5.67,7.55l2.45,3.39c1.86,2.56,3.79,5.21,5.5,7.92a103.55,103.55,0,0,1,9.31,18.15c1.54,4,3.12,8,4.71,12q1.43,3.6,2.84,7.2c0.37,1,.69,1.93,1,2.92q2.35,8.4,4.66,16.82a164.86,164.86,0,0,1,5.13,31.08c0.44,5.54.63,11.19,0.81,16.65,0.13,4.08.27,8.16,0.5,12.24l0.17,2.72c0.27,4.42.54,9,.59,13.46a254,254,0,0,1-1.55,28c-1.51,15-4.77,29.42-7.76,41.54-1.92,7.8-3.35,14.82-4.38,21.45-1.56,10.09-5,20.24-10.69,32l-0.28.58c-4.71,9.61-9.57,19.56-14.69,29.15-5.8,10.87-11.8,21.57-17.83,31.8a102.19,102.19,0,0,1-10,14.09c-8.4,9.92-16.4,18.94-24.44,27.57l-2,2.09a160.65,160.65,0,0,0-12,13.79,34.54,34.54,0,0,1-8.1,7.66c-9,6.31-17.22,12-25.15,17.29a45.34,45.34,0,0,1-5.18,2.85c-0.81.4-1.61,0.79-2.4,1.21-0.55.29-1.1,0.56-1.65,0.83-1.12.56-2.25,1.12-3.32,1.78a8.25,8.25,0,0,0-4.16,5l-0.1.43,0.25,0.37A3.92,3.92,0,0,0,850.6,502a6.36,6.36,0,0,0,2.47-.6,137.21,137.21,0,0,0,22.65-12.6c4.83-3.28,10.1-7,16.58-11.62A52.17,52.17,0,0,0,903.38,466.37Z" transform="translate(-4.48 -5.01)"/><path class="cls-1" d="M899.38,387.83c2,5.6,4.49,11.09,6.89,16.39l0.53,1.17c2.1,4.64,5.56,7.66,8.67,10a7.12,7.12,0,0,0,1.63.84,5.44,5.44,0,0,0,1,.27l1.28,0.28,2.5-5.22-1.37-2c-0.75-1.08-1.42-2.06-2.13-3a3.21,3.21,0,0,1-.56-2.32,135.15,135.15,0,0,0-1.71-29.4c-0.75-4.91-1.38-8.66-2.06-12.14a27.86,27.86,0,0,0-2.87-8.52,14.45,14.45,0,0,0-6.91-6c-2.09-1-3.84-.5-5.34,1.43a24.37,24.37,0,0,0-4.79,19.8A107.47,107.47,0,0,0,899.38,387.83Zm4.31-26.15a1,1,0,0,1,.05-0.37c1.9,6.37,2.74,13.1,3.55,19.62l0.13,1a86.34,86.34,0,0,1-3.9-16.4A15,15,0,0,1,903.69,361.69Z" transform="translate(-4.48 -5.01)"/><path class="cls-1" d="M1016.49,399.07c-3.09-2.68-7-4.37-12.34-5.32a33,33,0,0,0-14.17.68,54.36,54.36,0,0,0-18.18,8.51,19.49,19.49,0,0,0-6.57,7.44h-0.82a26.5,26.5,0,0,1-2.67-.23,3.46,3.46,0,0,0-3.67,1.68c-0.65,1-1.27,2-1.93,3.16l-1.3,2.18,1.45,1.13c0.55,0.43,1,.82,1.55,1.17a17,17,0,0,0,1.47.86l0.59,0.33h0.27l2.26-.06c1.47,0,2.87-.09,4.22,0q3.09,0.14,6,.14a110.13,110.13,0,0,0,14.7-1,98,98,0,0,0,19.14-4.23,19.74,19.74,0,0,0,11.27-9.32C1019.44,403.19,1019.1,401.33,1016.49,399.07Zm-19.79,9.15-0.27.06c-8.52,1.85-16.49,2.64-21.55,2.16a8.18,8.18,0,0,1,.7-0.51,49.11,49.11,0,0,1,19.86-7.37,26.59,26.59,0,0,1,12.06,1.11,1.35,1.35,0,0,1,1,.57c-3.53,2.18-7.73,3.09-11.8,4h0Z" transform="translate(-4.48 -5.01)"/><path class="cls-1" d="M1065.3,126.46c-0.35-2.25-1.39-3.24-3.71-3.51a22.29,22.29,0,0,0-10.19,1.11,37.14,37.14,0,0,0-11.83,7,58.25,58.25,0,0,0-14,17.52,19.13,19.13,0,0,0-1.8,5.5,5.42,5.42,0,0,1-1.63,3.19c-2.79,2.79-3.89,7-3,11.51l0.12,0.6,0.59,0.17a5.6,5.6,0,0,0,1.53.22,4.54,4.54,0,0,0,3.71-1.92c2.57-3.39,6.08-5.38,10.41-7.63a80.34,80.34,0,0,0,25.8-21.74,34.47,34.47,0,0,0,2.85-4.45A11.24,11.24,0,0,0,1065.3,126.46ZM1036,148.72c3.27-5.45,10.95-12.25,17.18-15.19a68.09,68.09,0,0,1-17.2,15.19h0Z" transform="translate(-4.48 -5.01)"/><path class="cls-1" d="M975.66,444.9a22.39,22.39,0,0,0-9.68-2,42,42,0,0,0-8.07.67c-7,1.21-13.7,3.86-20.15,6.43l-2.17.85c-0.67.25-1.33,0.5-2,.79a5.19,5.19,0,0,1-3.56.48,7,7,0,0,0-6.1,1.08l-0.44.31,0.26,5,0.29,0.27a16.6,16.6,0,0,0,7,3.75c2.87,0.8,6.66,1.81,10.49,2.48a107.67,107.67,0,0,0,19,1.92h2.54a70.25,70.25,0,0,0,8.77-1,17.88,17.88,0,0,0,3.74-1.18l0.59-.23c3.65-1.42,5.55-4,5.64-7.8a3.7,3.7,0,0,1,0-.62C982.83,451,980.91,447.55,975.66,444.9Zm-8.22,12.23a32.19,32.19,0,0,1-11,1.31c-3.29-.25-6.57-0.58-9.84-0.92h-0.15a16,16,0,0,1,2.87-1.08c0.67-.21,1.33-0.41,2-0.67a68,68,0,0,1,13.49-4c3.24-.56,5.5.18,7.22,2.43-1.06,1.69-2.61,2.4-4.59,2.94h0Z" transform="translate(-4.48 -5.01)"/><path class="cls-1" d="M990.16,166.82a4.74,4.74,0,0,0-1.61-3.3l-2.33-2.25c-1.12-1.08-2.24-2.15-3.35-3.24a33.12,33.12,0,0,0-10.92-7c-7-2.81-13.26-5.24-20.14-6.48a45.42,45.42,0,0,0-12.07-.8,12.56,12.56,0,0,0-2,.4l-1,.26-0.49.11-0.9,2.06c-1.67,3.9-.83,7.55,2.56,11.15a31.58,31.58,0,0,0,9.4,6.43,89.9,89.9,0,0,0,17.3,6.25c5.34,1.37,10.8,2.65,16.08,3.88l1.26,0.3a24.56,24.56,0,0,0,2.79.42l1.51,0.18,0.9,0.12,0.43-1.94a14.17,14.17,0,0,0,.3-1.46,3.53,3.53,0,0,1,1.1-2.13A4.09,4.09,0,0,0,990.16,166.82Zm-13.68-2.19c-1-.23-2-0.47-2.93-0.72-1.6-.41-3.19-0.81-4.81-1.13a72.31,72.31,0,0,1-13.37-4.26,26.62,26.62,0,0,1-9-5.61,1.35,1.35,0,0,1-.16-0.2,28.19,28.19,0,0,1,10.93,1.22c2.61,0.83,5.24,1.78,7.79,2.7l0.4,0.15a29.44,29.44,0,0,1,12,8,5.44,5.44,0,0,1-.84-0.15h0Z" transform="translate(-4.48 -5.01)"/><path class="cls-1" d="M965.73,110c-2.54-5.58-7.45-8.5-12.69-11.22a47.68,47.68,0,0,0-13.41-4.33,22.54,22.54,0,0,0-10.26.25c-3.35.91-5.37,2.93-6,6a15.77,15.77,0,0,1-.49,1.8,11.09,11.09,0,0,0,1.52,9.88,18.21,18.21,0,0,0,8.76,6.85,36.77,36.77,0,0,0,14,2.69,41.94,41.94,0,0,0,4.34-.23c5.36-.55,10.72-1.18,16.08-1.8l4.39-.51a11.69,11.69,0,0,0,1.46-.3l1.42-.33,0.84-6.23-0.45-.35C972.18,109.79,971.84,109.72,965.73,110Zm-11.16,1.54c-2.72.33-5.17,0.62-7.62,0.85-1.43.13-2.92,0.15-4.37,0.16H941.1c-3.7.19-6.53-1.73-8.59-5.51a1.58,1.58,0,0,1,.91-2.75,12.85,12.85,0,0,1,3.5-1,16.52,16.52,0,0,1,2.27-.16,14.64,14.64,0,0,1,5.07.89A37.2,37.2,0,0,1,955,110h0a15,15,0,0,1,1.36,1.32Z" transform="translate(-4.48 -5.01)"/><path class="cls-1" d="M1013.19,108.7c1.5,0.2,2.07,1.17,2.88,2.73l0.37,0.69a3.22,3.22,0,0,0,.76.87l0.34,0.31,0.46,0.46,0.6-.24a9.83,9.83,0,0,0,5.17-4.87c1.1-2,2.44-4,3.73-5.92l1.35-2c0.76-1.15,1.54-2.29,2.33-3.43,1.52-2.21,3.09-4.49,4.47-6.85a30.36,30.36,0,0,0,4.26-17.23,20.5,20.5,0,0,0-3.6-10.08,10.27,10.27,0,0,0-1.75-1.94,6.23,6.23,0,0,0-7.6-1.14c-3.52,1.7-6.29,4.44-8.74,8.61a46.31,46.31,0,0,0-4.8,12c-1,4-1.84,8-2.64,11.93-0.4,2-.8,3.93-1.23,5.89a11.72,11.72,0,0,0,1.62,8.27C1011.73,107.71,1012.31,108.58,1013.19,108.7Zm9.12-26.89A39.24,39.24,0,0,1,1027,71.26a16.23,16.23,0,0,1,1.85-2.32,0.67,0.67,0,0,1,.5-0.26,1.57,1.57,0,0,1,.79.3,2,2,0,0,1,1.16,1.43l0.12,0.78a8.72,8.72,0,0,1,.17,1.79,27.88,27.88,0,0,1-3,11.79h0a101.12,101.12,0,0,1-8.21,12.33c-0.8,1.08-1.59,2.15-2.38,3.24A125.29,125.29,0,0,1,1022.3,81.81Z" transform="translate(-4.48 -5.01)"/><path class="cls-1" d="M987.95,227.93l0.32-2.1c0.13-.81.24-1.51,0.32-2.21a6.14,6.14,0,0,0-2.87-6.31,38.68,38.68,0,0,1-5.74-5.14,83,83,0,0,0-15.39-12.81c-4.26-2.66-10-5.82-16.87-6.62l-0.74-.09a10.83,10.83,0,0,0-5.48.25l-0.25.1-0.17.21-0.21.24a2,2,0,0,0-.53.84c-1.63,5.89-1.25,7.7,2.58,12.14a36.77,36.77,0,0,0,6.29,5.75A81.73,81.73,0,0,0,978,226c0.78,0.19,1.55.43,2.33,0.67a22.36,22.36,0,0,0,6.77,1.28h0.86ZM954,204c-0.22-.18-0.42-0.35-0.6-0.53a45.7,45.7,0,0,1,10,6.21,33,33,0,0,1,2.56,2.13,72.61,72.61,0,0,1-12-7.8h0Z" transform="translate(-4.48 -5.01)"/><path class="cls-1" d="M967.4,50l0.15,0.32c0.75,1.67,1.18,2.76.53,4.07a2.35,2.35,0,0,0,.06,1.82l1-.23-0.94.29a13.54,13.54,0,0,0,3.71,5.22l0.53,0.49,0.63-.36A22.77,22.77,0,0,0,979,56.65a55.23,55.23,0,0,0,11-19,16.58,16.58,0,0,0,.49-9.5,19,19,0,0,0-3.29-6.68,5,5,0,0,0-6.42-1.79,41.78,41.78,0,0,0-7.12,3.78c-3.17,2.17-4.61,5.58-5.51,8.31A35.27,35.27,0,0,0,966.67,47,10,10,0,0,0,967.4,50Zm10.21-15.31a15,15,0,0,1,2-3.55,1.92,1.92,0,0,1,1.59-1,2,2,0,0,1,.35,0,9.17,9.17,0,0,1-.57,3.1,41.63,41.63,0,0,1-5,10.66,29.21,29.21,0,0,1,1.62-9.21h0Z" transform="translate(-4.48 -5.01)"/><path class="cls-1" d="M1059.71,198.55c-6.67-2.93-12.26-3.18-17.61-.8a47.33,47.33,0,0,0-11.06,6.58c-0.46.38-.9,0.79-1.35,1.2a15.62,15.62,0,0,1-2.17,1.79c-3.14,2-3.66,5.21-4.07,7.81-0.34,2.17.8,3.69,3.12,4.15a6.41,6.41,0,0,0,1.27.13,5.41,5.41,0,0,0,2.41-.57c2.92-1.41,6.14-1.48,9.2-1.48a53.48,53.48,0,0,0,5.89-.41c0.92-.1,1.87-0.2,2.85-0.28l0.3-.08c0.71-.31,1.45-0.61,2.21-0.91a58.62,58.62,0,0,0,5.51-2.47c3.42-1.81,5.43-5,6.16-9.76A4.27,4.27,0,0,0,1059.71,198.55Z" transform="translate(-4.48 -5.01)"/><path class="cls-1" d="M1025,344.33a74.09,74.09,0,0,0-6.91-3.22,12.92,12.92,0,0,0-9.21-.44c-8.34,2.85-13.6,8.12-16.06,16.09l-0.19.61,0.48,0.42a8.42,8.42,0,0,0,1.3.89c1,0.58,1,.7,1,1.14l-0.11.67,0.59,0.34a13.14,13.14,0,0,0,6.75,1.79,17.5,17.5,0,0,0,2.37-.17,51.51,51.51,0,0,1,6.72-.28H1014a31.35,31.35,0,0,0,8-1.26c5.27-1.45,7.27-5.51,8.43-8.9a3.94,3.94,0,0,0-.64-3.44A11.82,11.82,0,0,0,1025,344.33Zm-16.88,7.47a11.86,11.86,0,0,1,5-1.66,5.55,5.55,0,0,1,3.85,1.15,29.64,29.64,0,0,1-8.85.5h0Z" transform="translate(-4.48 -5.01)"/><path class="cls-1" d="M904.5,62.87v0.34c0.1,3.91,2.06,6.82,6,8.9a27.91,27.91,0,0,0,13.36,3.08c0.69,0,1.4,0,2.12-.06a61.64,61.64,0,0,0,13.51-2c0.95-.27,1.87-0.62,2.92-1l1.58-.6,0.85-.31-1.72-6.39-0.49-.17a11.74,11.74,0,0,0-7.7.34A30.7,30.7,0,0,1,924,66.71a17.54,17.54,0,0,1-9.11-3.1,1.36,1.36,0,0,1-.66-0.84,1.41,1.41,0,0,1,.5-1c2.07-2.18,3.86-2.8,6-2l1,0.35c1.74,0.63,3.54,1.28,5.23,2.06,4.2,1.93,8.2,1,11.56-.12l0.74-.25-0.13-1.52a8.25,8.25,0,0,0-.15-1.4,3.7,3.7,0,0,0-2.62-3,51.76,51.76,0,0,1-5-2.06,26,26,0,0,0-19.18-1.7,16.28,16.28,0,0,0-4.52,2.15A6.72,6.72,0,0,0,904.45,61C904.46,61.57,904.48,62.22,904.5,62.87Z" transform="translate(-4.48 -5.01)"/><path class="cls-1" d="M978.74,287.69c0.91-.07,1.81-0.23,2.75-0.39l1.3-.22,0.62-.1,0.38-1.28c0.75-2.46,1.46-4.79.4-7.37a7.57,7.57,0,0,0-2.55-3.59q-8.1-5.73-16.16-11.5a30.52,30.52,0,0,0-10.87-4.62,3.09,3.09,0,0,0-1.16,0h-1l-0.27.45a11,11,0,0,0-1.4,9.41c0.22,0.65.42,1.31,0.62,2a22.66,22.66,0,0,0,2.66,6.35,18.1,18.1,0,0,0,6.67,6.23c4.52,2.34,9.91,4.66,16.08,4.66A13.28,13.28,0,0,0,978.74,287.69ZM965,275.16a7.69,7.69,0,0,1-2.17-2.94c1.25,0.84,2.47,1.76,3.73,2.71,1.08,0.81,2.18,1.64,3.35,2.46A10.41,10.41,0,0,1,965,275.16Z" transform="translate(-4.48 -5.01)"/><path class="cls-1" d="M965.88,330.48a42.48,42.48,0,0,0-4.18-8.3c-2.18-3.4-5.6-5.52-10.17-6.3-2.71-.45-4.29.41-5.44,3a16.7,16.7,0,0,0-.61,12.29,32.32,32.32,0,0,0,6.21,10.95c0.8,0.94,1.62,1.86,2.44,2.78,1.35,1.51,2.75,3.07,4,4.69,2.64,3.46,6.27,3.83,9.77,4.2l0.68,0.07,0.3-.62c0.75-1.54,1.68-3.46.18-5.35a2.33,2.33,0,0,1-.29-1.91C969.31,340.54,967.73,335.54,965.88,330.48Zm-11-.93a19,19,0,0,1,1.48,3.32,14,14,0,0,1-1.46-3.32h0Z" transform="translate(-4.48 -5.01)"/><path class="cls-1" d="M1050,273.11c-0.22-.19-0.46-0.36-0.7-0.53a6.07,6.07,0,0,1-.78-0.63c-2.72-2.77-6.26-3.53-10.51-2.27a54.71,54.71,0,0,0-6.8,2.47,82,82,0,0,0-14.46,8.52,15.38,15.38,0,0,0-5.24,6.31l-0.33.74,1.33,1c0.45,0.33.83,0.6,1.23,0.85a4.36,4.36,0,0,0,4.33.45c1.06-.55,2-0.34,3.29.22a11.46,11.46,0,0,0,4.53.87,19.36,19.36,0,0,0,3.84-.43c3.26-.66,6.67-1.54,10.42-2.68,4.35-1.33,7.92-4.31,10.92-9.12C1052.4,276.61,1052.08,274.9,1050,273.11Z" transform="translate(-4.48 -5.01)"/><path class="cls-1" d="M920.47,33.58c2.83,3.45,4.94,4.79,9.39,6l0.38,0.1,4-2.13,0.1-.44c0.09-.41.2-0.83,0.31-1.25a22.92,22.92,0,0,0,.67-3.28c0.57-5.12,1-11.88-.62-18.8-1.4-5.95-5.9-7.7-9.67-8.55-2.8-.64-5.33.66-7.45,2a11.73,11.73,0,0,0-4.47,13A43.88,43.88,0,0,0,920.47,33.58Zm2.61-18.15a3.89,3.89,0,0,1,1.94-.74h0.31a30.23,30.23,0,0,1,1.25,12.46,41.52,41.52,0,0,1-4.5-9C921.54,16.58,921.65,16.27,923.08,15.43Z" transform="translate(-4.48 -5.01)"/><path class="cls-1" d="M873.89,423.91c-0.23.4-.47,0.8-0.72,1.19a6.1,6.1,0,0,0-.79,4.49,45.86,45.86,0,0,0,7.77,18.5,12,12,0,0,0,10.28,5.19h0.63l0.27-.57c4.15-8.72,4-16.74-.44-24.51-2.06-3.61-5.32-6.18-10.27-8.09-2.3-.9-4.08-0.29-5.58,1.9C874.64,422.64,874.27,423.28,873.89,423.91Z" transform="translate(-4.48 -5.01)"/><path class="cls-1" d="M921.71,489a39.68,39.68,0,0,0-19.24-5.62,23.53,23.53,0,0,0-3.35.27c-0.5.07-1,.14-1.53,0.19l-0.74.08-0.13.73a13.17,13.17,0,0,0,1,8.37,8.33,8.33,0,0,0,2.6,3.47l1.29,0.94c2.2,1.6,4.49,3.27,6.8,4.8a17.63,17.63,0,0,0,10.15,2.7H920c3.34-.15,4.91-1.59,5.6-5.14,0.08-.44.16-0.88,0.23-1.32v-0.27C926.66,493.2,925.88,491.49,921.71,489Z" transform="translate(-4.48 -5.01)"/></svg>