<svg id="FKA_GDC_2016" xmlns="http://www.w3.org/2000/svg" viewBox="0 0 1061.05 500"><defs><style>.cls-1{fill:#eabb68;}</style></defs><title>FKA_GDC_2016_Gold</title><path class="cls-1" d="M218.52,494.2c-1.06-.65-2.18-1.2-3.3-1.76l-1.67-.85c-0.78-.41-1.58-0.81-2.38-1.2a45.69,45.69,0,0,1-5.2-2.86c-7.87-5.28-16.09-10.94-25.15-17.29a34.65,34.65,0,0,1-8.1-7.66,160.21,160.21,0,0,0-12-13.79l-2-2.09c-8-8.57-16.21-17.85-24.44-27.57a102.31,102.31,0,0,1-10-14.09c-6-10.21-12-20.91-17.83-31.81-5.18-9.72-10.11-19.8-15-29.73-5.73-11.71-9.13-21.86-10.68-31.95-1-6.63-2.45-13.64-4.38-21.45-3-12.14-6.25-26.57-7.76-41.54a254,254,0,0,1-1.55-28c0-4.5.32-9.08,0.59-13.51l0.16-2.67c0.24-4.08.37-8.17,0.51-12.26,0.18-5.46.37-11.1,0.81-16.64a164.58,164.58,0,0,1,5.13-31.08q2.31-8.41,4.66-16.82a30.1,30.1,0,0,1,1-2.92q1.41-3.61,2.84-7.2c1.58-4,3.17-8,4.7-12A103.57,103.57,0,0,1,96.8,87.35c1.71-2.71,3.63-5.35,5.49-7.92l2.39-3.3c1.83-2.55,3.72-5.19,5.73-7.64,2.16-2.64,4.51-5.22,6.77-7.72L119,58.71c0.62-.68,1.25-1.36,1.87-2,2.7-2.9,5.49-5.9,7.35-9.66a5,5,0,0,1,.92-1.13c0.25-.26.51-0.52,0.73-0.8s0.68-.88,1-1.31l0.7-.94-0.17-.5c-0.4-1.35-1.06-2.85-2.8-3.24l-0.26-.06-0.56.16a2,2,0,0,0-.91.39c-0.5.41-1,.84-1.48,1.27-0.79.69-1.57,1.38-2.41,2-7.31,5.37-13.46,12.18-19.13,18.7-2.54,2.92-4.87,6.08-7.13,9.13l-1.64,2.22c-0.89,1.19-1.72,2.43-2.54,3.67-0.64,1-1.28,1.93-2,2.87a103.57,103.57,0,0,0-11.74,21.36L77.13,105c-1.37,3.33-2.79,6.77-4.07,10.2-1.35,3.62-2.67,7.57-4,12.1-1.5,5-2.81,10-3.89,14.19-1,4-1.9,7.72-2.63,11.25-1.74,8.38-2.28,17-2.79,25.33-0.12,1.85-.23,3.71-0.36,5.56-0.24,3.49-.31,7-0.37,10.48,0,2.33-.09,4.66-0.18,7-0.09,2.15-.23,4.31-0.37,6.46-0.19,2.81-.38,5.72-0.45,8.6a230.16,230.16,0,0,0,1.15,26.65,234.28,234.28,0,0,0,5.36,34.6c3.16,13,5.69,25,7.73,36.8A83.7,83.7,0,0,0,79,335.61c5.54,11.77,11.61,24.12,18,36.7,3.61,7.07,7.6,14.08,11.46,20.86l2.72,4.79a162.63,162.63,0,0,0,8.58,14,257.41,257.41,0,0,0,18.38,23l1,1.1c4.89,5.46,9.95,11.11,15.16,16.45a158.13,158.13,0,0,1,12.33,13.8A52.35,52.35,0,0,0,177.53,477c6.48,4.64,11.75,8.33,16.58,11.62a137.5,137.5,0,0,0,22.66,12.6,6.32,6.32,0,0,0,2.47.6,3.91,3.91,0,0,0,3.29-1.88l0.26-.37-0.16-.43A8.25,8.25,0,0,0,218.52,494.2Z" transform="translate(-4.48 -4.99)"/><path class="cls-1" d="M149.44,409.59l-1.38,2,2.51,5.22,1.29-.29a5.52,5.52,0,0,0,1-.26,6.83,6.83,0,0,0,1.63-.85c3.11-2.34,6.57-5.37,8.67-10l0.53-1.18c2.4-5.3,4.88-10.79,6.89-16.39a106,106,0,0,0,5.23-18.44A24.39,24.39,0,0,0,171,349.6c-1.5-1.92-3.25-2.39-5.34-1.43a14.42,14.42,0,0,0-6.91,6,27.57,27.57,0,0,0-2.88,8.52c-0.67,3.5-1.31,7.25-2,12.14a134.84,134.84,0,0,0-1.71,29.4,3.23,3.23,0,0,1-.56,2.32C150.86,407.52,150.19,408.51,149.44,409.59ZM162.63,381c0.82-6.54,1.66-13.28,3.56-19.66v0.37a15.06,15.06,0,0,1,.18,3.84,86.63,86.63,0,0,1-3.9,16.39Z" transform="translate(-4.48 -4.99)"/><path class="cls-1" d="M103.3,420.51c1.35-.06,2.75,0,4.22,0l2.26,0.06H110l0.6-.33a12.84,12.84,0,0,0,1.46-.86c0.46-.34,1-0.72,1.53-1.15l1.48-1.15-1.34-2.24c-0.64-1.08-1.25-2.11-1.89-3.11a3.5,3.5,0,0,0-3.67-1.68,26.36,26.36,0,0,1-2.7.23h-0.79a19.48,19.48,0,0,0-6.57-7.44A54.32,54.32,0,0,0,80,394.34a33,33,0,0,0-14.17-.68c-5.32,1-9.24,2.64-12.33,5.32-2.62,2.27-3,4.12-1.33,7.1a19.74,19.74,0,0,0,11.27,9.32,97.9,97.9,0,0,0,19.14,4.23,110,110,0,0,0,14.7,1Q100.22,420.65,103.3,420.51ZM73.52,408.27l-0.26-.06c-4.07-.88-8.28-1.8-11.81-4a1.33,1.33,0,0,1,1-.57,26.55,26.55,0,0,1,12.06-1.11,49.11,49.11,0,0,1,19.86,7.37,7.73,7.73,0,0,1,.7.51C90,410.9,82,410.12,73.52,408.27Z" transform="translate(-4.48 -4.99)"/><path class="cls-1" d="M34.5,160.23c4.32,2.25,7.83,4.24,10.41,7.63a4.54,4.54,0,0,0,3.73,1.92,5.67,5.67,0,0,0,1.53-.22l0.59-.17,0.11-.6c0.86-4.52-.25-8.72-3-11.51a5.43,5.43,0,0,1-1.63-3.2,19.13,19.13,0,0,0-1.8-5.5,58.28,58.28,0,0,0-14-17.52,37.19,37.19,0,0,0-11.83-7A22.22,22.22,0,0,0,8.42,123c-2.32.27-3.36,1.26-3.71,3.51A11.25,11.25,0,0,0,5.77,134a35.71,35.71,0,0,0,2.87,4.46A80.31,80.31,0,0,0,34.5,160.23ZM34,148.72a68.1,68.1,0,0,1-17.18-15.18C23,136.47,30.64,143.27,34,148.72Z" transform="translate(-4.48 -4.99)"/><path class="cls-1" d="M146.17,458.53l0.25-5-0.44-.31a7,7,0,0,0-6.1-1.08,5.23,5.23,0,0,1-3.56-.48c-0.65-.3-1.31-0.55-2-0.79l-2.2-.86c-6.43-2.56-13.08-5.21-20.11-6.42a42,42,0,0,0-8.07-.67,22.34,22.34,0,0,0-9.68,2C89,447.56,87.1,451,88.07,456.1a3.84,3.84,0,0,1,0,.63c0.09,3.75,2,6.37,5.64,7.79l0.61,0.24A18.08,18.08,0,0,0,98,465.93a69.39,69.39,0,0,0,8.78,1h2.55A107.65,107.65,0,0,0,128.31,465c3.86-.68,7.64-1.69,10.5-2.48a16.6,16.6,0,0,0,7-3.75Zm-22.79-1c-3.28.34-6.55,0.67-9.84,0.92a32.26,32.26,0,0,1-11-1.31c-2-.53-3.52-1.25-4.52-2.91,1.72-2.25,4-3,7.22-2.43a67.93,67.93,0,0,1,13.49,4c0.64,0.26,1.31.46,2,.67a16,16,0,0,1,2.87,1.08Z" transform="translate(-4.48 -4.99)"/><path class="cls-1" d="M134.69,146.53l-0.9-2.06-0.49-.11-1-.25a12.4,12.4,0,0,0-2-.4,45.56,45.56,0,0,0-12.07.8c-6.88,1.24-13.19,3.67-20.14,6.47a33.23,33.23,0,0,0-10.92,7C86.1,159,85,160.1,83.9,161.15l-2.41,2.32a4.74,4.74,0,0,0-1.61,3.3,4.1,4.1,0,0,0,1.28,2.93,3.5,3.5,0,0,1,1.09,2.13c0.07,0.44.17,0.88,0.31,1.49L83,175.24l0.9-.12,1.52-.18a24.27,24.27,0,0,0,2.77-.42l1-.23c5.37-1.26,10.93-2.55,16.37-4a90.25,90.25,0,0,0,17.3-6.25,31.64,31.64,0,0,0,9.4-6.43C135.52,154.08,136.35,150.43,134.69,146.53Zm-11.06,6.39a26.61,26.61,0,0,1-9,5.61,72.3,72.3,0,0,1-13.38,4.26c-1.62.32-3.23,0.73-4.83,1.13-1,.25-1.93.49-2.9,0.72l-0.84.16a29.4,29.4,0,0,1,12-8l0.41-.15c2.54-.92,5.17-1.88,7.78-2.7a28,28,0,0,1,8.52-1.32q1.19,0,2.41.1A1.36,1.36,0,0,1,123.63,152.92Z" transform="translate(-4.48 -4.99)"/><path class="cls-1" d="M145.56,112.35a11.08,11.08,0,0,0,1.52-9.88,16.8,16.8,0,0,1-.49-1.8c-0.63-3.08-2.65-5.1-6-6a22.49,22.49,0,0,0-10.26-.25,47.76,47.76,0,0,0-13.42,4.33c-5.24,2.72-10.16,5.64-12.69,11.22-6.09-.24-6.44-0.17-9.5,2.2l-0.45.35,0.84,6.23,1.45,0.33a12.17,12.17,0,0,0,1.43.29l4.63,0.53c5.28,0.61,10.56,1.23,15.85,1.77a42,42,0,0,0,4.34.23,36.76,36.76,0,0,0,14-2.69A18.2,18.2,0,0,0,145.56,112.35Zm-16.71.17h-1.47a40,40,0,0,1-4.38-.16c-2.44-.23-4.88-0.52-7.59-0.85l-1.79-.21A15.3,15.3,0,0,1,115,110a37.15,37.15,0,0,1,10.72-6,15.11,15.11,0,0,1,7.33-.73,12.79,12.79,0,0,1,3.5,1,1.58,1.58,0,0,1,.91,2.75c-2,3.79-4.81,5.68-8.59,5.53h0Z" transform="translate(-4.48 -4.99)"/><path class="cls-1" d="M38.79,97.29c0.78,1.14,1.57,2.28,2.33,3.43l1.33,2c1.29,1.92,2.63,3.89,3.74,5.93a9.83,9.83,0,0,0,5.17,4.87l0.6,0.24,0.46-.46,0.34-.31a3.29,3.29,0,0,0,.75-0.86l0.37-.7c0.81-1.56,1.38-2.53,2.88-2.73,1-.13,1.56-1.18,2-2a11.74,11.74,0,0,0,1.62-8.27c-0.42-2-.83-3.93-1.23-5.89-0.8-3.93-1.63-8-2.64-11.94a46.51,46.51,0,0,0-4.8-12C49.26,64.44,46.49,61.71,43,60a6.23,6.23,0,0,0-7.6,1.14,10.15,10.15,0,0,0-1.73,2,20.45,20.45,0,0,0-3.55,10.07,30.38,30.38,0,0,0,4.26,17.23C35.7,92.8,37.27,95.08,38.79,97.29ZM38.53,71.18l0.11-.76A2,2,0,0,1,39.8,69a1.57,1.57,0,0,1,.79-0.3,0.66,0.66,0,0,1,.5.26,16,16,0,0,1,1.85,2.32,39.35,39.35,0,0,1,4.7,10.51,126,126,0,0,1,4.25,18.54q-1.17-1.62-2.37-3.23a101.37,101.37,0,0,1-8.18-12.34,28,28,0,0,1-3-11.79A8.77,8.77,0,0,1,38.53,71.18Z" transform="translate(-4.48 -4.99)"/><path class="cls-1" d="M127,206.42c3.83-4.44,4.21-6.25,2.58-12.14a2,2,0,0,0-.53-0.84l-0.38-.45-0.25-.1a10.9,10.9,0,0,0-5.47-.25l-0.74.09c-6.85.8-12.62,4-16.88,6.62A83.08,83.08,0,0,0,90,212.16a38.84,38.84,0,0,1-5.74,5.14,6.14,6.14,0,0,0-2.87,6.31c0.08,0.7.19,1.39,0.31,2.19L82,227.92h0.85a22.41,22.41,0,0,0,6.79-1.28c0.79-.24,1.56-0.48,2.35-0.67a81.81,81.81,0,0,0,28.78-13.8A36.9,36.9,0,0,0,127,206.42ZM116,204a72.63,72.63,0,0,1-12,7.81c0.6-.56,1.41-1.23,2.56-2.13a45.56,45.56,0,0,1,10-6.21,3.53,3.53,0,0,1-.55.54h0Z" transform="translate(-4.48 -4.99)"/><path class="cls-1" d="M91,56.65a22.75,22.75,0,0,0,5.92,4.92l0.63,0.36,0.53-.49a13.51,13.51,0,0,0,3.74-5.29,2.39,2.39,0,0,0,.06-1.8c-0.65-1.31-.22-2.4.53-4.08l0.15-.32a9.86,9.86,0,0,0,.73-3,35.35,35.35,0,0,0-1.41-15.26c-0.9-2.73-2.35-6.15-5.51-8.31a41.82,41.82,0,0,0-7.12-3.78,5,5,0,0,0-6.42,1.79,18.91,18.91,0,0,0-3.29,6.68,16.58,16.58,0,0,0,.49,9.5A55.27,55.27,0,0,0,91,56.65ZM90.39,31.09a15,15,0,0,1,2,3.55A29.11,29.11,0,0,1,94,43.9a41.66,41.66,0,0,1-5-10.66,9.2,9.2,0,0,1-.57-3.1A1.86,1.86,0,0,1,90.39,31.09Z" transform="translate(-4.48 -4.99)"/><path class="cls-1" d="M21.44,216.59l0.31,0.08c1,0.08,1.93.18,2.84,0.28a51.57,51.57,0,0,0,5.89.41c3.07,0,6.28.07,9.2,1.48a5.43,5.43,0,0,0,2.41.57,6.4,6.4,0,0,0,1.27-.13c2.33-.47,3.47-2,3.12-4.15-0.41-2.6-.92-5.83-4.06-7.81a15.5,15.5,0,0,1-2.19-1.8c-0.44-.4-0.88-0.81-1.33-1.18a47.4,47.4,0,0,0-11.06-6.58c-5.35-2.38-10.95-2.13-17.61.8a4.28,4.28,0,0,0-2.67,4.9c0.73,4.76,2.75,8,6.16,9.76a59.58,59.58,0,0,0,5.51,2.47C20,216,20.74,216.28,21.44,216.59Z" transform="translate(-4.48 -4.99)"/><path class="cls-1" d="M58.23,362.18a47.51,47.51,0,0,1,6.71.28,17.44,17.44,0,0,0,2.36.17A13.14,13.14,0,0,0,74,360.84l0.59-.35-0.11-.67c-0.07-.43,0-0.56,1-1.14a8.28,8.28,0,0,0,1.3-.89l0.48-.42-0.19-.61c-2.47-8-7.72-13.24-16.06-16.09a12.93,12.93,0,0,0-9.21.44,74.48,74.48,0,0,0-6.91,3.22,11.78,11.78,0,0,0-4.77,4.26,3.92,3.92,0,0,0-.64,3.44c1.16,3.38,3.17,7.45,8.43,8.9a31.32,31.32,0,0,0,8,1.26h2.27Zm-1.46-12a11.87,11.87,0,0,1,5,1.66,29.5,29.5,0,0,1-8.86-.51,5.64,5.64,0,0,1,3.86-1.16h0Z" transform="translate(-4.48 -4.99)"/><path class="cls-1" d="M130.88,60.27l-0.13,1.5L131.49,62c3.36,1.14,7.35,2,11.56.11a53.9,53.9,0,0,1,5.16-2l1-.37c2.13-.78,3.91-0.17,6,2a1.43,1.43,0,0,1,.5,1,1.38,1.38,0,0,1-.66.84,17.56,17.56,0,0,1-9.11,3.1A30.76,30.76,0,0,1,135,65c-2.21-.7-4.8-1.37-7.7-0.34l-0.49.17-1.71,6.4L126,71.56l1.57,0.59a24.8,24.8,0,0,0,2.93,1,61.64,61.64,0,0,0,13.51,2c0.72,0,1.42.06,2.11,0.06a27.93,27.93,0,0,0,13.37-3.08c3.93-2.08,5.89-5,6-8.9v-0.3a12.2,12.2,0,0,1,.11-2,6.71,6.71,0,0,0-3.21-6.67,16.38,16.38,0,0,0-4.52-2.15,26,26,0,0,0-19.21,1.71,52.22,52.22,0,0,1-5,2.06,3.71,3.71,0,0,0-2.63,3C131,59.31,130.92,59.76,130.88,60.27Z" transform="translate(-4.48 -4.99)"/><path class="cls-1" d="M115.83,276.87a22.71,22.71,0,0,0,2.67-6.38c0.2-.65.39-1.3,0.61-1.95a11,11,0,0,0-1.4-9.41l-0.27-.45h-1a3.09,3.09,0,0,0-1.15,0,30.46,30.46,0,0,0-10.86,4.62q-8.07,5.77-16.16,11.5a7.5,7.5,0,0,0-2.55,3.58c-1.06,2.58-.35,4.9.4,7.37L86.54,287l0.62,0.1,1.3,0.22c0.94,0.16,1.85.32,2.76,0.39q1,0.07,1.89.08c6.17,0,11.55-2.33,16.07-4.66A18.09,18.09,0,0,0,115.83,276.87Zm-10.94-1.72a10.39,10.39,0,0,1-4.91,2.23c1.17-.82,2.27-1.65,3.35-2.46,1.26-1,2.48-1.87,3.73-2.71a7.71,7.71,0,0,1-2.17,2.95h0Z" transform="translate(-4.48 -4.99)"/><path class="cls-1" d="M101.37,353.85l0.69-.07c3.51-.37,7.14-0.74,9.77-4.2,1.24-1.62,2.64-3.18,4-4.69,0.82-.92,1.64-1.83,2.44-2.77a32.41,32.41,0,0,0,6.21-10.95,16.72,16.72,0,0,0-.61-12.29c-1.15-2.59-2.72-3.45-5.44-3-4.58.78-8,2.89-10.17,6.3a42.57,42.57,0,0,0-4.18,8.3c-1.84,5-3.45,10-2.88,15.49a2.34,2.34,0,0,1-.3,1.91c-1.5,1.89-.57,3.81.18,5.35ZM115,329.54a13.87,13.87,0,0,1-1.47,3.31A18.69,18.69,0,0,1,115,329.54Z" transform="translate(-4.48 -4.99)"/><path class="cls-1" d="M44.1,291a11.45,11.45,0,0,0,4.53-.87c1.32-.56,2.24-0.75,3.29-0.22a4.36,4.36,0,0,0,4.33-.45c0.4-.24.78-0.52,1.23-0.85l1.33-1L58.47,287a15.39,15.39,0,0,0-5.24-6.31,82,82,0,0,0-14.46-8.52A53.85,53.85,0,0,0,32,269.7c-4.25-1.26-7.78-.5-10.51,2.27a5.89,5.89,0,0,1-.79.63c-0.24.17-.47,0.34-0.7,0.53-2.13,1.79-2.45,3.5-1.07,5.72,3,4.81,6.58,7.8,10.92,9.12,3.75,1.14,7.15,2,10.41,2.68A19.32,19.32,0,0,0,44.1,291Z" transform="translate(-4.48 -4.99)"/><path class="cls-1" d="M135.34,35.82c0.11,0.43.22,0.85,0.31,1.26l0.1,0.44,4,2.13,0.38-.1c4.45-1.19,6.56-2.53,9.39-6a44,44,0,0,0,7.4-13.39,11.74,11.74,0,0,0-4.47-13c-2.13-1.35-4.67-2.65-7.45-2-3.77.86-8.27,2.61-9.67,8.55-1.63,6.93-1.19,13.69-.63,18.8A23.11,23.11,0,0,0,135.34,35.82Zm9.29-21.12a3.45,3.45,0,0,1,2.27.73c1.42,0.84,1.53,1.14,1,2.74a41.47,41.47,0,0,1-4.5,9A30.2,30.2,0,0,1,144.63,14.7Z" transform="translate(-4.48 -4.99)"/><path class="cls-1" d="M178.63,452.72l0.27,0.57h0.63a12,12,0,0,0,10.28-5.19,45.77,45.77,0,0,0,7.77-18.5,6.13,6.13,0,0,0-.79-4.49c-0.24-.39-0.48-0.78-0.71-1.18-0.38-.64-0.75-1.28-1.17-1.9-1.5-2.19-3.28-2.8-5.58-1.9-4.94,1.91-8.21,4.49-10.27,8.09C174.63,436,174.46,444,178.63,452.72Z" transform="translate(-4.48 -4.99)"/><path class="cls-1" d="M173.1,484l-0.74-.08c-0.52,0-1-.12-1.53-0.19a21.22,21.22,0,0,0-3.35-.27,39.66,39.66,0,0,0-19.24,5.62c-4.18,2.44-5,4.15-4.14,9.17v0.27c0.07,0.44.14,0.88,0.23,1.32,0.69,3.55,2.27,5,5.61,5.14h1.44a17.61,17.61,0,0,0,10.13-2.7c2.27-1.51,4.5-3.13,6.65-4.7l1.44-1a8.34,8.34,0,0,0,2.6-3.47,13.18,13.18,0,0,0,1-8.37Z" transform="translate(-4.48 -4.99)"/><path class="cls-1" d="M903.38,466.36a158.13,158.13,0,0,1,12.33-13.8c5.21-5.34,10.27-11,15.16-16.45l1-1.1a257.36,257.36,0,0,0,18.38-23,162.62,162.62,0,0,0,8.56-14l2.72-4.79c3.86-6.78,7.84-13.79,11.46-20.86,6.43-12.58,12.5-24.92,18-36.7a83.77,83.77,0,0,0,6.71-21.4c2-11.77,4.56-23.81,7.73-36.8a234.28,234.28,0,0,0,5.36-34.6,230.13,230.13,0,0,0,1.15-26.65c-0.07-2.88-.26-5.79-0.45-8.6-0.14-2.15-.29-4.31-0.37-6.46-0.1-2.33-.14-4.65-0.18-7-0.07-3.44-.13-7-0.37-10.48-0.13-1.85-.24-3.71-0.36-5.56-0.52-8.33-1.06-17-2.79-25.33-0.73-3.53-1.59-7.2-2.63-11.25s-2.4-9.18-3.89-14.19c-1.35-4.52-2.67-8.48-4-12.1-1.28-3.43-2.7-6.87-4.07-10.2l-1.71-4.18a103.57,103.57,0,0,0-11.74-21.36c-0.67-.94-1.32-1.91-2-2.87-0.83-1.24-1.65-2.48-2.54-3.67l-1.64-2.22c-2.26-3-4.59-6.21-7.13-9.13-5.67-6.51-11.82-13.33-19.13-18.7-0.84-.62-1.63-1.31-2.41-2L943,39.65a2,2,0,0,0-.91-0.39l-0.56-.16-0.26.06c-1.77.39-2.43,1.88-2.91,3.24l-0.18.5,0.7,0.94c0.31,0.43.64,0.88,1,1.31s0.48,0.54.73,0.8a5,5,0,0,1,.92,1.13c1.86,3.75,4.65,6.75,7.35,9.65l1.87,2,1.86,2.06c2.27,2.5,4.61,5.08,6.77,7.72,2,2.45,3.9,5.09,5.73,7.64l2.38,3.3c1.86,2.56,3.79,5.21,5.49,7.92a103.51,103.51,0,0,1,9.31,18.15c1.54,4,3.12,8,4.7,12q1.43,3.6,2.84,7.2a30.16,30.16,0,0,1,1,2.92q2.35,8.4,4.66,16.82a164.57,164.57,0,0,1,5.13,31.08c0.44,5.53.63,11.17,0.81,16.63,0.13,4.09.27,8.18,0.51,12.27l0.16,2.67c0.27,4.43.54,9,.59,13.51a254,254,0,0,1-1.55,28c-1.51,15-4.77,29.4-7.76,41.54-1.92,7.8-3.35,14.82-4.38,21.45-1.56,10.09-5,20.24-10.78,32.14-4.77,9.74-9.7,19.81-14.88,29.54-5.81,10.9-11.81,21.6-17.83,31.81a102.3,102.3,0,0,1-10,14.09c-8.23,9.72-16.45,19-24.44,27.57l-2,2.09a160.22,160.22,0,0,0-12,13.79,34.65,34.65,0,0,1-8.1,7.66c-9.06,6.35-17.28,12-25.15,17.29a45.69,45.69,0,0,1-5.2,2.86c-0.8.4-1.6,0.79-2.38,1.2l-1.67.85c-1.12.56-2.23,1.11-3.3,1.76a8.26,8.26,0,0,0-4.15,5l-0.11.43,0.26,0.37a3.91,3.91,0,0,0,3.31,1.91,6.32,6.32,0,0,0,2.47-.6,137.39,137.39,0,0,0,22.65-12.6c4.89-3.32,10-6.91,16.58-11.62A52.34,52.34,0,0,0,903.38,466.36Z" transform="translate(-4.48 -4.99)"/><path class="cls-1" d="M916.12,374.85c-0.75-4.89-1.38-8.63-2-12.14a27.57,27.57,0,0,0-2.88-8.52,14.42,14.42,0,0,0-6.91-6c-2.09-1-3.84-.5-5.35,1.43a24.4,24.4,0,0,0-4.79,19.8,106,106,0,0,0,5.23,18.44c2,5.6,4.49,11.08,6.89,16.39l0.53,1.18c2.1,4.64,5.56,7.66,8.67,10a6.89,6.89,0,0,0,1.63.85,5.61,5.61,0,0,0,1,.26l1.29,0.29,2.51-5.22-1.38-2c-0.75-1.08-1.42-2.06-2.13-3a3.23,3.23,0,0,1-.56-2.32A134.83,134.83,0,0,0,916.12,374.85Zm-12.56-9.34a15.06,15.06,0,0,1,.18-3.84V361.3c1.9,6.38,2.74,13.12,3.56,19.66l0.12,0.94A86.62,86.62,0,0,1,903.56,365.51Z" transform="translate(-4.48 -4.99)"/><path class="cls-1" d="M1016.49,399.07c-3.09-2.68-7-4.37-12.33-5.32a33.09,33.09,0,0,0-14.17.68,54.31,54.31,0,0,0-18.19,8.51,19.48,19.48,0,0,0-6.57,7.44h-0.79a26.36,26.36,0,0,1-2.7-.23,3.51,3.51,0,0,0-3.67,1.68c-0.64,1-1.25,2-1.89,3.11l-1.34,2.24,1.48,1.15c0.53,0.42,1,.8,1.53,1.15a14.07,14.07,0,0,0,1.46.86l0.6,0.33h0.27l2.26-.06c1.47,0,2.86-.09,4.22,0q3.09,0.14,6,.14a110.63,110.63,0,0,0,14.7-1,98,98,0,0,0,19.14-4.23,19.74,19.74,0,0,0,11.27-9.32C1019.45,403.19,1019.1,401.33,1016.49,399.07Zm-19.8,9.15-0.26.06c-8.51,1.85-16.45,2.64-21.54,2.16,0.24-.19.46-0.35,0.7-0.51a49.11,49.11,0,0,1,19.86-7.37,26.54,26.54,0,0,1,12.07,1.11,1.33,1.33,0,0,1,1,.57c-3.55,2.18-7.76,3.09-11.83,4h0Z" transform="translate(-4.48 -4.99)"/><path class="cls-1" d="M1061.55,122.94a22.28,22.28,0,0,0-10.19,1.11,37.19,37.19,0,0,0-11.83,7,58.28,58.28,0,0,0-14,17.52,19.13,19.13,0,0,0-1.8,5.5,5.43,5.43,0,0,1-1.63,3.2c-2.79,2.79-3.9,7-3,11.51l0.11,0.6,0.59,0.17a5.66,5.66,0,0,0,1.53.22,4.54,4.54,0,0,0,3.71-1.92c2.58-3.39,6.09-5.38,10.41-7.63a80.31,80.31,0,0,0,25.88-21.76,35.36,35.36,0,0,0,2.86-4.45,11.27,11.27,0,0,0,1.11-7.57C1064.94,124.2,1063.9,123.21,1061.55,122.94ZM1036,148.71c3.27-5.45,10.95-12.25,17.18-15.19a68.07,68.07,0,0,1-17.15,15.2h0Z" transform="translate(-4.48 -4.99)"/><path class="cls-1" d="M975.67,444.9a22.36,22.36,0,0,0-9.68-2,42.07,42.07,0,0,0-8.07.67c-7,1.21-13.68,3.85-20.11,6.42l-2.2.86c-0.67.25-1.33,0.5-2,.79a5.19,5.19,0,0,1-3.57.48,7,7,0,0,0-6.1,1.08l-0.44.31,0.25,5,0.3,0.27a16.59,16.59,0,0,0,7,3.75c2.86,0.8,6.64,1.8,10.5,2.48a107.67,107.67,0,0,0,19,2h2.55a69.45,69.45,0,0,0,8.78-1,18.1,18.1,0,0,0,3.71-1.17l0.61-.24c3.65-1.42,5.55-4,5.64-7.79a3.76,3.76,0,0,1,0-.63C982.83,451,980.92,447.54,975.67,444.9Zm-8.21,12.23a32.56,32.56,0,0,1-11,1.31c-3.28-.25-6.56-0.58-9.84-0.92h-0.15a16,16,0,0,1,2.87-1.08c0.67-.21,1.34-0.41,2-0.67a67.93,67.93,0,0,1,13.49-4c3.24-.57,5.49.18,7.22,2.43-1.07,1.68-2.61,2.39-4.59,2.93h0Z" transform="translate(-4.48 -4.99)"/><path class="cls-1" d="M990.17,166.82a4.74,4.74,0,0,0-1.61-3.3l-2.41-2.32q-1.65-1.57-3.28-3.17A33.23,33.23,0,0,0,972,151c-6.95-2.81-13.26-5.23-20.14-6.47a45.49,45.49,0,0,0-12.07-.8,12.57,12.57,0,0,0-2,.4l-1,.26-0.49.11-0.9,2c-1.67,3.9-.83,7.55,2.56,11.15a31.63,31.63,0,0,0,9.4,6.43,90.22,90.22,0,0,0,17.3,6.25c5.44,1.4,11,2.69,16.37,4l1,0.23a24.33,24.33,0,0,0,2.77.42l1.52,0.18,0.9,0.12,0.43-1.92c0.14-.6.24-1,0.31-1.48a3.5,3.5,0,0,1,1.09-2.13A4.1,4.1,0,0,0,990.17,166.82Zm-13.68-2.18c-1-.22-1.93-0.47-2.9-0.72-1.61-.41-3.21-0.82-4.84-1.13a72.42,72.42,0,0,1-13.38-4.26,26.61,26.61,0,0,1-9-5.61,1.35,1.35,0,0,1-.16-0.21,28.22,28.22,0,0,1,10.93,1.22c2.61,0.83,5.24,1.78,7.78,2.7l0.41,0.15a29.4,29.4,0,0,1,12,8A7,7,0,0,1,976.5,164.64Z" transform="translate(-4.48 -4.99)"/><path class="cls-1" d="M965.75,110c-2.54-5.58-7.45-8.49-12.69-11.22a47.76,47.76,0,0,0-13.42-4.33,22.49,22.49,0,0,0-10.26.25c-3.35.91-5.38,2.93-6,6a16.93,16.93,0,0,1-.49,1.8,11.08,11.08,0,0,0,1.52,9.89,18.2,18.2,0,0,0,8.76,6.85,36.76,36.76,0,0,0,14,2.69,42,42,0,0,0,4.34-.23c5.29-.55,10.57-1.16,15.85-1.77l4.63-.53h0a11.81,11.81,0,0,0,1.43-.29l1.45-.33,0.84-6.23-0.45-.35C972.19,109.78,971.84,109.72,965.75,110Zm-11.19,1.54c-2.71.33-5.14,0.62-7.59,0.85-1.44.13-2.94,0.15-4.38,0.16h-1.47c-3.76.11-6.53-1.73-8.6-5.5a2.41,2.41,0,0,1-.44-1.68,2.38,2.38,0,0,1,1.35-1.07,12.79,12.79,0,0,1,3.5-1,16.46,16.46,0,0,1,2.26-.16,14.69,14.69,0,0,1,5.07.88A37.16,37.16,0,0,1,955,110a15.29,15.29,0,0,1,1.36,1.32Z" transform="translate(-4.48 -4.99)"/><path class="cls-1" d="M1013.2,108.69c1.49,0.2,2.07,1.17,2.88,2.73l0.37,0.7a3.28,3.28,0,0,0,.75.86l0.34,0.31,0.46,0.46,0.6-.24a9.83,9.83,0,0,0,5.17-4.87c1.1-2,2.44-4,3.74-5.92,0.45-.67.9-1.33,1.34-2,0.76-1.15,1.54-2.29,2.33-3.43,1.52-2.21,3.09-4.49,4.47-6.85a30.37,30.37,0,0,0,4.26-17.23,20.43,20.43,0,0,0-3.55-10.07,10.1,10.1,0,0,0-1.75-1.95,6.23,6.23,0,0,0-7.6-1.14c-3.51,1.7-6.29,4.44-8.74,8.61a46.5,46.5,0,0,0-4.8,12c-1,4-1.84,8-2.64,11.94-0.4,2-.8,3.93-1.23,5.89a11.75,11.75,0,0,0,1.62,8.27C1011.64,107.51,1012.22,108.56,1013.2,108.69Zm9.08-26.89A39.34,39.34,0,0,1,1027,71.26a16,16,0,0,1,1.85-2.32,0.66,0.66,0,0,1,.5-0.26,1.57,1.57,0,0,1,.79.3,2,2,0,0,1,1.16,1.43l0.12,0.77a8.77,8.77,0,0,1,.11,1.84,27.93,27.93,0,0,1-3,11.79,101.28,101.28,0,0,1-8.22,12.35l-2.37,3.23a126.1,126.1,0,0,1,4.32-18.58h0Z" transform="translate(-4.48 -4.99)"/><path class="cls-1" d="M988,227.92l0.33-2.12c0.13-.8.23-1.49,0.31-2.19a6.14,6.14,0,0,0-2.87-6.31,38.85,38.85,0,0,1-5.74-5.14,83.09,83.09,0,0,0-15.44-12.8c-4.26-2.66-10-5.82-16.87-6.62l-0.75-.09a10.9,10.9,0,0,0-5.47.25l-0.25.1-0.38.45a2,2,0,0,0-.53.84c-1.63,5.88-1.25,7.7,2.58,12.14a37,37,0,0,0,6.3,5.75A81.83,81.83,0,0,0,978,226c0.79,0.19,1.56.43,2.35,0.67a22.41,22.41,0,0,0,6.76,1.28H988v0ZM954,204c-0.22-.18-0.42-0.36-0.61-0.53a45.61,45.61,0,0,1,10,6.21,33,33,0,0,1,2.56,2.13,72.62,72.62,0,0,1-12-7.8h0Z" transform="translate(-4.48 -4.99)"/><path class="cls-1" d="M967.41,49.95l0.15,0.32c0.75,1.67,1.18,2.76.53,4.08a2.4,2.4,0,0,0,.06,1.8l1-.22-0.94.29a13.51,13.51,0,0,0,3.71,5.22l0.53,0.49,0.63-.36A22.75,22.75,0,0,0,979,56.65a55.26,55.26,0,0,0,11-19,16.59,16.59,0,0,0,.49-9.5,18.92,18.92,0,0,0-3.29-6.68,5,5,0,0,0-6.42-1.79,41.7,41.7,0,0,0-7.22,3.73C970.4,25.57,969,29,968,31.72A35.35,35.35,0,0,0,966.68,47,9.86,9.86,0,0,0,967.41,49.95Zm10.21-15.32a14.93,14.93,0,0,1,2-3.55,1.85,1.85,0,0,1,1.94-.95,9.2,9.2,0,0,1-.57,3.1,41.6,41.6,0,0,1-5,10.66,29.13,29.13,0,0,1,1.63-9.25h0Z" transform="translate(-4.48 -4.99)"/><path class="cls-1" d="M1059.72,198.55c-6.67-2.93-12.26-3.19-17.61-.8a47.39,47.39,0,0,0-11.06,6.58c-0.46.38-.89,0.78-1.33,1.18a15.49,15.49,0,0,1-2.19,1.8c-3.14,2-3.65,5.22-4.06,7.81-0.34,2.18.79,3.69,3.12,4.15a6.42,6.42,0,0,0,1.27.13,5.44,5.44,0,0,0,2.42-.57c2.92-1.41,6.12-1.51,9.2-1.48a52.56,52.56,0,0,0,5.89-.41c0.92-.1,1.86-0.2,2.84-0.28l0.31-.08c0.71-.31,1.45-0.61,2.21-0.92a59.58,59.58,0,0,0,5.51-2.47c3.41-1.81,5.43-5,6.16-9.76A4.28,4.28,0,0,0,1059.72,198.55Z" transform="translate(-4.48 -4.99)"/><path class="cls-1" d="M1025,344.32a74.27,74.27,0,0,0-6.91-3.22,12.94,12.94,0,0,0-9.21-.44c-8.34,2.85-13.6,8.12-16.06,16.09l-0.19.61,0.48,0.42a8.28,8.28,0,0,0,1.3.89c1,0.58,1,.7,1,1.14l-0.11.67,0.59,0.34a13.14,13.14,0,0,0,6.75,1.79,17.45,17.45,0,0,0,2.36-.17,47.47,47.47,0,0,1,6.71-.28H1014a31.32,31.32,0,0,0,8-1.26c5.26-1.45,7.27-5.52,8.43-8.9a3.92,3.92,0,0,0-.64-3.44A11.79,11.79,0,0,0,1025,344.32Zm-16.88,7.46a11.87,11.87,0,0,1,5-1.66,5.62,5.62,0,0,1,3.84,1.15,29.6,29.6,0,0,1-8.83.51h0Z" transform="translate(-4.48 -4.99)"/><path class="cls-1" d="M904.5,62.93v0.28c0.11,3.91,2.07,6.82,6,8.9a27.92,27.92,0,0,0,13.37,3.08c0.69,0,1.4,0,2.11-.06a61.64,61.64,0,0,0,13.51-2c1-.26,1.88-0.62,2.92-1l1.58-.6,0.85-.31-1.71-6.4-0.49-.17a11.73,11.73,0,0,0-7.7.34A30.79,30.79,0,0,1,924,66.7a17.56,17.56,0,0,1-9.11-3.1,1.38,1.38,0,0,1-.66-0.84,1.43,1.43,0,0,1,.5-1c2.08-2.19,3.87-2.8,6-2l1,0.37c1.72,0.63,3.5,1.27,5.16,2,4.2,1.93,8.2,1,11.56-.11l0.73-.25-0.13-1.5a8.35,8.35,0,0,0-.15-1.41,3.71,3.71,0,0,0-2.63-3,52,52,0,0,1-5-2.06,26,26,0,0,0-19.18-1.7,16.42,16.42,0,0,0-4.54,2.17,6.71,6.71,0,0,0-3.21,6.67A13.14,13.14,0,0,1,904.5,62.93Z" transform="translate(-4.48 -4.99)"/><path class="cls-1" d="M978.75,287.69c0.91-.07,1.82-0.23,2.76-0.39l1.3-.22,0.62-.1,0.39-1.29c0.75-2.46,1.46-4.79.4-7.37a7.5,7.5,0,0,0-2.55-3.58q-8.11-5.74-16.17-11.5a30.45,30.45,0,0,0-10.87-4.63,3.14,3.14,0,0,0-1.14,0h-1l-0.27.45a11,11,0,0,0-1.4,9.41c0.22,0.65.41,1.3,0.61,1.95a22.71,22.71,0,0,0,2.67,6.38,18.07,18.07,0,0,0,6.67,6.23c4.52,2.34,9.9,4.66,16.07,4.66A9.74,9.74,0,0,0,978.75,287.69Zm-13.69-12.53a7.71,7.71,0,0,1-2.17-2.94c1.25,0.84,2.47,1.76,3.73,2.71,1.08,0.81,2.18,1.64,3.35,2.46a10.41,10.41,0,0,1-4.9-2.23h0Z" transform="translate(-4.48 -4.99)"/><path class="cls-1" d="M965.9,330.47a42.55,42.55,0,0,0-4.18-8.3c-2.18-3.4-5.6-5.52-10.17-6.3-2.72-.45-4.29.41-5.44,3a16.73,16.73,0,0,0-.62,12.29,32.45,32.45,0,0,0,6.21,10.95c0.79,0.94,1.62,1.85,2.44,2.77,1.36,1.51,2.76,3.07,4,4.69,2.64,3.46,6.26,3.83,9.77,4.2l0.69,0.07,0.3-.62c0.75-1.54,1.68-3.46.18-5.35a2.34,2.34,0,0,1-.3-1.91C969.35,340.51,967.74,335.53,965.9,330.47Zm-11-.93a18.74,18.74,0,0,1,1.47,3.31,13.87,13.87,0,0,1-1.45-3.31h0Z" transform="translate(-4.48 -4.99)"/><path class="cls-1" d="M1050,273.1c-0.22-.19-0.46-0.36-0.69-0.53a5.9,5.9,0,0,1-.79-0.63c-2.73-2.77-6.27-3.53-10.51-2.27a53.77,53.77,0,0,0-6.8,2.47,82,82,0,0,0-14.46,8.52,15.39,15.39,0,0,0-5.24,6.31l-0.34.74,1.33,1c0.45,0.33.83,0.61,1.23,0.85a4.37,4.37,0,0,0,4.33.45c1-.54,2-0.34,3.29.22a11.45,11.45,0,0,0,4.53.87,19.46,19.46,0,0,0,3.84-.42c3.26-.66,6.67-1.54,10.42-2.68,4.34-1.33,7.92-4.31,10.92-9.12C1052.41,276.61,1052.09,274.9,1050,273.1Z" transform="translate(-4.48 -4.99)"/><path class="cls-1" d="M920.48,33.57c2.83,3.45,4.94,4.79,9.39,6l0.38,0.1,4-2.13,0.1-.44c0.09-.41.2-0.83,0.31-1.26a23.11,23.11,0,0,0,.68-3.27c0.56-5.12,1-11.88-.63-18.8-1.39-5.95-5.9-7.7-9.67-8.55-2.78-.64-5.33.66-7.45,2a11.74,11.74,0,0,0-4.47,13A44,44,0,0,0,920.48,33.57Zm2.62-18.15a3.9,3.9,0,0,1,1.93-.74h0.31a30.2,30.2,0,0,1,1.22,12.48,41.47,41.47,0,0,1-4.5-9C921.56,16.57,921.67,16.27,923.1,15.42Z" transform="translate(-4.48 -4.99)"/><path class="cls-1" d="M875.06,422c-0.42.61-.79,1.25-1.17,1.9-0.23.4-.46,0.79-0.71,1.18a6.13,6.13,0,0,0-.79,4.49,45.77,45.77,0,0,0,7.77,18.5,12,12,0,0,0,10.28,5.19h0.63l0.27-.57c4.15-8.72,4-16.74-.44-24.51-2.06-3.61-5.33-6.18-10.27-8.09C878.33,419.22,876.56,419.83,875.06,422Z" transform="translate(-4.48 -4.99)"/><path class="cls-1" d="M921.72,489a39.66,39.66,0,0,0-19.24-5.62,23.66,23.66,0,0,0-3.35.27c-0.5.07-1,.14-1.53,0.19l-0.74.08-0.13.73a13.18,13.18,0,0,0,1,8.37,8.35,8.35,0,0,0,2.6,3.47l1.44,1c2.16,1.57,4.39,3.19,6.65,4.7A17.6,17.6,0,0,0,918.56,505H920c3.34-.15,4.92-1.59,5.61-5.14,0.08-.44.16-0.88,0.23-1.32v-0.27C926.67,493.2,925.9,491.49,921.72,489Z" transform="translate(-4.48 -4.99)"/><path class="cls-1" d="M430.16,325.37c-1.73,0-3.55.29-5.28,0.29h-2.4c-3.46,0-6,.29-6,3.36,0,2.88.19,5.47,3.84,5.47,1.34,0,2.69-.29,4-0.29,1,0,.86.48,0.86,1.06a14.78,14.78,0,0,1-.67,4l0.1-.1c-0.86,3.17-.58,9.31-5.28,9.31-3.55,0-4.61-2.5-4.9-4.89a151.33,151.33,0,0,1-.86-16.13c0-4.7.19-9.41,0.19-14.11,0-4.22,0-8.45,5.57-8.45,0.48,0,1,.1,1.34.1h-0.1c2.11,0.58,6.72,4.61,8.06,4.61,1.54,0,5.28-2.69,5.28-4.7,0-4.7-8.74-9.22-14.11-9.22a18.41,18.41,0,0,0-7.49,1.92v-0.1c-7.2,3.65-8,10.27-8,17.57,0,3.46.38,6.91,0.48,10.37,0.19,11.9-1.44,31.29,15.94,31.29,12.48,0,13.92-10.56,13.92-21.31a33.76,33.76,0,0,0-1-9.31A9.08,9.08,0,0,0,430.16,325.37Z" transform="translate(-4.48 -4.99)"/><path class="cls-1" d="M467.3,297.25c-3.36-4.7-12.19-5.28-17.57-5.28h-1.44a13.46,13.46,0,0,0-5.47,1,40.56,40.56,0,0,0-.77,9.5v6.43c0,4.42-.29,8.74-0.29,13,0,2.11.19,4.13,0.19,6.14,0,3.26-.19,6.53-0.19,9.89,0,4.32-.19,8.64-0.19,13,0,3.65-.38,5.86,4.8,5.86,9.41,0,19.49-.77,22.65-10.75,0.77-2.59.77-9.7,0.77-12.77s-0.1-5.76-.1-8.74c0-3.84.38-7.58,0.38-11.42C470.08,308.29,470.08,301.38,467.3,297.25ZM461.6,313c0,5.66-.38,11.42-0.48,17.18s0.67,15.84-3.74,16.8a30.88,30.88,0,0,1-6.53,1.06H450.4c0-4.61.38-9.12,0.38-13.63,0-4.13-.29-8.35-0.29-12.58,0-6.62.67-13.44,0.86-20.16a28.1,28.1,0,0,1,2.88-.1C461.83,301.57,461.6,306.85,461.6,313Z" transform="translate(-4.48 -4.99)"/><path class="cls-1" d="M492.16,292.84H491.6c-14.69,1-14.5,21.5-14.5,32.16,0,4.13-.19,8.16-0.19,12.29,0,9.21,4.32,19.49,15.74,19.49,5.66,0,9.5-4.9,12.48-9.12a4.29,4.29,0,0,0,1.15-2.5c0-2.59-5.09-3.17-7-3.17-4.51,0-3.55,5.76-7.49,5.76-5.09,0-5.66-7.78-5.66-11.33q0-10.8.29-21.6c0.1-3.94,1.06-13,6.24-13,4.42,0,3.17,6.14,6.72,6.14,1,0,7-1.44,7-2.3C506.37,298.89,498.5,292.84,492.16,292.84Z" transform="translate(-4.48 -4.99)"/><path class="cls-1" d="M566.07,309.25c0-8.54-6.43-15.93-15.26-15.93a14.39,14.39,0,0,0-14.77,14q0,0.3,0,.6c0,3.94,1.06,4.32,4.8,4.32,6,0,4.51-2.3,5.38-5.37,0.48-1.82,2-4.8,4.32-4.8,4,0,5.86,5.57,5.86,8.83,0,10.56-18.81,21.12-18.81,39.74a18.11,18.11,0,0,0,.29,3.94c0.48,2.69,10.27,2.69,12.19,2.69,3.26,0,16-.67,16-3.26v-2.5c0-4.51-2-4.7-5.57-4.7-3,0-6,.48-8.93.48a24,24,0,0,1-4.51-.38,15.54,15.54,0,0,1,2.21-5.38h-0.1a58,58,0,0,1,6.34-8.74v0.1C561,326.33,566.07,318.07,566.07,309.25Z" transform="translate(-4.48 -4.99)"/><path class="cls-1" d="M597.08,295a10,10,0,0,0-6.62-1.92c-15,0-17.28,6.34-17.28,20a206.44,206.44,0,0,0,1.41,24.39c0.38,3.26.38,6.72,1.34,9.89,1.92,6.14,8.83,9.31,14.88,9.31,15.07,0,16.7-11.62,16.7-21.6,0-4.9-.77-9.89-1-14.78C606.3,311.45,606.39,299.36,597.08,295Zm-5.18,52.32c-3.26,0-5-1-7.49-2.78-0.67-1.92-1.54-24.29-1.54-28,0-3.07-.1-9.41,1.92-11.81a24.84,24.84,0,0,1,8.06-1.15h1c1.82,1.54,1.82,2.88,2.21,5.18v-0.1c1.06,6.14.38,12.38,1.06,18.62a111.83,111.83,0,0,1,.47,12.72c0,3.91-1,7.36-5.69,7.36v0Z" transform="translate(-4.48 -4.99)"/><path class="cls-1" d="M622.9,293a4.82,4.82,0,0,0-3.07.86c-1.15,3.07-7.49,11.13-7.49,14v0.38a18.81,18.81,0,0,0,4.32,2.88l-0.1-.1c0.48,0.19,3.55-6,4.13-6-0.58,5.28-.86,18.81-0.86,31.1,0,7.87.1,15.17,0.29,19.68a8.73,8.73,0,0,0,3.74.77,10.83,10.83,0,0,0,4.22-1c0-11.42-.29-22.94-0.29-34.37,0-8.35.58-16.7,0.58-25.15C628.38,293,625,293,622.9,293Z" transform="translate(-4.48 -4.99)"/><path class="cls-1" d="M650.07,312a8.88,8.88,0,0,0-4.9,1.25c0.19-2.21.77-9.7,3.94-9.7a1.64,1.64,0,0,1,.67.1c6.24,2.3-1.25,7.1,8.54,7.1,2.11,0,4.7-.19,4.7-2.69,0-8.06-7-13.92-14.88-13.92-13.15,0-13.54,19-13.54,28.41,0,13.44-.86,34.17,14.69,34.17,11,0,15.65-15.36,15.65-24.57C664.94,323.74,661.87,312,650.07,312Zm-1,34.37c-4,0-4.32-6.82-4.32-9.7V333c0-2.88,1.54-10.17,5.47-10.17,3.55,0,4.7,7.3,4.7,9.89,0.05,3.39-1,13.66-5.81,13.66Z" transform="translate(-4.48 -4.99)"/><path class="cls-1" d="M309.88,201.26c2.3,3.65,7.68,6,11.9,6a13.25,13.25,0,0,0,10.66-6.14c3.07-5.28,2.59-13.54,2.78-19.39,0.1-2.5.19-5,.48-7.49,0.58-4.7.29-9.5,0.48-14.21,0.19-4.32.67-8.74,0.67-13a4.31,4.31,0,0,0-.38-2.21,7,7,0,0,0-5.18-1.63c-5.47,0-5.18,3.55-5.18,7.87,0,10.56.86,21.41,0.86,31.58a34.16,34.16,0,0,1-1.06,8.26l0.1-.1c-1.06,3.07-1.82,7-6,7a3,3,0,0,1-2.3-1.15h0.1c-4.13-5.47-2.21-14-3.17-20.54l-0.67-.67a21.4,21.4,0,0,0-3.46-.19c-1.73,0-4-.67-4,1.73,0,3.55.1,7.1,0.38,10.85C307.2,192.34,307.39,197.34,309.88,201.26Z" transform="translate(-4.48 -4.99)"/><path class="cls-1" d="M343.67,175.93a110.26,110.26,0,0,0,1.54,18.72v0.58c0,5.57,7.2,12,12.48,12a18.7,18.7,0,0,0,10.08-2.69v0.1c7.87-5.18,8.35-17.57,8.35-26.11,0-9-.29-18-1.06-27.07-0.19-2.11-.19-5.38-0.77-7.1a18.19,18.19,0,0,0-5.09-1c-3.36,0-4,1.54-4,3.55,0,3,.58,6.14.67,9.21,0.38,10.85,1,21.69,1,32.54,0,4.51-1.63,9.31-7,9.31a5.53,5.53,0,0,1-5.09-2.78c-1.73-3.26-2.4-20.64-2.4-25,0-7.68,1.15-14.88,1.15-22.27,0-1-.1-2.21-0.19-3.26a17.06,17.06,0,0,0-4.9-1c-2.4,0-4.42.29-4.42,3.26,0,0.77.38,1.63,0.38,2.4v3.84C344.34,160.76,343.67,168.35,343.67,175.93Z" transform="translate(-4.48 -4.99)"/><path class="cls-1" d="M383.31,204c0.48,2.21,3.07,2.11,4.8,2.11h0.5l-0.38-.19a2.44,2.44,0,0,0,1.15.19,2.67,2.67,0,0,0,.86-0.1c1.92-2.11,2.3-17.28,2.3-20.73a20.17,20.17,0,0,1,4.13-.48c6,0,5.18,6,5.18,10,0,2.4-.29,4.89-0.29,7.29,0,5.57,1.92,5.18,6.34,5.18a6.48,6.48,0,0,0,3.84-1.15v-1.44c0-4.22,0-15.94-1.54-19.49a39.32,39.32,0,0,0-2.3-3.74c3.65-3.36,4.22-8.45,4.22-13.15,0-5.09-1.06-18.62-4.51-22.27-2.88-3.07-10.37-3.74-14.21-3.74-1.44,0-7,.19-8.16,1.25-2,1.92-2.11,42.43-2.11,47.61,0,1.54-.1,4.51-0.1,7.29a41.92,41.92,0,0,0,.29,5.66V204h0Zm8.93-38.21c0-4.7.19-9.5,0.19-14.3a9.33,9.33,0,0,1,2.3-.19c3.65,0,7.49.86,8.16,5a111.72,111.72,0,0,1,.67,15.07l0.1-.1c-0.29,4.22-4.61,4.7-7.87,4.7h-3.36c-0.1-1.73-.19-3.36-0.19-5v-5.18h0Z" transform="translate(-4.48 -4.99)"/><path class="cls-1" d="M421.14,151.93c2.88,7.78,5.09,16.13,8.64,23.61,2.21,4.61,2.21,12,2.11,18,0,1-.1,3.17-0.1,5.57,0,4.32,0,7.78,1.82,7.78a4.5,4.5,0,0,0,1.63-.29v0.1c0.1,0,.48-0.1.58-0.1,0.48,0,1.06.1,1.54,0.1,2.69,0,2.11-8,2.11-15.55,0-2.5-.1-5-0.1-7.49,0-1.25.1-2.5,0.1-3.74,0-3.26,7-24.67,8.16-28.89l-0.1.19c0.67-1.82,1.63-4.32,1.63-6.14,0-2.5-3.46-2.21-6.14-2.21a2.64,2.64,0,0,0-2.4,1.44c-0.1,2.4-5.09,17.28-6.24,20.25-0.38-.38-5.76-18.62-6.24-20.45-0.19-.58-1.63-0.67-2-0.67-1.34,0-7.3,1-7.3,2.78,0,1,1.54,4.22,2.3,5.86v-0.15Z" transform="translate(-4.48 -4.99)"/><path class="cls-1" d="M488,174.49l-0.1-.1c4.42,3.65,13.25,11.71,13.25,17.86a5.68,5.68,0,0,1-5.5,5.86h-0.26c-3.65,0-5.38-4.13-5.38-7.2a8.47,8.47,0,0,0-4.22-1.15c-3,0-5.66.19-5.66,3.94,0,7.58,7.39,13.73,14.59,13.73,8.83,0,16.22-5.37,16.22-16.61a17.67,17.67,0,0,0-.29-3.17v0.1C508,176.41,489.76,167.29,488.6,161a7.39,7.39,0,0,1-.19-1.44A8.65,8.65,0,0,1,490.6,154h-0.1a4.87,4.87,0,0,1,3-1.82c8.16,0,3.55,8.16,9.7,8.16,2.21,0,6.53-.48,6.53-3.36,0-2.4-1.82-5.57-2.78-7.68-1.92-4.13-7.49-6.33-11.81-6.33-9.22,0-15.55,6.62-15.55,15.65C479.6,166.33,482.28,169.79,488,174.49Z" transform="translate(-4.48 -4.99)"/><path class="cls-1" d="M543.71,206.92c-0.29-3.46,1.25-9.89-3.84-9.89-0.67,0-1.44.1-2,.1a71.5,71.5,0,0,1-11-.58,33.5,33.5,0,0,1-.48-6.91c0-2.4-.58-4.8-0.48-7.2v-0.87c4.32-.29,13.82.58,13.82-2.4a50.63,50.63,0,0,0-1.54-7.39c-1.06,0-2.21-.19-3.36-0.19-3.07,0-6.14.48-9.22,0.77a7.24,7.24,0,0,1-.1-1.44c0-6.14,1-12.19,1-18.33,4.13-.29,8.35-0.48,12.58-0.48,1.63,0,3.74,0,3.74-2.11,0-1.73-.48-4.7-0.67-6.91a12.14,12.14,0,0,0-5.86-1.25c-4.51,0-9.12.48-13.73,0.48-2,0-3.94,0-5.47,1.54,0,16.13.38,32.45,0.38,48.57,0,4,.1,10.56,1.63,14.11,1.06,0.58,13,.77,14.69.77C537.09,207.31,540.45,207.21,543.71,206.92Z" transform="translate(-4.48 -4.99)"/><path class="cls-1" d="M551.77,204.24h-0.1c0.77,3.55,4.42,2.69,8.64,2.69,7.1,0,13.54.38,13.82-2.59V204a13.31,13.31,0,0,0-.86-4.32c-4.42-1.15-10-.58-13.25-1.54-0.58-3.26-.48-8.35-0.48-12.19,0-4.51.1-8.93,0.19-13.44v0.1c0.1-1.63.1-3.26,0.1-4.9,0-3.26-.29-6.43-0.29-9.7,0-2.21.48-4.51,0.48-6.72,0-4.9-2.69-5.38-5.86-5.38-2.59,0-3.07,1.82-3.07,4,0,1.34.1,2.5,0.1,3.65,0,5.09-.77,6.43-0.77,14.88C550.43,179.58,550.52,200.5,551.77,204.24Z" transform="translate(-4.48 -4.99)"/><path class="cls-1" d="M582.49,206.54c1.06,0.58,13,.77,14.69.77,3.36,0,6.72-.1,10-0.38-0.29-3.46,1.25-9.89-3.84-9.89-0.67,0-1.44.1-2,.1a71.5,71.5,0,0,1-11-.58,33.5,33.5,0,0,1-.48-6.91c0-2.4-.58-4.8-0.48-7.2v-0.87c4.32-.29,13.82.58,13.82-2.4a50.63,50.63,0,0,0-1.54-7.39c-1.06,0-2.21-.19-3.36-0.19-3.07,0-6.14.48-9.22,0.77a7.24,7.24,0,0,1-.1-1.44c0-6.14,1-12.19,1-18.33,4.13-.29,8.35-0.48,12.58-0.48,1.63,0,3.74,0,3.74-2.11,0-1.73-.48-4.7-0.67-6.91a12.14,12.14,0,0,0-5.86-1.25c-4.51,0-9.12.48-13.73,0.48-2,0-3.94,0-5.47,1.54,0,16.13.38,32.45,0.38,48.57C580.86,196.47,581,203,582.49,206.54Z" transform="translate(-4.48 -4.99)"/><path class="cls-1" d="M629.43,207.21c5.66,0,9.5-4.9,12.48-9.12a4.29,4.29,0,0,0,1.15-2.5c0-2.59-5.09-3.17-7-3.17-4.51,0-3.55,5.76-7.49,5.76-5.09,0-5.66-7.78-5.66-11.33q0-10.8.29-21.6c0.1-3.94,1.06-13,6.24-13,4.42,0,3.17,6.14,6.72,6.14,1,0,7-1.44,7-2.3,0-6.82-7.87-12.86-14.21-12.86h-0.58c-14.69,1-14.5,21.5-14.5,32.16,0,4.13-.19,8.16-0.19,12.29C613.69,196.95,618,207.21,629.43,207.21Z" transform="translate(-4.48 -4.99)"/><path class="cls-1" d="M669.07,141.18c-1.63,0-3.26.58-5,.58-3.17,0-6.43.1-9.6,0.1-2,0-4-.38-6.14-0.38a8.15,8.15,0,0,0-2.11.38h0.1c-1.54.48-1.82,2.3-1.82,3.65,0,0.77.1,1.54,0.1,2.21a4.67,4.67,0,0,1-.1,1.15,4.4,4.4,0,0,0,3.26,1.54c0.86,0,1.63-.19,2.3-0.19h3.36a52.14,52.14,0,0,0-.19,5.47c0,7.87.58,13.73,0.58,22.75,0,2.78-.1,6.82-0.48,13.25,0,1.25.1,2.59,0.1,3.84,0,2.59-.38,5.28-0.38,7.87a21,21,0,0,0,.29,3.46c1.92,0,3.84.38,5.76,0.38,1.06,0,2-.1,3.07-0.19,0.19-4.51.48-8.93,0.48-13.44,0-1.92-.19-3.84-0.19-5.76,0-12.29.38-24.77,1.06-37,5.76-.86,7.39.58,7.39-6.14C670.89,143.39,670.8,141.18,669.07,141.18Z" transform="translate(-4.48 -4.99)"/><path class="cls-1" d="M681.64,143.87c-2.78,0-4.8.38-4.8,4.32,0,9.6.86,19.39,0.86,29.09,0,8.35-1,16.61-1,25a6,6,0,0,0,1.92,4.8c2.3-.1,5.57-0.29,7.49-1.63a11.5,11.5,0,0,0,.38-3.55c0-2.21-.19-4.42-0.19-6.53s0.19-4.22.19-6.24c0-4.32-.38-8.54-0.38-12.86,0-5.09.67-10.08,0.67-15.17v-5.66c0-3,.48-6,0.48-8.83C687.31,143.48,684.52,143.87,681.64,143.87Z" transform="translate(-4.48 -4.99)"/><path class="cls-1" d="M697.48,198.78l-0.1-.1a11.27,11.27,0,0,0,3.46,5.18l-0.1-.1a15,15,0,0,0,9.7,3.46c6.24,0,6.24-1.44,10.56-4.42l0.38-.29h-0.1c2.5-2.3,2.78-6.34,2.78-9.5,0-10,.19-20.06.19-30,0-4.51-.38-10.75-3.94-13.92h0.1c-2.21-2.5-6-5.18-9.41-5.18-10.94,0-16.8,8-16.8,22,0,5.38-.48,23.42,3,32.25ZM710.63,154c4.7,0,5.38,5.28,5.38,8.93,0,1.92-.19,3.74-0.19,5.66,0,3,.29,6,0.29,8.83,0,3.26-1.15,16.89-2.11,19.29-0.48,1.06-1.73,1.15-2.69,1.15a6.23,6.23,0,0,1-3.65-1.06v0.1c-2.78-2.59-3.07-8.06-3.07-11.52s-0.48-7-.48-10.65C704.11,168.44,703.44,154,710.63,154Z" transform="translate(-4.48 -4.99)"/><path class="cls-1" d="M762.38,201v-3.74c0.29-15.84,1.34-30.33,1.92-45.21,0.1-2,.48-4.13.48-6,0-4-7.1-2.88-9.89-3.55a7.67,7.67,0,0,0-.77,3.17c0,1.15.38,2.21,0.38,3.26,0,7.78-1.25,15.46-1.25,23.23,0,1.92.19,3.74,0.19,5.66-2.21-4.32-3.55-8.74-5.47-13.25-2.21-5.18-4.7-18-6.91-20.64h-2.4c-2.59,0-5.76.19-5.76,4.51,0,12.77-1,25.63-1,38.49,0,2.59-.1,16.22-1,17.85,0.86,2.21,2.11,2.5,4.51,2.5,2,0,4.8-.1,5.47-2.11-0.1-1.15-.19-2.4-0.19-3.65,0-6.43.38-14,1.06-21,0.19-2.3.48-4.61,0.48-6.91l1.06,4.51c0.58,2.59,9.12,27.55,9.79,28.41,1,1,2.78,1.15,4.13,1.15C761,207.6,762.38,206.35,762.38,201Z" transform="translate(-4.48 -4.99)"/><path class="cls-1" d="M159.77,227.83c0,11.76.28,23.66,0.28,35.42,0,2.94.07,7.7,1.19,10.29,0.77,0.42,9.45.56,10.71,0.56,2.45,0,4.9-.07,7.28-0.28-0.21-2.52.91-7.21-2.8-7.21-0.49,0-1,.07-1.47.07a52.07,52.07,0,0,1-8-.42,24.42,24.42,0,0,1-.35-5c0-1.75-.42-3.5-0.35-5.25v-0.63c3.15-.21,10.08.42,10.08-1.75a36.86,36.86,0,0,0-1.12-5.39c-0.77,0-1.61-.14-2.45-0.14-2.24,0-4.48.35-6.72,0.56a5.32,5.32,0,0,1-.07-1c0-4.48.7-8.89,0.7-13.37,3-.21,6.09-0.35,9.17-0.35,1.19,0,2.73,0,2.73-1.54,0-1.26-.35-3.43-0.49-5a8.86,8.86,0,0,0-4.27-.91c-3.29,0-6.65.35-10,.35C162.29,226.71,160.89,226.71,159.77,227.83Z" transform="translate(-4.48 -4.99)"/><path class="cls-1" d="M191.83,253.8c-1.61,5.53-4.2,10.85-6.16,16.24-0.42.28-.7,1.89-0.7,2.45,0,1.54,1.26,1.47,2.73,1.47a9.5,9.5,0,0,0,3.15-.35c1.82-3.22,3-7.28,4.13-10.78,1.33,3.71,2.66,7.49,4.13,11.06a6.88,6.88,0,0,0,1.68.21,7.7,7.7,0,0,0,4.34-.84V273.2c0-1.61-4.13-13-5-15-0.14-.56-1.61-3.92-1.61-4.34s7.21-20.44,8-22.89l-0.07.07a2.45,2.45,0,0,0,.56-1.54,3.63,3.63,0,0,0-.14-0.77l-0.7-.7a9.75,9.75,0,0,0-2.87-.28,5.73,5.73,0,0,0-2.66.63c-2.38,5.18-3.64,10.78-5.74,16.1-1.12-3.85-2.59-7.56-3.92-11.34v0.07c-0.63-2-1.19-6.09-3.78-6.09A8.9,8.9,0,0,0,184,228v0c0,2.24,3.22,11.13,4,13.65Z" transform="translate(-4.48 -4.99)"/><path class="cls-1" d="M221.22,227.69c-4.41,0-8.4-.35-8.4,4,0,2.59.14,5.25,0.14,7.84,0,10.78-.91,21.56-0.91,32.34,0,1.82,1.61,2,3.15,2,2.38,0,3.08-.07,3.15-1.75q0.21-4.1.21-8.19c0-1.54-.14-3.15-0.14-4.83a12.87,12.87,0,0,1,.07-1.61c1.68,0,3.22.28,4.83,0.28,8.68,0,9.45-6.09,9.45-12.25C232.77,236.09,232.42,227.69,221.22,227.69Zm3.15,23.8c-1,.56-3.78.49-5.11,0.49h-0.64c0-3.29.07-6.65,0.07-10.08,0-2.52-.07-5-0.14-7.63,0.77-.07,1.61-0.21,2.38-0.21a7.82,7.82,0,0,1,4.62,1.26h-0.07c0.84,0.77,1.26,5.67,1.26,8.33C226.75,245.47,226.26,250.51,224.37,251.49Z" transform="translate(-4.48 -4.99)"/><path class="cls-1" d="M254.4,266.61c-0.49,0-1,.07-1.47.07a52.07,52.07,0,0,1-8-.42,24.42,24.42,0,0,1-.35-5c0-1.75-.42-3.5-0.35-5.25v-0.63c3.15-.21,10.08.42,10.08-1.75a36.86,36.86,0,0,0-1.12-5.39c-0.77,0-1.61-.14-2.45-0.14-2.24,0-4.48.35-6.72,0.56a5.32,5.32,0,0,1-.07-1c0-4.48.7-8.89,0.7-13.37,3-.21,6.09-0.35,9.17-0.35,1.19,0,2.73,0,2.73-1.54,0-1.26-.35-3.43-0.49-5a8.86,8.86,0,0,0-4.27-.91c-3.29,0-6.65.35-10,.35-1.47,0-2.87,0-4,1.12,0,11.76.28,23.66,0.28,35.42,0,2.94.07,7.7,1.19,10.29,0.77,0.42,9.45.56,10.71,0.56,2.45,0,4.9-.07,7.28-0.28C257,271.3,258.11,266.61,254.4,266.61Z" transform="translate(-4.48 -4.99)"/><path class="cls-1" d="M279.81,229.37c-2.1-2.24-7.56-2.73-10.36-2.73-1,0-5.11.14-6,.91-1.47,1.4-1.54,30.94-1.54,34.72,0,1.12-.07,3.29-0.07,5.32a30.53,30.53,0,0,0,.21,4.13v-0.07c0.35,1.61,2.24,1.54,3.5,1.54h0.35l-0.28-.14a1.77,1.77,0,0,0,.84.14,1.93,1.93,0,0,0,.63-0.07c1.4-1.54,1.68-12.6,1.68-15.12a14.65,14.65,0,0,1,3-.35c4.34,0,3.78,4.34,3.78,7.28,0,1.75-.21,3.57-0.21,5.32,0,4.06,1.4,3.78,4.62,3.78a4.73,4.73,0,0,0,2.8-.84v-1c0-3.08,0-11.62-1.12-14.21A28.72,28.72,0,0,0,280,255.2c2.66-2.45,3.08-6.16,3.08-9.59C283.1,241.9,282.33,232,279.81,229.37Zm-8.61,21.84h-2.45c-0.07-1.26-.14-2.45-0.14-3.64v-3.78c0-3.43.14-6.93,0.14-10.43a6.79,6.79,0,0,1,1.68-.14c2.66,0,5.46.63,6,3.64a81.42,81.42,0,0,1,.49,11l0.07-.07c-0.26,3.07-3.37,3.42-5.79,3.42h0Z" transform="translate(-4.48 -4.99)"/><path class="cls-1" d="M290.87,227.83c-2,0-3.5.28-3.5,3.15,0,7,.63,14.14.63,21.21,0,6.09-.7,12.11-0.7,18.2a4.4,4.4,0,0,0,1.4,3.5c1.68-.07,4.06-0.21,5.46-1.19a8.39,8.39,0,0,0,.28-2.59c0-1.61-.14-3.22-0.14-4.76s0.14-3.08.14-4.55c0-3.15-.28-6.23-0.28-9.38,0-3.71.49-7.35,0.49-11.06v-4.13c0-2.17.35-4.34,0.35-6.44S293,227.83,290.87,227.83Z" transform="translate(-4.48 -4.99)"/><path class="cls-1" d="M322.72,228.53c-0.21,0-3.64.56-3.64,0.56l-0.42.28a21.49,21.49,0,0,0-1.54,4.2l-4.76,13.93c-2.24-6.16-5.25-19.6-8-19.6a20.19,20.19,0,0,0-2.8.63c-1.26,1.19-1.4,20.79-1.4,32.06,0,10.36-.07,8.54.07,12.32a8.36,8.36,0,0,0,4.06,1,6.43,6.43,0,0,0,2.31-.42c0.7-2.31.7-6.86,0.7-9.38,0-3.92-.07-7.7-0.28-11.62,1.19,2.94,2,6.44,3.64,9.17h0.49c0.7,0,1.33.14,2.1,0.14,2.87,0,3.5-5.18,4.76-8.89,0.07,5.11.21,10.15,0.21,15.26,0,1-.14,2-0.14,2.87,0,1.75.49,2.94,3.36,2.94a9.17,9.17,0,0,0,3.36-.56,20.85,20.85,0,0,0,.35-4.2c0-13.44-.63-26.81-0.63-40.11A3.14,3.14,0,0,0,322.72,228.53Z" transform="translate(-4.48 -4.99)"/><path class="cls-1" d="M346.79,266.61c-0.49,0-1,.07-1.47.07a52.07,52.07,0,0,1-8-.42,24.42,24.42,0,0,1-.35-5c0-1.75-.42-3.5-0.35-5.25v-0.63c3.15-.21,10.08.42,10.08-1.75a36.92,36.92,0,0,0-1.12-5.39c-0.77,0-1.61-.14-2.45-0.14-2.24,0-4.48.35-6.72,0.56a5.32,5.32,0,0,1-.07-1c0-4.48.7-8.89,0.7-13.37,3-.21,6.09-0.35,9.17-0.35,1.19,0,2.73,0,2.73-1.54,0-1.26-.35-3.43-0.49-5a8.86,8.86,0,0,0-4.27-.91c-3.29,0-6.65.35-10,.35-1.47,0-2.87,0-4,1.12,0,11.76.28,23.66,0.28,35.42,0,2.94.07,7.7,1.19,10.29,0.77,0.42,9.45.56,10.71,0.56,2.45,0,4.9-.07,7.28-0.28C349.38,271.3,350.5,266.61,346.79,266.61Z" transform="translate(-4.48 -4.99)"/><path class="cls-1" d="M371.71,226.78a5.6,5.6,0,0,0-.56,2.31c0,0.84.28,1.61,0.28,2.38,0,5.67-.91,11.27-0.91,16.94,0,1.4.14,2.73,0.14,4.13-1.61-3.15-2.59-6.37-4-9.66-1.61-3.78-3.43-13.16-5-15h-1.75c-1.89,0-4.2.14-4.2,3.29,0,9.31-.7,18.69-0.7,28.07,0,1.89-.07,11.83-0.7,13,0.63,1.61,1.54,1.82,3.29,1.82,1.47,0,3.5-.07,4-1.54-0.07-.84-0.14-1.75-0.14-2.66,0-4.69.28-10.22,0.77-15.33,0.14-1.68.35-3.36,0.35-5l0.77,3.29c0.42,1.89,6.65,20.09,7.14,20.72a4.48,4.48,0,0,0,3,.84c2.73,0,3.71-.91,3.71-4.83v-2.73c0.21-11.55,1-22.12,1.4-33,0.07-1.47.35-3,.35-4.41C378.92,226.43,373.74,227.27,371.71,226.78Z" transform="translate(-4.48 -4.99)"/><path class="cls-1" d="M402,228.39c0-.91-0.07-2.52-1.33-2.52s-2.38.42-3.64,0.42c-2.31,0-4.69.07-7,.07-1.47,0-2.94-.28-4.48-0.28a6,6,0,0,0-1.54.28h0.07c-1.12.35-1.33,1.68-1.33,2.66,0,0.56.07,1.12,0.07,1.61a3.42,3.42,0,0,1-.07.84,3.2,3.2,0,0,0,2.38,1.12c0.63,0,1.19-.14,1.68-0.14h2.45a38,38,0,0,0-.14,4c0,5.74.42,10,.42,16.59,0,2-.07,5-0.35,9.66,0,0.91.07,1.89,0.07,2.8,0,1.89-.28,3.85-0.28,5.74a15.29,15.29,0,0,0,.21,2.52c1.4,0,2.8.28,4.2,0.28,0.77,0,1.47-.07,2.24-0.14,0.14-3.29.35-6.51,0.35-9.8,0-1.4-.14-2.8-0.14-4.2,0-9,.28-18.06.77-27C400.83,232.24,402,233.29,402,228.39Z" transform="translate(-4.48 -4.99)"/><path class="cls-1" d="M409.61,261.92c1,0,2,.07,3.08.14a79.62,79.62,0,0,0,2.31,11.2c1.54,0.91,3.43.56,5.18,0.7a4.19,4.19,0,0,0,1-2.52c0-2.8-1.61-9.59-2.38-12.53V259c-3.85-22.26-4.41-29-5.67-31a4.6,4.6,0,0,1-1,.07c-0.7,0-1.4-.28-2.1-0.28a2.07,2.07,0,0,0-2.24,1.68,132,132,0,0,0-3.71,15.75L401,261a32.08,32.08,0,0,1-1,3.71v-0.07a21.77,21.77,0,0,0-1.47,7.28c0,2.87,3.85,2,5.25,2,1.61-1.75,1.68-7.77,3.29-11.83A15.15,15.15,0,0,1,409.61,261.92Zm0.77-16.45c0.7,0,1,7.07,1.33,10.29-1.12,0-2.24.21-3.36,0.21Z" transform="translate(-4.48 -4.99)"/><path class="cls-1" d="M444.92,271.94v-0.28a9.71,9.71,0,0,0-.63-3.15c-3.22-.84-7.28-0.42-9.66-1.12a60.52,60.52,0,0,1-.35-8.89c0-3.29.07-6.51,0.14-9.8v0.07c0.07-1.19.07-2.38,0.07-3.57,0-2.38-.21-4.69-0.21-7.07,0-1.61.35-3.29,0.35-4.9,0-3.57-2-3.92-4.27-3.92-1.89,0-2.24,1.33-2.24,2.94,0,1,.07,1.82.07,2.66,0,3.71-.56,4.69-0.56,10.85,0,8.12.07,23.38,1,26.11h-0.07c0.56,2.59,3.22,2,6.3,2C440,273.82,444.71,274.11,444.92,271.94Z" transform="translate(-4.48 -4.99)"/><path class="cls-1" d="M488.25,258.49a24.63,24.63,0,0,0-.7-6.79,6.62,6.62,0,0,0-2.59-.56c-1.26,0-2.59.21-3.85,0.21h-1.75c-2.52,0-4.41.21-4.41,2.45s0.14,4,2.8,4c1,0,2-.21,2.94-0.21,0.7,0,.63.35,0.63,0.77a10.78,10.78,0,0,1-.49,2.94l0.07-.07c-0.63,2.31-.42,6.79-3.85,6.79-2.59,0-3.36-1.82-3.57-3.57a110.35,110.35,0,0,1-.63-11.76c0-3.43.14-6.86,0.14-10.29,0-3.08,0-6.16,4.06-6.16,0.35,0,.7.07,1,0.07H478c1.54,0.42,4.9,3.36,5.88,3.36s3.85-2,3.85-3.43c0-3.43-6.37-6.72-10.29-6.72a13.43,13.43,0,0,0-5.46,1.4v-0.07c-5.25,2.66-5.81,7.49-5.81,12.81,0,2.52.28,5,.35,7.56,0.1,8.67-1.07,22.78,11.6,22.78C487.2,274,488.25,266.33,488.25,258.49Z" transform="translate(-4.48 -4.99)"/><path class="cls-1" d="M511.6,259c-3.85-22.26-4.41-29-5.67-31a4.6,4.6,0,0,1-1,.07c-0.7,0-1.4-.28-2.1-0.28a2.07,2.07,0,0,0-2.24,1.68,132,132,0,0,0-3.71,15.75L493.78,261a32.08,32.08,0,0,1-1,3.71v-0.07a21.77,21.77,0,0,0-1.47,7.28c0,2.87,3.85,2,5.25,2,1.61-1.75,1.68-7.77,3.29-11.83a15.15,15.15,0,0,1,2.52-.14c1,0,2,.07,3.08.14a79.62,79.62,0,0,0,2.31,11.2c1.54,0.91,3.43.56,5.18,0.7a4.19,4.19,0,0,0,1-2.52c0-2.8-1.61-9.59-2.38-12.53V259h0Zm-10.43-3,2-10.5c0.7,0,1,7.07,1.33,10.29-1.13,0-2.25.21-3.37,0.21h0Z" transform="translate(-4.48 -4.99)"/><path class="cls-1" d="M538.38,268.22c0,1-.14,2-0.14,2.87,0,1.75.49,2.94,3.36,2.94a9.17,9.17,0,0,0,3.36-.56,20.85,20.85,0,0,0,.35-4.2c0-13.44-.63-26.81-0.63-40.11a3.14,3.14,0,0,0-1.75-.63c-0.21,0-3.64.56-3.64,0.56l-0.42.28a21.49,21.49,0,0,0-1.54,4.2L532.6,247.5c-2.24-6.16-5.25-19.6-8-19.6a20.19,20.19,0,0,0-2.8.63c-1.26,1.19-1.4,20.79-1.4,32.06,0,10.36-.07,8.54.07,12.32a8.36,8.36,0,0,0,4.06,1,6.43,6.43,0,0,0,2.31-.42c0.7-2.31.7-6.86,0.7-9.38,0-3.92-.07-7.7-0.28-11.62,1.19,2.94,2,6.44,3.64,9.17h0.49c0.7,0,1.33.14,2.1,0.14,2.87,0,3.5-5.18,4.76-8.89C538.24,258.07,538.38,263.11,538.38,268.22Z" transform="translate(-4.48 -4.99)"/><path class="cls-1" d="M567,266.61c-0.49,0-1,.07-1.47.07a52.07,52.07,0,0,1-8-.42,24.42,24.42,0,0,1-.35-5c0-1.75-.42-3.5-0.35-5.25v-0.63c3.15-.21,10.08.42,10.08-1.75a36.91,36.91,0,0,0-1.12-5.39c-0.77,0-1.61-.14-2.45-0.14-2.24,0-4.48.35-6.72,0.56a5.32,5.32,0,0,1-.07-1c0-4.48.7-8.89,0.7-13.37,3-.21,6.09-0.35,9.17-0.35,1.19,0,2.73,0,2.73-1.54,0-1.26-.35-3.43-0.49-5a8.86,8.86,0,0,0-4.27-.91c-3.29,0-6.65.35-10,.35-1.47,0-2.87,0-4,1.12,0,11.76.28,23.66,0.28,35.42,0,2.94.07,7.7,1.19,10.29,0.77,0.42,9.45.56,10.71,0.56,2.45,0,4.9-.07,7.28-0.28C569.59,271.3,570.71,266.61,567,266.61Z" transform="translate(-4.48 -4.99)"/><path class="cls-1" d="M577.7,273.89c2.38,0,3.08-.07,3.15-1.75q0.21-4.1.21-8.19c0-1.54-.14-3.15-0.14-4.83a13,13,0,0,1,.07-1.61c1.68,0,3.22.28,4.83,0.28,8.68,0,9.45-6.09,9.45-12.25,0-9.45-.35-17.85-11.55-17.85-4.41,0-8.4-.35-8.4,4,0,2.59.14,5.25,0.14,7.84,0,10.78-.91,21.56-0.91,32.34C574.59,273.69,576.16,273.89,577.7,273.89Zm5.74-39.83a7.82,7.82,0,0,1,4.62,1.26H588c0.84,0.77,1.26,5.67,1.26,8.33,0,1.82-.49,6.86-2.38,7.84-1,.56-3.78.49-5.11,0.49h-0.63c0-3.29.07-6.65,0.07-10.08,0-2.52-.07-5-0.14-7.63,0.77-.07,1.61-0.21,2.39-0.21h0Z" transform="translate(-4.48 -4.99)"/><path class="cls-1" d="M617.68,271.94v-0.28a9.71,9.71,0,0,0-.63-3.15c-3.22-.84-7.28-0.42-9.66-1.12a60.52,60.52,0,0,1-.35-8.89c0-3.29.07-6.51,0.14-9.8v0.07c0.07-1.19.07-2.38,0.07-3.57,0-2.38-.21-4.69-0.21-7.07,0-1.61.35-3.29,0.35-4.9,0-3.57-2-3.92-4.27-3.92-1.89,0-2.24,1.33-2.24,2.94,0,1,.07,1.82.07,2.66,0,3.71-.56,4.69-0.56,10.85,0,8.12.07,23.38,1,26.11h-0.1c0.56,2.59,3.22,2,6.3,2C612.78,273.82,617.47,274.11,617.68,271.94Z" transform="translate(-4.48 -4.99)"/><path class="cls-1" d="M639.17,273.27c1.54,0.91,3.43.56,5.18,0.7a4.19,4.19,0,0,0,1-2.52c0-2.8-1.61-9.59-2.38-12.53V259c-3.85-22.26-4.41-29-5.67-31a4.6,4.6,0,0,1-1,.07c-0.7,0-1.4-.28-2.1-0.28a2.07,2.07,0,0,0-2.24,1.68,132,132,0,0,0-3.71,15.75L625.16,261a32.08,32.08,0,0,1-1,3.71v-0.07a21.77,21.77,0,0,0-1.47,7.28c0,2.87,3.85,2,5.25,2,1.61-1.75,1.68-7.77,3.29-11.83a15.15,15.15,0,0,1,2.52-.14c1,0,2,.07,3.08.14A79.62,79.62,0,0,0,639.17,273.27ZM632.52,256l2-10.5c0.7,0,1,7.07,1.33,10.29C634.76,255.76,633.59,256,632.52,256Z" transform="translate(-4.48 -4.99)"/><path class="cls-1" d="M662.89,227.06a1.92,1.92,0,0,0-1.75,1c-0.07,1.75-3.71,12.6-4.55,14.77-0.28-.28-4.2-13.58-4.55-14.91-0.14-.42-1.19-0.49-1.47-0.49-1,0-5.32.7-5.32,2a20.37,20.37,0,0,0,1.68,4.27v-0.07c2.1,5.67,3.71,11.76,6.3,17.22,1.61,3.36,1.61,8.75,1.54,13.09,0,0.7-.07,2.31-0.07,4.06,0,3.15,0,5.67,1.33,5.67a3.26,3.26,0,0,0,1.19-.21v0.07c0.07,0,.35-0.07.42-0.07,0.35,0,.77.07,1.12,0.07,2,0,1.54-5.81,1.54-11.34,0-1.82-.07-3.64-0.07-5.46,0-.91.07-1.82,0.07-2.73,0-2.38,5.11-18,6-21.07l-0.07.14a15.2,15.2,0,0,0,1.19-4.48C667.37,226.85,664.85,227.06,662.89,227.06Z" transform="translate(-4.48 -4.99)"/><path class="cls-1" d="M721.83,227a6.88,6.88,0,0,1-1.19-.14c-1.19.63-2.8,13.86-3,15.61-0.7,5.46-.77,11.34-1.68,16.52-0.14-2.66-3.92-23.66-5-24.57a6.16,6.16,0,0,0-3.36-.84,3.49,3.49,0,0,0-2.17.56c-0.91.84-3.43,19.11-4.13,22a49,49,0,0,0-.77-5.6l-2-10.15a42.63,42.63,0,0,1-1-5c-0.21-2.17-.07-4.41-0.35-6.65a36.13,36.13,0,0,0-3.85-.14c-0.56,0-4.2,0-4.2.56a60.43,60.43,0,0,0,1,7c0.77,4.62,1.4,9.38,2.31,13.93,0.56,2.87,5.81,23.17,7.14,23.59a5.61,5.61,0,0,0,1.82.21,5.82,5.82,0,0,0,1.89-.21l-0.07.07a1.9,1.9,0,0,0,1.68-1.89c1-6.79,2.52-13.58,3.78-20.37,0.35,2.31,3.78,21,4.48,22.12a6,6,0,0,0,2.52.49c1.26,0,3.08-.21,3.85-1.33,0.28-.49,4.34-24.22,4.76-26.39,1-6,1.89-12.11,2.52-18.13a22.11,22.11,0,0,0-4.55-1.26A0.9,0.9,0,0,0,721.83,227Z" transform="translate(-4.48 -4.99)"/><path class="cls-1" d="M748.22,231.61c-1.61-1.82-4.34-3.78-6.86-3.78-8,0-12.25,5.81-12.25,16,0,3.92-.35,17.08,2.17,23.52l0.21,0.49-0.07-.07a8.21,8.21,0,0,0,2.52,3.78l-0.07-.07a10.94,10.94,0,0,0,7.07,2.52c4.55,0,4.55-1,7.7-3.22l0.28-.21h-0.07c1.82-1.68,2-4.62,2-6.93,0-7.28.14-14.63,0.14-21.91,0-3.29-.28-7.84-2.87-10.15h0.07Zm-4.69,34.79a2,2,0,0,1-2,.84,4.54,4.54,0,0,1-2.66-.77v0.07c-2-1.89-2.24-5.88-2.24-8.4s-0.35-5.11-.35-7.77c0-4.62-.49-15.12,4.76-15.12,3.43,0,3.92,3.85,3.92,6.51,0,1.4-.14,2.73-0.14,4.13,0,2.17.21,4.34,0.21,6.44C745.07,254.71,744.23,264.65,743.53,266.4Z" transform="translate(-4.48 -4.99)"/><path class="cls-1" d="M773.83,229.37c-2.1-2.24-7.56-2.73-10.36-2.73-1,0-5.11.14-6,.91-1.47,1.4-1.54,30.94-1.54,34.72,0,1.12-.07,3.29-0.07,5.32a30.53,30.53,0,0,0,.21,4.13v-0.07c0.35,1.61,2.24,1.54,3.5,1.54h0.35l-0.28-.14a1.77,1.77,0,0,0,.84.14,1.93,1.93,0,0,0,.63-0.07c1.4-1.54,1.68-12.6,1.68-15.12a14.65,14.65,0,0,1,3-.35c4.34,0,3.78,4.34,3.78,7.28,0,1.75-.21,3.57-0.21,5.32,0,4.06,1.4,3.78,4.62,3.78a4.73,4.73,0,0,0,2.8-.84v-1c0-3.08,0-11.62-1.12-14.21A28.71,28.71,0,0,0,774,255.2c2.66-2.45,3.08-6.16,3.08-9.59C777.12,241.9,776.35,232,773.83,229.37Zm-8.61,21.84h-2.45c-0.07-1.26-.14-2.45-0.14-3.64v-3.78c0-3.43.14-6.93,0.14-10.43a6.79,6.79,0,0,1,1.68-.14c2.66,0,5.46.63,6,3.64a81.43,81.43,0,0,1,.49,11l0.07-.07c-0.26,3.07-3.44,3.42-5.79,3.42h0Z" transform="translate(-4.48 -4.99)"/><path class="cls-1" d="M803.86,230.14c0-1.61-1.26-2-2.59-2-2.45,0-2.24.42-4.2,2.38-2.66,3.78-5.6,7.56-8.61,11.13,0-3,.28-6,0.28-9,0-2.1.63-4.69-2.59-4.69-1,0-2.1.21-3.15,0.21a9.3,9.3,0,0,0-.84,4.13c0,11.13-.21,21.42-0.21,32.83,0,3.43.14,7.21,0.7,8.82a16.53,16.53,0,0,0,5.53-.56c0-7.42.56-14.7,0.56-22l0.28-.28c0.84,2.66,7.21,21.14,8.26,22.12,0.49,0.49,2.17.56,2.8,0.56,1,0,3.22-.28,3.78-1.19v-0.28c0-1.26-2.38-7-3-8.47V264c-2.31-6.23-4.9-12.6-7.63-18.62a24.16,24.16,0,0,1,2.31-3.15C797,240.29,803.86,232.1,803.86,230.14Z" transform="translate(-4.48 -4.99)"/><path class="cls-1" d="M832.07,259.82c-2-8.26-15.26-14.91-16.1-19.46a5.41,5.41,0,0,1-.14-1,6.31,6.31,0,0,1,1.61-4.06h-0.07a3.58,3.58,0,0,1,2.17-1.33c6,0,2.59,6,7.07,6,1.61,0,4.76-.35,4.76-2.45,0-1.75-1.33-4.06-2-5.6-1.4-3-5.46-4.62-8.61-4.62-6.72,0-11.34,4.83-11.34,11.41,0,5.6,2,8.12,6.16,11.55l-0.07-.07c3.22,2.66,9.66,8.54,9.66,13a4.14,4.14,0,0,1-4,4.27H821c-2.66,0-3.92-3-3.92-5.25a6.19,6.19,0,0,0-3.08-.84c-2.17,0-4.13.14-4.13,2.87,0,5.53,5.39,10,10.64,10,6.44,0,11.83-3.92,11.83-12.11a12.92,12.92,0,0,0-.21-2.31v0.07Z" transform="translate(-4.48 -4.99)"/><path class="cls-1" d="M850.69,268.85c0,2-.07,5.18,2.38,5.18,1.33,0,2.52-.42,3.78-0.42,0.49-6.51.63-13.09,0.91-19.6,0.35-7.14.91-14.28,0.91-21.42,0-2.45-1.82-3.43-4.06-3.43s-2.31,1.47-2.31,3.36c0,6-.91,12-1.12,18.06h-0.42c-2.31,0-4.62-.28-6.93-0.28v-6.86c0-4,.28-7.84.28-11.76,0-2.1-.14-2.66-2.59-2.66s-4,.07-4,3.15c0,0.7.14,1.4,0.14,2.1,0,8.19-.56,16.38-0.56,24.64v5c0,3.08-.42,6.16-0.42,8.75,0,1,1.89,1.19,2.59,1.19a10.31,10.31,0,0,0,2.52-.28c1.82-.56,1.68-11.83,1.75-17.15H844c2.31,0,4.62.28,7,.28C850.83,260.73,850.69,264.86,850.69,268.85Z" transform="translate(-4.48 -4.99)"/><path class="cls-1" d="M866,267.87l-0.07-.07a8.22,8.22,0,0,0,2.52,3.78l-0.07-.07a10.94,10.94,0,0,0,7.07,2.49c4.55,0,4.55-1,7.7-3.22l0.28-.21h-0.07c1.82-1.68,2-4.62,2-6.93,0-7.28.14-14.63,0.14-21.91,0-3.29-.28-7.84-2.87-10.15h0.07c-1.61-1.82-4.34-3.78-6.86-3.78-8,0-12.25,5.81-12.25,16,0,3.92-.35,17.08,2.17,23.52Zm9.55-32.62c3.43,0,3.92,3.85,3.92,6.51,0,1.4-.14,2.73-0.14,4.13,0,2.17.21,4.34,0.21,6.44,0,2.38-.84,12.32-1.54,14.07a2,2,0,0,1-2,.84,4.54,4.54,0,0,1-2.66-.77v0.07c-2-1.89-2.24-5.88-2.24-8.4s-0.35-5.11-.35-7.77C870.85,245.75,870.36,235.25,875.56,235.25Z" transform="translate(-4.48 -4.99)"/><path class="cls-1" d="M892.12,273.89c2.38,0,3.08-.07,3.15-1.75q0.21-4.1.21-8.19c0-1.54-.14-3.15-0.14-4.83a12.87,12.87,0,0,1,.07-1.61c1.68,0,3.22.28,4.83,0.28,8.68,0,9.45-6.09,9.45-12.25,0-9.45-.35-17.85-11.55-17.85-4.41,0-8.4-.35-8.4,4,0,2.59.14,5.25,0.14,7.84,0,10.78-.91,21.56-0.91,32.34C889,273.69,890.56,273.89,892.12,273.89Zm5.74-39.83a7.82,7.82,0,0,1,4.62,1.26h-0.07c0.84,0.77,1.26,5.67,1.26,8.33,0,1.82-.49,6.86-2.38,7.84-1,.56-3.78.49-5.11,0.49h-0.62c0-3.29.07-6.65,0.07-10.08,0-2.52-.07-5-0.14-7.63,0.76-.07,1.6-0.21,2.37-0.21h0Z" transform="translate(-4.48 -4.99)"/></svg>