<svg id="GDC" xmlns="http://www.w3.org/2000/svg" viewBox="0 0 1300 500"><defs><style>.cls-1{fill:#eabb68;}</style></defs><title>FKA_GDC_2016_English_Gold</title><path class="cls-1" d="M213.89,489.2c-1.06-.65-2.18-1.2-3.29-1.76l-1.67-.85c-0.78-.41-1.58-0.81-2.38-1.2a45.64,45.64,0,0,1-5.2-2.86c-7.86-5.28-16.08-10.94-25.13-17.29a34.63,34.63,0,0,1-8.1-7.66,160.18,160.18,0,0,0-11.95-13.79l-2-2.09c-8-8.57-16.19-17.85-24.42-27.57a102.32,102.32,0,0,1-10-14.09c-6-10.21-12-20.91-17.81-31.81-5.18-9.72-10.1-19.8-15-29.73-5.72-11.71-9.12-21.86-10.68-31.95-1-6.63-2.45-13.64-4.37-21.45-3-12.14-6.25-26.57-7.75-41.54a254.21,254.21,0,0,1-1.55-28c0-4.5.32-9.08,0.59-13.51l0.16-2.67c0.24-4.08.37-8.17,0.51-12.26,0.18-5.46.37-11.1,0.81-16.64a164.73,164.73,0,0,1,5.13-31.08q2.31-8.41,4.65-16.82a30.17,30.17,0,0,1,1-2.92q1.41-3.61,2.84-7.2c1.58-4,3.16-8,4.7-12a103.61,103.61,0,0,1,9.31-18.15C94,79.63,96,77,97.83,74.42l2.38-3.3c1.83-2.55,3.72-5.19,5.73-7.64,2.16-2.64,4.5-5.22,6.77-7.72l1.86-2.06c0.62-.68,1.25-1.36,1.87-2,2.7-2.9,5.48-5.9,7.35-9.66a5,5,0,0,1,.92-1.13c0.25-.26.51-0.52,0.73-0.8,0.35-.43.67-0.88,1-1.31l0.7-.94-0.17-.5c-0.48-1.36-1.14-2.84-2.91-3.24L123.79,34l-0.56.16a2,2,0,0,0-.91.39c-0.5.41-1,.84-1.47,1.27-0.79.69-1.57,1.38-2.41,2C111.13,43.23,105,50,99.32,56.56c-2.54,2.92-4.87,6.08-7.12,9.13l-1.64,2.22c-0.89,1.19-1.71,2.43-2.54,3.67-0.64,1-1.28,1.93-2,2.87A103.61,103.61,0,0,0,74.32,95.81Q73.48,97.9,72.62,100c-1.37,3.33-2.78,6.77-4.07,10.2-1.35,3.62-2.66,7.57-4,12.1-1.5,5-2.81,10-3.89,14.19-1,4-1.9,7.72-2.63,11.25-1.74,8.38-2.27,17-2.79,25.33-0.12,1.85-.23,3.71-0.36,5.56-0.24,3.49-.31,7-0.37,10.48,0,2.33-.09,4.66-0.18,7-0.09,2.15-.23,4.31-0.37,6.46-0.19,2.81-.38,5.72-0.45,8.6a230.34,230.34,0,0,0,1.15,26.65A234.48,234.48,0,0,0,60,272.39c3.16,13,5.69,25,7.72,36.8a83.75,83.75,0,0,0,6.7,21.4c5.54,11.77,11.6,24.12,18,36.7,3.61,7.07,7.59,14.08,11.45,20.86l2.71,4.79A162.68,162.68,0,0,0,115.17,407a257.36,257.36,0,0,0,18.36,23l1,1.1c4.88,5.46,9.94,11.11,15.14,16.45A158.1,158.1,0,0,1,162,461.36a52.33,52.33,0,0,0,10.93,10.71c6.48,4.64,11.74,8.33,16.57,11.62a137.35,137.35,0,0,0,22.64,12.6,6.31,6.31,0,0,0,2.47.6,3.91,3.91,0,0,0,3.3-1.91l0.26-.37-0.11-.43A8.25,8.25,0,0,0,213.89,489.2Z" transform="translate(-0.01 0.02)"/><path class="cls-1" d="M154.19,349.19a27.59,27.59,0,0,0-2.87,8.52c-0.67,3.5-1.31,7.25-2.05,12.14a135,135,0,0,0-1.71,29.4,3.23,3.23,0,0,1-.56,2.32c-0.71,1-1.38,1.93-2.13,3l-1.37,2,2.51,5.22,1.29-.29a5.52,5.52,0,0,0,1-.26,6.82,6.82,0,0,0,1.63-.85c3.11-2.34,6.57-5.37,8.66-10l0.53-1.18c2.4-5.3,4.88-10.79,6.88-16.39a106,106,0,0,0,5.23-18.44,24.41,24.41,0,0,0-4.78-19.8c-1.5-1.92-3.25-2.39-5.34-1.43A14.41,14.41,0,0,0,154.19,349.19Zm3.76,27.71,0.12-.94c0.82-6.54,1.66-13.28,3.56-19.66l0,0.37a15.07,15.07,0,0,1,.17,3.84A86.7,86.7,0,0,1,157.95,376.9Z" transform="translate(-0.01 0.02)"/><path class="cls-1" d="M98.76,415.52c1.35-.06,2.74,0,4.22,0l2.26,0.06h0.27l0.6-.33c0.42-.23,1-0.52,1.46-0.86s1-.72,1.53-1.15l1.48-1.15-1.34-2.24c-0.64-1.08-1.25-2.11-1.89-3.11a3.5,3.5,0,0,0-3.67-1.68,26.34,26.34,0,0,1-2.69.23l-0.79,0a19.48,19.48,0,0,0-6.56-7.44,54.25,54.25,0,0,0-18.17-8.51,33,33,0,0,0-14.16-.68c-5.32,1-9.23,2.64-12.32,5.32-2.61,2.27-3,4.12-1.33,7.1a19.73,19.73,0,0,0,11.26,9.32A97.75,97.75,0,0,0,78,414.71a109.79,109.79,0,0,0,14.69,1Q95.68,415.66,98.76,415.52Zm-8.23-10.08c-5.07.46-13-.31-21.52-2.16l-0.26-.06c-4.07-.88-8.27-1.8-11.8-4a1.33,1.33,0,0,1,1-.57A26.51,26.51,0,0,1,70,397.56a49,49,0,0,1,19.85,7.37C90.07,405.08,90.29,405.25,90.52,405.43Z" transform="translate(-0.01 0.02)"/><path class="cls-1" d="M30,155.2c4.32,2.25,7.83,4.24,10.4,7.63a4.54,4.54,0,0,0,3.71,1.92,5.66,5.66,0,0,0,1.53-.22l0.59-.17,0.11-.6c0.86-4.52-.25-8.72-3-11.51a5.43,5.43,0,0,1-1.62-3.2,19.14,19.14,0,0,0-1.8-5.5,58.28,58.28,0,0,0-14-17.52,37.15,37.15,0,0,0-11.82-7,22.18,22.18,0,0,0-10.18-1.11c-2.31.27-3.35,1.26-3.71,3.51A11.26,11.26,0,0,0,1.31,129a35.7,35.7,0,0,0,2.86,4.45A80.27,80.27,0,0,0,30,155.2ZM12.31,128.5c6.22,2.94,13.89,9.74,17.16,15.18A68.07,68.07,0,0,1,12.31,128.5Z" transform="translate(-0.01 0.02)"/><path class="cls-1" d="M141.6,453.53l0.25-5-0.44-.31a7,7,0,0,0-6.09-1.08,5.22,5.22,0,0,1-3.56-.48c-0.65-.3-1.31-0.55-2-0.79l-2.2-.86c-6.42-2.56-13.07-5.21-20.09-6.42a41.93,41.93,0,0,0-8.06-.67,22.31,22.31,0,0,0-9.67,2c-5.25,2.64-7.16,6.09-6.2,11.18a3.86,3.86,0,0,1,0,.63c0.09,3.75,2,6.37,5.64,7.79l0.61,0.24a18.06,18.06,0,0,0,3.71,1.17,69.28,69.28,0,0,0,8.77,1q1.26,0,2.55,0A107.48,107.48,0,0,0,123.81,460c3.86-.68,7.63-1.69,10.49-2.48a16.58,16.58,0,0,0,7-3.75Zm-22.77-1c-3.27.34-6.55,0.67-9.83,0.92a32.21,32.21,0,0,1-11-1.31c-2-.53-3.52-1.25-4.52-2.91,1.72-2.25,4-3,7.21-2.43a67.83,67.83,0,0,1,13.48,4c0.64,0.26,1.31.46,2,.67A16,16,0,0,1,119,452.5Z" transform="translate(-0.01 0.02)"/><path class="cls-1" d="M130.13,141.5l-0.9-2.06-0.49-.11-1-.25a12.37,12.37,0,0,0-2-.4,45.48,45.48,0,0,0-12.06.8c-6.87,1.24-13.18,3.67-20.12,6.47a33.2,33.2,0,0,0-10.91,7c-1.08,1.07-2.18,2.12-3.28,3.17l-2.41,2.32a4.75,4.75,0,0,0-1.61,3.3,4.1,4.1,0,0,0,1.28,2.93,3.5,3.5,0,0,1,1.09,2.13c0.07,0.44.17,0.88,0.31,1.49l0.43,1.92,0.9-.12,1.52-.18a24.24,24.24,0,0,0,2.77-.42l1-.23c5.37-1.26,10.92-2.55,16.36-4a90.13,90.13,0,0,0,17.29-6.25,31.61,31.61,0,0,0,9.39-6.43C131,149.05,131.79,145.41,130.13,141.5Zm-38.3,17.39c-1,.25-1.93.49-2.9,0.72-0.27.06-.54,0.11-0.84,0.16a29.38,29.38,0,0,1,12-8l0.41-.15c2.54-.92,5.17-1.88,7.78-2.7a28,28,0,0,1,8.51-1.32q1.19,0,2.41.1a1.35,1.35,0,0,1-.16.21,26.58,26.58,0,0,1-9,5.61,72.21,72.21,0,0,1-13.37,4.26C95,158.08,93.43,158.49,91.83,158.89Z" transform="translate(-0.01 0.02)"/><path class="cls-1" d="M141,107.32a11.09,11.09,0,0,0,1.52-9.88,16.8,16.8,0,0,1-.49-1.8c-0.63-3.08-2.65-5.1-6-6a22.45,22.45,0,0,0-10.25-.25,47.69,47.69,0,0,0-13.4,4.33c-5.24,2.72-10.15,5.64-12.68,11.22-6.08-.24-6.44-0.17-9.49,2.2l-0.45.35,0.84,6.23L92,114a12.14,12.14,0,0,0,1.43.29l4.62,0.53c5.28,0.61,10.55,1.23,15.83,1.77a41.92,41.92,0,0,0,4.33.23,36.71,36.71,0,0,0,14-2.69A18.19,18.19,0,0,0,141,107.32Zm-7.66-7a2.4,2.4,0,0,1-.44,1.68c-2.06,3.77-4.8,5.67-8.59,5.51l-1.47,0c-1.45,0-2.94,0-4.38-.16-2.44-.23-4.88-0.52-7.58-0.85l-1.79-.21a15.29,15.29,0,0,1,1.36-1.32,37.11,37.11,0,0,1,10.72-6,15.09,15.09,0,0,1,7.33-.73,12.77,12.77,0,0,1,3.5,1A2.37,2.37,0,0,1,133.33,100.31Z" transform="translate(-0.01 0.02)"/><path class="cls-1" d="M34.31,92.26c0.78,1.14,1.56,2.28,2.32,3.43l1.33,2c1.29,1.92,2.63,3.89,3.73,5.93a9.83,9.83,0,0,0,5.17,4.87l0.6,0.24,0.46-.46,0.34-.31a3.28,3.28,0,0,0,.75-0.86l0.37-.7c0.81-1.56,1.38-2.53,2.87-2.73,1-.13,1.56-1.18,2-2a11.75,11.75,0,0,0,1.62-8.27c-0.42-2-.82-3.93-1.22-5.89-0.8-3.93-1.63-8-2.64-11.94a46.54,46.54,0,0,0-4.8-12C44.76,59.45,42,56.71,38.47,55a6.22,6.22,0,0,0-7.59,1.14,10.16,10.16,0,0,0-1.75,1.95,20.46,20.46,0,0,0-3.55,10.07A30.4,30.4,0,0,0,29.84,85.4C31.22,87.77,32.79,90.05,34.31,92.26ZM33.87,67.95a8.77,8.77,0,0,1,.17-1.8l0.12-.77a2,2,0,0,1,1.15-1.43,1.56,1.56,0,0,1,.79-0.3,0.66,0.66,0,0,1,.5.26,16,16,0,0,1,1.85,2.32,39.36,39.36,0,0,1,4.73,10.55,126.16,126.16,0,0,1,4.25,18.54q-1.17-1.62-2.37-3.23a101.42,101.42,0,0,1-8.21-12.34A28,28,0,0,1,33.87,67.95Z" transform="translate(-0.01 0.02)"/><path class="cls-1" d="M125,189.27a2,2,0,0,0-.53-0.84l-0.37-.45-0.25-.1a10.88,10.88,0,0,0-5.47-.25l-0.74.09c-6.85.8-12.61,4-16.86,6.62a83,83,0,0,0-15.37,12.81,38.82,38.82,0,0,1-5.74,5.14,6.14,6.14,0,0,0-2.87,6.31c0.08,0.7.19,1.39,0.31,2.19l0.32,2.12h0.85a22.37,22.37,0,0,0,6.75-1.28c0.79-.24,1.56-0.48,2.35-0.67a81.72,81.72,0,0,0,28.76-13.8,36.88,36.88,0,0,0,6.29-5.75C126.29,197,126.68,195.15,125,189.27Zm-12.95,9.18c-0.19.18-.39,0.35-0.61,0.53a72.56,72.56,0,0,1-12,7.81c0.6-.56,1.41-1.23,2.56-2.13A45.52,45.52,0,0,1,112.09,198.44Z" transform="translate(-0.01 0.02)"/><path class="cls-1" d="M86.47,51.61a22.73,22.73,0,0,0,5.92,4.92L93,56.89l0.53-.49a13.51,13.51,0,0,0,3.73-5.29,2.39,2.39,0,0,0,.06-1.8c-0.65-1.31-.22-2.4.53-4.08L98,44.91a9.87,9.87,0,0,0,.73-3,35.38,35.38,0,0,0-1.41-15.26c-0.9-2.73-2.34-6.15-5.5-8.31a41.77,41.77,0,0,0-7.11-3.78,4.94,4.94,0,0,0-6.41,1.79A18.92,18.92,0,0,0,75,23.07a16.6,16.6,0,0,0,.49,9.5A55.29,55.29,0,0,0,86.47,51.61ZM83.92,25.1a1.86,1.86,0,0,1,1.94.95,15,15,0,0,1,2,3.55,29.14,29.14,0,0,1,1.65,9.26,41.67,41.67,0,0,1-5-10.66A9.21,9.21,0,0,1,83.92,25.1Z" transform="translate(-0.01 0.02)"/><path class="cls-1" d="M17,211.57l0.31,0.08c1,0.08,1.92.18,2.84,0.28a51.49,51.49,0,0,0,5.88.41c3.07,0,6.27.07,9.19,1.48a5.43,5.43,0,0,0,2.41.57,6.39,6.39,0,0,0,1.27-.13c2.33-.47,3.46-2,3.12-4.15-0.41-2.6-.92-5.83-4.06-7.81a15.48,15.48,0,0,1-2.19-1.8c-0.44-.4-0.87-0.81-1.33-1.18a47.35,47.35,0,0,0-11-6.58c-5.35-2.38-10.94-2.13-17.59.8a4.28,4.28,0,0,0-2.67,4.9c0.73,4.76,2.74,8,6.16,9.76a59.52,59.52,0,0,0,5.51,2.47C15.53,211,16.27,211.27,17,211.57Z" transform="translate(-0.01 0.02)"/><path class="cls-1" d="M53.73,357.17a47.43,47.43,0,0,1,6.7.28,17.42,17.42,0,0,0,2.36.17,13.12,13.12,0,0,0,6.75-1.79l0.59-.34L70,354.81c-0.07-.43,0-0.56,1-1.14a8.28,8.28,0,0,0,1.3-.89l0.48-.42-0.19-.61c-2.47-8-7.72-13.24-16.05-16.09a12.91,12.91,0,0,0-9.21.44,74.38,74.38,0,0,0-6.9,3.22,11.78,11.78,0,0,0-4.77,4.26A3.93,3.93,0,0,0,35,347c1.16,3.38,3.16,7.45,8.42,8.9a31.28,31.28,0,0,0,8,1.26h2.26Zm-5.3-10.9a5.63,5.63,0,0,1,3.84-1.15,11.86,11.86,0,0,1,5,1.66A29.45,29.45,0,0,1,48.43,346.27Z" transform="translate(-0.01 0.02)"/><path class="cls-1" d="M126.33,55.23l-0.13,1.5L126.93,57c3.36,1.14,7.35,2,11.55.11,1.66-.77,3.44-1.41,5.16-2l1-.37c2.12-.78,3.91-0.17,6,2a1.43,1.43,0,0,1,.5,1,1.38,1.38,0,0,1-.66.84,17.54,17.54,0,0,1-9.1,3.1A30.71,30.71,0,0,1,130.46,60c-2.21-.7-4.8-1.37-7.69-0.34l-0.49.17-1.71,6.4,0.85,0.31L123,67.08c1,0.4,2,.76,2.92,1a61.55,61.55,0,0,0,13.49,2c0.72,0,1.42.06,2.11,0.06a27.88,27.88,0,0,0,13.36-3.08c3.92-2.08,5.88-5,6-8.9V57.89c0-.67,0-1.33.11-2a6.72,6.72,0,0,0-3.21-6.67,16.36,16.36,0,0,0-4.52-2.15,25.92,25.92,0,0,0-19.16,1.7,52.14,52.14,0,0,1-5,2.06,3.7,3.7,0,0,0-2.62,3C126.4,54.27,126.37,54.72,126.33,55.23Z" transform="translate(-0.01 0.02)"/><path class="cls-1" d="M111.28,271.86a22.72,22.72,0,0,0,2.67-6.38c0.2-.65.39-1.3,0.61-1.95a11,11,0,0,0-1.4-9.41l-0.27-.45-0.52,0-0.44,0a3.08,3.08,0,0,0-1.15,0,30.42,30.42,0,0,0-10.86,4.62q-8.06,5.77-16.14,11.5a7.5,7.5,0,0,0-2.55,3.58c-1.06,2.58-.35,4.9.4,7.37L82,282l0.61,0.1,1.3,0.22c0.94,0.16,1.84.32,2.75,0.39q1,0.08,1.89.08c6.16,0,11.54-2.33,16.05-4.66A18.08,18.08,0,0,0,111.28,271.86Zm-8.76-4.66a7.71,7.71,0,0,1-2.17,2.94,10.38,10.38,0,0,1-4.9,2.23c1.17-.82,2.27-1.65,3.34-2.46C100.05,269,101.27,268,102.52,267.2Z" transform="translate(-0.01 0.02)"/><path class="cls-1" d="M96.83,348.84l0.69-.07c3.51-.37,7.13-0.74,9.76-4.2,1.24-1.62,2.63-3.18,4-4.69,0.82-.92,1.64-1.83,2.44-2.77a32.41,32.41,0,0,0,6.21-10.95,16.73,16.73,0,0,0-.61-12.29c-1.15-2.59-2.72-3.45-5.43-3-4.57.78-8,2.89-10.17,6.3a42.58,42.58,0,0,0-4.18,8.3c-1.84,5.05-3.44,10-2.88,15.49a2.34,2.34,0,0,1-.3,1.91c-1.5,1.89-.56,3.81.18,5.35Zm12.2-21a18.69,18.69,0,0,1,1.47-3.31A13.87,13.87,0,0,1,109,327.84Z" transform="translate(-0.01 0.02)"/><path class="cls-1" d="M39.61,286a11.43,11.43,0,0,0,4.53-.87c1.32-.56,2.23-0.75,3.28-0.22a4.35,4.35,0,0,0,4.33-.45c0.4-.24.78-0.52,1.23-0.85l1.33-1L54,282a15.39,15.39,0,0,0-5.23-6.31,81.93,81.93,0,0,0-14.44-8.52,53.79,53.79,0,0,0-6.79-2.47c-4.25-1.26-7.78-.5-10.5,2.27a5.89,5.89,0,0,1-.79.63c-0.24.17-.47,0.34-0.7,0.53-2.13,1.79-2.44,3.5-1.06,5.72,3,4.81,6.57,7.8,10.91,9.12,3.74,1.14,7.15,2,10.41,2.68A19.28,19.28,0,0,0,39.61,286Z" transform="translate(-0.01 0.02)"/><path class="cls-1" d="M130.78,30.78c0.11,0.43.22,0.85,0.31,1.26l0.1,0.44,4,2.13,0.38-.1c4.45-1.19,6.55-2.53,9.38-6a44,44,0,0,0,7.39-13.39,11.75,11.75,0,0,0-4.46-13c-2.12-1.35-4.66-2.65-7.44-2-3.76.86-8.27,2.61-9.66,8.55-1.63,6.93-1.19,13.69-.63,18.8A23.13,23.13,0,0,0,130.78,30.78ZM140,9.66a3.44,3.44,0,0,1,2.26.73c1.41,0.84,1.52,1.14,1,2.74a41.49,41.49,0,0,1-4.49,9A30.22,30.22,0,0,1,140,9.66Z" transform="translate(-0.01 0.02)"/><path class="cls-1" d="M174,447.72l0.27,0.57h0.63a12,12,0,0,0,10.27-5.19A45.79,45.79,0,0,0,193,424.6a6.13,6.13,0,0,0-.79-4.49c-0.24-.39-0.47-0.78-0.71-1.18-0.37-.64-0.75-1.28-1.17-1.9-1.5-2.19-3.27-2.8-5.58-1.9-4.94,1.91-8.2,4.49-10.26,8.09C170,431,169.87,439,174,447.72Z" transform="translate(-0.01 0.02)"/><path class="cls-1" d="M168.5,479l-0.74-.08c-0.52-.05-1-0.12-1.53-0.19a21.19,21.19,0,0,0-3.35-.27A39.6,39.6,0,0,0,143.66,484c-4.17,2.44-4.95,4.15-4.14,9.17l0,0.27c0.07,0.44.14,0.88,0.23,1.32,0.69,3.55,2.26,5,5.61,5.14q0.74,0,1.44,0a17.58,17.58,0,0,0,10.13-2.7c2.27-1.51,4.49-3.13,6.65-4.7l1.44-1a8.34,8.34,0,0,0,2.59-3.47,13.19,13.19,0,0,0,1-8.37Z" transform="translate(-0.01 0.02)"/><path class="cls-1" d="M1138,461.36a158.1,158.1,0,0,1,12.32-13.8c5.21-5.34,10.26-11,15.14-16.45l1-1.1a257.36,257.36,0,0,0,18.36-23,162.68,162.68,0,0,0,8.57-14.05l2.71-4.79c3.85-6.78,7.84-13.79,11.45-20.86,6.43-12.58,12.49-24.92,18-36.7a83.83,83.83,0,0,0,6.7-21.4c2-11.77,4.56-23.81,7.72-36.8a234.48,234.48,0,0,0,5.36-34.6,230.34,230.34,0,0,0,1.15-26.65c-0.07-2.88-.26-5.79-0.45-8.6-0.14-2.15-.29-4.31-0.37-6.46-0.1-2.33-.14-4.65-0.18-7-0.07-3.44-.13-7-0.37-10.48-0.13-1.85-.24-3.71-0.36-5.56-0.52-8.33-1.06-17-2.79-25.33-0.73-3.53-1.59-7.2-2.63-11.25-1.09-4.2-2.39-9.18-3.89-14.19-1.35-4.52-2.67-8.48-4-12.1-1.28-3.43-2.7-6.87-4.07-10.2q-0.86-2.09-1.71-4.18A103.61,103.61,0,0,0,1214,74.45c-0.67-.94-1.31-1.91-2-2.87-0.83-1.24-1.65-2.48-2.54-3.67l-1.64-2.22c-2.25-3.05-4.59-6.21-7.12-9.13-5.67-6.51-11.81-13.33-19.11-18.7-0.84-.62-1.63-1.31-2.41-2-0.49-.43-1-0.86-1.47-1.27a2,2,0,0,0-.91-0.39l-0.56-.16-0.26.06c-1.77.39-2.43,1.88-2.91,3.24l-0.17.5,0.7,0.94c0.31,0.43.64,0.88,1,1.31,0.22,0.28.48,0.54,0.73,0.8a5,5,0,0,1,.92,1.13c1.86,3.75,4.65,6.75,7.35,9.65,0.63,0.68,1.25,1.35,1.87,2l1.86,2.06c2.26,2.5,4.6,5.08,6.77,7.72,2,2.45,3.9,5.09,5.73,7.64l2.38,3.3c1.86,2.56,3.78,5.21,5.49,7.92a103.56,103.56,0,0,1,9.31,18.15c1.54,4,3.12,8,4.7,12q1.43,3.6,2.84,7.2a30.17,30.17,0,0,1,1,2.92q2.35,8.4,4.65,16.82a164.73,164.73,0,0,1,5.13,31.08c0.44,5.53.63,11.17,0.81,16.63,0.13,4.09.27,8.18,0.51,12.27l0.16,2.67c0.27,4.43.54,9,.59,13.51a254.21,254.21,0,0,1-1.55,28c-1.51,15-4.77,29.4-7.75,41.54-1.92,7.8-3.35,14.82-4.37,21.45-1.56,10.09-5,20.24-10.77,32.15-4.77,9.74-9.69,19.81-14.87,29.54-5.81,10.9-11.8,21.6-17.81,31.81a102.32,102.32,0,0,1-10,14.09c-8.22,9.72-16.44,19-24.42,27.57l-2,2.09a160.18,160.18,0,0,0-11.95,13.79,34.63,34.63,0,0,1-8.1,7.66c-9,6.35-17.27,12-25.13,17.29a45.64,45.64,0,0,1-5.2,2.86c-0.8.4-1.6,0.79-2.38,1.2l-1.67.85c-1.12.56-2.23,1.11-3.3,1.76a8.26,8.26,0,0,0-4.15,5l-0.11.43,0.26,0.37a3.91,3.91,0,0,0,3.3,1.91,6.31,6.31,0,0,0,2.47-.6,137.24,137.24,0,0,0,22.63-12.6c4.89-3.32,10-6.91,16.57-11.62A52.33,52.33,0,0,0,1138,461.36Z" transform="translate(-0.01 0.02)"/><path class="cls-1" d="M1134,382.82c2,5.6,4.49,11.08,6.88,16.39l0.53,1.18c2.1,4.64,5.56,7.66,8.66,10a6.88,6.88,0,0,0,1.63.85,5.61,5.61,0,0,0,1,.26l1.29,0.29,2.51-5.22-1.37-2c-0.75-1.08-1.42-2.06-2.12-3a3.23,3.23,0,0,1-.56-2.32,135,135,0,0,0-1.71-29.4c-0.75-4.89-1.38-8.63-2.05-12.14a27.59,27.59,0,0,0-2.87-8.52,14.41,14.41,0,0,0-6.9-6c-2.09-1-3.84-.5-5.34,1.43a24.41,24.41,0,0,0-4.78,19.8A106,106,0,0,0,1134,382.82Zm4.31-26.16,0-.37c1.9,6.38,2.74,13.12,3.56,19.66l0.12,0.94a86.7,86.7,0,0,1-3.9-16.39A15.07,15.07,0,0,1,1138.34,356.67Z" transform="translate(-0.01 0.02)"/><path class="cls-1" d="M1238.73,388.74a33,33,0,0,0-14.16.68,54.25,54.25,0,0,0-18.17,8.51,19.48,19.48,0,0,0-6.56,7.44l-0.79,0a26.34,26.34,0,0,1-2.69-.23,3.51,3.51,0,0,0-3.67,1.68c-0.64,1-1.25,2-1.89,3.11l-1.34,2.24,1.48,1.15c0.53,0.42,1,.8,1.52,1.15s1,0.63,1.46.86l0.6,0.33h0.27l2.26-.06c1.47,0,2.86-.09,4.22,0q3.08,0.14,6,.14a110.45,110.45,0,0,0,14.69-1,97.88,97.88,0,0,0,19.12-4.23,19.72,19.72,0,0,0,11.26-9.32c1.63-3,1.29-4.83-1.33-7.1C1248,391.39,1244.05,389.69,1238.73,388.74Zm4.34,10.5c-3.53,2.18-7.73,3.09-11.81,4l-0.26.06c-8.51,1.85-16.43,2.64-21.52,2.16,0.24-.19.46-0.35,0.7-0.51a49,49,0,0,1,19.85-7.37,26.5,26.5,0,0,1,12.05,1.11A1.32,1.32,0,0,1,1243.07,399.24Z" transform="translate(-0.01 0.02)"/><path class="cls-1" d="M1299.82,121.42c-0.35-2.26-1.4-3.24-3.71-3.51a22.24,22.24,0,0,0-10.18,1.11,37.15,37.15,0,0,0-11.82,7,58.28,58.28,0,0,0-14,17.52,19.14,19.14,0,0,0-1.8,5.5,5.43,5.43,0,0,1-1.62,3.2c-2.79,2.79-3.89,7-3,11.51l0.11,0.6,0.59,0.17a5.65,5.65,0,0,0,1.53.22,4.54,4.54,0,0,0,3.71-1.92c2.57-3.39,6.08-5.38,10.4-7.63a80.27,80.27,0,0,0,25.85-21.76,35.38,35.38,0,0,0,2.86-4.45A11.28,11.28,0,0,0,1299.82,121.42Zm-12.1,7.08a68,68,0,0,1-17.16,15.19C1273.82,138.24,1281.49,131.44,1287.71,128.5Z" transform="translate(-0.01 0.02)"/><path class="cls-1" d="M1210.26,439.9a22.32,22.32,0,0,0-9.67-2,42,42,0,0,0-8.06.67c-7,1.21-13.67,3.85-20.09,6.42l-2.2.86c-0.66.25-1.33,0.5-2,.79a5.19,5.19,0,0,1-3.56.48,7,7,0,0,0-6.1,1.08l-0.44.31,0.25,5,0.3,0.27a16.58,16.58,0,0,0,7,3.75c2.86,0.8,6.63,1.8,10.49,2.48a107.5,107.5,0,0,0,18.93,1.92q1.29,0,2.55,0a69.35,69.35,0,0,0,8.77-1,18.08,18.08,0,0,0,3.71-1.17l0.61-.24c3.65-1.42,5.54-4,5.64-7.79a3.76,3.76,0,0,1,0-.63C1217.42,446,1215.51,442.54,1210.26,439.9ZM1181,452.5a16,16,0,0,1,2.86-1.08c0.67-.21,1.34-0.41,2-0.67a67.83,67.83,0,0,1,13.48-4c3.23-.57,5.49.18,7.21,2.43-1,1.66-2.54,2.38-4.52,2.91a32.51,32.51,0,0,1-11,1.31c-3.28-.25-6.56-0.58-9.83-0.92Z" transform="translate(-0.01 0.02)"/><path class="cls-1" d="M1224.76,161.79a4.74,4.74,0,0,0-1.61-3.3l-2.41-2.32c-1.1-1.05-2.19-2.11-3.28-3.17a33.2,33.2,0,0,0-10.91-7c-6.94-2.81-13.25-5.23-20.12-6.47a45.41,45.41,0,0,0-12.06-.8,12.55,12.55,0,0,0-2,.4l-1.05.26-0.49.11-0.9,2.05c-1.66,3.9-.83,7.55,2.56,11.15a31.61,31.61,0,0,0,9.39,6.43,90.1,90.1,0,0,0,17.29,6.25c5.43,1.4,11,2.69,16.36,4l1,0.23a24.3,24.3,0,0,0,2.77.42l1.52,0.18,0.9,0.12,0.43-1.92c0.14-.6.24-1,0.31-1.48a3.5,3.5,0,0,1,1.09-2.13A4.1,4.1,0,0,0,1224.76,161.79Zm-21.39-4A72.32,72.32,0,0,1,1190,153.5a26.58,26.58,0,0,1-9-5.61,1.35,1.35,0,0,1-.16-0.21,28.17,28.17,0,0,1,10.92,1.22c2.61,0.83,5.24,1.78,7.78,2.7l0.41,0.15a29.38,29.38,0,0,1,12,8c-0.3,0-.57-0.09-0.84-0.16-1-.23-1.93-0.47-2.9-0.72C1206.59,158.49,1205,158.08,1203.36,157.76Z" transform="translate(-0.01 0.02)"/><path class="cls-1" d="M1200.34,104.93c-2.54-5.58-7.44-8.49-12.68-11.22a47.69,47.69,0,0,0-13.4-4.33,22.46,22.46,0,0,0-10.25.25c-3.35.91-5.37,2.93-6,6a16.93,16.93,0,0,1-.49,1.8,11.09,11.09,0,0,0,1.52,9.89,18.19,18.19,0,0,0,8.75,6.85,36.7,36.7,0,0,0,14,2.69,42,42,0,0,0,4.33-.23c5.28-.55,10.56-1.16,15.83-1.77l4.62-.53h0A11.79,11.79,0,0,0,1208,114l1.45-.33,0.84-6.23-0.45-.35C1206.78,104.76,1206.43,104.69,1200.34,104.93Zm-9.4,1.34-1.79.21c-2.7.33-5.14,0.62-7.58,0.85-1.44.13-2.93,0.15-4.38,0.16l-1.47,0c-3.76.11-6.53-1.73-8.59-5.5a2.41,2.41,0,0,1-.44-1.68,2.37,2.37,0,0,1,1.35-1.07,12.78,12.78,0,0,1,3.5-1,16.44,16.44,0,0,1,2.26-.16,14.67,14.67,0,0,1,5.07.88,37.11,37.11,0,0,1,10.72,6A15.29,15.29,0,0,1,1190.94,106.26Z" transform="translate(-0.01 0.02)"/><path class="cls-1" d="M1247.76,103.66c1.49,0.2,2.06,1.17,2.87,2.73l0.37,0.7a3.28,3.28,0,0,0,.75.86l0.34,0.31,0.46,0.46,0.6-.24a9.82,9.82,0,0,0,5.16-4.87c1.1-2,2.44-4,3.73-5.92,0.45-.67.9-1.33,1.34-2,0.76-1.15,1.54-2.29,2.32-3.43,1.52-2.21,3.09-4.49,4.47-6.85a30.4,30.4,0,0,0,4.26-17.23,20.45,20.45,0,0,0-3.55-10.07,10.09,10.09,0,0,0-1.75-1.95,6.22,6.22,0,0,0-7.59-1.14c-3.51,1.7-6.28,4.44-8.73,8.61a46.54,46.54,0,0,0-4.8,12c-1,4-1.84,8-2.64,11.94-0.4,2-.8,3.93-1.22,5.89a11.75,11.75,0,0,0,1.62,8.27C1246.21,102.48,1246.79,103.53,1247.76,103.66Zm4.83-8.35a126.21,126.21,0,0,1,4.25-18.54,39.36,39.36,0,0,1,4.73-10.55,16,16,0,0,1,1.85-2.32,0.66,0.66,0,0,1,.5-0.26,1.56,1.56,0,0,1,.79.3,2,2,0,0,1,1.15,1.43l0.12,0.77a8.77,8.77,0,0,1,.17,1.8,28,28,0,0,1-3,11.79A101.29,101.29,0,0,1,1255,92.08Q1253.76,93.69,1252.59,95.31Z" transform="translate(-0.01 0.02)"/><path class="cls-1" d="M1222.55,222.91l0.32-2.12c0.12-.8.23-1.49,0.31-2.19a6.14,6.14,0,0,0-2.87-6.31,38.82,38.82,0,0,1-5.74-5.14,83,83,0,0,0-15.38-12.81c-4.25-2.66-10-5.82-16.86-6.62l-0.75-.09a10.88,10.88,0,0,0-5.47.25l-0.25.1-0.37.45a2,2,0,0,0-.53.84c-1.63,5.88-1.25,7.7,2.58,12.14a36.94,36.94,0,0,0,6.29,5.75A81.74,81.74,0,0,0,1212.6,221c0.79,0.19,1.56.43,2.35,0.67a22.37,22.37,0,0,0,6.75,1.28h0.85Zm-22.06-16.12a72.56,72.56,0,0,1-12-7.81c-0.22-.18-0.42-0.36-0.61-0.53a45.57,45.57,0,0,1,10,6.21C1199.08,205.56,1199.89,206.22,1200.49,206.78Z" transform="translate(-0.01 0.02)"/><path class="cls-1" d="M1202,44.91l0.15,0.32c0.75,1.67,1.18,2.76.53,4.08a2.4,2.4,0,0,0,.06,1.8l1-.22-0.94.29a13.51,13.51,0,0,0,3.71,5.22l0.53,0.49,0.63-.36a22.73,22.73,0,0,0,5.92-4.92,55.29,55.29,0,0,0,11-19,16.6,16.6,0,0,0,.49-9.5,18.93,18.93,0,0,0-3.29-6.68,4.94,4.94,0,0,0-6.41-1.79,41.66,41.66,0,0,0-7.11,3.78c-3.16,2.16-4.6,5.58-5.5,8.31a35.38,35.38,0,0,0-1.41,15.26A9.87,9.87,0,0,0,1202,44.91Zm8.55-6.05a29.15,29.15,0,0,1,1.65-9.26,14.93,14.93,0,0,1,2-3.55,1.85,1.85,0,0,1,1.94-.95,9.21,9.21,0,0,1-.57,3.1A41.61,41.61,0,0,1,1210.55,38.86Z" transform="translate(-0.01 0.02)"/><path class="cls-1" d="M1294.25,193.52c-6.67-2.93-12.25-3.19-17.59-.8a47.35,47.35,0,0,0-11,6.58c-0.46.38-.89,0.78-1.33,1.18a15.48,15.48,0,0,1-2.19,1.8c-3.14,2-3.65,5.22-4.06,7.81-0.34,2.18.79,3.69,3.12,4.15a6.41,6.41,0,0,0,1.27.13,5.43,5.43,0,0,0,2.41-.57c2.92-1.41,6.11-1.51,9.19-1.48a52.48,52.48,0,0,0,5.88-.41c0.92-.1,1.86-0.2,2.84-0.28l0.31-.08c0.71-.31,1.45-0.61,2.2-0.92a59.52,59.52,0,0,0,5.51-2.47c3.41-1.81,5.42-5,6.16-9.76A4.28,4.28,0,0,0,1294.25,193.52Z" transform="translate(-0.01 0.02)"/><path class="cls-1" d="M1259.6,339.31a74.17,74.17,0,0,0-6.9-3.22,12.92,12.92,0,0,0-9.2-.44c-8.33,2.85-13.58,8.12-16.05,16.09l-0.19.61,0.48,0.42a8.28,8.28,0,0,0,1.3.89c1,0.58,1,.7,1,1.14l-0.11.67,0.59,0.34a13.12,13.12,0,0,0,6.75,1.79,17.42,17.42,0,0,0,2.36-.17,47.39,47.39,0,0,1,6.7-.28h2.26a31.28,31.28,0,0,0,8-1.26c5.26-1.45,7.26-5.52,8.42-8.9a3.93,3.93,0,0,0-.64-3.44A11.78,11.78,0,0,0,1259.6,339.31Zm-8,7a29.55,29.55,0,0,1-8.85.51,11.86,11.86,0,0,1,5-1.66A5.61,5.61,0,0,1,1251.59,346.27Z" transform="translate(-0.01 0.02)"/><path class="cls-1" d="M1139.16,58.17c0.11,3.91,2.06,6.82,6,8.9a27.88,27.88,0,0,0,13.36,3.08c0.69,0,1.4,0,2.11-.06a61.55,61.55,0,0,0,13.49-2c0.95-.26,1.87-0.62,2.92-1l1.58-.6,0.85-.31-1.71-6.4-0.49-.17c-2.9-1-5.49-.36-7.69.34a30.74,30.74,0,0,1-10.92,1.71,17.54,17.54,0,0,1-9.1-3.1,1.38,1.38,0,0,1-.66-0.84,1.43,1.43,0,0,1,.5-1c2.08-2.19,3.86-2.8,6-2l1,0.37c1.72,0.63,3.49,1.27,5.16,2,4.2,1.93,8.2,1,11.55-.11l0.73-.25-0.13-1.5c0-.51-0.07-1-0.15-1.41a3.7,3.7,0,0,0-2.62-3,51.92,51.92,0,0,1-5-2.06,25.93,25.93,0,0,0-19.16-1.7,16.4,16.4,0,0,0-4.52,2.15,6.72,6.72,0,0,0-3.2,6.67c0.08,0.66.1,1.33,0.11,2v0.28Z" transform="translate(-0.01 0.02)"/><path class="cls-1" d="M1213.34,282.67c0.91-.07,1.81-0.23,2.76-0.39l1.3-.22,0.61-.1,0.39-1.29c0.75-2.46,1.46-4.79.4-7.37a7.5,7.5,0,0,0-2.55-3.58q-8.09-5.73-16.14-11.5a30.41,30.41,0,0,0-10.86-4.63,3.13,3.13,0,0,0-1.14,0l-0.44,0-0.52,0-0.27.45a11,11,0,0,0-1.4,9.41c0.22,0.65.41,1.3,0.61,1.95a22.72,22.72,0,0,0,2.67,6.38,18.07,18.07,0,0,0,6.66,6.23c4.51,2.34,9.89,4.66,16.05,4.66C1212.07,282.74,1212.7,282.72,1213.34,282.67Zm-8.77-10.3a10.4,10.4,0,0,1-4.9-2.23,7.71,7.71,0,0,1-2.17-2.94c1.25,0.84,2.47,1.76,3.73,2.71C1202.3,270.72,1203.4,271.55,1204.57,272.37Z" transform="translate(-0.01 0.02)"/><path class="cls-1" d="M1200.5,325.47a42.58,42.58,0,0,0-4.18-8.3c-2.18-3.4-5.59-5.52-10.16-6.3-2.72-.45-4.29.41-5.44,3a16.75,16.75,0,0,0-.61,12.29,32.46,32.46,0,0,0,6.21,10.95c0.79,0.94,1.62,1.85,2.44,2.77,1.35,1.51,2.75,3.07,4,4.69,2.63,3.46,6.26,3.83,9.76,4.2l0.69,0.07,0.3-.62c0.75-1.54,1.68-3.46.18-5.35a2.34,2.34,0,0,1-.3-1.91C1203.94,335.51,1202.34,330.52,1200.5,325.47Zm-9.51,2.38a13.87,13.87,0,0,1-1.47-3.31A18.75,18.75,0,0,1,1191,327.84Z" transform="translate(-0.01 0.02)"/><path class="cls-1" d="M1283.81,267.56a5.89,5.89,0,0,1-.79-0.63c-2.72-2.77-6.26-3.53-10.5-2.27a53.71,53.71,0,0,0-6.79,2.47,81.93,81.93,0,0,0-14.44,8.52A15.39,15.39,0,0,0,1246,282l-0.34.74,1.33,1c0.45,0.33.83,0.61,1.23,0.85a4.36,4.36,0,0,0,4.33.45c1-.54,2-0.34,3.28.22a11.43,11.43,0,0,0,4.53.87,19.43,19.43,0,0,0,3.83-.42c3.26-.66,6.66-1.54,10.41-2.68,4.34-1.33,7.91-4.31,10.91-9.12,1.38-2.22,1.06-3.93-1.07-5.72C1284.28,267.9,1284,267.73,1283.81,267.56Z" transform="translate(-0.01 0.02)"/><path class="cls-1" d="M1155.12,28.53c2.83,3.45,4.93,4.79,9.38,6l0.38,0.1,4-2.13,0.1-.44c0.09-.41.2-0.83,0.31-1.26a23.13,23.13,0,0,0,.68-3.27c0.56-5.12,1-11.88-.63-18.8-1.39-5.95-5.9-7.7-9.66-8.55-2.78-.64-5.32.66-7.44,2a11.75,11.75,0,0,0-4.46,13A44,44,0,0,0,1155.12,28.53Zm6.11-6.41a41.49,41.49,0,0,1-4.49-9c-0.54-1.6-.43-1.91,1-2.76a3.89,3.89,0,0,1,1.93-.74l0.31,0A30.22,30.22,0,0,1,1161.23,22.13Z" transform="translate(-0.01 0.02)"/><path class="cls-1" d="M1114.83,443.09a12,12,0,0,0,10.27,5.19h0.63l0.27-.57c4.15-8.72,4-16.74-.44-24.51-2.06-3.61-5.32-6.18-10.26-8.09-2.31-.9-4.08-0.29-5.58,1.9-0.42.61-.79,1.25-1.17,1.9-0.23.4-.46,0.79-0.71,1.18a6.13,6.13,0,0,0-.79,4.49A45.79,45.79,0,0,0,1114.83,443.09Z" transform="translate(-0.01 0.02)"/><path class="cls-1" d="M1156.35,484a39.6,39.6,0,0,0-19.22-5.62,23.62,23.62,0,0,0-3.35.27c-0.5.07-1,.14-1.53,0.19l-0.74.08-0.13.73a13.19,13.19,0,0,0,1,8.37,8.35,8.35,0,0,0,2.6,3.47l1.44,1c2.15,1.57,4.38,3.19,6.65,4.7a17.57,17.57,0,0,0,10.13,2.7q0.7,0,1.44,0c3.34-.15,4.91-1.59,5.61-5.14,0.08-.44.16-0.88,0.23-1.32l0-.27C1161.3,488.2,1160.53,486.49,1156.35,484Z" transform="translate(-0.01 0.02)"/><path class="cls-1" d="M217.29,318.95a14.78,14.78,0,0,0,.67-4c0-.58.1-1.06-0.86-1.06-1.34,0-2.69.29-4,.29-3.65,0-3.84-2.59-3.84-5.47,0-3.07,2.59-3.36,6-3.36h2.4c1.73,0,3.55-.29,5.28-0.29a9.08,9.08,0,0,1,3.55.77,33.76,33.76,0,0,1,1,9.31c0,10.75-1.44,21.31-13.92,21.31-17.37,0-15.74-19.39-15.94-31.29-0.1-3.46-.48-6.91-0.48-10.37,0-7.3.77-13.92,8-17.57v0.1a18.41,18.41,0,0,1,7.49-1.92c5.38,0,14.11,4.51,14.11,9.22,0,2-3.74,4.7-5.28,4.7-1.34,0-6-4-8.06-4.61h0.1c-0.38,0-.86-0.1-1.34-0.1-5.57,0-5.57,4.22-5.57,8.45,0,4.7-.19,9.41-0.19,14.11a151.35,151.35,0,0,0,.86,16.13c0.29,2.4,1.34,4.89,4.9,4.89,4.7,0,4.42-6.14,5.28-9.31Z" transform="translate(-0.01 0.02)"/><path class="cls-1" d="M262.7,332.86a5.74,5.74,0,0,1-1.34,3.46c-2.4-.19-5,0.29-7.1-1-1.06-3.84-2.88-11.52-3.17-15.36-1.44-.1-2.78-0.19-4.22-0.19a20.82,20.82,0,0,0-3.46.19c-2.21,5.57-2.3,13.82-4.51,16.22-1.92,0-7.2,1.25-7.2-2.69a29.84,29.84,0,0,1,2-10v0.1a43.83,43.83,0,0,0,1.34-5.09l4.22-21.69c1.15-6.14,3.07-15.74,5.09-21.6,0.58-1.63,1.34-2.3,3.07-2.3,1,0,1.92.38,2.88,0.38a6.29,6.29,0,0,0,1.34-.1c1.73,2.69,2.5,12,7.78,42.53v-0.1C260.49,319.71,262.7,329,262.7,332.86Zm-13-21.5c-0.38-4.42-.86-14.11-1.82-14.11l-2.78,14.4C246.67,311.65,248.21,311.36,249.74,311.36Z" transform="translate(-0.01 0.02)"/><path class="cls-1" d="M304.84,274.89c0,18.24.86,36.57,0.86,55a28.59,28.59,0,0,1-.48,5.76,12.56,12.56,0,0,1-4.61.77c-3.94,0-4.61-1.63-4.61-4,0-1.15.19-2.5,0.19-3.94,0-7-.19-13.92-0.29-20.93-1.73,5.09-2.59,12.19-6.53,12.19-1.06,0-1.92-.19-2.88-0.19h-0.67c-2.21-3.74-3.36-8.54-5-12.58,0.29,5.38.38,10.56,0.38,15.93,0,3.46,0,9.7-1,12.86a8.83,8.83,0,0,1-3.17.58,11.46,11.46,0,0,1-5.57-1.44c-0.19-5.18-.1-2.69-0.1-16.89,0-15.46.19-42.33,1.92-44,1.34-.19,2.5-0.86,3.84-0.86,3.84,0,8,18.43,11,26.88l6.53-19.1a29.53,29.53,0,0,1,2.11-5.76l0.58-.38s4.7-.77,5-0.77A4.29,4.29,0,0,1,304.84,274.89Z" transform="translate(-0.01 0.02)"/><path class="cls-1" d="M335.47,326.24c5.09,0,3.55,6.43,3.84,9.89-3.26.29-6.62,0.38-10,.38-1.73,0-13.63-.19-14.69-0.77-1.54-3.55-1.63-10.08-1.63-14.11,0-16.13-.38-32.45-0.38-48.57,1.54-1.54,3.46-1.54,5.47-1.54,4.61,0,9.22-.48,13.73-0.48a12.14,12.14,0,0,1,5.86,1.25c0.19,2.21.67,5.18,0.67,6.91,0,2.11-2.11,2.11-3.74,2.11-4.22,0-8.45.19-12.58,0.48,0,6.14-1,12.19-1,18.33a7.24,7.24,0,0,0,.1,1.44c3.07-.29,6.14-0.77,9.22-0.77,1.15,0,2.3.19,3.36,0.19a50.64,50.64,0,0,1,1.54,7.39c0,3-9.5,2.11-13.82,2.4v0.87c-0.1,2.4.48,4.8,0.48,7.2a33.5,33.5,0,0,0,.48,6.91,71.51,71.51,0,0,0,11,.58C334,326.34,334.79,326.24,335.47,326.24Z" transform="translate(-0.01 0.02)"/><path class="cls-1" d="M369,307.71c0-2-.19-4-0.19-6.14,0-4.32.29-8.64,0.29-13.05v-6.43c0-3.36.1-7.1,0.77-9.5a13.46,13.46,0,0,1,5.47-1h1.44c5.38,0,14.21.58,17.57,5.28,2.78,4.13,2.78,11,2.78,15.84,0,3.84-.38,7.58-0.38,11.42,0,3,.1,5.76.1,8.74s0,10.17-.77,12.77c-3.17,10-13.25,10.75-22.65,10.75-5.18,0-4.8-2.21-4.8-5.86,0-4.32.19-8.64,0.19-13C368.78,314.24,369,311,369,307.71Zm8.83,6.34c0,4.51-.38,9-0.38,13.63h0.48a30.88,30.88,0,0,0,6.53-1.06c4.42-1,3.65-11.13,3.74-16.8s0.48-11.52.48-17.18c0-6.14.19-11.42-7.39-11.42-1,0-1.92,0-2.88.1-0.19,6.72-.86,13.54-0.86,20.16C377.52,305.7,377.8,309.92,377.8,314.05Z" transform="translate(-0.01 0.02)"/><path class="cls-1" d="M426.76,326.24c5.09,0,3.55,6.43,3.84,9.89-3.26.29-6.62,0.38-10,.38-1.73,0-13.63-.19-14.69-0.77-1.54-3.55-1.63-10.08-1.63-14.11,0-16.13-.38-32.45-0.38-48.57,1.54-1.54,3.46-1.54,5.47-1.54,4.61,0,9.22-.48,13.73-0.48a12.14,12.14,0,0,1,5.86,1.25c0.19,2.21.67,5.18,0.67,6.91,0,2.11-2.11,2.11-3.74,2.11-4.22,0-8.45.19-12.58,0.48,0,6.14-1,12.19-1,18.33a7.24,7.24,0,0,0,.1,1.44c3.07-.29,6.14-0.77,9.22-0.77,1.15,0,2.3.19,3.36,0.19a50.64,50.64,0,0,1,1.54,7.39c0,3-9.5,2.11-13.82,2.4v0.87c-0.1,2.4.48,4.8,0.48,7.2a33.5,33.5,0,0,0,.48,6.91,71.51,71.51,0,0,0,11,.58C425.32,326.34,426.09,326.24,426.76,326.24Z" transform="translate(-0.01 0.02)"/><path class="cls-1" d="M447,318.85c-1.06-5.09-2.88-9.89-4.13-14.88a213.46,213.46,0,0,1-4.42-23.13l-0.86-8.45c2.4,0,4.7-.77,7-0.77l1,0.1c1.25,1.34,1.25,5.28,1.44,7,0.48,6.33,2,13.25,3.26,19.49,0.77,4.13,1.44,8.16,2.4,12.19,1.34-11.9,3.94-22.65,5.86-33.89a9.9,9.9,0,0,1,1.63-4.8,5.49,5.49,0,0,0,1.25.1c1.25,0,2.5-.19,3.84-0.19,1.82,0,3.07,0,3.07,2.69,0,1.82-.86,3.65-1.34,5.28v-0.1c-2.4,11.52-4.13,23.23-6.14,34.75-3,20.35-3.17,21.21-3.55,22.08h-0.58a36.05,36.05,0,0,1-5.57-.38c-2.11-5.47-2.5-11.42-4-17.09H447Z" transform="translate(-0.01 0.02)"/><path class="cls-1" d="M498.18,326.24c5.09,0,3.55,6.43,3.84,9.89-3.26.29-6.62,0.38-10,.38-1.73,0-13.63-.19-14.69-0.77-1.54-3.55-1.63-10.08-1.63-14.11,0-16.13-.38-32.45-0.38-48.57,1.54-1.54,3.46-1.54,5.47-1.54,4.61,0,9.22-.48,13.73-0.48a12.14,12.14,0,0,1,5.86,1.25c0.19,2.21.67,5.18,0.67,6.91,0,2.11-2.11,2.11-3.74,2.11-4.22,0-8.45.19-12.58,0.48,0,6.14-1,12.19-1,18.33a7.24,7.24,0,0,0,.1,1.44c3.07-.29,6.14-0.77,9.22-0.77,1.15,0,2.3.19,3.36,0.19a50.64,50.64,0,0,1,1.54,7.39c0,3-9.5,2.11-13.82,2.4v0.87c-0.1,2.4.48,4.8,0.48,7.2a33.5,33.5,0,0,0,.48,6.91,71.51,71.51,0,0,0,11,.58C496.74,326.34,497.51,326.24,498.18,326.24Z" transform="translate(-0.01 0.02)"/><path class="cls-1" d="M532.46,333.15v0.38c-0.29,3-6.72,2.59-13.82,2.59-4.22,0-7.87.86-8.64-2.69h0.1c-1.25-3.74-1.34-24.67-1.34-35.81,0-8.45.77-9.79,0.77-14.88,0-1.15-.1-2.3-0.1-3.65,0-2.21.48-4,3.07-4,3.17,0,5.86.48,5.86,5.38,0,2.21-.48,4.51-0.48,6.72,0,3.26.29,6.43,0.29,9.7,0,1.63,0,3.26-.1,4.9v-0.1c-0.1,4.51-.19,8.93-0.19,13.44,0,3.84-.1,8.93.48,12.19,3.26,1,8.83.38,13.25,1.54A13.31,13.31,0,0,1,532.46,333.15Z" transform="translate(-0.01 0.02)"/><path class="cls-1" d="M564.14,322.21c0,3.17-.29,7.2-2.78,9.5h0.1l-0.38.29c-4.32,3-4.32,4.42-10.56,4.42a15,15,0,0,1-9.7-3.46l0.1,0.1a11.27,11.27,0,0,1-3.46-5.18l0.1,0.1-0.29-.67c-3.46-8.83-3-26.88-3-32.25,0-14,5.86-22,16.8-22,3.46,0,7.2,2.69,9.41,5.18h-0.1c3.55,3.17,3.94,9.41,3.94,13.92C564.33,302.15,564.14,312.23,564.14,322.21ZM547.72,326a6.23,6.23,0,0,0,3.65,1.06c1,0,2.21-.1,2.69-1.15,1-2.4,2.11-16,2.11-19.29,0-2.88-.29-5.86-0.29-8.83,0-1.92.19-3.74,0.19-5.66,0-3.65-.67-8.93-5.38-8.93-7.2,0-6.53,14.4-6.53,20.73,0,3.65.48,7.1,0.48,10.65s0.29,8.93,3.07,11.52V326Z" transform="translate(-0.01 0.02)"/><path class="cls-1" d="M577.77,316c0,2.3.19,4.51,0.19,6.62q0,5.62-.29,11.23c-0.1,2.3-1.06,2.4-4.32,2.4-2.11,0-4.32-.29-4.32-2.78,0-14.78,1.25-29.57,1.25-44.35,0-3.55-.19-7.2-0.19-10.75,0-6,5.47-5.47,11.52-5.47,15.36,0,15.84,11.52,15.84,24.48,0,8.45-1.06,16.8-13,16.8-2.21,0-4.32-.38-6.62-0.38A17.7,17.7,0,0,0,577.77,316Zm9.7-32.64h0.1a10.73,10.73,0,0,0-6.34-1.73c-1.06,0-2.21.19-3.26,0.29,0.1,3.55.19,7,.19,10.46,0,4.7-.1,9.31-0.1,13.82h0.86c1.82,0,5.57.1,7-.67,2.59-1.34,3.26-8.25,3.26-10.75C589.19,291.11,588.62,284.39,587.46,283.33Z" transform="translate(-0.01 0.02)"/><path class="cls-1" d="M627.11,326.24c5.09,0,3.55,6.43,3.84,9.89-3.26.29-6.62,0.38-10,.38-1.73,0-13.63-.19-14.69-0.77-1.54-3.55-1.63-10.08-1.63-14.11,0-16.13-.38-32.45-0.38-48.57,1.54-1.54,3.46-1.54,5.47-1.54,4.61,0,9.22-.48,13.73-0.48a12.14,12.14,0,0,1,5.86,1.25c0.19,2.21.67,5.18,0.67,6.91,0,2.11-2.11,2.11-3.74,2.11-4.22,0-8.45.19-12.58,0.48,0,6.14-1,12.19-1,18.33a7.24,7.24,0,0,0,.1,1.44c3.07-.29,6.14-0.77,9.22-0.77,1.15,0,2.3.19,3.36,0.19a50.64,50.64,0,0,1,1.54,7.39c0,3-9.5,2.11-13.82,2.4v0.87c-0.1,2.4.48,4.8,0.48,7.2a33.5,33.5,0,0,0,.48,6.91,71.51,71.51,0,0,0,11,.58C625.67,326.34,626.44,326.24,627.11,326.24Z" transform="translate(-0.01 0.02)"/><path class="cls-1" d="M643.72,335.26a2.44,2.44,0,0,1-1.15-.19l0.38,0.19h-0.48c-1.73,0-4.32.1-4.8-2.11v0.1a41.93,41.93,0,0,1-.29-5.66c0-2.78.1-5.76,0.1-7.29,0-5.18.1-45.69,2.11-47.61,1.15-1.06,6.72-1.25,8.16-1.25,3.84,0,11.33.67,14.21,3.74,3.46,3.65,4.51,17.18,4.51,22.27,0,4.7-.58,9.79-4.22,13.15a39.33,39.33,0,0,1,2.3,3.74c1.54,3.55,1.54,15.26,1.54,19.49v1.44a6.48,6.48,0,0,1-3.84,1.15c-4.42,0-6.34.38-6.34-5.18,0-2.4.29-4.9,0.29-7.29,0-4,.77-10-5.18-10a20.17,20.17,0,0,0-4.13.48c0,3.46-.38,18.62-2.3,20.73A2.67,2.67,0,0,1,643.72,335.26Zm3.07-54.62c0,4.8-.19,9.6-0.19,14.3v5.18c0,1.63.1,3.26,0.19,5h3.36c3.26,0,7.58-.48,7.87-4.7l-0.1.1a111.73,111.73,0,0,0-.67-15.07c-0.67-4.13-4.51-5-8.16-5A9.33,9.33,0,0,0,646.79,280.65Z" transform="translate(-0.01 0.02)"/><path class="cls-1" d="M705.06,316.83a17.67,17.67,0,0,1,.29,3.17c0,11.23-7.39,16.61-16.22,16.61-7.2,0-14.59-6.14-14.59-13.73,0-3.74,2.69-3.94,5.66-3.94a8.47,8.47,0,0,1,4.22,1.15c0,3.07,1.73,7.2,5.38,7.2a5.68,5.68,0,0,0,5.76-5.86c0-6.14-8.83-14.21-13.25-17.86l0.1,0.1c-5.76-4.7-8.45-8.16-8.45-15.84,0-9,6.34-15.65,15.55-15.65,4.32,0,9.89,2.21,11.81,6.33,1,2.11,2.78,5.28,2.78,7.68,0,2.88-4.32,3.36-6.53,3.36-6.14,0-1.54-8.16-9.7-8.16-1.06,0-2.3,1.06-3,1.82H685a8.65,8.65,0,0,0-2.21,5.57,7.39,7.39,0,0,0,.19,1.44c1.15,6.24,19.39,15.36,22.08,26.69v-0.1Z" transform="translate(-0.01 0.02)"/><path class="cls-1" d="M763.53,324.8a4.29,4.29,0,0,1-1.15,2.5c-3,4.22-6.82,9.12-12.48,9.12-11.42,0-15.74-10.27-15.74-19.49,0-4.13.19-8.16,0.19-12.29,0-10.66-.19-31.2,14.5-32.16h0.58c6.34,0,14.21,6,14.21,12.86,0,0.86-6,2.3-7,2.3-3.55,0-2.3-6.14-6.72-6.14-5.18,0-6.14,9-6.24,13q-0.29,10.8-.29,21.6c0,3.55.58,11.33,5.66,11.33,3.94,0,3-5.76,7.49-5.76C758.44,321.63,763.53,322.21,763.53,324.8Z" transform="translate(-0.01 0.02)"/><path class="cls-1" d="M800.29,322.21c0,3.17-.29,7.2-2.78,9.5h0.1l-0.38.29c-4.32,3-4.32,4.42-10.56,4.42A15,15,0,0,1,777,333l0.1,0.1a11.27,11.27,0,0,1-3.46-5.18l0.1,0.1-0.29-.67c-3.46-8.83-3-26.88-3-32.25,0-14,5.86-22,16.8-22,3.46,0,7.2,2.69,9.41,5.18h-0.1c3.55,3.17,3.94,9.41,3.94,13.92C800.48,302.15,800.29,312.23,800.29,322.21ZM783.88,326a6.23,6.23,0,0,0,3.65,1.06c1,0,2.21-.1,2.69-1.15,1-2.4,2.11-16,2.11-19.29,0-2.88-.29-5.86-0.29-8.83,0-1.92.19-3.74,0.19-5.66,0-3.65-.67-8.93-5.38-8.93-7.2,0-6.53,14.4-6.53,20.73,0,3.65.48,7.1,0.48,10.65s0.29,8.93,3.07,11.52V326Z" transform="translate(-0.01 0.02)"/><path class="cls-1" d="M818.53,302.72c0,2.3-.29,4.61-0.48,6.91-0.67,7-1.06,14.59-1.06,21,0,1.25.1,2.5,0.19,3.65-0.67,2-3.46,2.11-5.47,2.11-2.4,0-3.65-.29-4.51-2.5,0.86-1.63,1-15.26,1-17.85,0-12.86,1-25.73,1-38.49,0-4.32,3.17-4.51,5.76-4.51h2.4c2.21,2.59,4.7,15.46,6.91,20.64,1.92,4.51,3.26,8.93,5.47,13.25,0-1.92-.19-3.74-0.19-5.66,0-7.78,1.25-15.46,1.25-23.23,0-1.06-.38-2.11-0.38-3.26a7.67,7.67,0,0,1,.77-3.17c2.78,0.67,9.89-.48,9.89,3.55,0,1.92-.38,4-0.48,6-0.58,14.88-1.63,29.37-1.92,45.21v3.74c0,5.38-1.34,6.62-5.09,6.62-1.34,0-3.17-.19-4.13-1.15-0.67-.86-9.22-25.82-9.79-28.41Z" transform="translate(-0.01 0.02)"/><path class="cls-1" d="M868.74,273.73c0,1.73.19,3.46,0.19,5.28,0,2.3-1.15,3.07-3.36,3.07-2.5,0-4.9-.29-7.39-0.29-1,0-2,.1-3,0.19v16.32c0,1.82.1,3.65,0.19,5.38,1.73,0,3.55-.29,5.28-0.29a11.8,11.8,0,0,1,3.55.77,4.67,4.67,0,0,0-.1,1.15c0,1.15.19,2.21,0.19,3.26,0,3.55-1.44,3.46-3.94,3.46-1.15,0-2.21-.1-3.36-0.1a8.81,8.81,0,0,0-1.54.1v21.79c0,3.07-3.36,2.5-5.47,2.5-1.06,0-2.11-.1-3.07-0.19-1.25-7.58-.77-17.09-0.77-25.63,0-6,.1-12.19.1-18.24,0-2.69-.1-5.66-0.1-8.64a45,45,0,0,1,.86-10.27c4.61-.58,9.31-0.38,13.92-0.58,1.73-.1,3.36-0.48,5-0.48a4.82,4.82,0,0,1,2.3.58Z" transform="translate(-0.01 0.02)"/><path class="cls-1" d="M898.4,326.24c5.09,0,3.55,6.43,3.84,9.89-3.26.29-6.62,0.38-10,.38-1.73,0-13.63-.19-14.69-0.77-1.54-3.55-1.63-10.08-1.63-14.11,0-16.13-.38-32.45-0.38-48.57,1.54-1.54,3.46-1.54,5.47-1.54,4.61,0,9.22-.48,13.73-0.48a12.14,12.14,0,0,1,5.86,1.25c0.19,2.21.67,5.18,0.67,6.91,0,2.11-2.11,2.11-3.74,2.11-4.22,0-8.45.19-12.58,0.48,0,6.14-1,12.19-1,18.33a7.24,7.24,0,0,0,.1,1.44c3.07-.29,6.14-0.77,9.22-0.77,1.15,0,2.3.19,3.36,0.19a50.64,50.64,0,0,1,1.54,7.39c0,3-9.5,2.11-13.82,2.4v0.87c-0.1,2.4.48,4.8,0.48,7.2a33.5,33.5,0,0,0,.48,6.91,71.51,71.51,0,0,0,11,.58C897,326.34,897.73,326.24,898.4,326.24Z" transform="translate(-0.01 0.02)"/><path class="cls-1" d="M915,335.26a2.44,2.44,0,0,1-1.15-.19l0.38,0.19h-0.48c-1.73,0-4.32.1-4.8-2.11v0.1a41.93,41.93,0,0,1-.29-5.66c0-2.78.1-5.76,0.1-7.29,0-5.18.1-45.69,2.11-47.61,1.15-1.06,6.72-1.25,8.16-1.25,3.84,0,11.33.67,14.21,3.74,3.46,3.65,4.51,17.18,4.51,22.27,0,4.7-.58,9.79-4.22,13.15a39.33,39.33,0,0,1,2.3,3.74c1.54,3.55,1.54,15.26,1.54,19.49v1.44a6.48,6.48,0,0,1-3.84,1.15c-4.42,0-6.34.38-6.34-5.18,0-2.4.29-4.9,0.29-7.29,0-4,.77-10-5.18-10a20.17,20.17,0,0,0-4.13.48c0,3.46-.38,18.62-2.3,20.73A2.67,2.67,0,0,1,915,335.26Zm3.07-54.62c0,4.8-.19,9.6-0.19,14.3v5.18c0,1.63.1,3.26,0.19,5h3.36c3.26,0,7.58-.48,7.87-4.7l-0.1.1a111.73,111.73,0,0,0-.67-15.07c-0.67-4.13-4.51-5-8.16-5A9.33,9.33,0,0,0,918.08,280.65Z" transform="translate(-0.01 0.02)"/><path class="cls-1" d="M967.33,326.24c5.09,0,3.55,6.43,3.84,9.89-3.26.29-6.62,0.38-10,.38-1.73,0-13.63-.19-14.69-0.77-1.54-3.55-1.63-10.08-1.63-14.11,0-16.13-.38-32.45-0.38-48.57,1.54-1.54,3.46-1.54,5.47-1.54,4.61,0,9.22-.48,13.73-0.48a12.14,12.14,0,0,1,5.86,1.25c0.19,2.21.67,5.18,0.67,6.91,0,2.11-2.11,2.11-3.74,2.11-4.22,0-8.45.19-12.58,0.48,0,6.14-1,12.19-1,18.33a7.24,7.24,0,0,0,.1,1.44c3.07-.29,6.14-0.77,9.22-0.77,1.15,0,2.3.19,3.36,0.19a50.64,50.64,0,0,1,1.54,7.39c0,3-9.5,2.11-13.82,2.4v0.87c-0.1,2.4.48,4.8,0.48,7.2a33.5,33.5,0,0,0,.48,6.91,71.51,71.51,0,0,0,11,.58C965.89,326.34,966.66,326.24,967.33,326.24Z" transform="translate(-0.01 0.02)"/><path class="cls-1" d="M988.93,302.72c0,2.3-.29,4.61-0.48,6.91-0.67,7-1.06,14.59-1.06,21,0,1.25.1,2.5,0.19,3.65-0.67,2-3.46,2.11-5.47,2.11-2.4,0-3.65-.29-4.51-2.5,0.86-1.63,1-15.26,1-17.85,0-12.86,1-25.73,1-38.49,0-4.32,3.17-4.51,5.76-4.51h2.4c2.21,2.59,4.7,15.46,6.91,20.64,1.92,4.51,3.26,8.93,5.47,13.25,0-1.92-.19-3.74-0.19-5.66,0-7.78,1.25-15.46,1.25-23.23,0-1.06-.38-2.11-0.38-3.26a7.67,7.67,0,0,1,.77-3.17c2.78,0.67,9.89-.48,9.89,3.55,0,1.92-.38,4-0.48,6-0.58,14.88-1.63,29.37-1.92,45.21v3.74c0,5.38-1.34,6.62-5.09,6.62-1.34,0-3.17-.19-4.13-1.15-0.67-.86-9.22-25.82-9.79-28.41Z" transform="translate(-0.01 0.02)"/><path class="cls-1" d="M1046,324.8a4.29,4.29,0,0,1-1.15,2.5c-3,4.22-6.82,9.12-12.48,9.12-11.42,0-15.74-10.27-15.74-19.49,0-4.13.19-8.16,0.19-12.29,0-10.66-.19-31.2,14.5-32.16h0.58c6.34,0,14.21,6,14.21,12.86,0,0.86-6,2.3-7,2.3-3.55,0-2.3-6.14-6.72-6.14-5.18,0-6.14,9-6.24,13q-0.29,10.8-.29,21.6c0,3.55.58,11.33,5.66,11.33,3.94,0,3-5.76,7.49-5.76C1041,321.63,1046,322.21,1046,324.8Z" transform="translate(-0.01 0.02)"/><path class="cls-1" d="M1075.9,326.24c5.09,0,3.55,6.43,3.84,9.89-3.26.29-6.62,0.38-10,.38-1.73,0-13.63-.19-14.69-0.77-1.54-3.55-1.63-10.08-1.63-14.11,0-16.13-.38-32.45-0.38-48.57,1.54-1.54,3.46-1.54,5.47-1.54,4.61,0,9.22-.48,13.73-0.48a12.14,12.14,0,0,1,5.86,1.25c0.19,2.21.67,5.18,0.67,6.91,0,2.11-2.11,2.11-3.74,2.11-4.22,0-8.45.19-12.58,0.48,0,6.14-1,12.19-1,18.33a7.24,7.24,0,0,0,.1,1.44c3.07-.29,6.14-0.77,9.22-0.77,1.15,0,2.3.19,3.36,0.19a50.64,50.64,0,0,1,1.54,7.39c0,3-9.5,2.11-13.82,2.4v0.87c-0.1,2.4.48,4.8,0.48,7.2a33.5,33.5,0,0,0,.48,6.91,71.51,71.51,0,0,0,11,.58C1074.46,326.34,1075.23,326.24,1075.9,326.24Z" transform="translate(-0.01 0.02)"/><path class="cls-1" d="M381.26,393.2a17.68,17.68,0,0,1,.29,3.17c0,11.23-7.39,16.61-16.22,16.61-7.2,0-14.59-6.14-14.59-13.73,0-3.74,2.69-3.94,5.66-3.94a8.47,8.47,0,0,1,4.22,1.15c0,3.07,1.73,7.2,5.38,7.2a5.68,5.68,0,0,0,5.76-5.86c0-6.14-8.83-14.21-13.25-17.85l0.1,0.1c-5.76-4.7-8.45-8.16-8.45-15.84,0-9,6.34-15.65,15.55-15.65,4.32,0,9.89,2.21,11.81,6.33,1,2.11,2.78,5.28,2.78,7.68,0,2.88-4.32,3.36-6.53,3.36-6.14,0-1.54-8.16-9.7-8.16-1.06,0-2.3,1.05-3,1.82h0.1a8.65,8.65,0,0,0-2.21,5.57,7.38,7.38,0,0,0,.19,1.44c1.15,6.24,19.39,15.36,22.08,26.69v-0.1Z" transform="translate(-0.01 0.02)"/><path class="cls-1" d="M419.18,409.23a5.74,5.74,0,0,1-1.34,3.46c-2.4-.19-5,0.29-7.1-1-1.06-3.84-2.88-11.52-3.17-15.36-1.44-.1-2.78-0.19-4.22-0.19a20.93,20.93,0,0,0-3.46.19c-2.21,5.57-2.3,13.82-4.51,16.22-1.92,0-7.2,1.25-7.2-2.69a29.84,29.84,0,0,1,2-10V400a43.85,43.85,0,0,0,1.34-5.09l4.22-21.69c1.15-6.14,3.07-15.74,5.09-21.6,0.58-1.63,1.34-2.3,3.07-2.3,1,0,1.92.38,2.88,0.38a6.35,6.35,0,0,0,1.34-.1c1.73,2.69,2.5,12,7.78,42.53V392C417,396.08,419.18,405.39,419.18,409.23Zm-13-21.5c-0.38-4.42-.86-14.11-1.82-14.11L401.61,388C403.15,388,404.68,387.73,406.22,387.73Z" transform="translate(-0.01 0.02)"/><path class="cls-1" d="M439.15,379.09c0,2.3-.29,4.61-0.48,6.91-0.67,7-1.06,14.59-1.06,21,0,1.25.1,2.5,0.19,3.65-0.67,2-3.46,2.11-5.47,2.11-2.4,0-3.65-.29-4.51-2.5,0.86-1.63,1-15.26,1-17.86,0-12.86,1-25.73,1-38.49,0-4.32,3.17-4.51,5.76-4.51h2.4c2.21,2.59,4.7,15.46,6.91,20.64,1.92,4.51,3.26,8.93,5.47,13.25,0-1.92-.19-3.74-0.19-5.66,0-7.78,1.25-15.46,1.25-23.23,0-1.06-.38-2.11-0.38-3.26a7.67,7.67,0,0,1,.77-3.17c2.78,0.67,9.89-.48,9.89,3.55,0,1.92-.38,4-0.48,6-0.58,14.88-1.63,29.37-1.92,45.21v3.74c0,5.38-1.34,6.62-5.09,6.62-1.34,0-3.17-.19-4.13-1.15-0.67-.86-9.22-25.82-9.79-28.41Z" transform="translate(-0.01 0.02)"/><path class="cls-1" d="M512.11,350.1c0,1.73.19,3.46,0.19,5.28,0,2.3-1.15,3.07-3.36,3.07-2.5,0-4.9-.29-7.39-0.29-1,0-2,.1-3,0.19v16.32c0,1.82.1,3.65,0.19,5.38,1.73,0,3.55-.29,5.28-0.29a11.77,11.77,0,0,1,3.55.77,4.66,4.66,0,0,0-.1,1.15c0,1.15.19,2.21,0.19,3.26,0,3.55-1.44,3.46-3.94,3.46-1.15,0-2.21-.1-3.36-0.1a8.81,8.81,0,0,0-1.54.1v21.79c0,3.07-3.36,2.5-5.47,2.5-1.06,0-2.11-.1-3.07-0.19-1.25-7.58-.77-17.09-0.77-25.63,0-6,.1-12.19.1-18.24,0-2.69-.1-5.66-0.1-8.64a45,45,0,0,1,.86-10.27c4.61-.58,9.31-0.38,13.92-0.58,1.73-.1,3.36-0.48,5-0.48a4.83,4.83,0,0,1,2.3.58Z" transform="translate(-0.01 0.02)"/><path class="cls-1" d="M525.16,411.63a2.44,2.44,0,0,1-1.15-.19l0.38,0.19h-0.48c-1.73,0-4.32.1-4.8-2.11v0.1a41.93,41.93,0,0,1-.29-5.66c0-2.78.1-5.76,0.1-7.29,0-5.18.1-45.69,2.11-47.61,1.15-1.06,6.72-1.25,8.16-1.25,3.84,0,11.33.67,14.21,3.74,3.46,3.65,4.51,17.18,4.51,22.27,0,4.7-.58,9.79-4.22,13.15a39.45,39.45,0,0,1,2.3,3.74c1.54,3.55,1.54,15.26,1.54,19.49v1.44a6.49,6.49,0,0,1-3.84,1.15c-4.42,0-6.34.38-6.34-5.18,0-2.4.29-4.9,0.29-7.3,0-4,.77-10-5.18-10a20.1,20.1,0,0,0-4.13.48c0,3.46-.38,18.62-2.3,20.73A2.67,2.67,0,0,1,525.16,411.63ZM528.23,357c0,4.8-.19,9.6-0.19,14.3v5.18c0,1.63.1,3.26,0.19,5h3.36c3.26,0,7.58-.48,7.87-4.7l-0.1.1a111.71,111.71,0,0,0-.67-15.07c-0.67-4.13-4.51-5-8.16-5A9.33,9.33,0,0,0,528.23,357Z" transform="translate(-0.01 0.02)"/><path class="cls-1" d="M586.22,409.23a5.74,5.74,0,0,1-1.34,3.46c-2.4-.19-5,0.29-7.1-1-1.06-3.84-2.88-11.52-3.17-15.36-1.44-.1-2.78-0.19-4.22-0.19a20.93,20.93,0,0,0-3.46.19c-2.21,5.57-2.3,13.82-4.51,16.22-1.92,0-7.2,1.25-7.2-2.69a29.84,29.84,0,0,1,2-10V400a43.85,43.85,0,0,0,1.34-5.09l4.22-21.69c1.15-6.14,3.07-15.74,5.09-21.6,0.58-1.63,1.34-2.3,3.07-2.3,1,0,1.92.38,2.88,0.38a6.35,6.35,0,0,0,1.34-.1c1.73,2.69,2.5,12,7.78,42.53V392C584,396.08,586.22,405.39,586.22,409.23Zm-13-21.5c-0.38-4.42-.86-14.11-1.82-14.11L568.65,388C570.19,388,571.72,387.73,573.26,387.73Z" transform="translate(-0.01 0.02)"/><path class="cls-1" d="M606.19,379.09c0,2.3-.29,4.61-0.48,6.91-0.67,7-1.06,14.59-1.06,21,0,1.25.1,2.5,0.19,3.65-0.67,2-3.46,2.11-5.47,2.11-2.4,0-3.65-.29-4.51-2.5,0.86-1.63,1-15.26,1-17.86,0-12.86,1-25.73,1-38.49,0-4.32,3.17-4.51,5.76-4.51h2.4c2.21,2.59,4.7,15.46,6.91,20.64,1.92,4.51,3.26,8.93,5.47,13.25,0-1.92-.19-3.74-0.19-5.66,0-7.78,1.25-15.46,1.25-23.23,0-1.06-.38-2.11-0.38-3.26a7.68,7.68,0,0,1,.77-3.17c2.78,0.67,9.89-.48,9.89,3.55,0,1.92-.38,4-0.48,6-0.58,14.88-1.63,29.37-1.92,45.21v3.74c0,5.38-1.34,6.62-5.09,6.62-1.34,0-3.17-.19-4.13-1.15-0.67-.86-9.22-25.82-9.79-28.41Z" transform="translate(-0.01 0.02)"/><path class="cls-1" d="M663.3,401.17a4.29,4.29,0,0,1-1.15,2.5c-3,4.22-6.82,9.12-12.48,9.12-11.42,0-15.74-10.27-15.74-19.49,0-4.13.19-8.16,0.19-12.29,0-10.66-.19-31.2,14.5-32.16h0.58c6.34,0,14.21,6,14.21,12.86,0,0.86-6,2.3-7,2.3-3.55,0-2.3-6.14-6.72-6.14-5.18,0-6.14,9-6.24,13q-0.29,10.8-.29,21.6c0,3.55.58,11.33,5.66,11.33,3.94,0,3-5.76,7.49-5.76C658.22,398,663.3,398.58,663.3,401.17Z" transform="translate(-0.01 0.02)"/><path class="cls-1" d="M679.43,360.95v5.66c0,5.09-.67,10.08-0.67,15.17,0,4.32.38,8.54,0.38,12.86,0,2-.19,4.13-0.19,6.24s0.19,4.32.19,6.53a11.51,11.51,0,0,1-.38,3.55c-1.92,1.34-5.18,1.54-7.49,1.63a6,6,0,0,1-1.92-4.8c0-8.35,1-16.61,1-25,0-9.7-.86-19.49-0.86-29.09,0-3.94,2-4.32,4.8-4.32s5.66-.38,5.66,2.69C679.91,355,679.43,358,679.43,360.95Z" transform="translate(-0.01 0.02)"/><path class="cls-1" d="M718.79,393.2a17.68,17.68,0,0,1,.29,3.17c0,11.23-7.39,16.61-16.22,16.61-7.2,0-14.59-6.14-14.59-13.73,0-3.74,2.69-3.94,5.66-3.94a8.47,8.47,0,0,1,4.22,1.15c0,3.07,1.73,7.2,5.38,7.2a5.68,5.68,0,0,0,5.76-5.86c0-6.14-8.83-14.21-13.25-17.85l0.1,0.1c-5.76-4.7-8.45-8.16-8.45-15.84,0-9,6.34-15.65,15.55-15.65,4.32,0,9.89,2.21,11.81,6.33,1,2.11,2.78,5.28,2.78,7.68,0,2.88-4.32,3.36-6.53,3.36-6.14,0-1.54-8.16-9.7-8.16-1.06,0-2.3,1.05-3,1.82h0.1a8.65,8.65,0,0,0-2.21,5.57,7.38,7.38,0,0,0,.19,1.44c1.15,6.24,19.39,15.36,22.08,26.69v-0.1Z" transform="translate(-0.01 0.02)"/><path class="cls-1" d="M754.5,401.17a4.29,4.29,0,0,1-1.15,2.5c-3,4.22-6.82,9.12-12.48,9.12-11.42,0-15.74-10.27-15.74-19.49,0-4.13.19-8.16,0.19-12.29,0-10.66-.19-31.2,14.5-32.16h0.58c6.34,0,14.21,6,14.21,12.86,0,0.86-6,2.3-7,2.3-3.55,0-2.3-6.14-6.72-6.14-5.18,0-6.14,9-6.24,13q-0.29,10.8-.29,21.6c0,3.55.58,11.33,5.66,11.33,3.94,0,3-5.76,7.49-5.76C749.41,398,754.5,398.58,754.5,401.17Z" transform="translate(-0.01 0.02)"/><path class="cls-1" d="M791.27,398.58c0,3.17-.29,7.2-2.78,9.5h0.1l-0.38.29c-4.32,3-4.32,4.42-10.56,4.42a15,15,0,0,1-9.7-3.46l0.1,0.1a11.26,11.26,0,0,1-3.46-5.18l0.1,0.1-0.29-.67c-3.46-8.83-3-26.88-3-32.25,0-14,5.86-22,16.8-22,3.46,0,7.2,2.69,9.41,5.18h-0.1c3.55,3.17,3.94,9.41,3.94,13.92C791.46,378.51,791.27,388.59,791.27,398.58Zm-16.41,3.84a6.22,6.22,0,0,0,3.65,1.05c1,0,2.21-.1,2.69-1.15,1-2.4,2.11-16,2.11-19.29,0-2.88-.29-5.86-0.29-8.83,0-1.92.19-3.74,0.19-5.66,0-3.65-.67-8.93-5.38-8.93-7.2,0-6.53,14.4-6.53,20.73,0,3.65.48,7.1,0.48,10.66s0.29,8.93,3.07,11.52v-0.1Z" transform="translate(-0.01 0.02)"/><path class="cls-1" d="M841.38,366.9c0-3.26-1.82-8.83-5.86-8.83-2.3,0-3.84,3-4.32,4.8-0.86,3.07.58,5.38-5.38,5.38-3.74,0-4.8-.38-4.8-4.32a14.39,14.39,0,0,1,14.78-14.59c8.83,0,15.26,7.39,15.26,15.93,0,8.83-5.09,17.09-10.56,23.62v-0.1a58,58,0,0,0-6.34,8.73h0.1a15.55,15.55,0,0,0-2.21,5.38,23.87,23.87,0,0,0,4.51.38c3,0,6-.48,8.93-0.48,3.55,0,5.57.19,5.57,4.7V410c0,2.59-12.77,3.26-16,3.26-1.92,0-11.71,0-12.19-2.69a18.11,18.11,0,0,1-.29-3.94C822.57,388,841.38,377.46,841.38,366.9Z" transform="translate(-0.01 0.02)"/><path class="cls-1" d="M875.84,412.69c-6,0-13-3.17-14.88-9.31-1-3.17-1-6.62-1.34-9.89a206.47,206.47,0,0,1-1.44-24.38c0-13.63,2.3-20,17.28-20a10,10,0,0,1,6.62,1.92c9.31,4.32,9.22,16.42,9.5,25.25,0.19,4.9,1,9.89,1,14.78C892.55,401.07,890.92,412.69,875.84,412.69Zm-6.43-12.09c2.5,1.82,4.22,2.78,7.49,2.78,4.7,0,5.66-3.46,5.66-7.39a111.85,111.85,0,0,0-.48-12.67c-0.67-6.24,0-12.48-1.06-18.62v0.1c-0.38-2.3-.38-3.65-2.21-5.18h-1a24.86,24.86,0,0,0-8.06,1.15c-2,2.4-1.92,8.74-1.92,11.81C867.88,376.31,868.74,398.67,869.41,400.59Z" transform="translate(-0.01 0.02)"/><path class="cls-1" d="M913.09,411.63a10.83,10.83,0,0,1-4.22,1,8.73,8.73,0,0,1-3.74-.77c-0.19-4.51-.29-11.81-0.29-19.68,0-12.29.29-25.82,0.86-31.1-0.58,0-3.65,6.24-4.13,6l0.1,0.1a18.84,18.84,0,0,1-4.32-2.88v-0.38c0-2.88,6.34-10.94,7.49-14a4.82,4.82,0,0,1,3.07-.86c2.11,0,5.47,0,5.47,3.07,0,8.45-.58,16.8-0.58,25.15C912.8,388.69,913.09,400.21,913.09,411.63Z" transform="translate(-0.01 0.02)"/><path class="cls-1" d="M930.18,369.3a8.89,8.89,0,0,1,4.9-1.25c11.81,0,14.88,11.71,14.88,20.16,0,9.21-4.61,24.57-15.65,24.57-15.55,0-14.69-20.73-14.69-34.17,0-9.41.38-28.41,13.54-28.41,7.87,0,14.88,5.86,14.88,13.92,0,2.5-2.59,2.69-4.7,2.69-9.79,0-2.3-4.8-8.54-7.1a1.62,1.62,0,0,0-.67-0.1C930.95,359.6,930.37,367.09,930.18,369.3Zm-0.38,23.42c0,2.88.29,9.7,4.32,9.7,4.8,0,5.86-10.27,5.86-13.63,0-2.59-1.15-9.89-4.7-9.89-3.94,0-5.47,7.3-5.47,10.18v3.65Z" transform="translate(-0.01 0.02)"/><path class="cls-1" d="M340.41,92.81c0,6.6-.75,13.5-1,20.25-0.3,7.35.15,14.85-.75,22.2-0.45,3.9-.6,7.8-0.75,11.7-0.3,9.15.45,22-4.35,30.3a20.71,20.71,0,0,1-16.65,9.6c-6.6,0-15-3.6-18.6-9.3-3.9-6.15-4.2-13.95-4.65-21-0.45-5.85-.6-11.4-0.6-16.95,0-3.75,3.6-2.7,6.3-2.7a33.65,33.65,0,0,1,5.4.3l1,1.05c1.5,10.2-1.5,23.55,4.95,32.1h-0.15a4.7,4.7,0,0,0,3.6,1.8c6.45,0,7.65-6.15,9.3-10.95l-0.15.15a53.36,53.36,0,0,0,1.65-12.9c0-15.9-1.35-32.85-1.35-49.35,0-6.75-.45-12.3,8.1-12.3,3.15,0,5.85.45,8.1,2.55A6.74,6.74,0,0,1,340.41,92.81Z" transform="translate(-0.01 0.02)"/><path class="cls-1" d="M400.11,99.71c1.2,14.1,1.65,28.2,1.65,42.3,0,13.35-.75,32.7-13,40.8v-0.15a29.23,29.23,0,0,1-15.75,4.2c-8.25,0-19.5-10-19.5-18.75v-0.9a172.32,172.32,0,0,1-2.4-29.25c0-11.85,1-23.7,1-35.55v-6c0-1.2-.6-2.55-0.6-3.75,0-4.65,3.15-5.1,6.9-5.1a26.63,26.63,0,0,1,7.65,1.5c0.15,1.65.3,3.45,0.3,5.1,0,11.55-1.8,22.8-1.8,34.8,0,6.9,1,34,3.75,39.15a8.64,8.64,0,0,0,7.95,4.35c8.4,0,10.95-7.5,10.95-14.55,0-16.95-.9-33.9-1.5-50.85-0.15-4.8-1-9.75-1-14.4,0-3.15,1-5.55,6.3-5.55a28.41,28.41,0,0,1,7.95,1.5C399.81,91.31,399.81,96.41,400.11,99.71Z" transform="translate(-0.01 0.02)"/><path class="cls-1" d="M422.46,185.06a3.81,3.81,0,0,1-1.8-.3l0.6,0.3h-0.75c-2.7,0-6.75.15-7.5-3.3v0.15a65.54,65.54,0,0,1-.45-8.85c0-4.35.15-9,.15-11.4,0-8.1.15-71.4,3.3-74.4,1.8-1.65,10.5-2,12.75-2,6,0,17.7,1,22.2,5.85,5.4,5.7,7,26.85,7,34.8,0,7.35-.9,15.3-6.6,20.55a61.28,61.28,0,0,1,3.6,5.85c2.4,5.55,2.4,23.85,2.4,30.45v2.25a10.13,10.13,0,0,1-6,1.8c-6.9,0-9.9.6-9.9-8.1,0-3.75.45-7.65,0.45-11.4,0-6.3,1.2-15.6-8.1-15.6a31.51,31.51,0,0,0-6.45.75c0,5.4-.6,29.1-3.6,32.4A4.17,4.17,0,0,1,422.46,185.06Zm4.8-85.35c0,7.5-.3,15-0.3,22.35v8.1c0,2.55.15,5.1,0.3,7.8h5.25c5.1,0,11.85-.75,12.3-7.35l-0.15.15c0-7.8,0-16-1-23.55-1.05-6.45-7-7.8-12.75-7.8A14.62,14.62,0,0,0,427.26,99.71Z" transform="translate(-0.01 0.02)"/><path class="cls-1" d="M497.46,186c-0.75,0-1.65-.15-2.4-0.15-0.15,0-.75.15-0.9,0.15v-0.15a7,7,0,0,1-2.55.45c-2.85,0-2.85-5.4-2.85-12.15,0-3.75.15-7.2,0.15-8.7,0.15-9.3.15-20.85-3.3-28-5.55-11.7-9-24.75-13.5-36.9v0.15c-1.2-2.55-3.6-7.65-3.6-9.15,0-2.85,9.3-4.35,11.4-4.35,0.6,0,2.85.15,3.15,1.05,0.75,2.85,9.15,31.35,9.75,31.95,1.8-4.65,9.6-27.9,9.75-31.65a4.12,4.12,0,0,1,3.75-2.25c4.2,0,9.6-.45,9.6,3.45,0,2.85-1.5,6.75-2.55,9.6l0.15-.3c-1.8,6.6-12.75,40-12.75,45.15,0,1.95-.15,3.9-0.15,5.85,0,3.9.15,7.8,0.15,11.7C500.76,173.51,501.66,186,497.46,186Z" transform="translate(-0.01 0.02)"/><path class="cls-1" d="M612.06,156.26a27.59,27.59,0,0,1,.45,5c0,17.55-11.55,25.95-25.35,25.95-11.25,0-22.8-9.6-22.8-21.45,0-5.85,4.2-6.15,8.85-6.15a13.25,13.25,0,0,1,6.6,1.8c0,4.8,2.7,11.25,8.4,11.25a8.87,8.87,0,0,0,9-9.15c0-9.6-13.8-22.2-20.7-27.9l0.15,0.15c-9-7.35-13.2-12.75-13.2-24.75,0-14.1,9.9-24.45,24.3-24.45,6.75,0,15.45,3.45,18.45,9.9,1.5,3.3,4.35,8.25,4.35,12,0,4.5-6.75,5.25-10.2,5.25-9.6,0-2.4-12.75-15.15-12.75-1.65,0-3.6,1.65-4.65,2.85h0.15a13.52,13.52,0,0,0-3.45,8.7,11.59,11.59,0,0,0,.3,2.25c1.8,9.75,30.3,24,34.5,41.7v-0.15Z" transform="translate(-0.01 0.02)"/><path class="cls-1" d="M657.66,171c7.95,0,5.55,10,6,15.45-5.1.45-10.35,0.6-15.6,0.6-2.7,0-21.3-.3-22.95-1.2-2.4-5.55-2.55-15.75-2.55-22,0-25.2-.6-50.7-0.6-75.9,2.4-2.4,5.4-2.4,8.55-2.4,7.2,0,14.4-.75,21.45-0.75a19,19,0,0,1,9.15,2c0.3,3.45,1,8.1,1,10.8,0,3.3-3.3,3.3-5.85,3.3-6.6,0-13.2.3-19.65,0.75,0,9.6-1.5,19-1.5,28.65a11.36,11.36,0,0,0,.15,2.25c4.8-.45,9.6-1.2,14.4-1.2,1.8,0,3.6.3,5.25,0.3,0.6,1.95,2.4,9.6,2.4,11.55,0,4.65-14.85,3.3-21.6,3.75v1.35c-0.15,3.75.75,7.5,0.75,11.25a52.35,52.35,0,0,0,.75,10.8,111.85,111.85,0,0,0,17.25.9C655.41,171.11,656.61,171,657.66,171Z" transform="translate(-0.01 0.02)"/><path class="cls-1" d="M711.21,181.76v0.6c-0.45,4.65-10.5,4-21.6,4-6.6,0-12.3,1.35-13.5-4.2h0.15c-1.95-5.85-2.1-38.55-2.1-55.95,0-13.2,1.2-15.3,1.2-23.25,0-1.8-.15-3.6-0.15-5.7,0-3.45.75-6.3,4.8-6.3,4.95,0,9.15.75,9.15,8.4,0,3.45-.75,7-0.75,10.5,0,5.1.45,10,.45,15.15,0,2.55,0,5.1-.15,7.65v-0.15c-0.15,7-.3,14-0.3,21,0,6-.15,13.95.75,19,5.1,1.5,13.8.6,20.7,2.4A20.79,20.79,0,0,1,711.21,181.76Z" transform="translate(-0.01 0.02)"/><path class="cls-1" d="M756.81,171c7.95,0,5.55,10,6,15.45-5.1.45-10.35,0.6-15.6,0.6-2.7,0-21.3-.3-22.95-1.2-2.4-5.55-2.55-15.75-2.55-22,0-25.2-.6-50.7-0.6-75.9,2.4-2.4,5.4-2.4,8.55-2.4,7.2,0,14.4-.75,21.45-0.75a19,19,0,0,1,9.15,2c0.3,3.45,1,8.1,1,10.8,0,3.3-3.3,3.3-5.85,3.3-6.6,0-13.2.3-19.65,0.75,0,9.6-1.5,19-1.5,28.65a11.32,11.32,0,0,0,.15,2.25c4.8-.45,9.6-1.2,14.4-1.2,1.8,0,3.6.3,5.25,0.3,0.6,1.95,2.4,9.6,2.4,11.55,0,4.65-14.85,3.3-21.6,3.75v1.35c-0.15,3.75.75,7.5,0.75,11.25a52.35,52.35,0,0,0,.75,10.8,111.85,111.85,0,0,0,17.25.9C754.56,171.11,755.75,171,756.81,171Z" transform="translate(-0.01 0.02)"/><path class="cls-1" d="M818.9,168.71c0,1.5-.9,2.7-1.8,3.9-4.65,6.6-10.65,14.25-19.5,14.25-17.85,0-24.6-16-24.6-30.45,0-6.45.3-12.75,0.3-19.2,0-16.65-.3-48.75,22.65-50.25h0.9c9.9,0,22.2,9.45,22.2,20.1,0,1.35-9.45,3.6-10.95,3.6-5.55,0-3.6-9.6-10.5-9.6-8.1,0-9.6,14.1-9.75,20.25q-0.45,16.87-.45,33.75c0,5.55.9,17.7,8.85,17.7,6.15,0,4.65-9,11.7-9C811,163.76,818.9,164.66,818.9,168.71Z" transform="translate(-0.01 0.02)"/><path class="cls-1" d="M829.85,97.76c-1,0-2.25.3-3.6,0.3a6.87,6.87,0,0,1-5.1-2.4,7.31,7.31,0,0,0,.15-1.8c0-1.05-.15-2.25-0.15-3.45,0-2.1.45-5,2.85-5.7h-0.15a12.81,12.81,0,0,1,3.3-.6c3.3,0,6.45.6,9.6,0.6,4.95,0,10-.15,15-0.15,2.7,0,5.25-.9,7.8-0.9s2.85,3.45,2.85,5.4c0,10.5-2.55,8.25-11.55,9.6-1,19.2-1.65,38.7-1.65,57.9,0,3,.3,6,0.3,9,0,7-.45,13.95-0.75,21-1.65.15-3.15,0.3-4.8,0.3-3,0-6-.6-9-0.6a32.82,32.82,0,0,1-.45-5.4c0-4,.6-8.25.6-12.3,0-2-.15-4.05-0.15-6,0.6-10,.75-16.35.75-20.7,0-14.1-.9-23.25-0.9-35.55a81.46,81.46,0,0,1,.3-8.55h-5.25Z" transform="translate(-0.01 0.02)"/><path class="cls-1" d="M887.3,105.86v8.85c0,7.95-1,15.75-1,23.7,0,6.75.6,13.35,0.6,20.1,0,3.15-.3,6.45-0.3,9.75s0.3,6.75.3,10.2a18,18,0,0,1-.6,5.55c-3,2.1-8.1,2.4-11.7,2.55a9.43,9.43,0,0,1-3-7.5c0-13,1.5-25.95,1.5-39,0-15.15-1.35-30.45-1.35-45.45,0-6.15,3.15-6.75,7.5-6.75s8.85-.6,8.85,4.2C888.05,96.56,887.3,101.21,887.3,105.86Z" transform="translate(-0.01 0.02)"/><path class="cls-1" d="M945.5,164.66c0,4.95-.45,11.25-4.35,14.85h0.15l-0.6.45c-6.75,4.65-6.75,6.9-16.5,6.9a23.43,23.43,0,0,1-15.15-5.4l0.15,0.15c-2.7-2.1-4.2-4.95-5.4-8.1l0.15,0.15-0.45-1.05c-5.4-13.8-4.65-42-4.65-50.4,0-21.9,9.15-34.35,26.25-34.35,5.4,0,11.25,4.2,14.7,8.1h-0.15c5.55,5,6.15,14.7,6.15,21.75C945.8,133.31,945.5,149.06,945.5,164.66Zm-25.65,6a9.73,9.73,0,0,0,5.7,1.65c1.5,0,3.45-.15,4.2-1.8,1.5-3.75,3.3-25,3.3-30.15,0-4.5-.45-9.15-0.45-13.8,0-3,.3-5.85.3-8.85,0-5.7-1-14-8.4-14-11.25,0-10.2,22.5-10.2,32.4,0,5.7.75,11.1,0.75,16.65s0.45,13.95,4.8,18v-0.15Z" transform="translate(-0.01 0.02)"/><path class="cls-1" d="M974,134.21c0,3.6-.45,7.2-0.75,10.8-1,10.95-1.65,22.8-1.65,32.85,0,2,.15,3.9.3,5.7-1,3.15-5.4,3.3-8.55,3.3-3.75,0-5.7-.45-7-3.9,1.35-2.55,1.5-23.85,1.5-27.9,0-20.1,1.5-40.2,1.5-60.15,0-6.75,4.95-7,9-7h3.75c3.45,4,7.35,24.15,10.8,32.25,3,7,5.1,13.95,8.55,20.7,0-3-.3-5.85-0.3-8.85,0-12.15,2-24.15,2-36.3,0-1.65-.6-3.3-0.6-5.1a12,12,0,0,1,1.2-5c4.35,1.05,15.45-.75,15.45,5.55,0,3-.6,6.3-0.75,9.45-0.9,23.25-2.55,45.9-3,70.65v5.85c0,8.4-2.1,10.35-7.95,10.35-2.1,0-4.95-.3-6.45-1.8-1-1.35-14.4-40.35-15.3-44.4Z" transform="translate(-0.01 0.02)"/><path class="cls-1" d="M291.43,246.26c3.71,0,2.59,4.69,2.8,7.21-2.38.21-4.83,0.28-7.28,0.28-1.26,0-9.94-.14-10.71-0.56-1.12-2.59-1.19-7.35-1.19-10.29,0-11.76-.28-23.66-0.28-35.42,1.12-1.12,2.52-1.12,4-1.12,3.36,0,6.72-.35,10-0.35a8.86,8.86,0,0,1,4.27.91c0.14,1.61.49,3.78,0.49,5,0,1.54-1.54,1.54-2.73,1.54-3.08,0-6.16.14-9.17,0.35,0,4.48-.7,8.89-0.7,13.37a5.32,5.32,0,0,0,.07,1.05c2.24-.21,4.48-0.56,6.72-0.56,0.84,0,1.68.14,2.45,0.14a36.86,36.86,0,0,1,1.12,5.39c0,2.17-6.93,1.54-10.08,1.75v0.63c-0.07,1.75.35,3.5,0.35,5.25a24.42,24.42,0,0,0,.35,5,52.07,52.07,0,0,0,8.05.42C290.38,246.33,290.94,246.26,291.43,246.26Z" transform="translate(-0.01 0.02)"/><path class="cls-1" d="M322,208.32a3.63,3.63,0,0,1,.14.77,2.45,2.45,0,0,1-.56,1.54l0.07-.07c-0.84,2.45-8.05,22.47-8.05,22.89s1.47,3.78,1.61,4.34c0.84,2,5,13.44,5,15.05v0.07a7.7,7.7,0,0,1-4.34.84,6.88,6.88,0,0,1-1.68-.21c-1.47-3.57-2.8-7.35-4.13-11.06-1.12,3.5-2.31,7.56-4.13,10.78a9.5,9.5,0,0,1-3.15.35c-1.47,0-2.73.07-2.73-1.47,0-.56.28-2.17,0.7-2.45,2-5.39,4.55-10.71,6.16-16.24L303,221.34c-0.77-2.52-4-11.41-4-13.65v-0.07a8.9,8.9,0,0,1,3.22-.91c2.59,0,3.15,4.06,3.78,6.09v-0.07c1.33,3.78,2.8,7.49,3.92,11.34,2.1-5.32,3.36-10.92,5.74-16.1a5.73,5.73,0,0,1,2.66-.63,9.75,9.75,0,0,1,2.87.28Z" transform="translate(-0.01 0.02)"/><path class="cls-1" d="M333.43,238.77c0,1.68.14,3.29,0.14,4.83q0,4.1-.21,8.19c-0.07,1.68-.77,1.75-3.15,1.75-1.54,0-3.15-.21-3.15-2,0-10.78.91-21.56,0.91-32.34,0-2.59-.14-5.25-0.14-7.84,0-4.34,4-4,8.4-4,11.2,0,11.55,8.4,11.55,17.85,0,6.16-.77,12.25-9.45,12.25-1.61,0-3.15-.28-4.83-0.28A12.87,12.87,0,0,0,333.43,238.77ZM340.5,215h0.07a7.82,7.82,0,0,0-4.62-1.26c-0.77,0-1.61.14-2.38,0.21,0.07,2.59.14,5.11,0.14,7.63,0,3.43-.07,6.79-0.07,10.08h0.63c1.33,0,4.06.07,5.11-.49,1.89-1,2.38-6,2.38-7.84C341.76,220.64,341.34,215.74,340.5,215Z" transform="translate(-0.01 0.02)"/><path class="cls-1" d="M369.41,246.26c3.71,0,2.59,4.69,2.8,7.21-2.38.21-4.83,0.28-7.28,0.28-1.26,0-9.94-.14-10.71-0.56-1.12-2.59-1.19-7.35-1.19-10.29,0-11.76-.28-23.66-0.28-35.42,1.12-1.12,2.52-1.12,4-1.12,3.36,0,6.72-.35,10-0.35a8.86,8.86,0,0,1,4.27.91c0.14,1.61.49,3.78,0.49,5,0,1.54-1.54,1.54-2.73,1.54-3.08,0-6.16.14-9.17,0.35,0,4.48-.7,8.89-0.7,13.37a5.32,5.32,0,0,0,.07,1.05c2.24-.21,4.48-0.56,6.72-0.56,0.84,0,1.68.14,2.45,0.14a36.86,36.86,0,0,1,1.12,5.39c0,2.17-6.93,1.54-10.08,1.75v0.63c-0.07,1.75.35,3.5,0.35,5.25a24.42,24.42,0,0,0,.35,5,52.07,52.07,0,0,0,8.05.42C368.36,246.33,368.92,246.26,369.41,246.26Z" transform="translate(-0.01 0.02)"/><path class="cls-1" d="M381.52,252.84a1.77,1.77,0,0,1-.84-0.14l0.28,0.14h-0.35c-1.26,0-3.15.07-3.5-1.54v0.07a30.54,30.54,0,0,1-.21-4.13c0-2,.07-4.2.07-5.32,0-3.78.07-33.32,1.54-34.72,0.84-.77,4.9-0.91,6-0.91,2.8,0,8.26.49,10.36,2.73,2.52,2.66,3.29,12.53,3.29,16.24,0,3.43-.42,7.14-3.08,9.59a28.72,28.72,0,0,1,1.68,2.73c1.12,2.59,1.12,11.13,1.12,14.21v1.05a4.73,4.73,0,0,1-2.8.84c-3.22,0-4.62.28-4.62-3.78,0-1.75.21-3.57,0.21-5.32,0-2.94.56-7.28-3.78-7.28a14.65,14.65,0,0,0-3,.35c0,2.52-.28,13.58-1.68,15.12A1.93,1.93,0,0,1,381.52,252.84ZM383.76,213c0,3.5-.14,7-0.14,10.43v3.78c0,1.19.07,2.38,0.14,3.64h2.45c2.38,0,5.53-.35,5.74-3.43l-0.07.07a81.43,81.43,0,0,0-.49-11c-0.49-3-3.29-3.64-6-3.64A6.79,6.79,0,0,0,383.76,213Z" transform="translate(-0.01 0.02)"/><path class="cls-1" d="M409.66,215.88V220c0,3.71-.49,7.35-0.49,11.06,0,3.15.28,6.23,0.28,9.38,0,1.47-.14,3-0.14,4.55s0.14,3.15.14,4.76a8.39,8.39,0,0,1-.28,2.59c-1.4,1-3.78,1.12-5.46,1.19a4.4,4.4,0,0,1-1.4-3.5c0-6.09.7-12.11,0.7-18.2,0-7.07-.63-14.21-0.63-21.21,0-2.87,1.47-3.15,3.5-3.15s4.13-.28,4.13,2S409.66,213.71,409.66,215.88Z" transform="translate(-0.01 0.02)"/><path class="cls-1" d="M439.48,208.81c0,13.3.63,26.67,0.63,40.11a20.85,20.85,0,0,1-.35,4.2,9.17,9.17,0,0,1-3.36.56c-2.87,0-3.36-1.19-3.36-2.94,0-.84.14-1.82,0.14-2.87,0-5.11-.14-10.15-0.21-15.26-1.26,3.71-1.89,8.89-4.76,8.89-0.77,0-1.4-.14-2.1-0.14h-0.49c-1.61-2.73-2.45-6.23-3.64-9.17,0.21,3.92.28,7.7,0.28,11.62,0,2.52,0,7.07-.7,9.38a6.43,6.43,0,0,1-2.31.42,8.36,8.36,0,0,1-4.06-1c-0.14-3.78-.07-2-0.07-12.32,0-11.27.14-30.87,1.4-32.06a20.19,20.19,0,0,1,2.8-.63c2.8,0,5.81,13.44,8.05,19.6l4.76-13.93a21.49,21.49,0,0,1,1.54-4.2l0.42-.28s3.43-.56,3.64-0.56A3.14,3.14,0,0,1,439.48,208.81Z" transform="translate(-0.01 0.02)"/><path class="cls-1" d="M461.81,246.26c3.71,0,2.59,4.69,2.8,7.21-2.38.21-4.83,0.28-7.28,0.28-1.26,0-9.94-.14-10.71-0.56-1.12-2.59-1.19-7.35-1.19-10.29,0-11.76-.28-23.66-0.28-35.42,1.12-1.12,2.52-1.12,4-1.12,3.36,0,6.72-.35,10-0.35a8.86,8.86,0,0,1,4.27.91c0.14,1.61.49,3.78,0.49,5,0,1.54-1.54,1.54-2.73,1.54-3.08,0-6.16.14-9.17,0.35,0,4.48-.7,8.89-0.7,13.37a5.32,5.32,0,0,0,.07,1.05c2.24-.21,4.48-0.56,6.72-0.56,0.84,0,1.68.14,2.45,0.14a36.92,36.92,0,0,1,1.12,5.39c0,2.17-6.93,1.54-10.08,1.75v0.63c-0.07,1.75.35,3.5,0.35,5.25a24.42,24.42,0,0,0,.35,5,52.07,52.07,0,0,0,8.05.42C460.76,246.33,461.32,246.26,461.81,246.26Z" transform="translate(-0.01 0.02)"/><path class="cls-1" d="M477.56,229.11c0,1.68-.21,3.36-0.35,5-0.49,5.11-.77,10.64-0.77,15.33,0,0.91.07,1.82,0.14,2.66-0.49,1.47-2.52,1.54-4,1.54-1.75,0-2.66-.21-3.29-1.82,0.63-1.19.7-11.13,0.7-13,0-9.38.7-18.76,0.7-28.07,0-3.15,2.31-3.29,4.2-3.29h1.75c1.61,1.89,3.43,11.27,5,15.05,1.4,3.29,2.38,6.51,4,9.66,0-1.4-.14-2.73-0.14-4.13,0-5.67.91-11.27,0.91-16.94,0-.77-0.28-1.54-0.28-2.38a5.6,5.6,0,0,1,.56-2.31c2,0.49,7.21-.35,7.21,2.59,0,1.4-.28,2.94-0.35,4.41-0.42,10.85-1.19,21.42-1.4,33v2.73c0,3.92-1,4.83-3.71,4.83a4.48,4.48,0,0,1-3-.84c-0.49-.63-6.72-18.83-7.14-20.72Z" transform="translate(-0.01 0.02)"/><path class="cls-1" d="M501.85,212.1c-0.49,0-1.05.14-1.68,0.14a3.2,3.2,0,0,1-2.38-1.12,3.42,3.42,0,0,0,.07-0.84c0-.49-0.07-1.05-0.07-1.61,0-1,.21-2.31,1.33-2.66H499a6,6,0,0,1,1.54-.28c1.54,0,3,.28,4.48.28,2.31,0,4.69-.07,7-0.07,1.26,0,2.45-.42,3.64-0.42S517,207.13,517,208c0,4.9-1.19,3.85-5.39,4.48-0.49,9-.77,18.06-0.77,27,0,1.4.14,2.8,0.14,4.2,0,3.29-.21,6.51-0.35,9.8-0.77.07-1.47,0.14-2.24,0.14-1.4,0-2.8-.28-4.2-0.28a15.29,15.29,0,0,1-.21-2.52c0-1.89.28-3.85,0.28-5.74,0-.91-0.07-1.89-0.07-2.8,0.28-4.69.35-7.63,0.35-9.66,0-6.58-.42-10.85-0.42-16.59a38,38,0,0,1,.14-4h-2.45Z" transform="translate(-0.01 0.02)"/><path class="cls-1" d="M536.15,251.09a4.19,4.19,0,0,1-1,2.52c-1.75-.14-3.64.21-5.18-0.7a79.62,79.62,0,0,1-2.31-11.2c-1.05-.07-2-0.14-3.08-0.14a15.15,15.15,0,0,0-2.52.14c-1.61,4.06-1.68,10.08-3.29,11.83-1.4,0-5.25.91-5.25-2A21.77,21.77,0,0,1,515,244.3v0.07a32.08,32.08,0,0,0,1-3.71l3.08-15.82a132,132,0,0,1,3.71-15.75,2.07,2.07,0,0,1,2.24-1.68c0.7,0,1.4.28,2.1,0.28a4.6,4.6,0,0,0,1-.07c1.26,2,1.82,8.75,5.67,31v-0.07C534.54,241.5,536.15,248.29,536.15,251.09Zm-9.45-15.68c-0.28-3.22-.63-10.29-1.33-10.29l-2,10.5C524.46,235.62,525.58,235.41,526.7,235.41Z" transform="translate(-0.01 0.02)"/><path class="cls-1" d="M560,251.3v0.28c-0.21,2.17-4.9,1.89-10.08,1.89-3.08,0-5.74.63-6.3-2h0.07c-0.91-2.73-1-18-1-26.11,0-6.16.56-7.14,0.56-10.85,0-.84-0.07-1.68-0.07-2.66,0-1.61.35-2.94,2.24-2.94,2.31,0,4.27.35,4.27,3.92,0,1.61-.35,3.29-0.35,4.9,0,2.38.21,4.69,0.21,7.07,0,1.19,0,2.38-.07,3.57v-0.07c-0.07,3.29-.14,6.51-0.14,9.8a60.53,60.53,0,0,0,.35,8.89c2.38,0.7,6.44.28,9.66,1.12A9.71,9.71,0,0,1,560,251.3Z" transform="translate(-0.01 0.02)"/><path class="cls-1" d="M595.86,240.94a10.78,10.78,0,0,0,.49-2.94c0-.42.07-0.77-0.63-0.77-1,0-2,.21-2.94.21-2.66,0-2.8-1.89-2.8-4s1.89-2.45,4.41-2.45h1.75c1.26,0,2.59-.21,3.85-0.21a6.62,6.62,0,0,1,2.59.56,24.63,24.63,0,0,1,.7,6.79c0,7.84-1,15.54-10.15,15.54-12.67,0-11.48-14.14-11.62-22.82-0.07-2.52-.35-5-0.35-7.56,0-5.32.56-10.15,5.81-12.81v0.07a13.43,13.43,0,0,1,5.46-1.4c3.92,0,10.29,3.29,10.29,6.72,0,1.47-2.73,3.43-3.85,3.43s-4.34-2.94-5.88-3.36h0.07c-0.28,0-.63-0.07-1-0.07C588,215.88,588,219,588,222c0,3.43-.14,6.86-0.14,10.29a110.36,110.36,0,0,0,.63,11.76c0.21,1.75,1,3.57,3.57,3.57,3.43,0,3.22-4.48,3.85-6.79Z" transform="translate(-0.01 0.02)"/><path class="cls-1" d="M629,251.09a4.19,4.19,0,0,1-1,2.52c-1.75-.14-3.64.21-5.18-0.7a79.62,79.62,0,0,1-2.31-11.2c-1.05-.07-2-0.14-3.08-0.14a15.15,15.15,0,0,0-2.52.14c-1.61,4.06-1.68,10.08-3.29,11.83-1.4,0-5.25.91-5.25-2a21.77,21.77,0,0,1,1.47-7.28v0.07a32.08,32.08,0,0,0,1-3.71l3.08-15.82a132,132,0,0,1,3.71-15.75,2.07,2.07,0,0,1,2.24-1.68c0.7,0,1.4.28,2.1,0.28a4.6,4.6,0,0,0,1-.07c1.26,2,1.82,8.75,5.67,31v-0.07C627.36,241.5,629,248.29,629,251.09Zm-9.45-15.68c-0.28-3.22-.63-10.29-1.33-10.29l-2,10.5C617.28,235.62,618.4,235.41,619.52,235.41Z" transform="translate(-0.01 0.02)"/><path class="cls-1" d="M659.71,208.81c0,13.3.63,26.67,0.63,40.11a20.85,20.85,0,0,1-.35,4.2,9.17,9.17,0,0,1-3.36.56c-2.87,0-3.36-1.19-3.36-2.94,0-.84.14-1.82,0.14-2.87,0-5.11-.14-10.15-0.21-15.26-1.26,3.71-1.89,8.89-4.76,8.89-0.77,0-1.4-.14-2.1-0.14h-0.49c-1.61-2.73-2.45-6.23-3.64-9.17,0.21,3.92.28,7.7,0.28,11.62,0,2.52,0,7.07-.7,9.38a6.43,6.43,0,0,1-2.31.42,8.36,8.36,0,0,1-4.06-1c-0.14-3.78-.07-2-0.07-12.32,0-11.27.14-30.87,1.4-32.06a20.19,20.19,0,0,1,2.8-.63c2.8,0,5.81,13.44,8.05,19.6l4.76-13.93a21.49,21.49,0,0,1,1.54-4.2l0.42-.28s3.43-.56,3.64-0.56A3.14,3.14,0,0,1,659.71,208.81Z" transform="translate(-0.01 0.02)"/><path class="cls-1" d="M682,246.26c3.71,0,2.59,4.69,2.8,7.21-2.38.21-4.83,0.28-7.28,0.28-1.26,0-9.94-.14-10.71-0.56-1.12-2.59-1.19-7.35-1.19-10.29,0-11.76-.28-23.66-0.28-35.42,1.12-1.12,2.52-1.12,4-1.12,3.36,0,6.72-.35,10-0.35a8.86,8.86,0,0,1,4.27.91c0.14,1.61.49,3.78,0.49,5,0,1.54-1.54,1.54-2.73,1.54-3.08,0-6.16.14-9.17,0.35,0,4.48-.7,8.89-0.7,13.37a5.32,5.32,0,0,0,.07,1.05c2.24-.21,4.48-0.56,6.72-0.56,0.84,0,1.68.14,2.45,0.14a36.92,36.92,0,0,1,1.12,5.39c0,2.17-6.93,1.54-10.08,1.75v0.63c-0.07,1.75.35,3.5,0.35,5.25a24.42,24.42,0,0,0,.35,5,52.07,52.07,0,0,0,8.05.42C681,246.33,681.54,246.26,682,246.26Z" transform="translate(-0.01 0.02)"/><path class="cls-1" d="M696,238.77c0,1.68.14,3.29,0.14,4.83q0,4.1-.21,8.19c-0.07,1.68-.77,1.75-3.15,1.75-1.54,0-3.15-.21-3.15-2,0-10.78.91-21.56,0.91-32.34,0-2.59-.14-5.25-0.14-7.84,0-4.34,4-4,8.4-4,11.2,0,11.55,8.4,11.55,17.85,0,6.16-.77,12.25-9.45,12.25-1.61,0-3.15-.28-4.83-0.28A13,13,0,0,0,696,238.77ZM703,215h0.07a7.82,7.82,0,0,0-4.62-1.26c-0.77,0-1.61.14-2.38,0.21,0.07,2.59.14,5.11,0.14,7.63,0,3.43-.07,6.79-0.07,10.08h0.63c1.33,0,4.06.07,5.11-.49,1.89-1,2.38-6,2.38-7.84C704.29,220.64,703.87,215.74,703,215Z" transform="translate(-0.01 0.02)"/><path class="cls-1" d="M732.71,251.3v0.28c-0.21,2.17-4.9,1.89-10.08,1.89-3.08,0-5.74.63-6.3-2h0.07c-0.91-2.73-1-18-1-26.11,0-6.16.56-7.14,0.56-10.85,0-.84-0.07-1.68-0.07-2.66,0-1.61.35-2.94,2.24-2.94,2.31,0,4.27.35,4.27,3.92,0,1.61-.35,3.29-0.35,4.9,0,2.38.21,4.69,0.21,7.07,0,1.19,0,2.38-.07,3.57v-0.07c-0.07,3.29-.14,6.51-0.14,9.8a60.53,60.53,0,0,0,.35,8.89c2.38,0.7,6.44.28,9.66,1.12A9.71,9.71,0,0,1,732.71,251.3Z" transform="translate(-0.01 0.02)"/><path class="cls-1" d="M760.37,251.09a4.19,4.19,0,0,1-1,2.52c-1.75-.14-3.64.21-5.18-0.7a79.62,79.62,0,0,1-2.31-11.2c-1.05-.07-2-0.14-3.08-0.14a15.15,15.15,0,0,0-2.52.14c-1.61,4.06-1.68,10.08-3.29,11.83-1.4,0-5.25.91-5.25-2a21.77,21.77,0,0,1,1.47-7.28v0.07a32.08,32.08,0,0,0,1-3.71l3.08-15.82A132,132,0,0,1,747,209.09a2.07,2.07,0,0,1,2.24-1.68c0.7,0,1.4.28,2.1,0.28a4.6,4.6,0,0,0,1-.07c1.26,2,1.82,8.75,5.67,31v-0.07C758.76,241.5,760.37,248.29,760.37,251.09Zm-9.45-15.68c-0.28-3.22-.63-10.29-1.33-10.29l-2,10.5C748.67,235.62,749.79,235.41,750.91,235.41Z" transform="translate(-0.01 0.02)"/><path class="cls-1" d="M773.81,253.26c-0.35,0-.77-0.07-1.12-0.07-0.07,0-.35.07-0.42,0.07v-0.07a3.26,3.26,0,0,1-1.19.21c-1.33,0-1.33-2.52-1.33-5.67,0-1.75.07-3.36,0.07-4.06,0.07-4.34.07-9.73-1.54-13.09-2.59-5.46-4.2-11.55-6.3-17.22v0.07a20.37,20.37,0,0,1-1.68-4.27c0-1.33,4.34-2,5.32-2,0.28,0,1.33.07,1.47,0.49,0.35,1.33,4.27,14.63,4.55,14.91,0.84-2.17,4.48-13,4.55-14.77a1.92,1.92,0,0,1,1.75-1c2,0,4.48-.21,4.48,1.61a15.2,15.2,0,0,1-1.19,4.48l0.07-.14c-0.84,3.08-6,18.69-6,21.07,0,0.91-.07,1.82-0.07,2.73,0,1.82.07,3.64,0.07,5.46C775.35,247.45,775.77,253.26,773.81,253.26Z" transform="translate(-0.01 0.02)"/><path class="cls-1" d="M828.27,253.19c-0.7-1.12-4.13-19.81-4.48-22.12-1.26,6.79-2.8,13.58-3.78,20.37a1.9,1.9,0,0,1-1.68,1.89l0.07-.07a5.82,5.82,0,0,1-1.89.21,5.61,5.61,0,0,1-1.82-.21c-1.33-.42-6.58-20.72-7.14-23.59-0.91-4.55-1.54-9.31-2.31-13.93a60.44,60.44,0,0,1-1-7c0-.56,3.64-0.56,4.2-0.56a36.13,36.13,0,0,1,3.85.14c0.28,2.24.14,4.48,0.35,6.65a42.64,42.64,0,0,0,1,5l2,10.15a49,49,0,0,1,.77,5.6c0.7-2.87,3.22-21.14,4.13-22a3.49,3.49,0,0,1,2.17-.56,6.16,6.16,0,0,1,3.36.84c1.12,0.91,4.9,21.91,5,24.57,0.91-5.18,1-11.06,1.68-16.52,0.21-1.75,1.82-15,3-15.61a6.88,6.88,0,0,0,1.19.14c0.14,0,.35-0.07.49-0.07a22.11,22.11,0,0,1,4.55,1.26c-0.63,6-1.47,12.18-2.52,18.13-0.42,2.17-4.48,25.9-4.76,26.39-0.77,1.12-2.59,1.33-3.85,1.33A6,6,0,0,1,828.27,253.19Z" transform="translate(-0.01 0.02)"/><path class="cls-1" d="M865.93,243.32c0,2.31-.21,5.25-2,6.93H864l-0.28.21c-3.15,2.17-3.15,3.22-7.7,3.22a10.94,10.94,0,0,1-7.07-2.52l0.07,0.07a8.21,8.21,0,0,1-2.52-3.78l0.07,0.07-0.21-.49c-2.52-6.44-2.17-19.6-2.17-23.52,0-10.22,4.27-16,12.25-16,2.52,0,5.25,2,6.86,3.78H863.2c2.59,2.31,2.87,6.86,2.87,10.15C866.07,228.69,865.93,236,865.93,243.32Zm-12,2.8a4.54,4.54,0,0,0,2.66.77,2,2,0,0,0,2-.84c0.7-1.75,1.54-11.69,1.54-14.07,0-2.1-.21-4.27-0.21-6.44,0-1.4.14-2.73,0.14-4.13,0-2.66-.49-6.51-3.92-6.51-5.25,0-4.76,10.5-4.76,15.12,0,2.66.35,5.18,0.35,7.77s0.21,6.51,2.24,8.4v-0.07Z" transform="translate(-0.01 0.02)"/><path class="cls-1" d="M875.59,252.84a1.77,1.77,0,0,1-.84-0.14l0.28,0.14h-0.35c-1.26,0-3.15.07-3.5-1.54v0.07a30.54,30.54,0,0,1-.21-4.13c0-2,.07-4.2.07-5.32,0-3.78.07-33.32,1.54-34.72,0.84-.77,4.9-0.91,6-0.91,2.8,0,8.26.49,10.36,2.73,2.52,2.66,3.29,12.53,3.29,16.24,0,3.43-.42,7.14-3.08,9.59a28.72,28.72,0,0,1,1.68,2.73c1.12,2.59,1.12,11.13,1.12,14.21v1.05a4.73,4.73,0,0,1-2.8.84c-3.22,0-4.62.28-4.62-3.78,0-1.75.21-3.57,0.21-5.32,0-2.94.56-7.28-3.78-7.28a14.65,14.65,0,0,0-3,.35c0,2.52-.28,13.58-1.68,15.12A1.93,1.93,0,0,1,875.59,252.84ZM877.83,213c0,3.5-.14,7-0.14,10.43v3.78c0,1.19.07,2.38,0.14,3.64h2.45c2.38,0,5.53-.35,5.74-3.43l-0.07.07a81.43,81.43,0,0,0-.49-11c-0.49-3-3.29-3.64-6-3.64A6.79,6.79,0,0,0,877.83,213Z" transform="translate(-0.01 0.02)"/><path class="cls-1" d="M912.13,210.21c2-2,1.75-2.38,4.2-2.38,1.33,0,2.59.35,2.59,2,0,2-6.86,10.15-8.33,12a24.16,24.16,0,0,0-2.31,3.15c2.73,6,5.32,12.39,7.63,18.62v-0.07c0.63,1.47,3,7.21,3,8.47v0.28c-0.56.91-2.8,1.19-3.78,1.19-0.63,0-2.31-.07-2.8-0.56-1.05-1-7.42-19.46-8.26-22.12l-0.28.28c0,7.35-.56,14.63-0.56,22.05a16.53,16.53,0,0,1-5.53.56c-0.56-1.61-.7-5.39-0.7-8.82,0-11.41.21-21.7,0.21-32.83a9.3,9.3,0,0,1,.84-4.13c1.05,0,2.1-.21,3.15-0.21,3.22,0,2.59,2.59,2.59,4.69,0,2.94-.28,6-0.28,9C906.53,217.77,909.47,214,912.13,210.21Z" transform="translate(-0.01 0.02)"/><path class="cls-1" d="M947.13,239.4a12.92,12.92,0,0,1,.21,2.31c0,8.19-5.39,12.11-11.83,12.11-5.25,0-10.64-4.48-10.64-10,0-2.73,2-2.87,4.13-2.87a6.19,6.19,0,0,1,3.08.84c0,2.24,1.26,5.25,3.92,5.25a4.14,4.14,0,0,0,4.2-4.27c0-4.48-6.44-10.36-9.66-13l0.07,0.07c-4.2-3.43-6.16-6-6.16-11.55,0-6.58,4.62-11.41,11.34-11.41,3.15,0,7.21,1.61,8.61,4.62,0.7,1.54,2,3.85,2,5.6,0,2.1-3.15,2.45-4.76,2.45-4.48,0-1.12-6-7.07-6a3.58,3.58,0,0,0-2.17,1.33h0.07a6.31,6.31,0,0,0-1.61,4.06,5.41,5.41,0,0,0,.14,1c0.84,4.55,14.14,11.2,16.1,19.46V239.4Z" transform="translate(-0.01 0.02)"/><path class="cls-1" d="M966.24,230.23c0.21-6.09,1.12-12,1.12-18.06,0-1.89.07-3.36,2.31-3.36s4.06,1,4.06,3.43c0,7.14-.56,14.28-0.91,21.42-0.28,6.51-.42,13.09-0.91,19.6-1.26,0-2.45.42-3.78,0.42-2.45,0-2.38-3.15-2.38-5.18,0-4,.14-8.12.35-12.11-2.38,0-4.69-.28-7-0.28h-0.49c-0.07,5.32.07,16.59-1.75,17.15a10.31,10.31,0,0,1-2.52.28c-0.7,0-2.59-.14-2.59-1.19,0-2.59.42-5.67,0.42-8.75v-5c0-8.26.56-16.45,0.56-24.64,0-.7-0.14-1.4-0.14-2.1,0-3.08,1.61-3.15,4-3.15s2.59,0.56,2.59,2.66c0,3.92-.28,7.77-0.28,11.76v6.86c2.31,0,4.62.28,6.93,0.28h0.42Z" transform="translate(-0.01 0.02)"/><path class="cls-1" d="M1000.47,243.32c0,2.31-.21,5.25-2,6.93h0.07l-0.28.21c-3.15,2.17-3.15,3.22-7.7,3.22a10.94,10.94,0,0,1-7.07-2.52l0.07,0.07a8.22,8.22,0,0,1-2.52-3.78l0.07,0.07-0.21-.49c-2.52-6.44-2.17-19.6-2.17-23.52,0-10.22,4.27-16,12.25-16,2.52,0,5.25,2,6.86,3.78h-0.07c2.59,2.31,2.87,6.86,2.87,10.15C1000.61,228.69,1000.47,236,1000.47,243.32Zm-12,2.8a4.54,4.54,0,0,0,2.66.77,2,2,0,0,0,2-.84c0.7-1.75,1.54-11.69,1.54-14.07,0-2.1-.21-4.27-0.21-6.44,0-1.4.14-2.73,0.14-4.13,0-2.66-.49-6.51-3.92-6.51-5.25,0-4.76,10.5-4.76,15.12,0,2.66.35,5.18,0.35,7.77s0.21,6.51,2.24,8.4v-0.07Z" transform="translate(-0.01 0.02)"/><path class="cls-1" d="M1010.41,238.77c0,1.68.14,3.29,0.14,4.83q0,4.1-.21,8.19c-0.07,1.68-.77,1.75-3.15,1.75-1.54,0-3.15-.21-3.15-2,0-10.78.91-21.56,0.91-32.34,0-2.59-.14-5.25-0.14-7.84,0-4.34,4-4,8.4-4,11.2,0,11.55,8.4,11.55,17.85,0,6.16-.77,12.25-9.45,12.25-1.61,0-3.15-.28-4.83-0.28A12.87,12.87,0,0,0,1010.41,238.77Zm7.07-23.8h0.07a7.82,7.82,0,0,0-4.62-1.26c-0.77,0-1.61.14-2.38,0.21,0.07,2.59.14,5.11,0.14,7.63,0,3.43-.07,6.79-0.07,10.08h0.63c1.33,0,4.06.07,5.11-.49,1.89-1,2.38-6,2.38-7.84C1018.74,220.64,1018.32,215.74,1017.48,215Z" transform="translate(-0.01 0.02)"/></svg>