<svg id="Boston_FIG" data-name="Boston FIG" xmlns="http://www.w3.org/2000/svg" viewBox="0 0 1300 500"><defs><style>.cls-1{fill:#eabb68;}</style></defs><title>FKA_BostonFIG_2016_English_Gold</title><path class="cls-1" d="M263.88,539.22c-1.06-.65-2.18-1.2-3.29-1.76l-1.67-.85c-0.78-.41-1.58-0.81-2.38-1.2a45.64,45.64,0,0,1-5.2-2.86c-7.86-5.28-16.08-10.94-25.13-17.29a34.63,34.63,0,0,1-8.1-7.66,160.18,160.18,0,0,0-11.95-13.79l-2-2.09c-8-8.57-16.19-17.85-24.42-27.57a102.32,102.32,0,0,1-10-14.09c-6-10.21-12-20.91-17.81-31.81-5.18-9.72-10.1-19.8-15-29.73-5.72-11.71-9.12-21.86-10.68-31.95-1-6.63-2.45-13.64-4.37-21.45-3-12.14-6.25-26.57-7.75-41.54a254.21,254.21,0,0,1-1.55-28c0-4.5.32-9.08,0.59-13.51l0.16-2.67c0.24-4.08.37-8.17,0.51-12.26,0.18-5.46.37-11.1,0.81-16.64a164.73,164.73,0,0,1,5.13-31.08q2.31-8.41,4.65-16.82a30.17,30.17,0,0,1,1-2.92q1.41-3.61,2.84-7.2c1.58-4,3.16-8,4.7-12a103.61,103.61,0,0,1,9.31-18.15c1.71-2.71,3.63-5.35,5.49-7.92l2.38-3.3c1.83-2.55,3.72-5.19,5.73-7.64,2.16-2.64,4.5-5.22,6.77-7.72l1.86-2.06c0.62-.68,1.25-1.36,1.87-2,2.7-2.9,5.48-5.9,7.35-9.66a5,5,0,0,1,.92-1.13c0.25-.26.51-0.52,0.73-0.8,0.35-.43.67-0.88,1-1.31l0.7-.94-0.17-.5c-0.48-1.36-1.14-2.84-2.91-3.24l-0.26-.06-0.56.16a2,2,0,0,0-.91.39c-0.5.41-1,.84-1.47,1.27-0.79.69-1.57,1.38-2.41,2-7.3,5.37-13.45,12.18-19.11,18.7-2.54,2.92-4.87,6.08-7.12,9.13l-1.64,2.22c-0.89,1.19-1.71,2.43-2.54,3.67-0.64,1-1.28,1.93-2,2.87a103.61,103.61,0,0,0-11.73,21.36q-0.84,2.09-1.71,4.18c-1.37,3.33-2.78,6.77-4.07,10.2-1.35,3.62-2.66,7.57-4,12.1-1.5,5-2.81,10-3.89,14.19-1,4-1.9,7.72-2.63,11.25-1.74,8.38-2.27,17-2.79,25.33-0.12,1.85-.23,3.71-0.36,5.56-0.24,3.49-.31,7-0.37,10.48,0,2.33-.09,4.66-0.18,7-0.09,2.15-.23,4.31-0.37,6.46-0.19,2.81-.38,5.72-0.45,8.6a230.34,230.34,0,0,0,1.15,26.65A234.48,234.48,0,0,0,110,322.4c3.16,13,5.69,25,7.72,36.8a83.75,83.75,0,0,0,6.7,21.4c5.54,11.77,11.6,24.12,18,36.7,3.61,7.07,7.59,14.08,11.45,20.86l2.71,4.79A162.68,162.68,0,0,0,165.17,457a257.36,257.36,0,0,0,18.36,23l1,1.1c4.88,5.46,9.94,11.11,15.14,16.45A158.1,158.1,0,0,1,212,511.38a52.33,52.33,0,0,0,10.93,10.71c6.48,4.64,11.74,8.33,16.57,11.62a137.35,137.35,0,0,0,22.64,12.6,6.31,6.31,0,0,0,2.47.6,3.91,3.91,0,0,0,3.3-1.91l0.26-.37L268,544.2A8.25,8.25,0,0,0,263.88,539.22Z" transform="translate(-50 -50)"/><path class="cls-1" d="M204.18,399.2a27.59,27.59,0,0,0-2.87,8.52c-0.67,3.5-1.31,7.25-2.05,12.14a135,135,0,0,0-1.71,29.4,3.23,3.23,0,0,1-.56,2.32c-0.71,1-1.38,1.93-2.13,3l-1.37,2,2.51,5.22,1.29-.29a5.52,5.52,0,0,0,1-.26,6.82,6.82,0,0,0,1.63-.85c3.11-2.34,6.57-5.37,8.66-10l0.53-1.18c2.4-5.3,4.88-10.79,6.88-16.39a106,106,0,0,0,5.23-18.44,24.41,24.41,0,0,0-4.78-19.8c-1.5-1.92-3.25-2.39-5.34-1.43A14.41,14.41,0,0,0,204.18,399.2Zm3.76,27.71,0.12-.94c0.82-6.54,1.66-13.28,3.56-19.66l0,0.37a15.07,15.07,0,0,1,.17,3.84A86.7,86.7,0,0,1,207.94,426.91Z" transform="translate(-50 -50)"/><path class="cls-1" d="M148.75,465.53c1.35-.06,2.74,0,4.22,0l2.26,0.06h0.27l0.6-.33c0.42-.23,1-0.52,1.46-0.86s1-.72,1.53-1.15l1.48-1.15-1.34-2.24c-0.64-1.08-1.25-2.11-1.89-3.11a3.5,3.5,0,0,0-3.67-1.68,26.34,26.34,0,0,1-2.69.23l-0.79,0a19.48,19.48,0,0,0-6.56-7.44,54.25,54.25,0,0,0-18.17-8.51,33,33,0,0,0-14.16-.68c-5.32,1-9.23,2.64-12.32,5.32-2.61,2.27-3,4.12-1.33,7.1a19.73,19.73,0,0,0,11.26,9.32A97.75,97.75,0,0,0,128,464.72a109.79,109.79,0,0,0,14.69,1Q145.67,465.67,148.75,465.53Zm-8.23-10.08c-5.07.46-13-.31-21.52-2.16l-0.26-.06c-4.07-.88-8.27-1.8-11.8-4a1.33,1.33,0,0,1,1-.57A26.51,26.51,0,0,1,120,447.57a49,49,0,0,1,19.85,7.37C140.06,455.09,140.28,455.26,140.52,455.45Z" transform="translate(-50 -50)"/><path class="cls-1" d="M80,205.22c4.32,2.25,7.83,4.24,10.4,7.63a4.54,4.54,0,0,0,3.71,1.92,5.66,5.66,0,0,0,1.53-.22l0.59-.17,0.11-.6c0.86-4.52-.25-8.72-3-11.51a5.43,5.43,0,0,1-1.62-3.2,19.14,19.14,0,0,0-1.8-5.5,58.28,58.28,0,0,0-14-17.52,37.15,37.15,0,0,0-11.82-7,22.18,22.18,0,0,0-10.18-1.11c-2.31.27-3.35,1.26-3.71,3.51A11.26,11.26,0,0,0,51.3,179a35.7,35.7,0,0,0,2.86,4.45A80.27,80.27,0,0,0,80,205.22ZM62.3,178.52c6.22,2.94,13.89,9.74,17.16,15.18A68.07,68.07,0,0,1,62.3,178.52Z" transform="translate(-50 -50)"/><path class="cls-1" d="M191.59,503.55l0.25-5-0.44-.31a7,7,0,0,0-6.09-1.08,5.22,5.22,0,0,1-3.56-.48c-0.65-.3-1.31-0.55-2-0.79l-2.2-.86c-6.42-2.56-13.07-5.21-20.09-6.42a41.93,41.93,0,0,0-8.06-.67,22.31,22.31,0,0,0-9.67,2c-5.25,2.64-7.16,6.09-6.2,11.18a3.86,3.86,0,0,1,0,.63c0.09,3.75,2,6.37,5.64,7.79l0.61,0.24a18.06,18.06,0,0,0,3.71,1.17,69.28,69.28,0,0,0,8.77,1q1.26,0,2.55,0a107.48,107.48,0,0,0,18.93-1.92c3.86-.68,7.63-1.69,10.49-2.48a16.58,16.58,0,0,0,7-3.75Zm-22.77-1c-3.27.34-6.55,0.67-9.83,0.92a32.21,32.21,0,0,1-11-1.31c-2-.53-3.52-1.25-4.52-2.91,1.72-2.25,4-3,7.21-2.43a67.83,67.83,0,0,1,13.48,4c0.64,0.26,1.31.46,2,.67a16,16,0,0,1,2.86,1.08Z" transform="translate(-50 -50)"/><path class="cls-1" d="M180.12,191.52l-0.9-2.06-0.49-.11-1-.25a12.37,12.37,0,0,0-2-.4,45.48,45.48,0,0,0-12.06.8c-6.87,1.24-13.18,3.67-20.12,6.47a33.2,33.2,0,0,0-10.91,7c-1.08,1.07-2.18,2.12-3.28,3.17l-2.41,2.32a4.75,4.75,0,0,0-1.61,3.3,4.1,4.1,0,0,0,1.28,2.93,3.5,3.5,0,0,1,1.09,2.13c0.07,0.44.17,0.88,0.31,1.49l0.43,1.92,0.9-.12,1.52-.18a24.24,24.24,0,0,0,2.77-.42l1-.23c5.37-1.26,10.92-2.55,16.36-4a90.13,90.13,0,0,0,17.29-6.25,31.61,31.61,0,0,0,9.39-6.43C180.95,199.07,181.78,195.42,180.12,191.52Zm-38.3,17.39c-1,.25-1.93.49-2.9,0.72-0.27.06-.54,0.11-0.84,0.16a29.38,29.38,0,0,1,12-8l0.41-.15c2.54-.92,5.17-1.88,7.78-2.7a28,28,0,0,1,8.51-1.32q1.19,0,2.41.1a1.35,1.35,0,0,1-.16.21,26.58,26.58,0,0,1-9,5.61,72.21,72.21,0,0,1-13.37,4.26C145,208.09,143.42,208.5,141.82,208.91Z" transform="translate(-50 -50)"/><path class="cls-1" d="M191,157.34a11.09,11.09,0,0,0,1.52-9.88,16.8,16.8,0,0,1-.49-1.8c-0.63-3.08-2.65-5.1-6-6a22.45,22.45,0,0,0-10.25-.25,47.69,47.69,0,0,0-13.4,4.33c-5.24,2.72-10.15,5.64-12.68,11.22-6.08-.24-6.44-0.17-9.49,2.2l-0.45.35,0.84,6.23,1.45,0.33a12.14,12.14,0,0,0,1.43.29l4.62,0.53c5.28,0.61,10.55,1.23,15.83,1.77a41.92,41.92,0,0,0,4.33.23,36.71,36.71,0,0,0,14-2.69A18.19,18.19,0,0,0,191,157.34Zm-7.66-7a2.4,2.4,0,0,1-.44,1.68c-2.06,3.77-4.8,5.67-8.59,5.51l-1.47,0c-1.45,0-2.94,0-4.38-.16-2.44-.23-4.88-0.52-7.58-0.85l-1.79-.21a15.29,15.29,0,0,1,1.36-1.32,37.11,37.11,0,0,1,10.72-6,15.09,15.09,0,0,1,7.33-.73,12.77,12.77,0,0,1,3.5,1A2.37,2.37,0,0,1,183.32,150.33Z" transform="translate(-50 -50)"/><path class="cls-1" d="M84.3,142.28c0.78,1.14,1.56,2.28,2.32,3.43l1.33,2c1.29,1.92,2.63,3.89,3.73,5.93a9.83,9.83,0,0,0,5.17,4.87l0.6,0.24,0.46-.46,0.34-.31A3.28,3.28,0,0,0,99,157.1l0.37-.7c0.81-1.56,1.38-2.53,2.87-2.73,1-.13,1.56-1.18,2-2a11.75,11.75,0,0,0,1.62-8.27c-0.42-2-.82-3.93-1.22-5.89-0.8-3.93-1.63-8-2.64-11.94a46.54,46.54,0,0,0-4.8-12c-2.44-4.17-5.22-6.9-8.73-8.61a6.22,6.22,0,0,0-7.59,1.14,10.16,10.16,0,0,0-1.75,1.95,20.46,20.46,0,0,0-3.55,10.07,30.4,30.4,0,0,0,4.26,17.23C81.21,137.78,82.78,140.07,84.3,142.28ZM83.86,118a8.77,8.77,0,0,1,.17-1.8l0.12-.77A2,2,0,0,1,85.31,114a1.56,1.56,0,0,1,.79-0.3,0.66,0.66,0,0,1,.5.26,16,16,0,0,1,1.85,2.32,39.36,39.36,0,0,1,4.73,10.55,126.16,126.16,0,0,1,4.25,18.54q-1.17-1.62-2.37-3.23a101.42,101.42,0,0,1-8.21-12.34A28,28,0,0,1,83.86,118Z" transform="translate(-50 -50)"/><path class="cls-1" d="M175,239.28a2,2,0,0,0-.53-0.84l-0.37-.45-0.25-.1a10.88,10.88,0,0,0-5.47-.25l-0.74.09c-6.85.8-12.61,4-16.86,6.62a83,83,0,0,0-15.37,12.81,38.82,38.82,0,0,1-5.74,5.14,6.14,6.14,0,0,0-2.87,6.31c0.08,0.7.19,1.39,0.31,2.19l0.32,2.12h0.85a22.37,22.37,0,0,0,6.75-1.28c0.79-.24,1.56-0.48,2.35-0.67a81.72,81.72,0,0,0,28.76-13.8,36.88,36.88,0,0,0,6.29-5.75C176.28,247,176.67,245.17,175,239.28Zm-12.95,9.18c-0.19.18-.39,0.35-0.61,0.53a72.56,72.56,0,0,1-12,7.81c0.6-.56,1.41-1.23,2.56-2.13A45.52,45.52,0,0,1,162.09,248.46Z" transform="translate(-50 -50)"/><path class="cls-1" d="M136.47,101.63a22.73,22.73,0,0,0,5.92,4.92L143,106.9l0.53-.49a13.51,13.51,0,0,0,3.73-5.29,2.39,2.39,0,0,0,.06-1.8c-0.65-1.31-.22-2.4.53-4.08l0.15-.32a9.87,9.87,0,0,0,.73-3,35.38,35.38,0,0,0-1.41-15.26c-0.9-2.73-2.34-6.15-5.5-8.31a41.77,41.77,0,0,0-7.11-3.78,4.94,4.94,0,0,0-6.41,1.79A18.92,18.92,0,0,0,125,73.08a16.6,16.6,0,0,0,.49,9.5A55.29,55.29,0,0,0,136.47,101.63Zm-2.55-26.51a1.86,1.86,0,0,1,1.94.95,15,15,0,0,1,2,3.55,29.14,29.14,0,0,1,1.65,9.26,41.67,41.67,0,0,1-5-10.66A9.21,9.21,0,0,1,133.91,75.12Z" transform="translate(-50 -50)"/><path class="cls-1" d="M67,261.59l0.31,0.08c1,0.08,1.92.18,2.84,0.28a51.49,51.49,0,0,0,5.88.41c3.07,0,6.27.07,9.19,1.48a5.43,5.43,0,0,0,2.41.57,6.39,6.39,0,0,0,1.27-.13c2.33-.47,3.46-2,3.12-4.15-0.41-2.6-.92-5.83-4.06-7.81a15.48,15.48,0,0,1-2.19-1.8c-0.44-.4-0.87-0.81-1.33-1.18a47.35,47.35,0,0,0-11-6.58c-5.35-2.38-10.94-2.13-17.59.8a4.28,4.28,0,0,0-2.67,4.9c0.73,4.76,2.74,8,6.16,9.76a59.52,59.52,0,0,0,5.51,2.47C65.52,261,66.26,261.28,67,261.59Z" transform="translate(-50 -50)"/><path class="cls-1" d="M103.72,407.19a47.43,47.43,0,0,1,6.7.28,17.42,17.42,0,0,0,2.36.17,13.12,13.12,0,0,0,6.75-1.79l0.59-.34-0.11-.67c-0.07-.43,0-0.56,1-1.14a8.28,8.28,0,0,0,1.3-.89l0.48-.42-0.19-.61c-2.47-8-7.72-13.24-16.05-16.09a12.91,12.91,0,0,0-9.21.44,74.38,74.38,0,0,0-6.9,3.22,11.78,11.78,0,0,0-4.77,4.26A3.93,3.93,0,0,0,85,397c1.16,3.38,3.16,7.45,8.42,8.9a31.28,31.28,0,0,0,8,1.26h2.26Zm-5.3-10.9a5.63,5.63,0,0,1,3.84-1.15,11.86,11.86,0,0,1,5,1.66A29.45,29.45,0,0,1,98.42,396.29Z" transform="translate(-50 -50)"/><path class="cls-1" d="M176.32,105.25l-0.13,1.5,0.73,0.25c3.36,1.14,7.35,2,11.55.11,1.66-.77,3.44-1.41,5.16-2l1-.37c2.12-.78,3.91-0.17,6,2a1.43,1.43,0,0,1,.5,1,1.38,1.38,0,0,1-.66.84,17.54,17.54,0,0,1-9.1,3.1A30.71,30.71,0,0,1,180.46,110c-2.21-.7-4.8-1.37-7.69-0.34l-0.49.17-1.71,6.4,0.85,0.31L173,117.1c1,0.4,2,.76,2.92,1a61.55,61.55,0,0,0,13.49,2c0.72,0,1.42.06,2.11,0.06a27.88,27.88,0,0,0,13.36-3.08c3.92-2.08,5.88-5,6-8.9V107.9c0-.67,0-1.33.11-2a6.72,6.72,0,0,0-3.21-6.67,16.36,16.36,0,0,0-4.52-2.15,25.92,25.92,0,0,0-19.16,1.7,52.14,52.14,0,0,1-5,2.06,3.7,3.7,0,0,0-2.62,3C176.39,104.29,176.36,104.74,176.32,105.25Z" transform="translate(-50 -50)"/><path class="cls-1" d="M161.27,321.87a22.72,22.72,0,0,0,2.67-6.38c0.2-.65.39-1.3,0.61-1.95a11,11,0,0,0-1.4-9.41l-0.27-.45-0.52,0-0.44,0a3.08,3.08,0,0,0-1.15,0,30.42,30.42,0,0,0-10.86,4.62q-8.06,5.77-16.14,11.5a7.5,7.5,0,0,0-2.55,3.58c-1.06,2.58-.35,4.9.4,7.37L132,332l0.61,0.1,1.3,0.22c0.94,0.16,1.84.32,2.75,0.39q1,0.08,1.89.08c6.16,0,11.54-2.33,16.05-4.66A18.08,18.08,0,0,0,161.27,321.87Zm-8.76-4.66a7.71,7.71,0,0,1-2.17,2.94,10.38,10.38,0,0,1-4.9,2.23c1.17-.82,2.27-1.65,3.34-2.46C150,319,151.26,318.06,152.51,317.22Z" transform="translate(-50 -50)"/><path class="cls-1" d="M146.82,398.86l0.69-.07c3.51-.37,7.13-0.74,9.76-4.2,1.24-1.62,2.63-3.18,4-4.69,0.82-.92,1.64-1.83,2.44-2.77a32.41,32.41,0,0,0,6.21-10.95,16.73,16.73,0,0,0-.61-12.29c-1.15-2.59-2.72-3.45-5.43-3-4.57.78-8,2.89-10.17,6.3a42.58,42.58,0,0,0-4.18,8.3c-1.84,5.05-3.44,10-2.88,15.49a2.34,2.34,0,0,1-.3,1.91c-1.5,1.89-.56,3.81.18,5.35Zm12.2-21a18.69,18.69,0,0,1,1.47-3.31A13.87,13.87,0,0,1,159,377.86Z" transform="translate(-50 -50)"/><path class="cls-1" d="M89.6,336a11.43,11.43,0,0,0,4.53-.87c1.32-.56,2.23-0.75,3.28-0.22a4.35,4.35,0,0,0,4.33-.45c0.4-.24.78-0.52,1.23-0.85l1.33-1L104,332a15.39,15.39,0,0,0-5.23-6.31,81.93,81.93,0,0,0-14.44-8.52,53.79,53.79,0,0,0-6.79-2.47c-4.25-1.26-7.78-.5-10.5,2.27a5.89,5.89,0,0,1-.79.63c-0.24.17-.47,0.34-0.7,0.53-2.13,1.79-2.44,3.5-1.06,5.72,3,4.81,6.57,7.8,10.91,9.12,3.74,1.14,7.15,2,10.41,2.68A19.28,19.28,0,0,0,89.6,336Z" transform="translate(-50 -50)"/><path class="cls-1" d="M180.77,80.8c0.11,0.43.22,0.85,0.31,1.26l0.1,0.44,4,2.13,0.38-.1c4.45-1.19,6.55-2.53,9.38-6a44,44,0,0,0,7.39-13.39,11.75,11.75,0,0,0-4.46-13c-2.12-1.35-4.66-2.65-7.44-2-3.76.86-8.27,2.61-9.66,8.55-1.63,6.93-1.19,13.69-.63,18.8A23.13,23.13,0,0,0,180.77,80.8ZM190,59.68a3.44,3.44,0,0,1,2.26.73c1.41,0.84,1.52,1.14,1,2.74a41.49,41.49,0,0,1-4.49,9A30.22,30.22,0,0,1,190,59.68Z" transform="translate(-50 -50)"/><path class="cls-1" d="M224,497.74l0.27,0.57h0.63a12,12,0,0,0,10.27-5.19,45.79,45.79,0,0,0,7.77-18.5,6.13,6.13,0,0,0-.79-4.49c-0.24-.39-0.47-0.78-0.71-1.18-0.37-.64-0.75-1.28-1.17-1.9-1.5-2.19-3.27-2.8-5.58-1.9-4.94,1.91-8.2,4.49-10.26,8.09C220,481,219.86,489,224,497.74Z" transform="translate(-50 -50)"/><path class="cls-1" d="M218.5,529l-0.74-.08c-0.52-.05-1-0.12-1.53-0.19a21.19,21.19,0,0,0-3.35-.27,39.6,39.6,0,0,0-19.22,5.62c-4.17,2.44-4.95,4.15-4.14,9.17l0,0.27c0.07,0.44.14,0.88,0.23,1.32,0.69,3.55,2.26,5,5.61,5.14q0.74,0,1.44,0A17.58,17.58,0,0,0,207,547.3c2.27-1.51,4.49-3.13,6.65-4.7l1.44-1a8.34,8.34,0,0,0,2.59-3.47,13.19,13.19,0,0,0,1-8.37Z" transform="translate(-50 -50)"/><path class="cls-1" d="M1188,511.38a158.1,158.1,0,0,1,12.32-13.8c5.21-5.34,10.26-11,15.14-16.45l1-1.1a257.36,257.36,0,0,0,18.36-23,162.68,162.68,0,0,0,8.57-14.05l2.71-4.79c3.85-6.78,7.84-13.79,11.45-20.86,6.43-12.58,12.49-24.92,18-36.7a83.83,83.83,0,0,0,6.7-21.4c2-11.77,4.56-23.81,7.72-36.8a234.48,234.48,0,0,0,5.36-34.6,230.34,230.34,0,0,0,1.15-26.65c-0.07-2.88-.26-5.79-0.45-8.6-0.14-2.15-.29-4.31-0.37-6.46-0.1-2.33-.14-4.65-0.18-7-0.07-3.44-.13-7-0.37-10.48-0.13-1.85-.24-3.71-0.36-5.56-0.52-8.33-1.06-17-2.79-25.33-0.73-3.53-1.59-7.2-2.63-11.25-1.09-4.2-2.39-9.18-3.89-14.19-1.35-4.52-2.67-8.48-4-12.1-1.28-3.43-2.7-6.87-4.07-10.2q-0.86-2.09-1.71-4.18A103.61,103.61,0,0,0,1264,124.47c-0.67-.94-1.31-1.91-2-2.87-0.83-1.24-1.65-2.48-2.54-3.67l-1.64-2.22c-2.25-3.05-4.59-6.21-7.12-9.13-5.67-6.51-11.81-13.33-19.11-18.7-0.84-.62-1.63-1.31-2.41-2-0.49-.43-1-0.86-1.47-1.27a2,2,0,0,0-.91-0.39l-0.56-.16-0.26.06c-1.77.39-2.43,1.88-2.91,3.24l-0.17.5,0.7,0.94c0.31,0.43.64,0.88,1,1.31,0.22,0.28.48,0.54,0.73,0.8a5,5,0,0,1,.92,1.13c1.86,3.75,4.65,6.75,7.35,9.65,0.63,0.68,1.25,1.35,1.87,2l1.86,2.06c2.26,2.5,4.6,5.08,6.77,7.72,2,2.45,3.9,5.09,5.73,7.64l2.38,3.3c1.86,2.56,3.78,5.21,5.49,7.92A103.56,103.56,0,0,1,1267,150.5c1.54,4,3.12,8,4.7,12q1.43,3.6,2.84,7.2a30.17,30.17,0,0,1,1,2.92q2.35,8.4,4.65,16.82a164.73,164.73,0,0,1,5.13,31.08c0.44,5.53.63,11.17,0.81,16.63,0.13,4.09.27,8.18,0.51,12.27l0.16,2.67c0.27,4.43.54,9,.59,13.51a254.21,254.21,0,0,1-1.55,28c-1.51,15-4.77,29.4-7.75,41.54-1.92,7.8-3.35,14.82-4.37,21.45-1.56,10.09-5,20.24-10.77,32.15-4.77,9.74-9.69,19.81-14.87,29.54-5.81,10.9-11.8,21.6-17.81,31.81a102.32,102.32,0,0,1-10,14.09c-8.22,9.72-16.44,19-24.42,27.57l-2,2.09a160.18,160.18,0,0,0-11.95,13.79,34.63,34.63,0,0,1-8.1,7.66c-9,6.35-17.27,12-25.13,17.29a45.64,45.64,0,0,1-5.2,2.86c-0.8.4-1.6,0.79-2.38,1.2l-1.67.85c-1.12.56-2.23,1.11-3.3,1.76a8.26,8.26,0,0,0-4.15,5l-0.11.43,0.26,0.37a3.91,3.91,0,0,0,3.3,1.91,6.31,6.31,0,0,0,2.47-.6,137.24,137.24,0,0,0,22.63-12.6c4.89-3.32,10-6.91,16.57-11.62A52.33,52.33,0,0,0,1188,511.38Z" transform="translate(-50 -50)"/><path class="cls-1" d="M1184,432.84c2,5.6,4.49,11.08,6.88,16.39l0.53,1.18c2.1,4.64,5.56,7.66,8.66,10a6.88,6.88,0,0,0,1.63.85,5.61,5.61,0,0,0,1,.26l1.29,0.29,2.51-5.22-1.37-2c-0.75-1.08-1.42-2.06-2.12-3a3.23,3.23,0,0,1-.56-2.32,135,135,0,0,0-1.71-29.4c-0.75-4.89-1.38-8.63-2.05-12.14a27.59,27.59,0,0,0-2.87-8.52,14.41,14.41,0,0,0-6.9-6c-2.09-1-3.84-.5-5.34,1.43a24.41,24.41,0,0,0-4.78,19.8A106,106,0,0,0,1184,432.84Zm4.31-26.16,0-.37c1.9,6.38,2.74,13.12,3.56,19.66l0.12,0.94a86.7,86.7,0,0,1-3.9-16.39A15.07,15.07,0,0,1,1188.33,406.68Z" transform="translate(-50 -50)"/><path class="cls-1" d="M1288.72,438.76a33,33,0,0,0-14.16.68,54.25,54.25,0,0,0-18.17,8.51,19.48,19.48,0,0,0-6.56,7.44l-0.79,0a26.34,26.34,0,0,1-2.69-.23,3.51,3.51,0,0,0-3.67,1.68c-0.64,1-1.25,2-1.89,3.11l-1.34,2.24,1.48,1.15c0.53,0.42,1,.8,1.52,1.15s1,0.63,1.46.86l0.6,0.33h0.27l2.26-.06c1.47,0,2.86-.09,4.22,0q3.08,0.14,6,.14a110.45,110.45,0,0,0,14.69-1,97.88,97.88,0,0,0,19.12-4.23,19.72,19.72,0,0,0,11.26-9.32c1.63-3,1.29-4.83-1.33-7.1C1298,441.4,1294,439.71,1288.72,438.76Zm4.34,10.5c-3.53,2.18-7.73,3.09-11.81,4l-0.26.06c-8.51,1.85-16.43,2.64-21.52,2.16,0.24-.19.46-0.35,0.7-0.51a49,49,0,0,1,19.85-7.37,26.5,26.5,0,0,1,12.05,1.11A1.32,1.32,0,0,1,1293.06,449.25Z" transform="translate(-50 -50)"/><path class="cls-1" d="M1349.81,171.44c-0.35-2.26-1.4-3.24-3.71-3.51a22.24,22.24,0,0,0-10.18,1.11,37.15,37.15,0,0,0-11.82,7,58.28,58.28,0,0,0-14,17.52,19.14,19.14,0,0,0-1.8,5.5,5.43,5.43,0,0,1-1.62,3.2c-2.79,2.79-3.89,7-3,11.51l0.11,0.6,0.59,0.17a5.65,5.65,0,0,0,1.53.22,4.54,4.54,0,0,0,3.71-1.92c2.57-3.39,6.08-5.38,10.4-7.63a80.27,80.27,0,0,0,25.85-21.76,35.38,35.38,0,0,0,2.86-4.45A11.28,11.28,0,0,0,1349.81,171.44Zm-12.1,7.08a68,68,0,0,1-17.16,15.19C1323.81,188.26,1331.48,181.46,1337.7,178.52Z" transform="translate(-50 -50)"/><path class="cls-1" d="M1260.25,489.92a22.32,22.32,0,0,0-9.67-2,42,42,0,0,0-8.06.67c-7,1.21-13.67,3.85-20.09,6.42l-2.2.86c-0.66.25-1.33,0.5-2,.79a5.19,5.19,0,0,1-3.56.48,7,7,0,0,0-6.1,1.08l-0.44.31,0.25,5,0.3,0.27a16.58,16.58,0,0,0,7,3.75c2.86,0.8,6.63,1.8,10.49,2.48a107.5,107.5,0,0,0,18.93,1.92q1.29,0,2.55,0a69.35,69.35,0,0,0,8.77-1,18.08,18.08,0,0,0,3.71-1.17l0.61-.24c3.65-1.42,5.54-4,5.64-7.79a3.76,3.76,0,0,1,0-.63C1267.41,496,1265.5,492.56,1260.25,489.92ZM1231,502.51a16,16,0,0,1,2.86-1.08c0.67-.21,1.34-0.41,2-0.67a67.83,67.83,0,0,1,13.48-4c3.23-.57,5.49.18,7.21,2.43-1,1.66-2.54,2.38-4.52,2.91a32.51,32.51,0,0,1-11,1.31c-3.28-.25-6.56-0.58-9.83-0.92Z" transform="translate(-50 -50)"/><path class="cls-1" d="M1274.75,211.81a4.74,4.74,0,0,0-1.61-3.3l-2.41-2.32c-1.1-1.05-2.19-2.11-3.28-3.17a33.2,33.2,0,0,0-10.91-7c-6.94-2.81-13.25-5.23-20.12-6.47a45.41,45.41,0,0,0-12.06-.8,12.55,12.55,0,0,0-2,.4l-1.05.26-0.49.11-0.9,2.05c-1.66,3.9-.83,7.55,2.56,11.15a31.61,31.61,0,0,0,9.39,6.43,90.1,90.1,0,0,0,17.29,6.25c5.43,1.4,11,2.69,16.36,4l1,0.23a24.3,24.3,0,0,0,2.77.42l1.52,0.18,0.9,0.12,0.43-1.92c0.14-.6.24-1,0.31-1.48a3.5,3.5,0,0,1,1.09-2.13A4.1,4.1,0,0,0,1274.75,211.81Zm-21.39-4a72.32,72.32,0,0,1-13.37-4.26,26.58,26.58,0,0,1-9-5.61,1.35,1.35,0,0,1-.16-0.21,28.17,28.17,0,0,1,10.92,1.22c2.61,0.83,5.24,1.78,7.78,2.7l0.41,0.15a29.38,29.38,0,0,1,12,8c-0.3,0-.57-0.09-0.84-0.16-1-.23-1.93-0.47-2.9-0.72C1256.58,208.5,1255,208.09,1253.35,207.78Z" transform="translate(-50 -50)"/><path class="cls-1" d="M1250.33,154.94c-2.54-5.58-7.44-8.49-12.68-11.22a47.69,47.69,0,0,0-13.4-4.33,22.46,22.46,0,0,0-10.25.25c-3.35.91-5.37,2.93-6,6a16.93,16.93,0,0,1-.49,1.8,11.09,11.09,0,0,0,1.52,9.89,18.19,18.19,0,0,0,8.75,6.85,36.7,36.7,0,0,0,14,2.69,42,42,0,0,0,4.33-.23c5.28-.55,10.56-1.16,15.83-1.77l4.62-.53h0a11.79,11.79,0,0,0,1.43-.29l1.45-.33,0.84-6.23-0.45-.35C1256.77,154.77,1256.42,154.71,1250.33,154.94Zm-9.4,1.34-1.79.21c-2.7.33-5.14,0.62-7.58,0.85-1.44.13-2.93,0.15-4.38,0.16l-1.47,0c-3.76.11-6.53-1.73-8.59-5.5a2.41,2.41,0,0,1-.44-1.68,2.37,2.37,0,0,1,1.35-1.07,12.78,12.78,0,0,1,3.5-1,16.44,16.44,0,0,1,2.26-.16,14.67,14.67,0,0,1,5.07.88,37.11,37.11,0,0,1,10.72,6A15.29,15.29,0,0,1,1240.94,156.28Z" transform="translate(-50 -50)"/><path class="cls-1" d="M1297.75,153.68c1.49,0.2,2.06,1.17,2.87,2.73l0.37,0.7a3.28,3.28,0,0,0,.75.86l0.34,0.31,0.46,0.46,0.6-.24a9.82,9.82,0,0,0,5.16-4.87c1.1-2,2.44-4,3.73-5.92,0.45-.67.9-1.33,1.34-2,0.76-1.15,1.54-2.29,2.32-3.43,1.52-2.21,3.09-4.49,4.47-6.85a30.4,30.4,0,0,0,4.26-17.23,20.45,20.45,0,0,0-3.55-10.07,10.09,10.09,0,0,0-1.75-1.95,6.22,6.22,0,0,0-7.59-1.14c-3.51,1.7-6.28,4.44-8.73,8.61a46.54,46.54,0,0,0-4.8,12c-1,4-1.84,8-2.64,11.94-0.4,2-.8,3.93-1.22,5.89a11.75,11.75,0,0,0,1.62,8.27C1296.2,152.5,1296.78,153.55,1297.75,153.68Zm4.83-8.35a126.21,126.21,0,0,1,4.25-18.54,39.36,39.36,0,0,1,4.73-10.55,16,16,0,0,1,1.85-2.32,0.66,0.66,0,0,1,.5-0.26,1.56,1.56,0,0,1,.79.3,2,2,0,0,1,1.15,1.43l0.12,0.77a8.77,8.77,0,0,1,.17,1.8,28,28,0,0,1-3,11.79,101.29,101.29,0,0,1-8.21,12.35Q1303.76,143.71,1302.58,145.33Z" transform="translate(-50 -50)"/><path class="cls-1" d="M1272.54,272.92l0.32-2.12c0.12-.8.23-1.49,0.31-2.19a6.14,6.14,0,0,0-2.87-6.31,38.82,38.82,0,0,1-5.74-5.14,83,83,0,0,0-15.38-12.81c-4.25-2.66-10-5.82-16.86-6.62l-0.75-.09a10.88,10.88,0,0,0-5.47.25l-0.25.1-0.37.45a2,2,0,0,0-.53.84c-1.63,5.88-1.25,7.7,2.58,12.14a36.94,36.94,0,0,0,6.29,5.75,81.74,81.74,0,0,0,28.76,13.8c0.79,0.19,1.56.43,2.35,0.67a22.37,22.37,0,0,0,6.75,1.28h0.85Zm-22.06-16.12a72.56,72.56,0,0,1-12-7.81c-0.22-.18-0.42-0.36-0.61-0.53a45.57,45.57,0,0,1,10,6.21C1249.07,255.57,1249.88,256.24,1250.48,256.8Z" transform="translate(-50 -50)"/><path class="cls-1" d="M1252,94.93l0.15,0.32c0.75,1.67,1.18,2.76.53,4.08a2.4,2.4,0,0,0,.06,1.8l1-.22-0.94.29a13.51,13.51,0,0,0,3.71,5.22l0.53,0.49,0.63-.36a22.73,22.73,0,0,0,5.92-4.92,55.29,55.29,0,0,0,11-19,16.6,16.6,0,0,0,.49-9.5,18.93,18.93,0,0,0-3.29-6.68,4.94,4.94,0,0,0-6.41-1.79,41.66,41.66,0,0,0-7.11,3.78c-3.16,2.16-4.6,5.58-5.5,8.31A35.38,35.38,0,0,0,1251.27,92,9.87,9.87,0,0,0,1252,94.93Zm8.55-6.05a29.15,29.15,0,0,1,1.65-9.26,14.93,14.93,0,0,1,2-3.55,1.85,1.85,0,0,1,1.94-.95,9.21,9.21,0,0,1-.57,3.1A41.61,41.61,0,0,1,1260.55,88.88Z" transform="translate(-50 -50)"/><path class="cls-1" d="M1344.24,243.54c-6.67-2.93-12.25-3.19-17.59-.8a47.35,47.35,0,0,0-11,6.58c-0.46.38-.89,0.78-1.33,1.18a15.48,15.48,0,0,1-2.19,1.8c-3.14,2-3.65,5.22-4.06,7.81-0.34,2.18.79,3.69,3.12,4.15a6.41,6.41,0,0,0,1.27.13,5.43,5.43,0,0,0,2.41-.57c2.92-1.41,6.11-1.51,9.19-1.48a52.48,52.48,0,0,0,5.88-.41c0.92-.1,1.86-0.2,2.84-0.28l0.31-.08c0.71-.31,1.45-0.61,2.2-0.92a59.52,59.52,0,0,0,5.51-2.47c3.41-1.81,5.42-5,6.16-9.76A4.28,4.28,0,0,0,1344.24,243.54Z" transform="translate(-50 -50)"/><path class="cls-1" d="M1309.59,389.33a74.17,74.17,0,0,0-6.9-3.22,12.92,12.92,0,0,0-9.2-.44c-8.33,2.85-13.58,8.12-16.05,16.09l-0.19.61,0.48,0.42a8.28,8.28,0,0,0,1.3.89c1,0.58,1,.7,1,1.14l-0.11.67,0.59,0.34a13.12,13.12,0,0,0,6.75,1.79,17.42,17.42,0,0,0,2.36-.17,47.39,47.39,0,0,1,6.7-.28h2.26a31.28,31.28,0,0,0,8-1.26c5.26-1.45,7.26-5.52,8.42-8.9a3.93,3.93,0,0,0-.64-3.44A11.78,11.78,0,0,0,1309.59,389.33Zm-8,7a29.55,29.55,0,0,1-8.85.51,11.86,11.86,0,0,1,5-1.66A5.61,5.61,0,0,1,1301.58,396.29Z" transform="translate(-50 -50)"/><path class="cls-1" d="M1189.15,108.19c0.11,3.91,2.06,6.82,6,8.9a27.88,27.88,0,0,0,13.36,3.08c0.69,0,1.4,0,2.11-.06a61.55,61.55,0,0,0,13.49-2c0.95-.26,1.87-0.62,2.92-1l1.58-.6,0.85-.31-1.71-6.4-0.49-.17c-2.9-1-5.49-.36-7.69.34a30.74,30.74,0,0,1-10.92,1.71,17.54,17.54,0,0,1-9.1-3.1,1.38,1.38,0,0,1-.66-0.84,1.43,1.43,0,0,1,.5-1c2.08-2.19,3.86-2.8,6-2l1,0.37c1.72,0.63,3.49,1.27,5.16,2,4.2,1.93,8.2,1,11.55-.11l0.73-.25-0.13-1.5c0-.51-0.07-1-0.15-1.41a3.7,3.7,0,0,0-2.62-3,51.92,51.92,0,0,1-5-2.06,25.93,25.93,0,0,0-19.16-1.7,16.4,16.4,0,0,0-4.52,2.15,6.72,6.72,0,0,0-3.2,6.67c0.08,0.66.1,1.33,0.11,2v0.28Z" transform="translate(-50 -50)"/><path class="cls-1" d="M1263.33,332.69c0.91-.07,1.81-0.23,2.76-0.39l1.3-.22,0.61-.1,0.39-1.29c0.75-2.46,1.46-4.79.4-7.37a7.5,7.5,0,0,0-2.55-3.58q-8.09-5.73-16.14-11.5a30.41,30.41,0,0,0-10.86-4.63,3.13,3.13,0,0,0-1.14,0l-0.44,0-0.52,0-0.27.45a11,11,0,0,0-1.4,9.41c0.22,0.65.41,1.3,0.61,1.95a22.72,22.72,0,0,0,2.67,6.38,18.07,18.07,0,0,0,6.66,6.23c4.51,2.34,9.89,4.66,16.05,4.66C1262.06,332.76,1262.7,332.74,1263.33,332.69Zm-8.77-10.3a10.4,10.4,0,0,1-4.9-2.23,7.71,7.71,0,0,1-2.17-2.94c1.25,0.84,2.47,1.76,3.73,2.71C1252.29,320.74,1253.39,321.57,1254.56,322.39Z" transform="translate(-50 -50)"/><path class="cls-1" d="M1250.49,375.48a42.58,42.58,0,0,0-4.18-8.3c-2.18-3.4-5.59-5.52-10.16-6.3-2.72-.45-4.29.41-5.44,3a16.75,16.75,0,0,0-.61,12.29,32.46,32.46,0,0,0,6.21,10.95c0.79,0.94,1.62,1.85,2.44,2.77,1.35,1.51,2.75,3.07,4,4.69,2.63,3.46,6.26,3.83,9.76,4.2l0.69,0.07,0.3-.62c0.75-1.54,1.68-3.46.18-5.35a2.34,2.34,0,0,1-.3-1.91C1253.93,385.52,1252.33,380.54,1250.49,375.48Zm-9.51,2.38a13.87,13.87,0,0,1-1.47-3.31A18.75,18.75,0,0,1,1241,377.86Z" transform="translate(-50 -50)"/><path class="cls-1" d="M1333.8,317.58a5.89,5.89,0,0,1-.79-0.63c-2.72-2.77-6.26-3.53-10.5-2.27a53.71,53.71,0,0,0-6.79,2.47,81.93,81.93,0,0,0-14.44,8.52A15.39,15.39,0,0,0,1296,332l-0.34.74,1.33,1c0.45,0.33.83,0.61,1.23,0.85a4.36,4.36,0,0,0,4.33.45c1-.54,2-0.34,3.28.22a11.43,11.43,0,0,0,4.53.87,19.43,19.43,0,0,0,3.83-.42c3.26-.66,6.66-1.54,10.41-2.68,4.34-1.33,7.91-4.31,10.91-9.12,1.38-2.22,1.06-3.93-1.07-5.72C1334.27,317.92,1334,317.75,1333.8,317.58Z" transform="translate(-50 -50)"/><path class="cls-1" d="M1205.11,78.55c2.83,3.45,4.93,4.79,9.38,6l0.38,0.1,4-2.13,0.1-.44c0.09-.41.2-0.83,0.31-1.26a23.13,23.13,0,0,0,.68-3.27c0.56-5.12,1-11.88-.63-18.8-1.39-5.95-5.9-7.7-9.66-8.55-2.78-.64-5.32.66-7.44,2a11.75,11.75,0,0,0-4.46,13A44,44,0,0,0,1205.11,78.55Zm6.11-6.41a41.49,41.49,0,0,1-4.49-9c-0.54-1.6-.43-1.91,1-2.76a3.89,3.89,0,0,1,1.93-.74l0.31,0A30.22,30.22,0,0,1,1211.22,72.14Z" transform="translate(-50 -50)"/><path class="cls-1" d="M1164.82,493.11a12,12,0,0,0,10.27,5.19h0.63l0.27-.57c4.15-8.72,4-16.74-.44-24.51-2.06-3.61-5.32-6.18-10.26-8.09-2.31-.9-4.08-0.29-5.58,1.9-0.42.61-.79,1.25-1.17,1.9-0.23.4-.46,0.79-0.71,1.18a6.13,6.13,0,0,0-.79,4.49A45.79,45.79,0,0,0,1164.82,493.11Z" transform="translate(-50 -50)"/><path class="cls-1" d="M1206.35,534.06a39.6,39.6,0,0,0-19.22-5.62,23.62,23.62,0,0,0-3.35.27c-0.5.07-1,.14-1.53,0.19l-0.74.08-0.13.73a13.19,13.19,0,0,0,1,8.37,8.35,8.35,0,0,0,2.6,3.47l1.44,1c2.15,1.57,4.38,3.19,6.65,4.7a17.57,17.57,0,0,0,10.13,2.7q0.7,0,1.44,0c3.34-.15,4.91-1.59,5.61-5.14,0.08-.44.16-0.88,0.23-1.32l0-.27C1211.29,538.22,1210.52,536.51,1206.35,534.06Z" transform="translate(-50 -50)"/><path class="cls-1" d="M247.27,384.32c-2.78.77-7.49,2.11-10.94,2.11h-2.59a23.34,23.34,0,0,0-2.59.1c-1.44-1.73-1.73-4.42-1.73-6.91,0-18.14-1-37.63.58-55.2,3.26-.58,6.43-1.54,9.79-1.54,9.6,0,15.45,4.42,15.45,13a19.25,19.25,0,0,1-4.51,11.9c6,4.51,5.38,9.6,5.38,18.72C256.1,373.57,255.33,382,247.27,384.32ZM241.61,353a9.48,9.48,0,0,0-2.78.29c0,3.84-.1,7.58-0.1,11.33a85.66,85.66,0,0,0,.58,11.14c1.92-.38,4.7-0.19,6.14-1.63,1.25-1.15,2.11-9.6,2.11-11.42C247.56,358,248,353,241.61,353Zm-0.1-21.79c-0.67,0-1.44.1-2.21,0.1h-0.48c0.19,4,.29,13.63.58,13.63,3.65,0,5.86-4.22,6-4.51a7.4,7.4,0,0,0,.86-3.74C246.31,333.44,245.06,331.24,241.51,331.24Z" transform="translate(-50 -50)"/><path class="cls-1" d="M292.49,372.23c0,3.17-.29,7.2-2.78,9.5h0.1l-0.38.29c-4.32,3-4.32,4.42-10.56,4.42a15,15,0,0,1-9.7-3.46l0.1,0.1a11.26,11.26,0,0,1-3.46-5.18l0.1,0.1-0.29-.67c-3.46-8.83-3-26.88-3-32.25,0-14,5.86-22,16.8-22,3.46,0,7.2,2.69,9.41,5.18h-0.1c3.55,3.17,3.94,9.41,3.94,13.92C292.68,352.16,292.49,362.24,292.49,372.23Zm-16.41,3.84a6.22,6.22,0,0,0,3.65,1.06c1,0,2.21-.1,2.69-1.15,1-2.4,2.11-16,2.11-19.29,0-2.88-.29-5.86-0.29-8.83,0-1.92.19-3.74,0.19-5.66,0-3.65-.67-8.93-5.38-8.93-7.2,0-6.53,14.4-6.53,20.73,0,3.65.48,7.1,0.48,10.66s0.29,8.93,3.07,11.52v-0.1Z" transform="translate(-50 -50)"/><path class="cls-1" d="M331.36,366.85a17.68,17.68,0,0,1,.29,3.17c0,11.23-7.39,16.61-16.22,16.61-7.2,0-14.59-6.14-14.59-13.73,0-3.74,2.69-3.94,5.66-3.94a8.48,8.48,0,0,1,4.22,1.15c0,3.07,1.73,7.2,5.38,7.2a5.68,5.68,0,0,0,5.76-5.86c0-6.14-8.83-14.21-13.25-17.85l0.1,0.1c-5.76-4.7-8.45-8.16-8.45-15.84,0-9,6.34-15.65,15.55-15.65,4.32,0,9.89,2.21,11.81,6.34,1,2.11,2.78,5.28,2.78,7.68,0,2.88-4.32,3.36-6.53,3.36-6.14,0-1.54-8.16-9.7-8.16-1.06,0-2.3,1.06-3,1.82h0.1a8.65,8.65,0,0,0-2.21,5.57,7.4,7.4,0,0,0,.19,1.44c1.15,6.24,19.39,15.36,22.08,26.69v-0.1Z" transform="translate(-50 -50)"/><path class="cls-1" d="M343.27,329.41c-0.67,0-1.44.19-2.3,0.19a4.39,4.39,0,0,1-3.26-1.54,4.66,4.66,0,0,0,.1-1.15c0-.67-0.1-1.44-0.1-2.21,0-1.34.29-3.17,1.82-3.65h-0.1a8.15,8.15,0,0,1,2.11-.38c2.11,0,4.13.38,6.14,0.38,3.17,0,6.43-.1,9.6-0.1,1.73,0,3.36-.58,5-0.58s1.82,2.21,1.82,3.46c0,6.72-1.63,5.28-7.39,6.14-0.67,12.29-1.06,24.77-1.06,37.05,0,1.92.19,3.84,0.19,5.76,0,4.51-.29,8.93-0.48,13.44-1.06.1-2,.19-3.07,0.19-1.92,0-3.84-.38-5.76-0.38a21,21,0,0,1-.29-3.46c0-2.59.38-5.28,0.38-7.87,0-1.25-.1-2.59-0.1-3.84,0.38-6.43.48-10.46,0.48-13.25,0-9-.58-14.88-0.58-22.75a52.14,52.14,0,0,1,.19-5.47h-3.36Z" transform="translate(-50 -50)"/><path class="cls-1" d="M395.49,372.23c0,3.17-.29,7.2-2.78,9.5h0.1l-0.38.29c-4.32,3-4.32,4.42-10.56,4.42a15,15,0,0,1-9.7-3.46l0.1,0.1a11.26,11.26,0,0,1-3.46-5.18l0.1,0.1-0.29-.67c-3.46-8.83-3-26.88-3-32.25,0-14,5.86-22,16.8-22,3.46,0,7.2,2.69,9.41,5.18h-0.1c3.55,3.17,3.94,9.41,3.94,13.92C395.68,352.16,395.49,362.24,395.49,372.23Zm-16.41,3.84a6.22,6.22,0,0,0,3.65,1.06c1,0,2.21-.1,2.69-1.15,1-2.4,2.11-16,2.11-19.29,0-2.88-.29-5.86-0.29-8.83,0-1.92.19-3.74,0.19-5.66,0-3.65-.67-8.93-5.38-8.93-7.2,0-6.53,14.4-6.53,20.73,0,3.65.48,7.1,0.48,10.66s0.29,8.93,3.07,11.52v-0.1Z" transform="translate(-50 -50)"/><path class="cls-1" d="M413.73,352.74c0,2.3-.29,4.61-0.48,6.91-0.67,7-1.06,14.59-1.06,21,0,1.25.1,2.5,0.19,3.65-0.67,2-3.46,2.11-5.47,2.11-2.4,0-3.65-.29-4.51-2.5,0.86-1.63,1-15.26,1-17.85,0-12.86,1-25.73,1-38.49,0-4.32,3.17-4.51,5.76-4.51h2.4c2.21,2.59,4.7,15.46,6.91,20.64,1.92,4.51,3.26,8.93,5.47,13.25,0-1.92-.19-3.74-0.19-5.66,0-7.78,1.25-15.46,1.25-23.23,0-1.06-.38-2.11-0.38-3.26a7.68,7.68,0,0,1,.77-3.17c2.78,0.67,9.89-.48,9.89,3.55,0,1.92-.38,4-0.48,6-0.58,14.88-1.63,29.37-1.92,45.21v3.74c0,5.38-1.34,6.62-5.09,6.62-1.34,0-3.17-.19-4.13-1.15-0.67-.86-9.22-25.82-9.79-28.41Z" transform="translate(-50 -50)"/><path class="cls-1" d="M486.69,323.75c0,1.73.19,3.46,0.19,5.28,0,2.3-1.15,3.07-3.36,3.07-2.5,0-4.9-.29-7.39-0.29-1,0-2,.1-3,0.19v16.32c0,1.82.1,3.65,0.19,5.38,1.73,0,3.55-.29,5.28-0.29a11.8,11.8,0,0,1,3.55.77,4.67,4.67,0,0,0-.1,1.15c0,1.15.19,2.21,0.19,3.26,0,3.55-1.44,3.46-3.94,3.46-1.15,0-2.21-.1-3.36-0.1a8.81,8.81,0,0,0-1.54.1v21.79c0,3.07-3.36,2.5-5.47,2.5-1.06,0-2.11-.1-3.07-0.19-1.25-7.58-.77-17.09-0.77-25.63,0-6,.1-12.19.1-18.24,0-2.69-.1-5.66-0.1-8.64a45,45,0,0,1,.86-10.27c4.61-.58,9.31-0.38,13.92-0.58,1.73-.1,3.36-0.48,5-0.48a4.83,4.83,0,0,1,2.3.58Z" transform="translate(-50 -50)"/><path class="cls-1" d="M516.36,376.26c5.09,0,3.55,6.43,3.84,9.89-3.26.29-6.62,0.38-10,.38-1.73,0-13.63-.19-14.69-0.77-1.54-3.55-1.63-10.08-1.63-14.11,0-16.13-.38-32.45-0.38-48.57,1.54-1.54,3.46-1.54,5.47-1.54,4.61,0,9.22-.48,13.73-0.48a12.15,12.15,0,0,1,5.86,1.25c0.19,2.21.67,5.18,0.67,6.91,0,2.11-2.11,2.11-3.74,2.11-4.22,0-8.45.19-12.58,0.48,0,6.14-1,12.19-1,18.33a7.24,7.24,0,0,0,.1,1.44c3.07-.29,6.14-0.77,9.22-0.77,1.15,0,2.3.19,3.36,0.19a50.63,50.63,0,0,1,1.54,7.39c0,3-9.5,2.11-13.82,2.4v0.86c-0.1,2.4.48,4.8,0.48,7.2a33.5,33.5,0,0,0,.48,6.91,71.51,71.51,0,0,0,11,.58C514.92,376.35,515.68,376.26,516.36,376.26Z" transform="translate(-50 -50)"/><path class="cls-1" d="M558.59,366.85a17.68,17.68,0,0,1,.29,3.17c0,11.23-7.39,16.61-16.22,16.61-7.2,0-14.59-6.14-14.59-13.73,0-3.74,2.69-3.94,5.66-3.94a8.48,8.48,0,0,1,4.22,1.15c0,3.07,1.73,7.2,5.38,7.2a5.68,5.68,0,0,0,5.76-5.86c0-6.14-8.83-14.21-13.25-17.85l0.1,0.1c-5.76-4.7-8.45-8.16-8.45-15.84,0-9,6.34-15.65,15.55-15.65,4.32,0,9.89,2.21,11.81,6.34,1,2.11,2.78,5.28,2.78,7.68,0,2.88-4.32,3.36-6.53,3.36-6.14,0-1.54-8.16-9.7-8.16-1.06,0-2.3,1.06-3,1.82h0.1a8.65,8.65,0,0,0-2.21,5.57,7.4,7.4,0,0,0,.19,1.44c1.15,6.24,19.39,15.36,22.08,26.69v-0.1Z" transform="translate(-50 -50)"/><path class="cls-1" d="M570.5,329.41c-0.67,0-1.44.19-2.3,0.19a4.39,4.39,0,0,1-3.26-1.54,4.66,4.66,0,0,0,.1-1.15c0-.67-0.1-1.44-0.1-2.21,0-1.34.29-3.17,1.82-3.65h-0.1a8.15,8.15,0,0,1,2.11-.38c2.11,0,4.13.38,6.14,0.38,3.17,0,6.43-.1,9.6-0.1,1.73,0,3.36-.58,5-0.58s1.82,2.21,1.82,3.46c0,6.72-1.63,5.28-7.39,6.14-0.67,12.29-1.06,24.77-1.06,37.05,0,1.92.19,3.84,0.19,5.76,0,4.51-.29,8.93-0.48,13.44-1.06.1-2,.19-3.07,0.19-1.92,0-3.84-.38-5.76-0.38a21,21,0,0,1-.29-3.46c0-2.59.38-5.28,0.38-7.87,0-1.25-.1-2.59-0.1-3.84,0.38-6.43.48-10.46,0.48-13.25,0-9-.58-14.88-0.58-22.75a52.14,52.14,0,0,1,.19-5.47H570.5Z" transform="translate(-50 -50)"/><path class="cls-1" d="M607.27,334.6v5.66c0,5.09-.67,10.08-0.67,15.17,0,4.32.38,8.54,0.38,12.86,0,2-.19,4.13-0.19,6.24s0.19,4.32.19,6.53a11.51,11.51,0,0,1-.38,3.55c-1.92,1.34-5.18,1.54-7.49,1.63a6,6,0,0,1-1.92-4.8c0-8.35,1-16.61,1-25,0-9.7-.86-19.49-0.86-29.09,0-3.94,2-4.32,4.8-4.32s5.66-.38,5.66,2.69C607.75,328.65,607.27,331.62,607.27,334.6Z" transform="translate(-50 -50)"/><path class="cls-1" d="M624.64,368.87c-1.06-5.09-2.88-9.89-4.13-14.88a213.43,213.43,0,0,1-4.42-23.13l-0.86-8.45c2.4,0,4.7-.77,7-0.77l1,0.1c1.25,1.34,1.25,5.28,1.44,7,0.48,6.34,2,13.25,3.26,19.49,0.77,4.13,1.44,8.16,2.4,12.19,1.34-11.9,3.94-22.65,5.86-33.89a9.9,9.9,0,0,1,1.63-4.8,5.49,5.49,0,0,0,1.25.1c1.25,0,2.5-.19,3.84-0.19,1.82,0,3.07,0,3.07,2.69,0,1.82-.86,3.65-1.34,5.28v-0.1c-2.4,11.52-4.13,23.23-6.14,34.75-3,20.35-3.17,21.21-3.55,22.08h-0.58a36.17,36.17,0,0,1-5.57-.38c-2.11-5.47-2.5-11.42-4-17.09h-0.1Z" transform="translate(-50 -50)"/><path class="cls-1" d="M675.71,382.88a5.74,5.74,0,0,1-1.34,3.46c-2.4-.19-5,0.29-7.1-1-1.06-3.84-2.88-11.52-3.17-15.36-1.44-.1-2.78-0.19-4.22-0.19a20.87,20.87,0,0,0-3.46.19c-2.21,5.57-2.3,13.82-4.51,16.22-1.92,0-7.2,1.25-7.2-2.69a29.85,29.85,0,0,1,2-10v0.1a43.89,43.89,0,0,0,1.34-5.09l4.22-21.69c1.15-6.14,3.07-15.74,5.09-21.6,0.58-1.63,1.34-2.3,3.07-2.3,1,0,1.92.38,2.88,0.38a6.32,6.32,0,0,0,1.34-.1c1.73,2.69,2.5,12,7.78,42.52v-0.1C673.5,369.73,675.71,379,675.71,382.88Zm-13-21.5c-0.38-4.42-.86-14.11-1.82-14.11l-2.78,14.4C659.68,361.67,661.22,361.38,662.75,361.38Z" transform="translate(-50 -50)"/><path class="cls-1" d="M708.35,383.17v0.38c-0.29,3-6.72,2.59-13.82,2.59-4.22,0-7.87.86-8.64-2.69H686c-1.25-3.74-1.34-24.67-1.34-35.81,0-8.45.77-9.79,0.77-14.88,0-1.15-.1-2.3-0.1-3.65,0-2.21.48-4,3.07-4,3.17,0,5.86.48,5.86,5.38,0,2.21-.48,4.51-0.48,6.72,0,3.26.29,6.43,0.29,9.7,0,1.63,0,3.26-.1,4.9v-0.1c-0.1,4.51-.19,8.93-0.19,13.44,0,3.84-.1,8.93.48,12.19,3.26,1,8.83.38,13.25,1.54A13.31,13.31,0,0,1,708.35,383.17Z" transform="translate(-50 -50)"/><path class="cls-1" d="M767.2,372.23c0,3.17-.29,7.2-2.78,9.5h0.1l-0.38.29c-4.32,3-4.32,4.42-10.56,4.42a15,15,0,0,1-9.7-3.46l0.1,0.1a11.26,11.26,0,0,1-3.46-5.18l0.1,0.1-0.29-.67c-3.46-8.83-3-26.88-3-32.25,0-14,5.86-22,16.8-22,3.46,0,7.2,2.69,9.41,5.18h-0.1c3.55,3.17,3.94,9.41,3.94,13.92C767.39,352.16,767.2,362.24,767.2,372.23Zm-16.41,3.84a6.22,6.22,0,0,0,3.65,1.06c1,0,2.21-.1,2.69-1.15,1-2.4,2.11-16,2.11-19.29,0-2.88-.29-5.86-0.29-8.83,0-1.92.19-3.74,0.19-5.66,0-3.65-.67-8.93-5.38-8.93-7.2,0-6.53,14.4-6.53,20.73,0,3.65.48,7.1,0.48,10.66s0.29,8.93,3.07,11.52v-0.1Z" transform="translate(-50 -50)"/><path class="cls-1" d="M796.67,323.75c0,1.73.19,3.46,0.19,5.28,0,2.3-1.15,3.07-3.36,3.07-2.5,0-4.9-.29-7.39-0.29-1,0-2,.1-3,0.19v16.32c0,1.82.1,3.65,0.19,5.38,1.73,0,3.55-.29,5.28-0.29a11.8,11.8,0,0,1,3.55.77,4.67,4.67,0,0,0-.1,1.15c0,1.15.19,2.21,0.19,3.26,0,3.55-1.44,3.46-3.94,3.46-1.15,0-2.21-.1-3.36-0.1a8.81,8.81,0,0,0-1.54.1v21.79c0,3.07-3.36,2.5-5.47,2.5-1.06,0-2.11-.1-3.07-0.19-1.25-7.58-.77-17.09-0.77-25.63,0-6,.1-12.19.1-18.24,0-2.69-.1-5.66-0.1-8.64a45,45,0,0,1,.86-10.27c4.61-.58,9.31-0.38,13.92-0.58,1.73-.1,3.36-0.48,5-0.48a4.83,4.83,0,0,1,2.3.58Z" transform="translate(-50 -50)"/><path class="cls-1" d="M835.36,334.6v5.66c0,5.09-.67,10.08-0.67,15.17,0,4.32.38,8.54,0.38,12.86,0,2-.19,4.13-0.19,6.24s0.19,4.32.19,6.53a11.51,11.51,0,0,1-.38,3.55c-1.92,1.34-5.18,1.54-7.49,1.63a6,6,0,0,1-1.92-4.8c0-8.35,1-16.61,1-25,0-9.7-.86-19.49-0.86-29.09,0-3.94,2-4.32,4.8-4.32s5.66-.38,5.66,2.69C835.84,328.65,835.36,331.62,835.36,334.6Z" transform="translate(-50 -50)"/><path class="cls-1" d="M854.08,352.74c0,2.3-.29,4.61-0.48,6.91-0.67,7-1.06,14.59-1.06,21,0,1.25.1,2.5,0.19,3.65-0.67,2-3.46,2.11-5.47,2.11-2.4,0-3.65-.29-4.51-2.5,0.86-1.63,1-15.26,1-17.85,0-12.86,1-25.73,1-38.49,0-4.32,3.17-4.51,5.76-4.51h2.4c2.21,2.59,4.7,15.46,6.91,20.64,1.92,4.51,3.26,8.93,5.47,13.25,0-1.92-.19-3.74-0.19-5.66,0-7.78,1.25-15.46,1.25-23.23,0-1.06-.38-2.11-0.38-3.26a7.68,7.68,0,0,1,.77-3.17c2.78,0.67,9.89-.48,9.89,3.55,0,1.92-.38,4-0.48,6-0.58,14.88-1.63,29.37-1.92,45.21v3.74c0,5.38-1.34,6.62-5.09,6.62-1.34,0-3.17-.19-4.13-1.15-0.67-.86-9.22-25.82-9.79-28.41Z" transform="translate(-50 -50)"/><path class="cls-1" d="M882.21,357.73c0-2-.19-4-0.19-6.14,0-4.32.29-8.64,0.29-13.05V332.1c0-3.36.1-7.1,0.77-9.5a13.45,13.45,0,0,1,5.47-1H890c5.38,0,14.21.58,17.57,5.28,2.78,4.13,2.78,11,2.78,15.84,0,3.84-.38,7.58-0.38,11.42,0,3,.1,5.76.1,8.74s0,10.17-.77,12.77c-3.17,10-13.25,10.75-22.65,10.75-5.18,0-4.8-2.21-4.8-5.86,0-4.32.19-8.64,0.19-13C882,364.26,882.21,361,882.21,357.73Zm8.83,6.34c0,4.51-.38,9-0.38,13.63h0.48a30.85,30.85,0,0,0,6.53-1.06c4.42-1,3.65-11.13,3.74-16.8s0.48-11.52.48-17.18c0-6.14.19-11.42-7.39-11.42-1,0-1.92,0-2.88.1-0.19,6.72-.86,13.54-0.86,20.16C890.75,355.71,891,359.94,891,364.07Z" transform="translate(-50 -50)"/><path class="cls-1" d="M926.27,334.6v5.66c0,5.09-.67,10.08-0.67,15.17,0,4.32.38,8.54,0.38,12.86,0,2-.19,4.13-0.19,6.24s0.19,4.32.19,6.53a11.51,11.51,0,0,1-.38,3.55c-1.92,1.34-5.18,1.54-7.49,1.63a6,6,0,0,1-1.92-4.8c0-8.35,1-16.61,1-25,0-9.7-.86-19.49-0.86-29.09,0-3.94,2-4.32,4.8-4.32s5.66-.38,5.66,2.69C926.75,328.65,926.27,331.62,926.27,334.6Z" transform="translate(-50 -50)"/><path class="cls-1" d="M956.6,376.26c5.09,0,3.55,6.43,3.84,9.89-3.26.29-6.62,0.38-10,.38-1.73,0-13.63-.19-14.69-0.77-1.54-3.55-1.63-10.08-1.63-14.11,0-16.13-.38-32.45-0.38-48.57,1.54-1.54,3.46-1.54,5.47-1.54,4.61,0,9.22-.48,13.73-0.48a12.15,12.15,0,0,1,5.86,1.25c0.19,2.21.67,5.18,0.67,6.91,0,2.11-2.11,2.11-3.74,2.11-4.22,0-8.45.19-12.58,0.48,0,6.14-1,12.19-1,18.33a7.24,7.24,0,0,0,.1,1.44c3.07-.29,6.14-0.77,9.22-0.77,1.15,0,2.3.19,3.36,0.19a50.63,50.63,0,0,1,1.54,7.39c0,3-9.5,2.11-13.82,2.4v0.86c-0.1,2.4.48,4.8,0.48,7.2a33.5,33.5,0,0,0,.48,6.91,71.51,71.51,0,0,0,11,.58C955.16,376.35,955.93,376.26,956.6,376.26Z" transform="translate(-50 -50)"/><path class="cls-1" d="M1009.88,369a14.78,14.78,0,0,0,.67-4c0-.58.1-1.06-0.86-1.06-1.34,0-2.69.29-4,.29-3.65,0-3.84-2.59-3.84-5.47,0-3.07,2.59-3.36,6-3.36h2.4c1.73,0,3.55-.29,5.28-0.29a9.09,9.09,0,0,1,3.55.77,33.77,33.77,0,0,1,1,9.31c0,10.75-1.44,21.31-13.92,21.31-17.37,0-15.74-19.39-15.94-31.29-0.1-3.46-.48-6.91-0.48-10.37,0-7.3.77-13.92,8-17.57v0.1a18.41,18.41,0,0,1,7.49-1.92c5.38,0,14.11,4.51,14.11,9.22,0,2-3.74,4.7-5.28,4.7-1.34,0-6-4-8.06-4.61h0.1c-0.38,0-.86-0.1-1.34-0.1-5.57,0-5.57,4.22-5.57,8.45,0,4.7-.19,9.41-0.19,14.11a151.35,151.35,0,0,0,.86,16.13c0.29,2.4,1.34,4.9,4.9,4.9,4.7,0,4.42-6.14,5.28-9.31Z" transform="translate(-50 -50)"/><path class="cls-1" d="M1055.29,382.88a5.74,5.74,0,0,1-1.34,3.46c-2.4-.19-5,0.29-7.1-1-1.06-3.84-2.88-11.52-3.17-15.36-1.44-.1-2.78-0.19-4.22-0.19a20.87,20.87,0,0,0-3.46.19c-2.21,5.57-2.3,13.82-4.51,16.22-1.92,0-7.2,1.25-7.2-2.69a29.85,29.85,0,0,1,2-10v0.1a43.89,43.89,0,0,0,1.34-5.09l4.22-21.69c1.15-6.14,3.07-15.74,5.09-21.6,0.58-1.63,1.34-2.3,3.07-2.3,1,0,1.92.38,2.88,0.38a6.32,6.32,0,0,0,1.34-.1c1.73,2.69,2.5,12,7.78,42.52v-0.1C1053.08,369.73,1055.29,379,1055.29,382.88Zm-13-21.5c-0.38-4.42-.86-14.11-1.82-14.11l-2.78,14.4C1039.26,361.67,1040.79,361.38,1042.33,361.38Z" transform="translate(-50 -50)"/><path class="cls-1" d="M1097.43,324.9c0,18.24.86,36.57,0.86,55a28.58,28.58,0,0,1-.48,5.76,12.56,12.56,0,0,1-4.61.77c-3.94,0-4.61-1.63-4.61-4,0-1.15.19-2.5,0.19-3.94,0-7-.19-13.92-0.29-20.93-1.73,5.09-2.59,12.19-6.53,12.19-1.06,0-1.92-.19-2.88-0.19h-0.67c-2.21-3.74-3.36-8.54-5-12.58,0.29,5.38.38,10.56,0.38,15.93,0,3.46,0,9.7-1,12.86a8.83,8.83,0,0,1-3.17.58,11.46,11.46,0,0,1-5.57-1.44c-0.19-5.18-.1-2.69-0.1-16.89,0-15.46.19-42.33,1.92-44,1.34-.19,2.5-0.86,3.84-0.86,3.84,0,8,18.43,11,26.88l6.53-19.1a29.5,29.5,0,0,1,2.11-5.76l0.58-.38s4.7-.77,5-0.77A4.3,4.3,0,0,1,1097.43,324.9Z" transform="translate(-50 -50)"/><path class="cls-1" d="M1128.06,376.26c5.09,0,3.55,6.43,3.84,9.89-3.26.29-6.62,0.38-10,.38-1.73,0-13.63-.19-14.69-0.77-1.54-3.55-1.63-10.08-1.63-14.11,0-16.13-.38-32.45-0.38-48.57,1.54-1.54,3.46-1.54,5.47-1.54,4.61,0,9.22-.48,13.73-0.48a12.15,12.15,0,0,1,5.86,1.25c0.19,2.21.67,5.18,0.67,6.91,0,2.11-2.11,2.11-3.74,2.11-4.22,0-8.45.19-12.58,0.48,0,6.14-1,12.19-1,18.33a7.24,7.24,0,0,0,.1,1.44c3.07-.29,6.14-0.77,9.22-0.77,1.15,0,2.3.19,3.36,0.19a50.63,50.63,0,0,1,1.54,7.39c0,3-9.5,2.11-13.82,2.4v0.86c-0.1,2.4.48,4.8,0.48,7.2a33.5,33.5,0,0,0,.48,6.91,71.51,71.51,0,0,0,11,.58C1126.62,376.35,1127.38,376.26,1128.06,376.26Z" transform="translate(-50 -50)"/><path class="cls-1" d="M1170.29,366.85a17.68,17.68,0,0,1,.29,3.17c0,11.23-7.39,16.61-16.22,16.61-7.2,0-14.59-6.14-14.59-13.73,0-3.74,2.69-3.94,5.66-3.94a8.48,8.48,0,0,1,4.22,1.15c0,3.07,1.73,7.2,5.38,7.2a5.68,5.68,0,0,0,5.76-5.86c0-6.14-8.83-14.21-13.25-17.85l0.1,0.1c-5.76-4.7-8.45-8.16-8.45-15.84,0-9,6.34-15.65,15.55-15.65,4.32,0,9.89,2.21,11.81,6.34,1,2.11,2.78,5.28,2.78,7.68,0,2.88-4.32,3.36-6.53,3.36-6.14,0-1.54-8.16-9.7-8.16-1.06,0-2.3,1.06-3,1.82h0.1a8.65,8.65,0,0,0-2.21,5.57,7.4,7.4,0,0,0,.19,1.44c1.15,6.24,19.39,15.36,22.08,26.69v-0.1Z" transform="translate(-50 -50)"/><path class="cls-1" d="M535.6,460.69c-2.78.77-7.49,2.11-10.94,2.11h-2.59a23.23,23.23,0,0,0-2.59.1c-1.44-1.73-1.73-4.42-1.73-6.91,0-18.14-1-37.63.58-55.2,3.26-.58,6.43-1.54,9.79-1.54,9.6,0,15.45,4.42,15.45,13a19.25,19.25,0,0,1-4.51,11.9c6,4.51,5.38,9.6,5.38,18.72C544.43,449.94,543.66,458.38,535.6,460.69Zm-5.66-31.29a9.48,9.48,0,0,0-2.78.29c0,3.84-.1,7.58-0.1,11.33a85.65,85.65,0,0,0,.58,11.13c1.92-.38,4.7-0.19,6.14-1.63,1.25-1.15,2.11-9.6,2.11-11.42C535.89,434.39,536.37,429.39,529.94,429.39Zm-0.1-21.79c-0.67,0-1.44.1-2.21,0.1h-0.48c0.19,4,.29,13.63.58,13.63,3.65,0,5.86-4.22,6-4.51a7.4,7.4,0,0,0,.86-3.74C534.64,409.81,533.39,407.6,529.84,407.6Z" transform="translate(-50 -50)"/><path class="cls-1" d="M580.82,448.59c0,3.17-.29,7.2-2.78,9.5h0.1l-0.38.29c-4.32,3-4.32,4.42-10.56,4.42a15,15,0,0,1-9.7-3.46l0.1,0.1a11.27,11.27,0,0,1-3.46-5.18l0.1,0.1-0.29-.67c-3.46-8.83-3-26.88-3-32.25,0-14,5.86-22,16.8-22,3.46,0,7.2,2.69,9.41,5.18h-0.1c3.55,3.17,3.94,9.41,3.94,13.92C581,428.53,580.82,438.61,580.82,448.59Zm-16.41,3.84a6.22,6.22,0,0,0,3.65,1.06c1,0,2.21-.1,2.69-1.15,1-2.4,2.11-16,2.11-19.29,0-2.88-.29-5.86-0.29-8.83,0-1.92.19-3.74,0.19-5.66,0-3.65-.67-8.93-5.38-8.93-7.2,0-6.53,14.4-6.53,20.73,0,3.65.48,7.1,0.48,10.66s0.29,8.93,3.07,11.52v-0.1Z" transform="translate(-50 -50)"/><path class="cls-1" d="M619.69,443.22a17.67,17.67,0,0,1,.29,3.17c0,11.23-7.39,16.61-16.22,16.61-7.2,0-14.59-6.14-14.59-13.73,0-3.74,2.69-3.94,5.66-3.94a8.47,8.47,0,0,1,4.22,1.15c0,3.07,1.73,7.2,5.38,7.2a5.68,5.68,0,0,0,5.76-5.86c0-6.14-8.83-14.21-13.25-17.85l0.1,0.1c-5.76-4.7-8.45-8.16-8.45-15.84,0-9,6.34-15.65,15.55-15.65,4.32,0,9.89,2.21,11.81,6.33,1,2.11,2.78,5.28,2.78,7.68,0,2.88-4.32,3.36-6.53,3.36-6.14,0-1.54-8.16-9.7-8.16-1.06,0-2.3,1.06-3,1.82h0.1a8.65,8.65,0,0,0-2.21,5.57,7.39,7.39,0,0,0,.19,1.44c1.15,6.24,19.39,15.36,22.08,26.69v-0.1Z" transform="translate(-50 -50)"/><path class="cls-1" d="M631.6,405.78c-0.67,0-1.44.19-2.3,0.19a4.39,4.39,0,0,1-3.26-1.54,4.67,4.67,0,0,0,.1-1.15c0-.67-0.1-1.44-0.1-2.21,0-1.34.29-3.17,1.82-3.65h-0.1a8.15,8.15,0,0,1,2.11-.38c2.11,0,4.13.38,6.14,0.38,3.17,0,6.43-.1,9.6-0.1,1.73,0,3.36-.58,5-0.58s1.82,2.21,1.82,3.46c0,6.72-1.63,5.28-7.39,6.14-0.67,12.29-1.06,24.77-1.06,37.05,0,1.92.19,3.84,0.19,5.76,0,4.51-.29,8.93-0.48,13.44-1.06.1-2,.19-3.07,0.19-1.92,0-3.84-.38-5.76-0.38a20.94,20.94,0,0,1-.29-3.46c0-2.59.38-5.28,0.38-7.87,0-1.25-.1-2.59-0.1-3.84,0.38-6.43.48-10.46,0.48-13.25,0-9-.58-14.88-0.58-22.75a52.14,52.14,0,0,1,.19-5.47H631.6Z" transform="translate(-50 -50)"/><path class="cls-1" d="M683.82,448.59c0,3.17-.29,7.2-2.78,9.5h0.1l-0.38.29c-4.32,3-4.32,4.42-10.56,4.42a15,15,0,0,1-9.7-3.46l0.1,0.1a11.27,11.27,0,0,1-3.46-5.18l0.1,0.1-0.29-.67c-3.46-8.83-3-26.88-3-32.25,0-14,5.86-22,16.8-22,3.46,0,7.2,2.69,9.41,5.18h-0.1c3.55,3.17,3.94,9.41,3.94,13.92C684,428.53,683.82,438.61,683.82,448.59Zm-16.41,3.84a6.22,6.22,0,0,0,3.65,1.06c1,0,2.21-.1,2.69-1.15,1-2.4,2.11-16,2.11-19.29,0-2.88-.29-5.86-0.29-8.83,0-1.92.19-3.74,0.19-5.66,0-3.65-.67-8.93-5.38-8.93-7.2,0-6.53,14.4-6.53,20.73,0,3.65.48,7.1,0.48,10.66s0.29,8.93,3.07,11.52v-0.1Z" transform="translate(-50 -50)"/><path class="cls-1" d="M702.06,429.11c0,2.3-.29,4.61-0.48,6.91-0.67,7-1.06,14.59-1.06,21,0,1.25.1,2.5,0.19,3.65-0.67,2-3.46,2.11-5.47,2.11-2.4,0-3.65-.29-4.51-2.5,0.86-1.63,1-15.26,1-17.86,0-12.86,1-25.73,1-38.49,0-4.32,3.17-4.51,5.76-4.51h2.4c2.21,2.59,4.7,15.46,6.91,20.64,1.92,4.51,3.26,8.93,5.47,13.25,0-1.92-.19-3.74-0.19-5.66,0-7.78,1.25-15.46,1.25-23.23,0-1.06-.38-2.11-0.38-3.26a7.67,7.67,0,0,1,.77-3.17c2.78,0.67,9.89-.48,9.89,3.55,0,1.92-.38,4-0.48,6-0.58,14.88-1.63,29.37-1.92,45.21v3.74c0,5.38-1.34,6.62-5.09,6.62-1.34,0-3.17-.19-4.13-1.15-0.67-.86-9.22-25.82-9.79-28.41Z" transform="translate(-50 -50)"/><path class="cls-1" d="M772.91,416.91c0-3.26-1.82-8.83-5.86-8.83-2.3,0-3.84,3-4.32,4.8-0.86,3.07.58,5.38-5.38,5.38-3.74,0-4.8-.38-4.8-4.32a14.39,14.39,0,0,1,14.78-14.59c8.83,0,15.26,7.39,15.26,15.93,0,8.83-5.09,17.09-10.56,23.61v-0.1a58.05,58.05,0,0,0-6.34,8.74h0.1a15.54,15.54,0,0,0-2.21,5.38,23.87,23.87,0,0,0,4.51.38c3,0,6-.48,8.93-0.48,3.55,0,5.57.19,5.57,4.7V460c0,2.59-12.77,3.26-16,3.26-1.92,0-11.71,0-12.19-2.69a18.11,18.11,0,0,1-.29-3.94C754.1,438,772.91,427.47,772.91,416.91Z" transform="translate(-50 -50)"/><path class="cls-1" d="M807.37,462.7c-6,0-13-3.17-14.88-9.31-1-3.17-1-6.62-1.34-9.89a206.49,206.49,0,0,1-1.44-24.38c0-13.63,2.3-20,17.28-20a10,10,0,0,1,6.62,1.92c9.31,4.32,9.22,16.42,9.5,25.25,0.19,4.9,1,9.89,1,14.78C824.08,451.09,822.44,462.7,807.37,462.7Zm-6.43-12.09c2.5,1.82,4.22,2.78,7.49,2.78,4.7,0,5.66-3.46,5.66-7.39a111.83,111.83,0,0,0-.48-12.67c-0.67-6.24,0-12.48-1.06-18.62v0.1c-0.38-2.3-.38-3.65-2.21-5.18h-1a24.86,24.86,0,0,0-8.06,1.15c-2,2.4-1.92,8.74-1.92,11.81C799.41,426.32,800.27,448.69,800.94,450.61Z" transform="translate(-50 -50)"/><path class="cls-1" d="M844.62,461.65a10.85,10.85,0,0,1-4.22,1,8.73,8.73,0,0,1-3.74-.77c-0.19-4.51-.29-11.81-0.29-19.68,0-12.29.29-25.82,0.86-31.1-0.58,0-3.65,6.24-4.13,6l0.1,0.1a18.81,18.81,0,0,1-4.32-2.88v-0.38c0-2.88,6.34-10.94,7.49-14a4.82,4.82,0,0,1,3.07-.86c2.11,0,5.47,0,5.47,3.07,0,8.45-.58,16.8-0.58,25.15C844.33,438.71,844.62,450.22,844.62,461.65Z" transform="translate(-50 -50)"/><path class="cls-1" d="M861.71,419.31a8.89,8.89,0,0,1,4.9-1.25c11.81,0,14.88,11.71,14.88,20.16,0,9.22-4.61,24.57-15.65,24.57-15.55,0-14.69-20.73-14.69-34.17,0-9.41.38-28.41,13.54-28.41,7.87,0,14.88,5.86,14.88,13.92,0,2.5-2.59,2.69-4.7,2.69-9.79,0-2.3-4.8-8.54-7.1a1.64,1.64,0,0,0-.67-0.1C862.48,409.62,861.9,417.11,861.71,419.31Zm-0.38,23.42c0,2.88.29,9.7,4.32,9.7,4.8,0,5.86-10.27,5.86-13.63,0-2.59-1.15-9.89-4.7-9.89-3.94,0-5.47,7.3-5.47,10.18v3.65Z" transform="translate(-50 -50)"/><path class="cls-1" d="M581.88,235.83c-1.5-2.4-8.85-42.45-9.6-47.4-2.7,14.55-6,29.1-8.1,43.65-0.45,2.55-1.2,3.45-3.6,4l0.15-.15a12.46,12.46,0,0,1-4,.45,12,12,0,0,1-3.9-.45c-2.85-.9-14.1-44.4-15.3-50.55-1.95-9.75-3.3-19.95-4.95-29.85-0.6-4-2.25-10.95-2.25-15,0-1.2,7.8-1.2,9-1.2a77.26,77.26,0,0,1,8.25.3c0.6,4.8.3,9.6,0.75,14.25,0.3,3.6,1.35,7.2,2.1,10.8l4.2,21.75a105,105,0,0,1,1.65,12c1.5-6.15,6.9-45.3,8.85-47.1,1.2-1,3.3-1.2,4.65-1.2,2.1,0,5.55.45,7.2,1.8,2.4,1.95,10.5,46.95,10.8,52.65,2-11.1,2.1-23.7,3.6-35.4,0.45-3.75,3.9-32.1,6.45-33.45a14.79,14.79,0,0,0,2.55.3c0.3,0,.75-0.15,1-0.15,2.1,0,7.65,1.95,9.75,2.7-1.35,12.9-3.15,26.1-5.4,38.85-0.9,4.65-9.6,55.5-10.2,56.55-1.65,2.4-5.55,2.85-8.25,2.85A12.86,12.86,0,0,1,581.88,235.83Z" transform="translate(-50 -50)"/><path class="cls-1" d="M638.43,155.88v8.85c0,7.95-1,15.75-1,23.7,0,6.75.6,13.35,0.6,20.1,0,3.15-.3,6.45-0.3,9.75s0.3,6.75.3,10.2a18,18,0,0,1-.6,5.55c-3,2.1-8.1,2.4-11.7,2.55a9.43,9.43,0,0,1-3-7.5c0-13,1.5-25.95,1.5-39,0-15.15-1.35-30.45-1.35-45.45,0-6.15,3.15-6.75,7.5-6.75s8.85-.6,8.85,4.2C639.18,146.58,638.43,151.23,638.43,155.88Z" transform="translate(-50 -50)"/><path class="cls-1" d="M667.67,184.23c0,3.6-.45,7.2-0.75,10.8-1,10.95-1.65,22.8-1.65,32.85,0,1.95.15,3.9,0.3,5.7-1,3.15-5.4,3.3-8.55,3.3-3.75,0-5.7-.45-7-3.9,1.35-2.55,1.5-23.85,1.5-27.9,0-20.1,1.5-40.2,1.5-60.15,0-6.75,4.95-7,9-7h3.75c3.45,4,7.35,24.15,10.8,32.25,3,7,5.1,13.95,8.55,20.7,0-3-.3-5.85-0.3-8.85,0-12.15,2-24.15,2-36.3,0-1.65-.6-3.3-0.6-5.1a12,12,0,0,1,1.2-5c4.35,1.05,15.45-.75,15.45,5.55,0,3-.6,6.3-0.75,9.45-0.9,23.25-2.55,45.9-3,70.65v5.85c0,8.4-2.1,10.35-7.95,10.35-2.1,0-4.95-.3-6.45-1.8-1-1.35-14.4-40.35-15.3-44.4Z" transform="translate(-50 -50)"/><path class="cls-1" d="M728.57,184.23c0,3.6-.45,7.2-0.75,10.8-1,10.95-1.65,22.8-1.65,32.85,0,1.95.15,3.9,0.3,5.7-1,3.15-5.4,3.3-8.55,3.3-3.75,0-5.7-.45-7-3.9,1.35-2.55,1.5-23.85,1.5-27.9,0-20.1,1.5-40.2,1.5-60.15,0-6.75,4.95-7,9-7h3.75c3.45,4,7.35,24.15,10.8,32.25,3,7,5.1,13.95,8.55,20.7,0-3-.3-5.85-0.3-8.85,0-12.15,2-24.15,2-36.3,0-1.65-.6-3.3-0.6-5.1a12,12,0,0,1,1.2-5c4.35,1.05,15.45-.75,15.45,5.55,0,3-.6,6.3-0.75,9.45-0.9,23.25-2.55,45.9-3,70.65v5.85c0,8.4-2.1,10.35-7.95,10.35-2.1,0-4.95-.3-6.45-1.8-1-1.35-14.4-40.35-15.3-44.4Z" transform="translate(-50 -50)"/><path class="cls-1" d="M807.62,221c7.95,0,5.55,10,6,15.45-5.1.45-10.35,0.6-15.6,0.6-2.7,0-21.3-.3-22.95-1.2-2.4-5.55-2.55-15.75-2.55-22,0-25.2-.6-50.7-0.6-75.9,2.4-2.4,5.4-2.4,8.55-2.4,7.2,0,14.4-.75,21.45-0.75a19,19,0,0,1,9.15,2c0.3,3.45,1,8.1,1,10.8,0,3.3-3.3,3.3-5.85,3.3-6.6,0-13.2.3-19.65,0.75,0,9.6-1.5,19-1.5,28.65a11.32,11.32,0,0,0,.15,2.25c4.8-.45,9.6-1.2,14.4-1.2,1.8,0,3.6.3,5.25,0.3,0.6,1.95,2.4,9.6,2.4,11.55,0,4.65-14.85,3.3-21.6,3.75v1.35c-0.15,3.75.75,7.5,0.75,11.25a52.35,52.35,0,0,0,.75,10.8,111.79,111.79,0,0,0,17.25.9C805.37,221.13,806.57,221,807.62,221Z" transform="translate(-50 -50)"/><path class="cls-1" d="M833.57,235.08a3.8,3.8,0,0,1-1.8-.3l0.6,0.3h-0.75c-2.7,0-6.75.15-7.5-3.3v0.15a65.53,65.53,0,0,1-.45-8.85c0-4.35.15-9,.15-11.4,0-8.1.15-71.4,3.3-74.4,1.8-1.65,10.5-2,12.75-2,6,0,17.7,1,22.2,5.85,5.4,5.7,7,26.85,7,34.8,0,7.35-.9,15.3-6.6,20.55a61.46,61.46,0,0,1,3.6,5.85c2.4,5.55,2.4,23.85,2.4,30.45v2.25a10.14,10.14,0,0,1-6,1.8c-6.9,0-9.9.6-9.9-8.1,0-3.75.45-7.65,0.45-11.4,0-6.3,1.2-15.6-8.1-15.6a31.51,31.51,0,0,0-6.45.75c0,5.4-.6,29.1-3.6,32.4A4.16,4.16,0,0,1,833.57,235.08Zm4.8-85.35c0,7.5-.3,15-0.3,22.35v8.1c0,2.55.15,5.1,0.3,7.8h5.25c5.1,0,11.85-.75,12.3-7.35l-0.15.15c0-7.8,0-16-1-23.55-1.05-6.45-7-7.8-12.75-7.8A14.62,14.62,0,0,0,838.37,149.73Z" transform="translate(-50 -50)"/><path class="cls-1" d="M440,296.28c3.71,0,2.59,4.69,2.8,7.21-2.38.21-4.83,0.28-7.28,0.28-1.26,0-9.94-.14-10.71-0.56-1.12-2.59-1.19-7.35-1.19-10.29,0-11.76-.28-23.66-0.28-35.42,1.12-1.12,2.52-1.12,4-1.12,3.36,0,6.72-.35,10-0.35a8.86,8.86,0,0,1,4.27.91c0.14,1.61.49,3.78,0.49,5,0,1.54-1.54,1.54-2.73,1.54-3.08,0-6.16.14-9.17,0.35,0,4.48-.7,8.89-0.7,13.37a5.31,5.31,0,0,0,.07,1.05c2.24-.21,4.48-0.56,6.72-0.56,0.84,0,1.68.14,2.45,0.14a36.87,36.87,0,0,1,1.12,5.39c0,2.17-6.93,1.54-10.08,1.75v0.63c-0.07,1.75.35,3.5,0.35,5.25a24.43,24.43,0,0,0,.35,5,52.13,52.13,0,0,0,8.05.42C439,296.35,439.53,296.28,440,296.28Z" transform="translate(-50 -50)"/><path class="cls-1" d="M453.95,288.79c0,1.68.14,3.29,0.14,4.83q0,4.1-.21,8.19c-0.07,1.68-.77,1.75-3.15,1.75-1.54,0-3.15-.21-3.15-2,0-10.78.91-21.56,0.91-32.34,0-2.59-.14-5.25-0.14-7.84,0-4.34,4-4,8.4-4,11.2,0,11.55,8.4,11.55,17.85,0,6.16-.77,12.25-9.45,12.25-1.61,0-3.15-.28-4.83-0.28A12.88,12.88,0,0,0,453.95,288.79ZM461,265h0.07a7.82,7.82,0,0,0-4.62-1.26c-0.77,0-1.61.14-2.38,0.21,0.07,2.59.14,5.11,0.14,7.63,0,3.43-.07,6.79-0.07,10.08h0.63c1.33,0,4.06.07,5.11-.49,1.89-1,2.38-6,2.38-7.84C462.28,270.65,461.86,265.75,461,265Z" transform="translate(-50 -50)"/><path class="cls-1" d="M479.92,265.89V270c0,3.71-.49,7.35-0.49,11.06,0,3.15.28,6.23,0.28,9.38,0,1.47-.14,3-0.14,4.55s0.14,3.15.14,4.76a8.39,8.39,0,0,1-.28,2.59c-1.4,1-3.78,1.12-5.46,1.19a4.4,4.4,0,0,1-1.4-3.5c0-6.09.7-12.11,0.7-18.2,0-7.07-.63-14.21-0.63-21.21,0-2.87,1.47-3.15,3.5-3.15s4.13-.28,4.13,2S479.92,263.72,479.92,265.89Z" transform="translate(-50 -50)"/><path class="cls-1" d="M506.8,295.23A3.12,3.12,0,0,1,506,297c-2.17,3.08-5,6.65-9.1,6.65-8.33,0-11.48-7.49-11.48-14.21,0-3,.14-6,0.14-9,0-7.77-.14-22.75,10.57-23.45h0.42c4.62,0,10.36,4.41,10.36,9.38,0,0.63-4.41,1.68-5.11,1.68-2.59,0-1.68-4.48-4.9-4.48-3.78,0-4.48,6.58-4.55,9.45q-0.21,7.88-.21,15.75c0,2.59.42,8.26,4.13,8.26,2.87,0,2.17-4.2,5.46-4.2C503.09,292.92,506.8,293.34,506.8,295.23Z" transform="translate(-50 -50)"/><path class="cls-1" d="M551.74,289.42a12.88,12.88,0,0,1,.21,2.31c0,8.19-5.39,12.11-11.83,12.11-5.25,0-10.64-4.48-10.64-10,0-2.73,2-2.87,4.13-2.87a6.18,6.18,0,0,1,3.08.84c0,2.24,1.26,5.25,3.92,5.25a4.14,4.14,0,0,0,4.2-4.27c0-4.48-6.44-10.36-9.66-13l0.07,0.07c-4.2-3.43-6.16-6-6.16-11.55,0-6.58,4.62-11.41,11.34-11.41,3.15,0,7.21,1.61,8.61,4.62,0.7,1.54,2,3.85,2,5.6,0,2.1-3.15,2.45-4.76,2.45-4.48,0-1.12-6-7.07-6a3.58,3.58,0,0,0-2.17,1.33h0.07A6.31,6.31,0,0,0,535.5,269a5.42,5.42,0,0,0,.14,1.05c0.84,4.55,14.14,11.2,16.1,19.46v-0.07Z" transform="translate(-50 -50)"/><path class="cls-1" d="M577.78,295.23a3.12,3.12,0,0,1-.84,1.82c-2.17,3.08-5,6.65-9.1,6.65-8.33,0-11.48-7.49-11.48-14.21,0-3,.14-6,0.14-9,0-7.77-.14-22.75,10.57-23.45h0.42c4.62,0,10.36,4.41,10.36,9.38,0,0.63-4.41,1.68-5.11,1.68-2.59,0-1.68-4.48-4.9-4.48-3.78,0-4.48,6.58-4.55,9.45q-0.21,7.88-.21,15.75c0,2.59.42,8.26,4.13,8.26,2.87,0,2.17-4.2,5.46-4.2C574.07,292.92,577.78,293.34,577.78,295.23Z" transform="translate(-50 -50)"/><path class="cls-1" d="M604.59,293.34c0,2.31-.21,5.25-2,6.93h0.07l-0.28.21c-3.15,2.17-3.15,3.22-7.7,3.22a10.94,10.94,0,0,1-7.07-2.52l0.07,0.07a8.22,8.22,0,0,1-2.52-3.78l0.07,0.07L585,297c-2.52-6.44-2.17-19.6-2.17-23.52,0-10.22,4.27-16,12.25-16,2.52,0,5.25,2,6.86,3.78h-0.07c2.59,2.31,2.87,6.86,2.87,10.15C604.73,278.71,604.59,286.06,604.59,293.34Zm-12,2.8a4.54,4.54,0,0,0,2.66.77,2,2,0,0,0,2-.84c0.7-1.75,1.54-11.69,1.54-14.07,0-2.1-.21-4.27-0.21-6.44,0-1.4.14-2.73,0.14-4.13,0-2.66-.49-6.51-3.92-6.51-5.25,0-4.76,10.5-4.76,15.12,0,2.66.35,5.18,0.35,7.77s0.21,6.51,2.24,8.4v-0.07Z" transform="translate(-50 -50)"/><path class="cls-1" d="M614.53,288.79c0,1.68.14,3.29,0.14,4.83q0,4.1-.21,8.19c-0.07,1.68-.77,1.75-3.15,1.75-1.54,0-3.15-.21-3.15-2,0-10.78.91-21.56,0.91-32.34,0-2.59-.14-5.25-0.14-7.84,0-4.34,4-4,8.4-4,11.2,0,11.55,8.4,11.55,17.85,0,6.16-.77,12.25-9.45,12.25-1.61,0-3.15-.28-4.83-0.28A13,13,0,0,0,614.53,288.79ZM621.6,265h0.07a7.82,7.82,0,0,0-4.62-1.26c-0.77,0-1.61.14-2.38,0.21,0.07,2.59.14,5.11,0.14,7.63,0,3.43-.07,6.79-0.07,10.08h0.63c1.33,0,4.06.07,5.11-.49,1.89-1,2.38-6,2.38-7.84C622.86,270.65,622.44,265.75,621.6,265Z" transform="translate(-50 -50)"/><path class="cls-1" d="M650.51,296.28c3.71,0,2.59,4.69,2.8,7.21-2.38.21-4.83,0.28-7.28,0.28-1.26,0-9.94-.14-10.71-0.56-1.12-2.59-1.19-7.35-1.19-10.29,0-11.76-.28-23.66-0.28-35.42,1.12-1.12,2.52-1.12,4-1.12,3.36,0,6.72-.35,10-0.35a8.86,8.86,0,0,1,4.27.91c0.14,1.61.49,3.78,0.49,5,0,1.54-1.54,1.54-2.73,1.54-3.08,0-6.16.14-9.17,0.35,0,4.48-.7,8.89-0.7,13.37a5.31,5.31,0,0,0,.07,1.05c2.24-.21,4.48-0.56,6.72-0.56,0.84,0,1.68.14,2.45,0.14a36.93,36.93,0,0,1,1.12,5.39c0,2.17-6.93,1.54-10.08,1.75v0.63c-0.07,1.75.35,3.5,0.35,5.25a24.43,24.43,0,0,0,.35,5,52.13,52.13,0,0,0,8.05.42C649.46,296.35,650,296.28,650.51,296.28Z" transform="translate(-50 -50)"/><path class="cls-1" d="M697.69,301.11a4.19,4.19,0,0,1-1,2.52c-1.75-.14-3.64.21-5.18-0.7a79.59,79.59,0,0,1-2.31-11.2c-1.05-.07-2-0.14-3.08-0.14a15.2,15.2,0,0,0-2.52.14c-1.61,4.06-1.68,10.08-3.29,11.83-1.4,0-5.25.91-5.25-2a21.77,21.77,0,0,1,1.47-7.28v0.07a32,32,0,0,0,1-3.71l3.08-15.82a132,132,0,0,1,3.71-15.75,2.07,2.07,0,0,1,2.24-1.68c0.7,0,1.4.28,2.1,0.28a4.6,4.6,0,0,0,1-.07c1.26,2,1.82,8.75,5.67,31v-0.07C696.08,291.52,697.69,298.31,697.69,301.11Zm-9.45-15.68c-0.28-3.22-.63-10.29-1.33-10.29l-2,10.5C686,285.64,687.12,285.43,688.24,285.43Z" transform="translate(-50 -50)"/><path class="cls-1" d="M712.25,279.13c0,1.68-.21,3.36-0.35,5-0.49,5.11-.77,10.64-0.77,15.33,0,0.91.07,1.82,0.14,2.66-0.49,1.47-2.52,1.54-4,1.54-1.75,0-2.66-.21-3.29-1.82,0.63-1.19.7-11.13,0.7-13,0-9.38.7-18.76,0.7-28.07,0-3.15,2.31-3.29,4.2-3.29h1.75c1.61,1.89,3.43,11.27,5,15.05,1.4,3.29,2.38,6.51,4,9.66,0-1.4-.14-2.73-0.14-4.13,0-5.67.91-11.27,0.91-16.94,0-.77-0.28-1.54-0.28-2.38a5.6,5.6,0,0,1,.56-2.31c2,0.49,7.21-.35,7.21,2.59,0,1.4-.28,2.94-0.35,4.41-0.42,10.85-1.19,21.42-1.4,33v2.73c0,3.92-1,4.83-3.71,4.83a4.48,4.48,0,0,1-3-.84c-0.49-.63-6.72-18.83-7.14-20.72Z" transform="translate(-50 -50)"/><path class="cls-1" d="M732.76,282.77c0-1.47-.14-2.94-0.14-4.48,0-3.15.21-6.3,0.21-9.52v-4.69a29.52,29.52,0,0,1,.56-6.93,9.81,9.81,0,0,1,4-.7h1.05c3.92,0,10.36.42,12.81,3.85,2,3,2,8.05,2,11.55,0,2.8-.28,5.53-0.28,8.33,0,2.17.07,4.2,0.07,6.37s0,7.42-.56,9.31c-2.31,7.28-9.66,7.84-16.52,7.84-3.78,0-3.5-1.61-3.5-4.27,0-3.15.14-6.3,0.14-9.45C732.62,287.53,732.76,285.15,732.76,282.77Zm6.44,4.62c0,3.29-.28,6.58-0.28,9.94h0.35a22.49,22.49,0,0,0,4.76-.77c3.22-.7,2.66-8.12,2.73-12.25s0.35-8.4.35-12.53c0-4.48.14-8.33-5.39-8.33a21,21,0,0,0-2.1.07c-0.14,4.9-.63,9.87-0.63,14.7C739,281.3,739.2,284.38,739.2,287.39Z" transform="translate(-50 -50)"/><path class="cls-1" d="M789.53,291A10.79,10.79,0,0,0,790,288c0-.42.07-0.77-0.63-0.77-1,0-2,.21-2.94.21-2.66,0-2.8-1.89-2.8-4s1.89-2.45,4.41-2.45h1.75c1.26,0,2.59-.21,3.85-0.21a6.63,6.63,0,0,1,2.59.56,24.63,24.63,0,0,1,.7,6.79c0,7.84-1,15.54-10.15,15.54-12.67,0-11.48-14.14-11.62-22.82-0.07-2.52-.35-5-0.35-7.56,0-5.32.56-10.15,5.81-12.81v0.07a13.42,13.42,0,0,1,5.46-1.4c3.92,0,10.29,3.29,10.29,6.72,0,1.47-2.73,3.43-3.85,3.43s-4.34-2.94-5.88-3.36h0.07c-0.28,0-.63-0.07-1-0.07-4.06,0-4.06,3.08-4.06,6.16,0,3.43-.14,6.86-0.14,10.29a110.36,110.36,0,0,0,.63,11.76c0.21,1.75,1,3.57,3.57,3.57,3.43,0,3.22-4.48,3.85-6.79Z" transform="translate(-50 -50)"/><path class="cls-1" d="M822.64,301.11a4.19,4.19,0,0,1-1,2.52c-1.75-.14-3.64.21-5.18-0.7a79.59,79.59,0,0,1-2.31-11.2c-1.05-.07-2-0.14-3.08-0.14a15.2,15.2,0,0,0-2.52.14c-1.61,4.06-1.68,10.08-3.29,11.83-1.4,0-5.25.91-5.25-2a21.77,21.77,0,0,1,1.47-7.28v0.07a32,32,0,0,0,1-3.71l3.08-15.82a132,132,0,0,1,3.71-15.75,2.07,2.07,0,0,1,2.24-1.68c0.7,0,1.4.28,2.1,0.28a4.6,4.6,0,0,0,1-.07c1.26,2,1.82,8.75,5.67,31v-0.07C821,291.52,822.64,298.31,822.64,301.11Zm-9.45-15.68c-0.28-3.22-.63-10.29-1.33-10.29l-2,10.5C811,285.64,812.07,285.43,813.19,285.43Z" transform="translate(-50 -50)"/><path class="cls-1" d="M853.38,258.82c0,13.3.63,26.67,0.63,40.11a20.82,20.82,0,0,1-.35,4.2,9.17,9.17,0,0,1-3.36.56c-2.87,0-3.36-1.19-3.36-2.94,0-.84.14-1.82,0.14-2.87,0-5.11-.14-10.15-0.21-15.26-1.26,3.71-1.89,8.89-4.76,8.89-0.77,0-1.4-.14-2.1-0.14h-0.49c-1.61-2.73-2.45-6.23-3.64-9.17,0.21,3.92.28,7.7,0.28,11.62,0,2.52,0,7.07-.7,9.38a6.43,6.43,0,0,1-2.31.42,8.36,8.36,0,0,1-4.06-1.05c-0.14-3.78-.07-2-0.07-12.32,0-11.27.14-30.87,1.4-32.06a20.17,20.17,0,0,1,2.8-.63c2.8,0,5.81,13.44,8.05,19.6L846,263.23a21.51,21.51,0,0,1,1.54-4.2l0.42-.28s3.43-.56,3.64-0.56A3.13,3.13,0,0,1,853.38,258.82Z" transform="translate(-50 -50)"/><path class="cls-1" d="M875.71,296.28c3.71,0,2.59,4.69,2.8,7.21-2.38.21-4.83,0.28-7.28,0.28-1.26,0-9.94-.14-10.71-0.56-1.12-2.59-1.19-7.35-1.19-10.29,0-11.76-.28-23.66-0.28-35.42,1.12-1.12,2.52-1.12,4-1.12,3.36,0,6.72-.35,10-0.35a8.86,8.86,0,0,1,4.27.91c0.14,1.61.49,3.78,0.49,5,0,1.54-1.54,1.54-2.73,1.54-3.08,0-6.16.14-9.17,0.35,0,4.48-.7,8.89-0.7,13.37a5.31,5.31,0,0,0,.07,1.05c2.24-.21,4.48-0.56,6.72-0.56,0.84,0,1.68.14,2.45,0.14a36.87,36.87,0,0,1,1.12,5.39c0,2.17-6.93,1.54-10.08,1.75v0.63c-0.07,1.75.35,3.5,0.35,5.25a24.43,24.43,0,0,0,.35,5,52.13,52.13,0,0,0,8.05.42C874.66,296.35,875.22,296.28,875.71,296.28Z" transform="translate(-50 -50)"/><path class="cls-1" d="M889.63,288.79c0,1.68.14,3.29,0.14,4.83q0,4.1-.21,8.19c-0.07,1.68-.77,1.75-3.15,1.75-1.54,0-3.15-.21-3.15-2,0-10.78.91-21.56,0.91-32.34,0-2.59-.14-5.25-0.14-7.84,0-4.34,4-4,8.4-4,11.2,0,11.55,8.4,11.55,17.85,0,6.16-.77,12.25-9.45,12.25-1.61,0-3.15-.28-4.83-0.28A12.88,12.88,0,0,0,889.63,288.79Zm7.07-23.8h0.07a7.82,7.82,0,0,0-4.62-1.26c-0.77,0-1.61.14-2.38,0.21,0.07,2.59.14,5.11,0.14,7.63,0,3.43-.07,6.79-0.07,10.08h0.63c1.33,0,4.06.07,5.11-.49,1.89-1,2.38-6,2.38-7.84C898,270.65,897.55,265.75,896.71,265Z" transform="translate(-50 -50)"/><path class="cls-1" d="M926.39,301.32v0.28c-0.21,2.17-4.9,1.89-10.08,1.89-3.08,0-5.74.63-6.3-2h0.07c-0.91-2.73-1-18-1-26.11,0-6.16.56-7.14,0.56-10.85,0-.84-0.07-1.68-0.07-2.66,0-1.61.35-2.94,2.24-2.94,2.31,0,4.27.35,4.27,3.92,0,1.61-.35,3.29-0.35,4.9,0,2.38.21,4.69,0.21,7.07,0,1.19,0,2.38-.07,3.57v-0.07c-0.07,3.29-.14,6.51-0.14,9.8a60.52,60.52,0,0,0,.35,8.89c2.38,0.7,6.44.28,9.66,1.12A9.71,9.71,0,0,1,926.39,301.32Z" transform="translate(-50 -50)"/><path class="cls-1" d="M954,301.11a4.19,4.19,0,0,1-1,2.52c-1.75-.14-3.64.21-5.18-0.7a79.59,79.59,0,0,1-2.31-11.2c-1.05-.07-2-0.14-3.08-0.14a15.2,15.2,0,0,0-2.52.14c-1.61,4.06-1.68,10.08-3.29,11.83-1.4,0-5.25.91-5.25-2a21.77,21.77,0,0,1,1.47-7.28v0.07a32,32,0,0,0,1-3.71L937,274.86a132,132,0,0,1,3.71-15.75,2.07,2.07,0,0,1,2.24-1.68c0.7,0,1.4.28,2.1,0.28a4.6,4.6,0,0,0,1-.07c1.26,2,1.82,8.75,5.67,31v-0.07C952.43,291.52,954,298.31,954,301.11Zm-9.45-15.68c-0.28-3.22-.63-10.29-1.33-10.29l-2,10.5C942.35,285.64,943.47,285.43,944.59,285.43Z" transform="translate(-50 -50)"/><path class="cls-1" d="M967.48,303.28c-0.35,0-.77-0.07-1.12-0.07-0.07,0-.35.07-0.42,0.07v-0.07a3.27,3.27,0,0,1-1.19.21c-1.33,0-1.33-2.52-1.33-5.67,0-1.75.07-3.36,0.07-4.06,0.07-4.34.07-9.73-1.54-13.09-2.59-5.46-4.2-11.55-6.3-17.22v0.07a20.37,20.37,0,0,1-1.68-4.27c0-1.33,4.34-2,5.32-2,0.28,0,1.33.07,1.47,0.49,0.35,1.33,4.27,14.63,4.55,14.91,0.84-2.17,4.48-13,4.55-14.77a1.92,1.92,0,0,1,1.75-1.05c2,0,4.48-.21,4.48,1.61a15.2,15.2,0,0,1-1.19,4.48l0.07-.14c-0.84,3.08-6,18.69-6,21.07,0,0.91-.07,1.82-0.07,2.73,0,1.82.07,3.64,0.07,5.46C969,297.47,969.44,303.28,967.48,303.28Z" transform="translate(-50 -50)"/></svg>